<svg id="Layer_1" data-name="Layer 1" xmlns="http://www.w3.org/2000/svg" viewBox="0 0 28 28"><defs><style>.cls-1{fill:#274ecc;}</style></defs><title>call_small</title><path class="cls-1" d="M5.7,2.82l4.59,4.61L8.45,9.29a2.83,2.83,0,0,0,0,4.48l5.78,5.78a3.21,3.21,0,0,0,2.24,1.1,3.21,3.21,0,0,0,2.25-1.1l1.81-1.83,4.63,4.59-1.85,1.85a6.09,6.09,0,0,1-8.73,0L3.85,13.42A6.23,6.23,0,0,1,2,9.15,6.12,6.12,0,0,1,3.85,4.68L5.7,2.82M5.72,0,4.91.79,2.43,3.27A8.1,8.1,0,0,0,0,9.19a8.22,8.22,0,0,0,2.43,5.64L13.16,25.57a8.09,8.09,0,0,0,11.56,0L28,22.3l-7.48-7.41L17.3,18.13c-.34.34-.58.51-.83.51s-.49-.17-.83-.51L9.86,12.35c-.68-.68-.68-1,0-1.65l3.25-3.27L5.72,0Z"/></svg>