<svg xmlns="http://www.w3.org/2000/svg" width="18" height="4" viewBox="0 0 18 4">
  <path fill="#FFFFFF" fill-rule="evenodd" d="M22,26 C20.8954305,26 20,25.1045695 20,24 C20,22.8954305 20.8954305,22 22,22 C23.1045695,22 24,22.8954305 24,24 C24,25.1045695 23.1045695,26 22,26 Z M29,26 C27.8954305,26 27,25.1045695 27,24 C27,22.8954305 27.8954305,22 29,22 C30.1045695,22 31,22.8954305 31,24 C31,25.1045695 30.1045695,26 29,26 Z M36,26 C34.8954305,26 34,25.1045695 34,24 C34,22.8954305 34.8954305,22 36,22 C37.1045695,22 38,22.8954305 38,24 C38,25.1045695 37.1045695,26 36,26 Z" transform="translate(-20 -22)"/>
</svg>
