<svg id="Layer_1" data-name="Layer 1" xmlns="http://www.w3.org/2000/svg" viewBox="0 0 28 28"><defs><style>.cls-1{fill:#274ecc;}</style></defs><title>email_small</title><path class="cls-1" d="M14,2A12,12,0,1,1,2,14,12,12,0,0,1,14,2m0-2A14,14,0,1,0,28,14,14,14,0,0,0,14,0Z"/><path class="cls-1" d="M14.2,5C20.13,5,23,8.7,23,13.26c0,2.58-1.28,5.59-4.37,5.59A2.53,2.53,0,0,1,15.91,17a3.52,3.52,0,0,1-3.34,1.81c-2.23,0-3.32-1.92-3.32-3.92,0-3.09,1.94-5.79,5.36-5.79a7.32,7.32,0,0,1,3.81,1.17L17.64,14c-.35,1.63.1,2.64,1.26,2.64s2-1.4,2-3.42C20.88,9.63,18.77,7,14.2,7,10.92,7,7.13,9.51,7.13,14.7,7.13,18.1,9,21,12.86,21a7.63,7.63,0,0,0,3.42-.74l.66,1.92a9.33,9.33,0,0,1-4.1.87c-5.11,0-7.89-3.73-7.89-8.22C4.94,8.5,9.48,5,14.2,5ZM13.11,16.64c1,0,1.79-.64,2.33-3.28l.37-1.81a3.87,3.87,0,0,0-1.38-.25C12.8,11.3,12,12.78,12,14.76,12,16,12.38,16.64,13.11,16.64Z"/></svg>