<svg id="Layer_1" data-name="Layer 1" xmlns="http://www.w3.org/2000/svg" viewBox="0 0 28 28"><defs><style>.cls-1{fill:none;stroke:#274ecc;stroke-miterlimit:10;stroke-width:2px;}.cls-2{fill:#274ecc;}</style></defs><title>fax_small</title><polyline class="cls-1" points="12 8 7 8 7 25 27 25 27 8 22 8"/><path class="cls-2" d="M6,7V26H2V7H6M8,5H0V28H8V5Z"/><path class="cls-2" d="M22,2V12H12V2H22m2-2H10V14H24V0Z"/><path class="cls-2" d="M13,16a1,1,0,1,0,1,1,1,1,0,0,0-1-1Z"/><path class="cls-2" d="M17,16a1,1,0,1,0,1,1,1,1,0,0,0-1-1Z"/><path class="cls-2" d="M21,16a1,1,0,1,0,1,1,1,1,0,0,0-1-1Z"/><path class="cls-2" d="M13,20a1,1,0,1,0,1,1,1,1,0,0,0-1-1Z"/><path class="cls-2" d="M17,20a1,1,0,1,0,1,1,1,1,0,0,0-1-1Z"/><path class="cls-2" d="M21,20a1,1,0,1,0,1,1,1,1,0,0,0-1-1Z"/></svg>