<svg id="Layer_1" data-name="Layer 1" xmlns="http://www.w3.org/2000/svg" viewBox="0 0 112 112"><defs><style>.cls-1{fill:#274ecc;}</style></defs><title>nfc</title><path class="cls-1" d="M72,39a1,1,0,0,1,1,1V72a1,1,0,0,1-1,1H40a1,1,0,0,1-1-1V40a1,1,0,0,1,1-1H72m0-3H40a4,4,0,0,0-4,4V72a4,4,0,0,0,4,4H72a4,4,0,0,0,4-4V40a4,4,0,0,0-4-4Z"/><path class="cls-1" d="M56,3A53,53,0,1,1,3,56,53.06,53.06,0,0,1,56,3m0-3a56,56,0,1,0,56,56A56,56,0,0,0,56,0Z"/><path class="cls-1" d="M62,60.11h0v-4L45,40.61V60.5C45,68.34,46,76,58.5,76V73C48.73,73,48,68.05,48,60.5V47.39Z"/><path class="cls-1" d="M53.5,36v3C63.27,39,64,43.95,64,51.5V64.61L50,51.89h0v4L67,71.39V51.5C67,43.66,66,36,53.5,36Z"/></svg>