<svg id="Layer_1" data-name="Layer 1" xmlns="http://www.w3.org/2000/svg" viewBox="0 0 112 112"><defs><style>.cls-1{fill:#274ecc;}</style></defs><title>outlets</title><path class="cls-1" d="M56,3A53,53,0,1,1,3,56,53.06,53.06,0,0,1,56,3m0-3a56,56,0,1,0,56,56A56,56,0,0,0,56,0Z"/><path class="cls-1" d="M69.66,39A27.47,27.47,0,0,1,76,56a27.72,27.72,0,0,1-6.35,17H42.34A27.47,27.47,0,0,1,36,56a27.72,27.72,0,0,1,6.35-17H69.66M71,36H41a30.6,30.6,0,0,0-8,20,30.6,30.6,0,0,0,8,20H71a30.6,30.6,0,0,0,8-20,30.6,30.6,0,0,0-8-20Z"/><polygon class="cls-1" points="65 48 62 48 62 55 65 55 65 48 65 48"/><polygon class="cls-1" points="50 48 47 48 47 55 50 55 50 48 50 48"/><path class="cls-1" d="M56,61v1h0V61h0m0-3a3,3,0,0,0-3,3v4h6V61a3,3,0,0,0-3-3Z"/></svg>