<svg xmlns="http://www.w3.org/2000/svg" width="6" height="14" viewBox="0 0 6 14">
  <path fill="#FFFFFF" fill-rule="evenodd" d="M0,10.2307692 C0,12.3092308 1.884,14 4.2,14 L5.4,14 C5.73,14 6,13.7587692 6,13.4615385 L6,10.2307692 C6,9.93353846 5.73,9.69230769 5.4,9.69230769 L4.8,9.69230769 C3.8076,9.69230769 3,8.96753846 3,8.07692308 L3,5.92307692 C3,5.03246154 3.8076,4.30769231 4.8,4.30769231 L5.4,4.30769231 C5.73,4.30769231 6,4.06646154 6,3.76923077 L6,0.538461538 C6,0.241230769 5.73,0 5.4,0 L4.2,0 C1.884,0 0,1.69076923 0,3.76923077 L0,10.2307692 Z"/>
</svg>
