<svg id="Layer_1" data-name="Layer 1" xmlns="http://www.w3.org/2000/svg" viewBox="0 0 28 28"><defs><style>.cls-1,.cls-2{fill:none;stroke:#274ecc;stroke-miterlimit:10;stroke-width:2px;}.cls-2{stroke-linecap:round;}.cls-3{fill:#274ecc;}</style></defs><title>singleDayAlarm_small</title><path class="cls-1" d="M2,16q0-.49,0-1A12,12,0,1,1,19,25.91"/><path class="cls-2" d="M22,1.14a16.08,16.08,0,0,1,5,4.53"/><path class="cls-2" d="M6,1.14A16.08,16.08,0,0,0,1,5.67"/><polyline class="cls-1" points="14 8 14 14 19 14"/><path class="cls-3" d="M0,26.37l3.11-2.55c1.16-1,1.62-1.47,1.62-2.24a1.15,1.15,0,0,0-1.25-1.22c-.72,0-1.22.4-1.91,1.26L.12,20.46a3.9,3.9,0,0,1,3.49-1.94c1.94,0,3.22,1.14,3.22,2.88v0C6.82,23,6,23.77,4.37,25L2.84,26.22H6.92V28H0Z"/><path class="cls-3" d="M12.78,26H8.22l-.33-1.46L13,18.59h1.74v5.73H16V26H14.74v2h-2Zm0-1.67V21.4L10.3,24.31Z"/></svg>