<svg id="Layer_1" data-name="Layer 1" xmlns="http://www.w3.org/2000/svg" viewBox="0 0 112 112"><defs><style>.cls-1{fill:#274ecc;}.cls-2{fill:none;stroke:#274ecc;stroke-miterlimit:10;stroke-width:3px;}</style></defs><title>singleDayAlarm_large</title><path class="cls-1" d="M56,3A53,53,0,1,1,3,56,53.06,53.06,0,0,1,56,3m0-3a56,56,0,1,0,56,56A56,56,0,0,0,56,0Z"/><polyline class="cls-2" points="61 44.5 61 53.5 67 53.5"/><path class="cls-1" d="M32,73.56l4.66-3.82c1.74-1.44,2.42-2.2,2.42-3.36a1.72,1.72,0,0,0-1.88-1.82c-1.08,0-1.82.6-2.86,1.88L32.16,64.7c1.38-1.88,2.72-2.9,5.22-2.9,2.9,0,4.82,1.7,4.82,4.32v0c0,2.34-1.2,3.5-3.68,5.42l-2.28,1.76h6.1V76H32Z"/><path class="cls-1" d="M51.12,73H44.28l-.5-2.18,7.68-8.9h2.6v8.58h1.88V73H54.06v3H51.12Zm0-2.5V66.12L47.4,70.48Z"/><path class="cls-2" d="M46.16,59.5A16,16,0,1,1,61,69.5"/></svg>