<svg id="Layer_1" data-name="Layer 1" xmlns="http://www.w3.org/2000/svg" viewBox="0 0 112 112"><defs><style>.cls-1{fill:#274ecc;}</style></defs><title>speakerphone</title><path class="cls-1" d="M56,3A53,53,0,1,1,3,56,53.06,53.06,0,0,1,56,3m0-3a56,56,0,1,0,56,56A56,56,0,0,0,56,0Z"/><path class="cls-1" d="M60.84,60.14l-3.9,3.92c-.41.41-.7.62-1,.62s-.59-.21-1-.62l-7-7c-.82-.82-.82-1.18,0-2l3.93-4-8.95-9-1,1-3,3A9.79,9.79,0,0,0,36,53.25a9.94,9.94,0,0,0,2.94,6.82l13,13a9.79,9.79,0,0,0,14,0l4-4ZM63.91,71A6.94,6.94,0,0,1,54,71l-13-13a7.09,7.09,0,0,1-2.11-4.86A7,7,0,0,1,41,48.1l2-2,5,5-2,2a3.86,3.86,0,0,0,0,6l7,7a3.86,3.86,0,0,0,6,0l2-2,5,5Z"/><path class="cls-1" d="M61.35,56.14a1.43,1.43,0,0,0,1.42,1.32h.11a1.43,1.43,0,0,0,1.32-1.54c-.52-6.73-8.25-8.29-8.58-8.36a1.43,1.43,0,0,0-.54,2.81C55.32,50.41,61,51.59,61.35,56.14Z"/><path class="cls-1" d="M54.69,41.73a1.43,1.43,0,0,0-.28,2.85c.48,0,11.74,1.33,13,13a1.43,1.43,0,0,0,1.42,1.27H69a1.43,1.43,0,0,0,1.27-1.58C68.74,43.26,54.83,41.74,54.69,41.73Z"/><path class="cls-1" d="M76,58.77C74.12,36.64,53.35,36,53.14,36h0a1.43,1.43,0,0,0,0,2.86c.75,0,18.4.56,20.06,20.15a1.43,1.43,0,0,0,1.42,1.31h.12A1.43,1.43,0,0,0,76,58.77Z"/></svg>