<svg id="Layer_1" data-name="Layer 1" xmlns="http://www.w3.org/2000/svg" viewBox="0 0 112 112"><defs><style>.cls-1{fill:#274ecc;}.cls-2{fill:#fff;stroke:#274ecc;stroke-miterlimit:10;stroke-width:3px;fill-rule:evenodd;}</style></defs><title>tripleDisplay</title><path class="cls-1" d="M56,3A53,53,0,1,1,3,56,53.06,53.06,0,0,1,56,3m0-3a56,56,0,1,0,56,56A56,56,0,0,0,56,0Z"/><path class="cls-1" d="M70,42a13.92,13.92,0,0,0-8.42,2.83,12.53,12.53,0,0,1,2.67,1.81,11,11,0,1,1,0,18.72,12.53,12.53,0,0,1-2.67,1.81A14,14,0,1,0,70,42Z"/><path class="cls-1" d="M56,42a13.92,13.92,0,0,0-8.42,2.83,12.53,12.53,0,0,1,2.67,1.81,11,11,0,1,1,0,18.72,12.53,12.53,0,0,1-2.67,1.81A14,14,0,1,0,56,42Z"/><path class="cls-1" d="M42,45A11,11,0,1,1,31,56,11,11,0,0,1,42,45m0-3A14,14,0,1,0,56,56,14,14,0,0,0,42,42Z"/><polyline class="cls-2" points="42 48 42 56 49 56"/></svg>