<svg id="Layer_1" data-name="Layer 1" xmlns="http://www.w3.org/2000/svg" viewBox="0 0 112 112"><defs><style>.cls-1{fill:#274ecc;}.cls-2{fill:none;stroke:#274ecc;stroke-miterlimit:10;stroke-width:3px;}</style></defs><title>usb_large</title><path class="cls-1" d="M56,3A53,53,0,1,1,3,56,53.06,53.06,0,0,1,56,3m0-3a56,56,0,1,0,56,56A56,56,0,0,0,56,0Z"/><line class="cls-2" x1="55.54" y1="76" x2="55.54" y2="40.29"/><polygon class="cls-1" points="61.21 44.57 49.79 44.57 55.5 36 61.21 44.57"/><path class="cls-2" d="M42.64,56v4.29A11.43,11.43,0,0,0,54.07,71.71H55.5"/><circle class="cls-1" cx="42.64" cy="54.57" r="4.29"/><path class="cls-2" d="M68.36,51.71V56A11.43,11.43,0,0,1,56.93,67.43H55.5"/><rect class="cls-1" x="64.07" y="46" width="8.57" height="8.57"/></svg>