<svg id="Layer_1" data-name="Layer 1" xmlns="http://www.w3.org/2000/svg" viewBox="0 0 100 100"><defs><style>.cls-1{fill:#FFFFFF;}</style></defs><title>bellagio</title><g id="ckVVOQ"><path class="cls-1" d="M59,59.58c-.94-.15-.89-1-1.28-1.57a25,25,0,0,0,1.32-2.71,13.35,13.35,0,0,0,.9-6.92,4.13,4.13,0,0,0-1.1-2.57,2.84,2.84,0,0,0-1.2-.69,3.87,3.87,0,0,0-1.06.59,26.54,26.54,0,0,1-3.14,1.73,6,6,0,0,1-2.77.61,1.7,1.7,0,0,1-.59-.11.71.71,0,0,1-.37-1.13A3.34,3.34,0,0,1,51,45.68a10.37,10.37,0,0,1,5.85-1.55,1,1,0,0,0,.71-.29,9.54,9.54,0,0,0,3.2-4.92,21,21,0,0,0,.78-4.43A8,8,0,0,0,61.23,32a.35.35,0,0,0-.21-.27c-.23,0-.38.2-.56.35a46.93,46.93,0,0,0-7.21,7.47c-1.84,2.33-3.41,4.84-5.15,7.24A91.43,91.43,0,0,1,42,54.31a3.68,3.68,0,0,1-.3.3s-.11,0-.22.06V52.09a.69.69,0,0,1,.54-.27c.32-.05.53-.21.53-.56s-.26-.49-.65-.51c-.14,0-.28.06-.4-.07a.23.23,0,0,1,0-.28c2-2.51,3.85-5.17,5.8-7.75a49.58,49.58,0,0,1,12.59-12,1,1,0,0,0,.5-.44,5.52,5.52,0,0,0-1.14-1.18,9,9,0,0,0-4.18-1.73A24.68,24.68,0,0,0,39,29.82a20,20,0,0,0-7.12,6.24,14.15,14.15,0,0,0-2.63,7.42,6,6,0,0,0,.37,2.39,4.13,4.13,0,0,0,4.53,2.71A10.24,10.24,0,0,0,39.71,46a12.69,12.69,0,0,0,4.18-6.84A5.58,5.58,0,0,0,44,37.07a1.89,1.89,0,0,0-1.73-1.75,5.2,5.2,0,0,0-3.82,1.11,13.14,13.14,0,0,0-4,5.1,2.12,2.12,0,0,1-.31.59s-.07,0-.14.06c-.27-.14-.17-.34-.07-.54a16.58,16.58,0,0,1,1.34-2.38,12.35,12.35,0,0,1,3.88-3.88,6.06,6.06,0,0,1,2.46-.82,3.05,3.05,0,0,1,3.52,2.69,6.6,6.6,0,0,1-.76,4.36A16.09,16.09,0,0,1,38,47.93a12.81,12.81,0,0,1-3.46,1.3,5.12,5.12,0,0,1-5.66-3.12A8.76,8.76,0,0,1,28.75,40,17.68,17.68,0,0,1,35,31.16a24.68,24.68,0,0,1,12.28-5.21,22.88,22.88,0,0,1,9.24.41,12.25,12.25,0,0,1,5.4,2.81,1.34,1.34,0,0,0,.17.12c.25,0,.41-.12.58-.21a26.37,26.37,0,0,1,9.88-3,17.75,17.75,0,0,1,7,.52,6.56,6.56,0,0,1,3.73,2.58,4.12,4.12,0,0,1,.12,4.49c-.08.15-.16.34-.38.34s-.08-.25,0-.38a7.28,7.28,0,0,0,.12-2.78,4.05,4.05,0,0,0-2.44-3.32,12.56,12.56,0,0,0-4.9-1.06,21.12,21.12,0,0,0-12.59,3.66.88.88,0,0,0-.13.12.54.54,0,0,0-.05.1,7.94,7.94,0,0,0,.54,1,8.93,8.93,0,0,1-1.12,9.57A16.49,16.49,0,0,1,59.06,44c-.12.1-.3.14-.33.32s.08.14.16.17a5.29,5.29,0,0,1,3.66,4.78,13.15,13.15,0,0,1-2.41,8.91c-.25.37-.53.72-.8,1.07A2.85,2.85,0,0,1,59,59.58ZM50.37,47.3c1,.17,4.92-1.54,5.51-2.36C54.54,44.62,50.91,46.15,50.37,47.3Z"/><path class="cls-1" d="M39,53.62a5.43,5.43,0,0,1,.06,1.29c0,.65,0,1.3,0,1.95a.88.88,0,0,1-.27.71A36.54,36.54,0,0,1,28.48,64.7a22.47,22.47,0,0,1-10,1.94,11.44,11.44,0,0,1-7.09-2.53,10.2,10.2,0,0,1-2.93-11.7,11,11,0,0,1,9.6-7,6.79,6.79,0,0,1,6.08,2.29,5.59,5.59,0,0,1,1.29,4.6,5.83,5.83,0,0,1-1.59,3.48,3.73,3.73,0,0,1-1.92,1.11c-.22,0-.44.1-.61-.09,0-.3.26-.31.42-.42a7.06,7.06,0,0,0,2.73-3.11,5.1,5.1,0,0,0-3.14-6.93,8.73,8.73,0,0,0-7.53,1,9.28,9.28,0,0,0-4.11,5.47A13.82,13.82,0,0,0,9,56.51a8.59,8.59,0,0,0,4,7.61,9.26,9.26,0,0,0,4,1.72,13.22,13.22,0,0,0,2.85,0,19.66,19.66,0,0,0,9.77-3.56A46.84,46.84,0,0,0,38,54.64,5.74,5.74,0,0,1,39,53.62Z"/><path class="cls-1" d="M100,55.84a4.53,4.53,0,0,1-2.82,4.1,5.15,5.15,0,0,1-5.56-.86,4.62,4.62,0,0,1-1.19-4.82,4.3,4.3,0,0,1,3.64-3.16,6.19,6.19,0,0,1,3.18.24C99,52,100,53.47,100,55.84Zm-1.71,0a6.77,6.77,0,0,0-.38-2A3.43,3.43,0,0,0,96.37,52a2.85,2.85,0,0,0-4.37,2,6.17,6.17,0,0,0,.1,2.83,3.75,3.75,0,0,0,2,2.5,2.69,2.69,0,0,0,4-1.77A8,8,0,0,0,98.29,55.87Z"/><path class="cls-1" d="M4.81,55c.09.22.32.23.49.33a2.56,2.56,0,0,1,1.46,2.75,2.69,2.69,0,0,1-2.25,2.1,5,5,0,0,1-1.21.09,11.78,11.78,0,0,0-2.61,0c-.16,0-.37.07-.47-.15S.28,60,.36,60c.55-.05.68-.41.69-.89,0-2.25,0-4.5,0-6.75a1.2,1.2,0,0,0-.17-.63c-.21-.3-.62-.14-.86-.36,0-.22.21-.19.34-.19h3.1a3.37,3.37,0,0,1,1.13.2,1.74,1.74,0,0,1,1.09,2.35,2.63,2.63,0,0,1-.58.92C5,54.72,4.82,54.79,4.81,55Zm-2.19.63c0,1.15,0,2.25,0,3.36a.6.6,0,0,0,.26.46,1.59,1.59,0,0,0,2.31-.75,2.77,2.77,0,0,0-1.11-2.88A1.72,1.72,0,0,0,2.61,55.61Zm-.07-3.87c0,1.1,0,2.13.07,3.14.91.16,1.34,0,1.64-.45a2.15,2.15,0,0,0-.17-2.19A1.36,1.36,0,0,0,2.55,51.74Z"/><path class="cls-1" d="M72.71,51.36a6.51,6.51,0,0,1-.12,2.2c-.22,0-.24-.19-.27-.35a1.42,1.42,0,0,0-.8-1,4.29,4.29,0,0,0-3.86-.2,2.44,2.44,0,0,0-1.31,1.3,4.94,4.94,0,0,0,1,5.4,4,4,0,0,0,3.28,1,.76.76,0,0,0,.55-.28,2.29,2.29,0,0,0,.07-1q0-.79,0-1.58c0-.6-.1-.68-.68-.82-.13,0-.29,0-.33-.22s.27-.14.42-.13c1,.1,2,0,3.06,0-.24.38-.67.27-.85.74-.1,1,0,2.11,0,3.18a1.18,1.18,0,0,1-.76.48A8,8,0,0,1,67.37,60a4.3,4.3,0,0,1-3.1-4.44,4.46,4.46,0,0,1,3.49-4.36A11.27,11.27,0,0,1,72.71,51.36Z"/><path class="cls-1" d="M59.1,60.18c-.49.27-1,0-1.46,0a12.64,12.64,0,0,1-1.42.07c-.18-.22.11-.35.07-.54l-1-2.54c-.91-.09-1.81,0-2.66,0a5.57,5.57,0,0,0-.82,2.67c.14.2.43.1.64.39-.52.26-1,0-1.48,0a2.93,2.93,0,0,1-1.45,0c0-.19.13-.24.23-.25a1.27,1.27,0,0,0,1.12-1l1.23-3.18q.86-2.21,1.72-4.42c.06-.16.12-.35.36-.41.32.11.37.44.48.7.68,1.65,1.34,3.31,2,5,.33.81.69,1.6,1,2.4a1.31,1.31,0,0,0,1.16.93A.32.32,0,0,1,59,60S59.07,60.1,59.1,60.18ZM55,56.41c-.41-1-.68-1.91-1.09-2.78h-.14l-1,2.77Z"/><path class="cls-1" d="M16.11,55.06a6.81,6.81,0,0,0,2.79-.27,14.62,14.62,0,0,1-.1,1.8c-.25,0-.27-.12-.29-.23a.66.66,0,0,0-.73-.59,12.37,12.37,0,0,0-1.49,0,.56.56,0,0,0-.17.47c0,.77,0,1.54,0,2.31s.28,1,1,1a8.65,8.65,0,0,0,1,0,.9.9,0,0,0,.92-.73c0-.14.06-.28.24-.31a1.85,1.85,0,0,1-.3,1.75c-1.68.1-3.4-.15-5.11,0-.08,0-.15-.05-.18-.15s0-.11.09-.13c.7-.3.71-.3.71-1q0-3.13,0-6.26c0-1,0-1-.94-1.18a.23.23,0,0,1-.17-.19c.14-.27.41-.2.63-.17a23.91,23.91,0,0,0,3.7.06c.4,0,.8,0,1.2-.08a2.73,2.73,0,0,1-.09,1.67c-.19,0-.2-.16-.25-.3s-.09-.22-.14-.37a5.63,5.63,0,0,0-2.31-.24C16.07,53,16.15,54,16.11,55.06Z"/><path class="cls-1" d="M41.15,60.69a4.75,4.75,0,0,1,1.51,0,.72.72,0,0,1,.11.59A5.25,5.25,0,0,0,43,63,2.7,2.7,0,0,0,45,64.95a7.82,7.82,0,0,0,4-.08A13.23,13.23,0,0,0,55.39,61c.14-.14.26-.31.39-.48a14.81,14.81,0,0,0,2.13.07.43.43,0,0,1-.22.42,18.47,18.47,0,0,1-7.91,4.35,11.4,11.4,0,0,1-5.05.31,4.56,4.56,0,0,1-3.65-4.77A1.54,1.54,0,0,1,41.15,60.69Z"/><path class="cls-1" d="M44.68,58.31a5.72,5.72,0,0,1-.34,1.75.65.65,0,0,1-.46.2c-1.72,0-3.45-.16-5.17,0,0,0-.09-.07-.15-.11.14-.34.58-.21.78-.48.09-2.64.08-5.29,0-7.93-.22-.32-.66-.15-.87-.37,0-.14.08-.21.17-.21,1.07,0,2.14,0,3.18,0,.11.29-.05.32-.19.36a.78.78,0,0,0-.63.85c0,2.07,0,4.14,0,6.21,0,.66.26.9.93,1a5.87,5.87,0,0,0,1.34,0,1.07,1.07,0,0,0,1-.83C44.34,58.53,44.39,58.43,44.68,58.31Z"/><path class="cls-1" d="M29.6,51.16c-.06.22-.11.29-.19.31-.62.11-.72.55-.72,1.09,0,1.95,0,3.9,0,5.84,0,.83.2,1.05,1,1.11.32,0,.65,0,1,0a1.18,1.18,0,0,0,1.3-.88c0-.12.09-.23.25-.21A2.93,2.93,0,0,1,32,60.08a.94.94,0,0,1-.74.19l-2.92-.07a9.5,9.5,0,0,0-1.58.07c-.17,0-.36.07-.49-.09s.15-.24.29-.28a.64.64,0,0,0,.53-.71c0-2.33,0-4.67,0-7,0-.49-.09-.57-.58-.7-.13,0-.3,0-.31-.21s.19-.15.3-.14C27.5,51.23,28.53,51.16,29.6,51.16Z"/><path class="cls-1" d="M83.92,60.13a.22.22,0,0,1-.23.16c-1.09-.09-2.18-.05-3.27,0,0,0-.07-.08-.12-.14.17-.28.57-.13.71-.43a1.6,1.6,0,0,0,.11-.83q0-3.16,0-6.32c0-.83,0-.83-.77-1.12a.14.14,0,0,1-.1-.13.2.2,0,0,1,.23-.16c1.06.11,2.12,0,3.16.05.05.25-.07.28-.18.32-.63.23-.71.33-.71,1,0,1.78,0,3.57,0,5.35,0,.32,0,.65,0,1,.06.72.23.91,1,1.11C83.82,60,83.9,60,83.92,60.13Z"/><path class="cls-1" d="M50.3,54.07c-3.39.19-5.58,2.09-7,5a2.07,2.07,0,0,1-1.63-.12,4,4,0,0,1,.82-1.38,12,12,0,0,1,6.58-4,1.1,1.1,0,0,1,1.14.17A.35.35,0,0,1,50.3,54.07Z"/><path class="cls-1" d="M75.1,69.5a2.09,2.09,0,0,1,0,.91c-.16,0-.2-.08-.25-.16a1.43,1.43,0,0,0-1.6-.58,1.35,1.35,0,0,0-1.11,1.21A3.21,3.21,0,0,0,72.34,73a1.68,1.68,0,0,0,1.45,1,.6.6,0,0,0,.6-.23c0-.57.2-1.22-.27-1.85a3.26,3.26,0,0,1,1.25,0c-.38.67-.14,1.37-.23,2a2.54,2.54,0,0,1-3,0,2.75,2.75,0,0,1-.56-3.48A2.7,2.7,0,0,1,75.1,69.5Z"/><path class="cls-1" d="M11.79,74.08a4.39,4.39,0,0,0,.89-1.95c.32-.85.58-1.73.87-2.59,0-.12.08-.23.23-.26s.22.21.27.36l1.12,3.28a2.4,2.4,0,0,0,.69,1.2,2,2,0,0,1-1.07.05c-.23-.48-.26-1-.51-1.5a2,2,0,0,0-1.16-.07,2,2,0,0,0-.37,1.53A1,1,0,0,1,11.79,74.08Zm2.26-2a3.16,3.16,0,0,0-.37-1.21,2.57,2.57,0,0,0-.42,1.2A1.07,1.07,0,0,0,14,72.06Z"/><path class="cls-1" d="M88.4,74.12a2.37,2.37,0,0,1-1.06.07c-.23-.51-.27-1-.51-1.52-.37-.21-.75-.06-1.16-.14a2.14,2.14,0,0,0-.37,1.59,1.32,1.32,0,0,1-.89,0A40.45,40.45,0,0,0,86,69.8c.07-.18,0-.42.3-.49s.24.3.3.48c.4,1.15.81,2.29,1.18,3.45A2.91,2.91,0,0,0,88.4,74.12ZM86.6,72a3.18,3.18,0,0,0-.39-1.22,3.05,3.05,0,0,0-.4,1.23A.81.81,0,0,0,86.6,72Z"/><path class="cls-1" d="M59.36,74.26a11.76,11.76,0,0,0,0-4.91h2.28c.19.22.11.42,0,.66-.4-.19-.78-.4-1.23-.17a5.29,5.29,0,0,0,0,1.44,2,2,0,0,0,1.13,0c.2.25.11.46,0,.72-.36-.18-.7-.38-1.15-.14a4.35,4.35,0,0,0,.09,1.78c.68.23.79.21,1.29-.22.11.31.11.31,0,.7C61,74.42,60.22,74.09,59.36,74.26Z"/><path class="cls-1" d="M46,69.37a4.85,4.85,0,0,1,1.27,0,14.46,14.46,0,0,0,1,3.36,11.47,11.47,0,0,0,1.06-3.35,3.77,3.77,0,0,1,.86,0c-.85,1.59-1.24,3.3-2,4.87-.35,0-.36-.29-.43-.49-.35-1-.68-1.95-1-2.92A2.89,2.89,0,0,0,46,69.37Z"/><path class="cls-1" d="M97.2,74a1,1,0,0,1,.06-.84c.24.08.2.31.31.46a.72.72,0,0,0,.86.26.71.71,0,0,0,.43-.78,1.1,1.1,0,0,0-.29-.59L98.1,72a6.12,6.12,0,0,1-.45-.5,1.53,1.53,0,0,1-.14-1.81,1.41,1.41,0,0,1,1.77-.34,1,1,0,0,1,.06.84c-.34-.24-.49-.75-1-.59a.65.65,0,0,0-.49.62,1.62,1.62,0,0,0,.65.92,3,3,0,0,1,.9,1.2,1.51,1.51,0,0,1-.48,1.69A1.43,1.43,0,0,1,97.2,74Z"/><path class="cls-1" d="M26.44,69.4a.67.67,0,0,1,0,.71c-.22,0-.24-.2-.34-.29a.62.62,0,0,0-.83-.11.64.64,0,0,0-.18.81,2,2,0,0,0,.54.65,4.1,4.1,0,0,1,.7.75,1.66,1.66,0,0,1-.09,2,1.44,1.44,0,0,1-1.89.15,1.25,1.25,0,0,1,0-.89c.24.06.23.29.33.42a.71.71,0,0,0,.9.28A.72.72,0,0,0,26,73a1.67,1.67,0,0,0-.49-.75c-.24-.25-.49-.48-.7-.75a1.43,1.43,0,0,1-.09-1.79A1.37,1.37,0,0,1,26.44,69.4Z"/><path class="cls-1" d="M2.92,73.78l.46-.38a.7.7,0,0,1-.15.81c-.77.14-1.55-.08-2.4,0A5.66,5.66,0,0,0,1,71.74a4.32,4.32,0,0,0-.25-2.39h1.4a1.15,1.15,0,0,0-.39,1.08c0,.83,0,1.66,0,2.5a1.1,1.1,0,0,0,.18.77A1.41,1.41,0,0,0,2.92,73.78Z"/></g></svg>
