<svg id="Layer_1" data-name="Layer 1" xmlns="http://www.w3.org/2000/svg" viewBox="0 0 100 100"><defs><style>.cls-1{fill:#FFFFFF;}</style></defs><title>bestWestern</title><path class="cls-1" d="M0,80.62,0,31.73a15.29,15.29,0,0,1,10.4-14.67L40.67,6.44a27.09,27.09,0,0,1,18.72,0L89.61,17.06A15.29,15.29,0,0,1,100,31.74v48.9a14.6,14.6,0,0,1-14.6,14.6H14.59A14.6,14.6,0,0,1,0,80.62Zm2.21,0A12.39,12.39,0,0,0,14.6,93H85.4A12.39,12.39,0,0,0,97.79,80.63V31.71a12.88,12.88,0,0,0-8.9-12.56L58.62,8.51a23.91,23.91,0,0,0-17.21,0L11.12,19.16a12.88,12.88,0,0,0-8.9,12.56Zm.87,0,0-48.91A12,12,0,0,1,11.4,20L41.71,9.33a23.07,23.07,0,0,1,16.62,0L88.6,20A12,12,0,0,1,96.92,31.7V80.63A11.52,11.52,0,0,1,85.4,92.15H14.6A11.52,11.52,0,0,1,3.08,80.62ZM44.35,50.75h7.33A15,15,0,0,0,51.41,48c-.55-3.1-2.57-5.17-5.09-5.17-3.27,0-5.94,3.49-5.94,7.79,0,4.53,2.73,7.92,6.3,7.92,2.63,0,4.66-2.23,5-5.5l-1.09-.32c-.36,2.81-1.54,4.4-3.3,4.4-1.91,0-2.91-2-2.91-5.85v-.48Zm24.27-6.13h3.61V43.26H68.62V38h-1c-.47,3.18-1.81,4.87-4.44,5.59v1.07H65v9.06a6.13,6.13,0,0,0,.59,3.21,3.55,3.55,0,0,0,3.29,1.72c2.43,0,3.67-1.4,3.67-4.12,0-.32,0-.84,0-1.56v-.39H71.35v1.79c0,1.75-.47,2.63-1.39,2.63s-1.33-.81-1.33-3.31v-9h0ZM74.24,66.2V62.59l-5.3.19V64l.4,0c1,.1,1.55.71,1.55,1.93v8.54c0,1.22-.52,1.84-1.55,1.93l-.4,0,0,1.16h7.95V76.42h-.37c-1.74,0-2-.52-2-3.9a17,17,0,0,1,.73-5.58q.82-2.37,1.64-2.71a2.36,2.36,0,0,0-.49,1.45,1.94,1.94,0,0,0,1.8,2.13c1.16,0,2-1.13,2-2.61a2.64,2.64,0,0,0-2.44-2.84c-1.52,0-2.56,1.13-3.56,3.84ZM89.16,77.73h5.43V76.56l-.27,0c-1.07-.16-1.51-.72-1.51-2V67.1c0-3.23-1.07-4.79-3.32-4.79-1.48,0-2.52.75-3.62,2.64l-.06.07V62.54l-5.34.2v1.21l.39,0a1.63,1.63,0,0,1,1.51,1.86v8.74c0,1.24-.5,1.86-1.51,2l-.39,0,0,1.17h7.3V76.56l-.3,0c-1-.16-1.48-.72-1.48-2V70.1c0-3.36.95-5.93,2.2-5.93.71,0,.95.59.95,2.41V77.73h0ZM29,70.27h7.33a14.94,14.94,0,0,0-.27-2.78c-.55-3.1-2.57-5.17-5.09-5.17-3.27,0-5.94,3.49-5.94,7.79,0,4.53,2.73,7.92,6.3,7.92,2.63,0,4.66-2.23,5-5.5l-1.09-.32c-.36,2.81-1.54,4.4-3.3,4.4-1.91,0-2.91-2-2.91-5.85v-.49Zm8.78,7.33h.9l.21-.49c.09-.16.21-.29.33-.29s.21.06.75.36a5.3,5.3,0,0,0,2.84.85A5.11,5.11,0,0,0,48,72.88c0-2.31-1.2-3.74-3.92-4.66-2.54-.88-3.23-1.43-3.23-2.77a1.87,1.87,0,0,1,1.92-2c1.68,0,2.93,1.6,3.41,4.23h1V62.59h-1l-.21.55c-.06.2-.15.16-.24.26a.61.61,0,0,1-.36-.16l-.63-.39a4.69,4.69,0,0,0-2.24-.65A4.75,4.75,0,0,0,37.84,67a4.49,4.49,0,0,0,1,2.83c.72.85,1.26,1.17,3.59,2.15,1.74.75,2.39,1.43,2.39,2.51a2.17,2.17,0,0,1-2.18,2.25c-2,0-3.53-2.08-3.68-5H37.81V77.6h0Zm24-7.27H69.1a15,15,0,0,0-.27-2.78c-.55-3.1-2.57-5.17-5.09-5.17-3.27,0-5.94,3.49-5.94,7.79,0,4.53,2.72,7.92,6.3,7.92,2.63,0,4.66-2.23,5-5.5L68,72.26c-.36,2.81-1.55,4.4-3.3,4.4-1.91,0-2.91-2-2.91-5.85v-.49h0ZM53.82,57.9l.08-.19c.09-.16.21-.29.33-.29s.21.06.75.36a5.3,5.3,0,0,0,2.84.85,5.1,5.1,0,0,0,5.12-5.14c0-2.31-1.2-3.74-3.92-4.66-2.54-.88-3.23-1.43-3.23-2.77a1.87,1.87,0,0,1,1.92-2c1.67,0,2.93,1.59,3.41,4.23h1V43.19h-1l-.21.55c-.06.2-.15.16-.24.26a.61.61,0,0,1-.36-.16l-.63-.39a4.69,4.69,0,0,0-2.24-.65,4.75,4.75,0,0,0-4.61,4.82,4.5,4.5,0,0,0,1,2.83c.72.85,1.26,1.17,3.59,2.15,1.74.75,2.39,1.43,2.39,2.51a2.17,2.17,0,0,1-2.18,2.25c-2,0-3.53-2.08-3.68-5H52.79v5.33c-.49,3.1-1.82,4.75-4.42,5.46v1.07h1.78v9.06a6.13,6.13,0,0,0,.59,3.21A3.55,3.55,0,0,0,54,78.19c2.43,0,3.67-1.4,3.67-4.12,0-.32,0-.84,0-1.56v-.39H56.54V73.9c0,1.75-.47,2.63-1.39,2.63s-1.33-.81-1.33-3.31v-9h3.61V62.83H53.82V57.9h0Zm-26.46.55H31.9a11.21,11.21,0,0,0,4.66-.73,5.56,5.56,0,0,0,3-4.95,4.88,4.88,0,0,0-2.76-4.49,6.43,6.43,0,0,0-2.14-.67A6,6,0,0,0,36.42,47a4.34,4.34,0,0,0,2.29-3.94c0-3.55-1.77-4.95-6-4.95H24.06v1.22h.47c1.64.06,1.3.37,1.3,2.81V54.42c0,2.17-.14,2.65-1.32,2.78h-2v1.2h.34c1.32,0,1.85.36,1.85,1.23a8.78,8.78,0,0,1-.28,1.83l-2.55,9.38L19,60.51a4.23,4.23,0,0,1-.14-.93c0-.72.53-1.11,1.68-1.17h.25V57.2H13.39v1.2l.2,0c.78.06,1.15.48,1.46,1.71l.7,2.74-2.24,8L10.73,60.51a4,4,0,0,1-.2-1c0-.69.39-1,1.34-1.08h.34V57.2H5v1.2l.17,0a1.4,1.4,0,0,1,1.26,1.14l.25.93,4.56,17H13l3.3-12.18,3.25,12.18h1.65l4.31-16.06c.67-2.53.87-2.87,1.82-3Zm23.45-22,1.42-3.09,1.42,3.09h5.51l6.46-14.16-1.81-2.88-3.44,1.43L54.21,34.14,53,31.58l4.4-9.72-1.93-3L52.19,20.4,50,25.07,47.89,20.4l-3.32-1.58-1.93,3,4.4,9.72L45.8,34.3,39.55,20.81l-3.44-1.43-1.81,2.88,6.46,14.16h5.69l1.42-3.09,1.43,3.09Zm.3-24.82H49L47,15.77,49,20.07h2.09L53,15.77l-1.91-4.16Zm.31,4.17L50,18.83l-1.39-3.06,1.39-3ZM41.71,35,36,22.37l.73-1.17,1.77.74,6,13H41.71Zm9.72-3.38L50,34.65l-1.39-3.06,1.39-3ZM55.54,35l6-13,1.77-.74.73,1.17L58.34,35Zm-7.68-5.14L44.3,22l.81-1.27,1.68.8,2.45,5.33-1.38,3Zm4.38,0-1.38-3,2.45-5.33,1.68-.8L55.79,22ZM29.85,48.5h.62c2,0,2.7.18,3.49.86a4.47,4.47,0,0,1,1.17,3.48c0,2.75-1.2,4.34-3.31,4.34-1.5,0-2-.55-2-2.32V48.5Zm0-1.37V42.05c0-2.17.32-2.69,1.67-2.69,1.67,0,2.76,1.53,2.76,3.88,0,2.66-1.23,3.88-3.84,3.88h-.59ZM61.77,69c0-3.56.64-5.3,1.85-5.3s1.58,1.23,1.67,5.3ZM29,68.91c0-3.56.64-5.3,1.85-5.3s1.58,1.23,1.67,5.3H29ZM44.35,49.4c0-3.56.64-5.3,1.85-5.3s1.58,1.23,1.67,5.3Z"/></svg>
