<svg id="Layer_1" data-name="Layer 1" xmlns="http://www.w3.org/2000/svg" viewBox="0 0 100 100"><defs><style>.cls-1{fill:#FFFFFF;}</style></defs><title>delta</title><path class="cls-1" d="M32.15,92.82h-1.3V88.18H26.29v4.65H25V83.48h1.3v3.76h4.57V83.48h1.3v9.35ZM39.92,92c-2.42,0-3.24-2.23-3.24-4.06s.93-3.74,3.24-3.74,3.25,2,3.25,3.74S42.34,92,39.92,92Zm0,.93c2.88,0,4.67-2.2,4.67-5a4.67,4.67,0,1,0-9.35,0C35.25,90.78,37,93,39.92,93Zm9.31-.16V84.41h-3v-.93h7.29v.93h-3v8.41h-1.3Zm11.83-8.41H57.75v3H61v.93H57.75v3.52h3.89v.93H56.45V83.48h4.61v.93Zm3.9-.93h1.3v8.41h3.88v.93H65V83.48Zm12.27,1.44a3,3,0,0,0-1.62-.67,1.28,1.28,0,0,0-1.46,1.27c0,.67.57,1.16,1.78,2s2,1.79,2,3A2.67,2.67,0,0,1,75.06,93a3.91,3.91,0,0,1-2.63-1l.57-.78A3.37,3.37,0,0,0,75,92a1.46,1.46,0,0,0,1.63-1.54c0-1.18-1.4-1.94-2.16-2.5s-1.64-1.18-1.64-2.5a2.46,2.46,0,0,1,2.67-2.2,3,3,0,0,1,2.31.93l-.61.67ZM10.17,52.47H0v1H3.17V73.14H0v1H10.2c7.06,0,11.63-4.26,11.63-10.85C21.83,59.29,19.37,52.47,10.17,52.47Zm-3,1h.8c8.55,0,9.54,5.6,9.54,9.82,0,8.11-4.51,9.82-8.3,9.82h-2Zm33.14,15.2c0,3.88-1.16,4.4-5.78,4.4H31V65.41h1.72c2.73,0,2.87,1,2.87,2.72v.33h1.11V61.14H35.61v.33c0,1.57-.21,2.87-2.84,2.87H31V56.95h4c3,0,4.17,1,4.17,3.52v.33h1.14L40,55.88H25.07v1.07h2.45V73.1H25.07v1.07H41.39v-5.8H40.28v.33h0Zm20.49-.63c0,4.37-.8,5-6.11,5H52.07V56.95h2.78V55.88H45.79v1.07h2.78V73.11H45.79v1.07h16.1V67.75H60.77Zm3.35-12.2v5.85h1.11V61.4c0-3.83.35-4.45,5.17-4.45h.25V73.11H67.78v1.07H77V73.11H74.15V56.95h.28c4.79,0,5.14.61,5.14,4.45v.33h1.11V55.88H64.12ZM97.59,73.1,90.83,55.48h-.77L84,71.85c-.48,1.26-.72,1.26-1.44,1.26H81.33v1.07h6.4V73.11H86c-.54,0-.89-.11-.89-.29a5.06,5.06,0,0,1,.39-1.41l1.06-2.94H92l1.75,4.64H91.18v1.07H100V73.11ZM86.93,67.4,89.21,61l2.4,6.36ZM79.42,26.47c-.53-3.49-4.48-7.73-12.09-9.31a30.09,30.09,0,0,0-3.62-.56L67.83,7,61,9.65,58.4,16.42A65.23,65.23,0,0,0,39.06,20C29.21,23.38,22.23,28.57,19,32.3a19.48,19.48,0,0,0-4,6.32c-.23.54.07.78.16.84a.54.54,0,0,0,.44.05A.82.82,0,0,0,16,39l.09-.2a20.91,20.91,0,0,1,4.37-5.91c3.18-3.26,10.16-8.07,19.39-10.87a57.81,57.81,0,0,1,17.39-2.7l-3.39,8.9q-1.06.05-2.12.2a24.22,24.22,0,0,0-7.64,2.43c-2.63,1.31-5.89,3.94-6.39,7-.67,2.94,1.05,5.69,4.49,7.18s8.19,1.86,13.71,1a40.5,40.5,0,0,0,14.4-5.14c3.83-2.3,6.79-5.24,8.1-8.08a10.19,10.19,0,0,0,1-6.37ZM48,43.64l4.82-1.85,9.49-22a8.91,8.91,0,0,1,1.11.29l.7.21c7,1.77,8.41,5.9,8.67,7.6s.12,7.21-5.81,11C61.26,42.73,50.58,45.39,44.46,43c-2.85-1-4.44-3-4.16-5.27a4.29,4.29,0,0,1,.32-1.36A10,10,0,0,1,45.06,32a21.54,21.54,0,0,1,6.77-2.42q.83-.14,1.66-.23L48,43.64Z"/></svg>
