<svg id="Layer_1" data-name="Layer 1" xmlns="http://www.w3.org/2000/svg" viewBox="0 0 100 100"><defs><style>.cls-1,.cls-2{fill:#FFFFFF;}.cls-2{fill-rule:evenodd;}</style></defs><title>disney</title><path class="cls-1" d="M15.83,48.24c-3.73.28-8.5,1-8.46,2.28s3.56,4,8.17,5.7C15.75,53.42,15.81,50.46,15.83,48.24ZM2.18,34.16C.95,34.2,0,33.66,0,32.91a4.55,4.55,0,0,1,1.92-2.54,21.34,21.34,0,0,1,7-1.24,40.84,40.84,0,0,1,6.22.46C27.7,31.46,40.88,41,41.14,49.54c.17,5.78-4.82,11.2-14.57,11.49a25.06,25.06,0,0,1-7.13-.81c0,1.42.06,2.17-2,2.23-1.23,0-1.71-2-1.89-3.58C9.7,56.26,6.16,52,6.11,50.34c-.07-2.49,4.46-4.57,9.76-5.4.07-2.06.42-7.32,1.51-7.35.44,0,1.34,1,1.69,2.56a27.72,27.72,0,0,1,.35,4.44h.4c7.44-.22,11.9,2.11,12,4.86A3.2,3.2,0,0,1,29,52.7c-1,0-2.15-.54-2.16-.84,0-.59,2.12-.73,2.09-1.68,0-1.43-6-2.06-9.6-2.08,0,1.24,0,2.73,0,3.73s.09,3.45.12,5.52a21.35,21.35,0,0,0,5,.49c3.93-.12,12.9-1.55,12.7-8.29-.28-9.42-18.9-18.07-28.88-17.77-3.93.12-6.29.54-6.28.92s1.91.36,1.93.86S2.85,34.14,2.18,34.16Z"/><path class="cls-2" d="M44,44.46c.64,0,1.56,1.52,1.59,2.48s.26,6,.33,7.44a21.88,21.88,0,0,1-.07,3.48c-.09.64-.33,1-1.43,1a1.55,1.55,0,0,1-1.71-1.59c-.09-1-.18-3.73-.13-5.11s.11-4,.29-5.68S43.47,44.47,44,44.46Z"/><path class="cls-2" d="M50.37,33.15c-.18-.46-.8-1.38-3-1.32C42.6,32,38.93,35.52,39,38.3a3.5,3.5,0,0,0,1.11,2.35,2.46,2.46,0,0,0-.18.93c0,.48.74,1.76,1.3,1.75s.8-.46,1.25-1.17a5.85,5.85,0,0,0,2.17.43c4.49-.13,8.56-4.34,8.48-7A2.44,2.44,0,0,0,50.37,33.15Zm-6.78,6.69c.55-.78,3.42-4.62,6.37-4.7.87,0,1.1.51,1.11,1.1,0,.92-1.64,3.62-5.41,3.73A10.85,10.85,0,0,1,43.59,39.84Zm-2.34-1.27a1.16,1.16,0,0,1-.14-.57,4,4,0,0,1,3.72-3.17,11.37,11.37,0,0,0-2.06,1.83A19,19,0,0,0,41.25,38.57Z"/><path class="cls-2" d="M55.63,44.2c2.63-.08,5.92.26,5.94,1.1A1.63,1.63,0,0,1,59.93,47c-1.65.17-10,.52-10,1.55,0,.54,2.52.66,4.82.8s6.16.23,6.27,4.06c.09,3-1.05,3.66-1.57,3.9A14.15,14.15,0,0,1,55,58.46c-5.07.15-7.16-2.76-7.2-4.24,0-1.31,1.31-2.48,3.59-2.55s5.79.75,5.82,1.69c0,.76-1.53,1.15-2.22,1.17-3.1.09-2.95-1.17-4.74-1.12-1,0-2.45,2.19,2.66,2,4.55-.14,5.92-1.63,5.9-2.44,0-1.07-3.29-1.58-5.18-1.68s-4.72-.09-5.68-.7-.83-2-.5-3.14C48.11,45.11,53,44.28,55.63,44.2Z"/><path class="cls-2" d="M64.6,45.19c1.78-.05,5.5,8,6.13,8s.16-1.88-.23-3.94c-.9-4.65-2.3-7.05-1-7.09,1,0,4.15,3.05,4.33,9,.08,2.77-.31,6.39-2.82,6.47s-5.09-7.44-5.71-7.43c-.33,0-.36,4.66-.45,6.06s-.58,2.15-1.36,2.17c-1.18,0-1.7-1.1-1.77-3.34S62.41,45.25,64.6,45.19Z"/><path class="cls-1" d="M82.66,49.54c.84,0,1.58-.17,1.51.93S84,52,83.17,52l-4.49.13c-.15.5-.53,1.79-.71,2.33s.47.53,1.35.28A26.34,26.34,0,0,1,83.57,54c1,0,1.72,1.54,1.15,2.08s-3.61,3.1-6.78,3.2A3.35,3.35,0,0,1,74.68,56a11.53,11.53,0,0,1,.85-3.82c-.11-.07-.19-.22-.25-.56-.14-.77-.48-1.61.79-1.75l.38,0L77.5,47.7a3.84,3.84,0,0,1-1.08-.29A2.7,2.7,0,0,1,75,45.66c0-.94,6.83-1.49,8.41-1.54s2.19.28,2.73,1.06a3.79,3.79,0,0,1,.76,1.54c0,.21-.19.74-2.25.8-1.05,0-2.76.21-4.39.27l-.71,1.9Z"/><path class="cls-2" d="M87.3,56c-1.84,3.63-3.08,7.48-3,10.38.1,3.26,2.1,4.48,2.71,4.46s.64-1,.75-1.7a48.4,48.4,0,0,1,2.91-10.72,5.15,5.15,0,0,0,1.4.16c3.73-.11,8.06-4.57,7.92-9.32C99.92,46.78,99,45,97.36,45c-2.35.07-5.73,3.62-8.44,8.08-.24-1.81,1.18-4.6,2.4-6.54.85-1.37.7-3,.35-3s-5.31,4.09-5.15,9.68A5.37,5.37,0,0,0,87.3,56Zm5-1.13C94.53,50.5,96.85,48,97.66,48,99.08,47.93,97.88,54.32,92.29,54.9Z"/></svg>
