<svg id="Layer_1" data-name="Layer 1" xmlns="http://www.w3.org/2000/svg" viewBox="0 0 100 100"><defs><style>.cls-1{fill:#FFFFFF;}</style></defs><title>druryInn</title><path class="cls-1" d="M31.62,72.65c.8-.51,2.47-.73,3.27-4.72L37.5,55c.29-1.52,0-3.27-1.45-3.85H46a4.56,4.56,0,0,0-2.47,2.9L40.26,69.89c-.22.87.15,2.54,1.16,2.76ZM43,69.89a5.15,5.15,0,0,0,2.4-3.7L47.23,57a3.6,3.6,0,0,0-.8-3.48h6.82l5.59,11.18,1.67-8.27c.22-1.09-.15-2.61-.87-2.9h5.44a3.79,3.79,0,0,0-2.18,2.9l-3,15H55.94L49.19,57.77l-1.74,8.57c-.36,1.74.29,3.27.94,3.56H43Zm19.89,0a5.15,5.15,0,0,0,2.39-3.7L67.12,57a3.6,3.6,0,0,0-.8-3.48h6.82l5.59,11.18,1.67-8.27c.22-1.09-.14-2.61-.87-2.9H85a3.79,3.79,0,0,0-2.18,2.9l-3,15H75.83L69.08,57.77l-1.74,8.57c-.36,1.74.29,3.27.94,3.56H62.91Zm29-30.12L91,44.12c-.22,1.09-.15,2.4.51,2.69h-7c.65-.36,1.6-1.31,2.1-3.7L87,40.93l-3-8.27a5.07,5.07,0,0,0-1.52-2.25h7.11L91.43,37a17,17,0,0,0,2.9-4.06c.8-1.89.15-2-.07-2.54H100a8.91,8.91,0,0,0-3.41,3c-.65.8-4.65,6.39-4.65,6.39Zm-20.69-.94,3.56,7.69C76,49,80,48.4,82.43,48.33A6,6,0,0,1,80,45.43l-2.69-5.73c-.22-.51-.51-1-.8-1.09,3.78-.94,5-3.56,5.08-4.72a3.41,3.41,0,0,0-3.41-3.48H67A2.63,2.63,0,0,1,67.7,33l-2,10.09c-.51,2.39-1.45,3.34-2.1,3.7h7c-.65-.29-.73-1.6-.51-2.69l1.09-5.3Zm-36.73,0,3.56,7.69c1.23,2.47,5.15,1.89,7.62,1.81a6,6,0,0,1-2.4-2.9l-2.69-5.73c-.22-.51-.51-1-.8-1.09,3.77-.94,5-3.56,5.08-4.72a3.41,3.41,0,0,0-3.41-3.48H30.31A2.63,2.63,0,0,1,31,33L29,43.1c-.51,2.39-1.45,3.34-2.11,3.7h7c-.65-.29-.73-1.6-.51-2.69l1.09-5.3Zm26.93,5.44c.22-1.38,2.4-11.32,2.4-11.32a5.23,5.23,0,0,1,1.6-2.54H58.12A3.4,3.4,0,0,1,58.77,33l-1.52,7.4c-.51,2.18-1.52,4.86-3.85,5.3a2.33,2.33,0,0,1-2.76-2.61L52.6,33a5.25,5.25,0,0,1,1.67-2.61H46.94A2.63,2.63,0,0,1,47.59,33l-2,10.09c-.44,1.74-.51,4.21,3.92,4.28s4.94-.73,5.81-1.23c-.07.58.73,1.16,1.38,1.16H62c-.8-1.09-.73-1.67-.51-3ZM19.72,28.37c-1.48.07-3.8,0-5.23.08l.22-1.1H7.59a1.72,1.72,0,0,1,.65,1.6v0A11.13,11.13,0,0,0,1.5,33.71,7.11,7.11,0,0,0,.17,39.54,5.57,5.57,0,0,0,2.6,43a8.39,8.39,0,0,0,2.71.59L4.76,46.3a7,7,0,0,1-2.61,4H12.89c3.85,0,12.7-1.6,14.59-11.18,1.09-5.81.8-10.74-7.77-10.74Zm53.06,3h1.81c.51,0,2.25-.07,1.52,3.27s-3.27,3.23-4.65,3.16l1.31-6.42ZM36,31.34h1.81c.51,0,2.25-.07,1.52,3.27s-3.27,3.23-4.65,3.16L36,31.34ZM5.48,42.71A8.53,8.53,0,0,1,3,42.21a4.78,4.78,0,0,1-2-2.88,6.29,6.29,0,0,1,1.2-5.13A10.27,10.27,0,0,1,8,29.94L5.48,42.71ZM13,48.26a7.4,7.4,0,0,1-2.54,0l1.14-5.59a8.7,8.7,0,0,0,4.86-5.3.44.44,0,1,0-.82-.29h0a7.87,7.87,0,0,1-3.82,4.52l2.5-12.22c2.3,0,5.44.09,6.66,4.65,1.31,4.86-1.23,13.36-8,14.23Z"/></svg>
