<svg id="Layer_1" data-name="Layer 1" xmlns="http://www.w3.org/2000/svg" viewBox="0 0 100 100"><defs><style>.cls-1{fill:#FFFFFF;}</style></defs><title>fairmont</title><path class="cls-1" d="M12.07,60.3c3.67-1.6,9.35-10.53,10.47-13-.65,0-3.73.06-3.73,2.9A1.15,1.15,0,0,1,17.87,49c0-1.12,1.18-2.31,5.09-2.31,1.6-2.66,4.2-6.21,5.92-7.46.71-.47.77-.36.3.12-.53.77-1.36,2-2.19,3.37-1.42,2.31-2.9,5.44-4.73,8.52a28.09,28.09,0,0,1-5.68,6.86,13.47,13.47,0,0,1-4.91,2.72c-.47.12-.41-.24.41-.53Zm27.1-26.39a10,10,0,0,0-6.27,2.31c-2.31-.95-6.86-3.79-11.77-3.79-5.92,0-9.64,3.73-9.64,7.75a5.66,5.66,0,0,0,5.92,5.5c4.67,0,5.33-3.37,5.33-3.73s-.06-.71-.3-.83-.24-.06-.24.06c0,1.24-2.43,3.85-5.38,3.85-6.8,0-4-12,3.49-12,4.14,0,8.52,2.72,11.66,4.14-2,2.13-4.14,5.09-7.22,11.24C20.47,56.81,14.91,62,8.7,62c-3.37,0-6.86-2.19-6.86-7.57,0-9.11,12.07-11.6,12.07-2.25C13.91,56,11.24,58,9.05,58c-2.49,0-3-1.54-3-3,0-3.08,1.54-3.67.77-3.67-2.72,0-3.31,7.16,2.6,7.16,3.79,0,6.09-3.31,6.15-6.63.06-3.08-2-6.09-6.69-6.09C3,45.8-.06,50.06,0,54.26s3,8.29,9.17,8.29c5,0,8.17-2.13,10.95-4.73,3.08-2.84,5-6.57,6.57-10.24a6.71,6.71,0,0,0,2.13.12c-.18.47-.3,1.72.12,1.72.18,0,.06-.36.36-1,.41-.83,1.18-1.24,2.66-2.25.65-.47.36-1.12-.3-1.12-1.3,0-1.89,2.07-3.43,2.07-.41-.06-.95-.12-1.24-.18.95-2.43,3.43-7.4,5.68-9.41.95.41,4.2,2,6.51,2C44.73,39.53,45.5,33.91,39.17,33.91Zm-.06.47c4.67,0,4.85,4.14.41,4.14-2.25,0-4.56-1.3-5.92-1.89a8.64,8.64,0,0,1,5.5-2.25ZM100,45.74v.36l-5.27.18s-1.77,2.6-3.37,5c-.24.3-1.3,2-1.89,3-.95,1.72-3.31,5.5-.95,6.39.3.12.89.41.71.65a2.09,2.09,0,0,1-1.24.41c-4.5,0-1.42-5.86.35-8.17-.53.59-2.55,3.2-4.62,3.2a1.48,1.48,0,0,1-1.66-1.48c0-2.37,4.56-6.09,2.72-6.09a3.27,3.27,0,0,0-1.3.59,12.74,12.74,0,0,0-3.26,3.14c-1.36,1.83-2.66,3.73-2.66,3.73l-2,.06s3.67-5.5,3.73-5.62c-.95.83-2.78,1.42-3.73.3-.18,2.13-3.14,5.56-5.5,5.56-2,0-2.48-2-2-3.61-1.54,2-3.08,3.37-4.62,3.37A1.56,1.56,0,0,1,62,55c0-1.72,3-4.32,3-5.44,0-.18-.06-.41-.35-.41a3.65,3.65,0,0,0-2,.95,15.49,15.49,0,0,0-3.31,4.14c-.53.77-.47.77-1.6,2.37h-2l4-6c.3-.41,1-1.48.18-1.48-1.3,0-3.49,2-5.27,4.38q-1.06,1.57-2.13,3.14h-2l3.73-5.56a5,5,0,0,1-1.83.47,1,1,0,0,1-1.12-1.12A1.52,1.52,0,0,1,52.37,49c-1.77.06-4.26,2.43-6.69,6-.65.95-1.07,1.6-1.07,1.6h-2s.89-1.3,2-2.9c-.18.12-2.66,3-4.2,3-1.36,0-1.72-1.42-1.48-2.6,0,0-1.83,2.6-3.61,2.6-1.3,0-1.83-1.3-1.72-2.43a.06.06,0,0,1-.06.06c-.24.41-1.72,2.43-3.55,2.37-4.08,0-1.07-8,3.73-8,1.24,0,1.89.47,1.89,1.54.3-.47,1-1.48,1-1.48h2s-2.07,3.08-3.08,4.67c-.77,1.12-1.24,2.72-.24,2.72,1.72,0,3.37-2.6,4.73-4.67,1-1.48,1.83-2.72,1.83-2.72h2S42,51.6,40.59,53.67c-1.07,1.48-.95,2.48-.24,2.48,1.42,0,4.67-3.25,6.33-5.8.65-.95,1.07-1.6,1.07-1.6h2l-1.42,2.07v.06a7.13,7.13,0,0,1,3.91-2.31A1.33,1.33,0,0,1,53,51.06a3.08,3.08,0,0,0,2-1.12l.83-1.18h2.07l-1.36,2c1.6-1.6,2.9-2,3.73-2,2.07,0,1.12,2,1.12,2,.3-.36,1.77-2,3.49-2,1.06,0,1.48.47,1.48,1.3.06,1.12-.95,2.43-2.25,4.56-.36.59-1,1.54-.24,1.54,1.89,0,5.27-4.91,5.33-5a5.58,5.58,0,0,1,4.5-2.6,2,2,0,0,1,1.89,1.72c1,2.78,3.9.53,4.85-.83l.41-.59h2l-1.36,2.07c.24-.24,2-2.13,3.79-2.13a1.29,1.29,0,0,1,1.36,1.48c0,1.42-1.72,3.31-2.37,4.68s-.12,1.66,1.3.71c1.78-1.18,3.43-3.31,5.39-6.1q1.1-1.56,2.19-3.14c-2,0-18.22.36-18.22.36L74,45.8l19.47-.06s1.78-3,3.26-3h.12c.24,0,.12.12,0,.3-.65,1-1.77,2.66-1.77,2.66H100ZM30.06,56.09c2.25,0,6.57-6.8,4-6.8C32.07,49.29,27.63,56.09,30.06,56.09ZM44.38,45.15a1.09,1.09,0,0,0-1.12,1.12,1.08,1.08,0,0,0,1.12,1.07,1.06,1.06,0,0,0,1.07-1.07A1.08,1.08,0,0,0,44.38,45.15Zm26.21,6.74c-1.24,1.83-1.84,3.85-1.18,4.26s2.31-.77,3.55-2.66,1.84-3.85,1.12-4.26-2.25.77-3.49,2.66Z"/><path class="cls-1" d="M79.17,60.65h-54a.36.36,0,1,1,0-.71h54a.36.36,0,1,1,0,.71Z"/><path class="cls-1" d="M24.85,65.5c.06,0,.06,0,.06-.06V64.38c-.06-.18-.06-.24-.24-.24s-.12-.06-.18-.06h-.12c0-.06.06-.06.12-.06h1.36c.06,0,.12,0,.12.06h-.12c-.06,0-.06.06-.12.06s-.18.06-.18.24a3.19,3.19,0,0,0-.06,1v.83a3.94,3.94,0,0,0,.06.95.27.27,0,0,0,.18.3H26c.06,0,.12,0,.12.06H24.5c0-.06,0-.06.06-.06h.18c.12-.06.12-.12.12-.3a4,4,0,0,0,.06-.95V65.8c0-.06,0-.06-.06-.06H23a.06.06,0,0,0-.06.06v.41a3.94,3.94,0,0,0,.06.95.27.27,0,0,0,.18.3h.24c.06,0,.12,0,.12.06h-1.6c0-.06,0-.06.06-.06h.18c.12-.06.12-.12.12-.3a4,4,0,0,0,.06-.95V64.38c0-.18-.06-.24-.24-.24s-.12-.06-.18-.06h-.12c0-.06.06-.06.12-.06h1.36c.06,0,.12,0,.12.06h-.12a.21.21,0,0,1-.12.06c-.18,0-.18.06-.18.24a3.19,3.19,0,0,0-.06,1v.06a.06.06,0,0,0,.06.06h1.89Zm2.13.3A1.87,1.87,0,0,1,29.05,64c1.3,0,2.07.65,2.07,1.72a1.92,1.92,0,0,1-2.07,1.89A1.83,1.83,0,0,1,27,65.8Zm3.43.06a1.51,1.51,0,0,0-1.48-1.66c-.59,0-1.24.3-1.24,1.42a1.54,1.54,0,0,0,1.54,1.72C29.59,67.34,30.42,67.22,30.42,65.86Zm2.9-1.6-.77.06c-.3,0-.41,0-.47.12s-.12.12-.12.18a.06.06,0,0,1-.06.06v-.12c0-.06.06-.47.06-.53L32,64c.06,0,.12.06.24.06h2.49a2.22,2.22,0,0,0,.47-.06c.06,0,.06.06.06.12v.53a.06.06,0,0,1-.06.06c-.06,0-.06,0-.06-.06v-.06c0-.12-.18-.24-.59-.24l-.65-.06v2a3.94,3.94,0,0,0,.06.95c0,.18,0,.24.18.3h.24c.06,0,.12,0,.12.06H32.84c0-.06.06-.06.12-.06h.18a.35.35,0,0,0,.12-.3,4,4,0,0,0,.06-.95v-2Zm3.31,1.12v-1c0-.18-.06-.24-.18-.24s-.18-.06-.24-.06h-.06c0-.06,0-.06.12-.06h2.19l.06-.06a.06.06,0,0,1,.06.06,1.2,1.2,0,0,0-.06.3c0,.06,0,.24-.06.3v.06c-.06,0-.06,0-.06-.06a.29.29,0,0,0-.06-.18c0-.06-.06-.12-.3-.12a3.13,3.13,0,0,0-.71-.06c-.06,0-.06,0-.06.06V65.5a.06.06,0,0,0,.06.06h.77c.12-.06.24-.06.24-.12s.06-.06.12-.06v.41c-.06.06-.06.24-.06.3s0,.06-.06.06a.22.22,0,0,0-.06-.18c0-.12-.06-.18-.24-.18h-.77v1.12c0,.3.12.36.59.36a1.3,1.3,0,0,0,.47-.06.42.42,0,0,0,.24-.3c0-.06,0-.12.06-.12s.06.06.06.12-.06.41-.06.53-.12.12-.3.12c-.77,0-1.12-.06-1.42-.06h-.71c0-.06,0-.06.06-.06h.24a.35.35,0,0,0,.12-.3V65.38h0Zm4.38.83c0,.59,0,.89.12.95s.18.12.59.12a.89.89,0,0,0,.59-.12.45.45,0,0,0,.12-.3.06.06,0,0,1,.12,0,2.19,2.19,0,0,1-.12.53c0,.12-.06.18-.3.18-.71,0-1.07-.06-1.48-.06h-.71c0-.06,0-.06.06-.06h.18c.12-.06.12-.12.18-.3V64.38c0-.18-.06-.24-.24-.24a.21.21,0,0,0-.12-.06h-.12c0-.06.06-.06.12-.06h1.36c.06,0,.12,0,.12.06h-.12c-.06,0-.12.06-.18.06s-.18.06-.18.24v1.84Zm2.72,1.24a.13.13,0,0,1-.12-.12c0-.3.06-.53.06-.65s0-.12.06-.12.06.06.06.12a.44.44,0,0,0,.06.24c.06.36.36.47.71.47a.6.6,0,0,0,.65-.53c0-.24-.06-.47-.47-.77l-.24-.18c-.59-.35-.77-.71-.77-1.06,0-.53.47-.89,1.18-.89.3,0,.53.06.65.06a.06.06,0,0,1,.06.06v.59c0,.06,0,.12-.06.12s-.06,0-.06-.06a.5.5,0,0,0-.12-.36.77.77,0,0,0-.53-.18c-.41,0-.59.18-.59.47s.12.36.53.65l.12.12c.59.41.83.71.83,1.18a.87.87,0,0,1-.47.77,1.32,1.32,0,0,1-.83.18,1.5,1.5,0,0,1-.71-.12Zm5.92-2a1,1,0,0,1-.3-.71c0-.36.36-.83,1.24-.83a1.48,1.48,0,0,1,.59.12c.12,0,.12.06.12.12s-.06.47-.06.59l-.06.06c-.06,0-.06,0-.06-.06a.87.87,0,0,0-.12-.41.79.79,0,0,0-.59-.24.57.57,0,0,0-.53.53c0,.47.41.83.83,1.24a9.28,9.28,0,0,0,.89.77,1.12,1.12,0,0,0,.24-.71.36.36,0,0,0-.06-.24.53.53,0,0,0-.3-.06h-.06c0-.06.06-.06.12-.06h.59c.12,0,.18.06.18.12a1.67,1.67,0,0,1-.53,1.06,3.35,3.35,0,0,0,.71.47,1.37,1.37,0,0,0,.53.18c.06,0,.06,0,.06.06h-.53a1.75,1.75,0,0,1-1.18-.35,1.4,1.4,0,0,1-1.18.41c-1.07,0-1.36-.59-1.36-1a1.33,1.33,0,0,1,.83-1.07ZM51.18,67c-.3-.24-.77-.71-.89-.83a4.81,4.81,0,0,1-.53-.59.83.83,0,0,0-.36.71.9.9,0,0,0,.95.95,1.72,1.72,0,0,0,.83-.24Zm4.5-1.66v-1c0-.18-.06-.24-.18-.24s-.18-.06-.24-.06h-.06c0-.06,0-.06.12-.06h1.36a2.46,2.46,0,0,1,.95.18,1,1,0,0,1,.36.65c0,.35-.18.65-.71,1.06.47.47.83.89,1.12,1.18a1.27,1.27,0,0,0,.53.36h.18a.06.06,0,0,1,.06.06h-.59a1.17,1.17,0,0,1-.53-.06,2.65,2.65,0,0,1-.71-.71,7.83,7.83,0,0,1-.47-.65h-.59v.06a4.25,4.25,0,0,0,.06,1,.27.27,0,0,0,.18.3h.24c.06,0,.06,0,.06.06H55.27c0-.06,0-.06.06-.06h.18a.27.27,0,0,0,.18-.3V65.38Zm.59.36c0,.06,0,.06.06.06a.87.87,0,0,0,.41.06.64.64,0,0,0,.36-.06.89.89,0,0,0,.3-.71.75.75,0,0,0-.77-.83h-.3a.06.06,0,0,0-.06.06v1.42Zm3.79-.36v-1c0-.18-.06-.24-.24-.24a.59.59,0,0,0-.18-.06h-.06c0-.06,0-.06.06-.06h2.19c.06,0,.06-.06.12-.06v.36c0,.06-.06.24-.06.3s0,.06-.06.06v-.06a.59.59,0,0,1-.06-.18c-.06-.06-.06-.12-.35-.12a2.65,2.65,0,0,0-.71-.06v1.3h.83c.12-.06.18-.06.24-.12a.06.06,0,0,0,.06-.06c.06,0,.06,0,.06.06a.86.86,0,0,0-.06.36v.3c0,.06,0,.06-.06.06h-.06V66c0-.12-.12-.18-.3-.18h-.71v1.12c0,.3.06.36.59.36a1.3,1.3,0,0,0,.47-.06.42.42,0,0,0,.24-.3c0-.06,0-.12.06-.12v.12a1.65,1.65,0,0,1-.06.53c0,.12-.06.12-.24.12-.77,0-1.12-.06-1.42-.06h-.71c0-.06,0-.06.06-.06h.18c.12-.06.12-.12.18-.3V65.38Zm3.67,2.07a.13.13,0,0,1-.12-.12c0-.3.06-.53.06-.65s0-.12.06-.12.06.06.06.12v.24a.72.72,0,0,0,.77.47.6.6,0,0,0,.65-.53c0-.24-.06-.47-.47-.77l-.24-.18c-.59-.35-.77-.71-.77-1.06,0-.53.47-.89,1.18-.89.3,0,.53.06.65.06a.06.06,0,0,1,.06.06v.59c0,.06,0,.12-.06.12s-.06,0-.06-.06a.5.5,0,0,0-.12-.36.77.77,0,0,0-.53-.18c-.41,0-.59.18-.59.47s.12.36.53.65l.12.12c.59.41.83.71.83,1.18a.87.87,0,0,1-.47.77,1.32,1.32,0,0,1-.83.18,1.4,1.4,0,0,1-.71-.12Zm3.43-1.66A1.84,1.84,0,0,1,69.23,64c1.24,0,2,.65,2,1.72a1.92,1.92,0,0,1-2.07,1.89,1.78,1.78,0,0,1-2-1.77Zm3.37.06a1.51,1.51,0,0,0-1.48-1.66c-.59,0-1.24.3-1.24,1.42a1.54,1.54,0,0,0,1.54,1.72c.36,0,1.18-.12,1.18-1.48Zm2.13-.47v-1c0-.18-.06-.24-.24-.24a.59.59,0,0,0-.18-.06h-.06c0-.06,0-.06.06-.06h1.42a2.69,2.69,0,0,1,.95.18,1,1,0,0,1,.3.65c0,.35-.12.65-.65,1.06.47.47.83.89,1.12,1.18a1.27,1.27,0,0,0,.53.36H76c.06,0,.06,0,.06.06h-.53a1.17,1.17,0,0,1-.53-.06,2.65,2.65,0,0,1-.71-.71,7.83,7.83,0,0,1-.47-.65h-.59v.06a4.25,4.25,0,0,0,.06,1c0,.18,0,.24.18.3h.24c.06,0,.06,0,.06.06H72.25c0-.06,0-.06.06-.06h.18c.12-.06.12-.12.18-.3V65.38Zm.59.36c0,.06,0,.06.06.06a.75.75,0,0,0,.35.06c.24,0,.3,0,.36-.06a.74.74,0,0,0,.3-.71.75.75,0,0,0-.77-.83h-.24a.06.06,0,0,0-.06.06v1.42Zm4.14-1.48-.71.06c-.3,0-.41,0-.47.12s-.12.12-.12.18a.06.06,0,0,1-.06.06.21.21,0,0,1-.06-.12c0-.06.12-.47.12-.53a.06.06,0,0,1,.06-.06c.06,0,.12.06.24.06h2.48a2.21,2.21,0,0,0,.47-.06c.06,0,.06.06.06.12s-.06.41-.06.53v.06c-.06,0-.06,0-.06-.06v-.06c-.06-.12-.18-.24-.59-.24L78,64.26v2.9c.06.18.06.24.24.3h.24c.06,0,.06,0,.06.06H77c0-.06,0-.06.06-.06h.18a.27.27,0,0,0,.18-.3v-2.9h0Zm3,3.2c-.12,0-.12-.06-.12-.12,0-.3.06-.53.06-.65s0-.12.06-.12a.21.21,0,0,1,.06.12v.24a.69.69,0,0,0,.71.47c.47,0,.71-.3.71-.53s-.12-.47-.53-.77l-.18-.18c-.59-.35-.77-.71-.77-1.06,0-.53.47-.89,1.18-.89.3,0,.53.06.65.06a.06.06,0,0,1,.06.06v.59a.21.21,0,0,1-.06.12c-.06,0-.06,0-.06-.06a1.23,1.23,0,0,0-.12-.36,1,1,0,0,0-.59-.18c-.36,0-.59.18-.59.47s.12.36.53.65l.18.12c.59.41.83.71.83,1.18a.87.87,0,0,1-.47.77,1.41,1.41,0,0,1-.83.18,1.29,1.29,0,0,1-.71-.12Z"/></svg>
