<svg id="Layer_1" data-name="Layer 1" xmlns="http://www.w3.org/2000/svg" viewBox="0 0 100 100"><defs><style>.cls-1{fill:#FFFFFF;}</style></defs><title>fourSeasons</title><path class="cls-1" d="M13.46,78.54c-1,0-2,1.11-2.6,1.83H11c.5-.61,1.55-1.66,2.44-1.66.39,0,.61.28.61.72,0,1-2,3.49-4.1,3.49-.44,0-.94-.22-.94-.78,0-1.05,1.61-3,2.22-3.88,1.72-.28,5.26-3,5.26-4.76a.4.4,0,0,0-.44-.39c-1.44,0-4.93,4-5.76,5.15l-1.05.17a8,8,0,0,1,1.38-1.83l-.06-.06A12.86,12.86,0,0,0,9,78.43l-1.05.17a18.58,18.58,0,0,1,4.49-5.26l-.06-.17a4,4,0,0,1-2,1c-1.11,0-1.83-1.22-3-1.22C5.87,73,3.6,74.5,3.6,76a1.39,1.39,0,0,0,1.55,1.49,3.31,3.31,0,0,0,3-2.55H8a3.88,3.88,0,0,1-3,2.38,1.19,1.19,0,0,1-1.22-1.22A3,3,0,0,1,6.7,73.45c1.38,0,1.77,1.11,2.88,1.11a3.66,3.66,0,0,0,1.94-.72v.06a20.09,20.09,0,0,0-4.65,4.82,6.29,6.29,0,0,0-3.38,1.66l.11.06a6.77,6.77,0,0,1,3.16-1.55c-1.16,1.49-2.71,4-5.09,4-.44,0-1.05-.11-1.05-.39,0-.11.11-.11.22-.11a.51.51,0,0,0,.5-.55.54.54,0,0,0-.61-.55A.68.68,0,0,0,.11,82c0,.61.61,1.05,1.55,1.05,2.66,0,4.82-2.22,6.15-4.32l1.05-.17a18.08,18.08,0,0,0-1.11,1.72h.44a8.24,8.24,0,0,1,1-1.72l1-.17c-.55.83-1.49,2.16-1.49,3.21a1.26,1.26,0,0,0,1.44,1.44c1.5,0,4.1-1.94,4.1-3.6C14.23,78.93,14,78.54,13.46,78.54Zm2.6-5.26c.17,0,.28.06.28.17,0,1.33-3.16,4.26-5,4.65C11.85,77.49,15.12,73.28,16.06,73.28Z"/><polygon class="cls-1" points="44.24 78.77 44.24 78.77 44.24 78.77 44.24 78.77"/><path class="cls-1" d="M71.54,78.82c-.66,0-1.33.72-1.72,1.16L70,80c.33-.39,1-1.05,1.55-1.05a.69.69,0,0,1,.72.66c0,1.22-2.21,3.27-3.43,3.27-.5,0-1.05-.22-1.05-.83,0-1.27,2.1-2.77,2.1-3.71a1.26,1.26,0,0,0-.17-.61c1.22-.22,2.93-1.11,2.93-2.55a2.12,2.12,0,0,0-1.27-1.83,6.79,6.79,0,0,0,.77-.28L72.09,73a3.85,3.85,0,0,0-.94.33A5.37,5.37,0,0,0,69,73c-3.27,0-6.81,2.16-6.81,4.26a1.18,1.18,0,0,0,1.22,1.27c1.88,0,3.71-2.21,3.71-4.1h-.17c0,1.72-2.27,3.93-3.54,3.93-.72,0-1.05-.55-1.05-1.22,0-1.55,3-4,6.76-4a4.75,4.75,0,0,1,1.83.33c-3.93,1.38-6.64,9.47-10.24,9.47-.61,0-1.11-.22-1.11-.44s.72-.06.72-.55a.64.64,0,0,0-.66-.66A.72.72,0,0,0,59,82c0,.66.66,1.11,1.66,1.11,3.32,0,5.43-3.6,7.09-5.92h.06a.82.82,0,0,0,.89.72,2.56,2.56,0,0,0,.77-.11c0,1.05-2.16,2.33-2.16,3.77a1.48,1.48,0,0,0,1.55,1.55c1.66,0,3.6-1.94,3.6-3.38A.84.84,0,0,0,71.54,78.82Zm-2.83-1.11c-.5,0-.78-.28-.78-.44s.17-.22.44-.22a1,1,0,0,1,1.05.61A2.67,2.67,0,0,1,68.71,77.71Zm-.28-.83a.83.83,0,0,0-.55.11l-.06-.06a11.32,11.32,0,0,1,3.32-3.43A1.65,1.65,0,0,1,72,75a3.2,3.2,0,0,1-2.33,2.6A1.4,1.4,0,0,0,68.44,76.88Z"/><path class="cls-1" d="M52.82,82.92c-.28,0-.39-.06-.39-.22s.11-.33.55-.78l7-7.25H59l-4.71,5a1.3,1.3,0,0,0,.11-.44c0-.39-.39-.55-.89-.55A5.4,5.4,0,0,0,49.9,81c-1.6,1.4-2.38,2-2.78,2-.17,0-.22-.06-.22-.17,0-.5,2.33-2.16,2.33-3.27a.78.78,0,0,0-.83-.83,5.14,5.14,0,0,0-2.33,1.44L46,80l1.22-1.27H46.4l-1.68,1.8,0,0c-.66.72-2.77,2.38-3.6,2.38-.17,0-.33-.06-.33-.28s.11-.28.33-.55c1-1.05,2.27-2.49,3.16-3.32H43.3l-.72.72h-.06a.82.82,0,0,0,.06-.33c0-.33-.39-.55-.83-.55-1.11,0-4.15,1.88-4.15,3.6a.82.82,0,0,0,.89.89,3.42,3.42,0,0,0,2-1.11h.06a.93.93,0,0,0-.17.55.57.57,0,0,0,.61.55,5.89,5.89,0,0,0,2.7-1.45l-1.15,1.23h.94c1.88-2.16,4.1-4,4.93-4a.4.4,0,0,1,.44.39c0,.55-2.33,2.22-2.33,3.27,0,.44.22.61.55.61s1.39-.7,2.56-1.74a1.94,1.94,0,0,0-.23.85c0,.44.17.89.83.89A3.1,3.1,0,0,0,52.21,82a.91.91,0,0,0-.11.55c0,.39.39.5.61.5,1,0,1.83-.61,3.82-2.44l-.06-.11C54.6,82.25,53.6,82.92,52.82,82.92Zm-14.34,0c-.39,0-.55-.17-.55-.39s0-.44.55-1.05c2.33-2.44,2.82-2.71,3.43-2.71a.49.49,0,0,1,.5.5C42.41,80,39.76,82.92,38.48,82.92Zm11.85,0c-.33,0-.55-.17-.55-.44s.06-.33.44-.89c.78-1.05,2.82-2.77,3.49-2.77a.45.45,0,0,1,.5.44C54.21,79.93,51.44,82.92,50.33,82.92Z"/><path class="cls-1" d="M50.77,67.19v.33H58l.11-2.71h-.33c-.28,1.44-.66,2.38-2.33,2.38H53.71V63.32c1.38-.06,1.83.28,1.94,1.66H56V61.43h-.33c-.06,1.38-.72,1.55-1.94,1.55V59.33H55a3.42,3.42,0,0,1,1.11.11c.66.17,1.16.66,1.44,1.88h.33L57.86,59H50.77v.33H52v7.86Z"/><path class="cls-1" d="M98.56,62.43a7.36,7.36,0,0,0-.83-.28,7.22,7.22,0,0,0-.83-.28c-.78-.22-1.44-.33-1.44-1.27a1.55,1.55,0,0,1,1.61-1.49,2.26,2.26,0,0,1,2.16,2.27h.44V58.94h-.22l-.5.5a2.85,2.85,0,0,0-1.88-.61,2.27,2.27,0,0,0-2.33,2.33,2.34,2.34,0,0,0,1.77,2.44c.28.11.55.17.78.28.94.33,2,.55,2,1.77a1.9,1.9,0,0,1-1.94,1.77c-1.33,0-2-1.11-2.33-2.33h-.39v2.55h.22l.61-.55a3.07,3.07,0,0,0,1.83.66A2.63,2.63,0,0,0,100,64.92,2.45,2.45,0,0,0,98.56,62.43Z"/><path class="cls-1" d="M69.43,67.08a3.07,3.07,0,0,0,1.83.66A2.65,2.65,0,0,0,74,64.92a2.45,2.45,0,0,0-1.44-2.49,5.45,5.45,0,0,0-.89-.28,6,6,0,0,0-.78-.28c-.77-.22-1.49-.33-1.49-1.27A1.55,1.55,0,0,1,71,59.11a2.35,2.35,0,0,1,2.22,2.27h.39V58.94h-.22l-.5.5A2.71,2.71,0,0,0,71,58.83a2.43,2.43,0,0,0-.55,4.76c.22.11.5.17.78.28.94.33,2,.55,2,1.77a1.85,1.85,0,0,1-1.88,1.77c-1.38,0-2.1-1.11-2.38-2.33h-.33v2.55h.22Z"/><path class="cls-1" d="M35.66,66.53c0-2.1-.44-3.16-2.44-3.49,1.22-.17,2.71-.67,2.71-2.1,0-1.77-1.66-1.94-3-1.94H28.63v.33H29.9v7.86H28.63v.33h4.15v-.33H31.51v-4h.72a2,2,0,0,1,1.16.44,3.22,3.22,0,0,1,.5,2.16,1.74,1.74,0,0,0,2,1.94,3.48,3.48,0,0,0,1.05-.17v-.28C35.71,67.47,35.66,67,35.66,66.53Zm-4.15-3.71h0V59.33h1.11c1.16,0,1.55.39,1.55,1.77,0,1.16-.44,1.72-1.61,1.72Z"/><path class="cls-1" d="M59.08,67.19v.33h2.71v-.33H60.52L61.29,65h2.77l.78,2.22H63.51v.33h4v-.33H66.5l-2.88-8.36h-.44l-3,8.36ZM62.74,61l1.16,3.6H61.41Z"/><path class="cls-1" d="M79.68,67.75c2.49,0,3.93-2.38,3.93-4.71a4,4,0,1,0-7.92,0C75.69,65.37,77.13,67.75,79.68,67.75Zm-2.1-6a4.44,4.44,0,0,1,.17-1.27,2,2,0,0,1,3.82,0,4.44,4.44,0,0,1,.17,1.27v2.77a6.09,6.09,0,0,1-.11,1.44,1.76,1.76,0,0,1-1.94,1.49,1.82,1.82,0,0,1-2-1.49,6.08,6.08,0,0,1-.11-1.44Z"/><path class="cls-1" d="M5.59,67.08H3.93v-5.2c1.83-.06,2.44.33,2.6,2.27H7V59.33H6.53c-.11,1.83-1,2.1-2.6,2.1V56.51H5.76a5.11,5.11,0,0,1,1.77.22c1.16.5,1.38,1.72,1.66,2.82h.44l-.11-3.49H0v.44H1.72V67.08H0v.44H5.59Z"/><path class="cls-1" d="M13.84,67.75c2.55,0,4-2.38,4-4.71a4.32,4.32,0,0,0-4-4.21,4.28,4.28,0,0,0-4,4.21C9.86,65.37,11.3,67.75,13.84,67.75Zm-2.1-6a4.44,4.44,0,0,1,.17-1.27,1.78,1.78,0,0,1,1.94-1.33,1.75,1.75,0,0,1,1.88,1.33,3.07,3.07,0,0,1,.22,1.27h0v2.77a6,6,0,0,1-.17,1.44,1.76,1.76,0,0,1-1.94,1.49,1.86,1.86,0,0,1-2-1.49,6.09,6.09,0,0,1-.11-1.44Z"/><path class="cls-1" d="M45.68,67.36c-1.83,0-2.82-1.49-3.16-3.16H42v3.43h.28l.83-.72a3.75,3.75,0,0,0,2.44.89A3.5,3.5,0,0,0,49.17,64a3.35,3.35,0,0,0-1.94-3.38c-.39-.17-.83-.28-1.16-.39s-.61-.22-1.05-.33c-1.05-.28-2-.39-2-1.72a2.09,2.09,0,0,1,2.16-2,3,3,0,0,1,2.93,3h.55V56h-.28l-.66.66a3.67,3.67,0,0,0-2.49-.83,3,3,0,0,0-3.16,3.1,3.24,3.24,0,0,0,2.38,3.32c.39.11.72.22,1.05.33,1.27.44,2.71.78,2.71,2.38A2.47,2.47,0,0,1,45.68,67.36Z"/><polygon class="cls-1" points="87.54 67.19 86.32 67.19 86.32 59.61 91.69 67.69 92.08 67.69 92.08 59.33 93.35 59.33 93.35 59 90.47 59 90.47 59.33 91.69 59.33 91.69 64.59 87.93 59 84.66 59 84.66 59.33 85.88 59.33 85.88 67.19 84.66 67.19 84.66 67.53 87.54 67.53 87.54 67.19"/><path class="cls-1" d="M20.1,64.37c0,1.44.22,2.27.78,2.66a3.71,3.71,0,0,0,2.27.72,3.83,3.83,0,0,0,2.49-.66,3,3,0,0,0,.77-2.38V59.33h1.27V59H24.75v.33H26V65c0,1.38-.61,2.33-2.1,2.33-2.33,0-2.16-1.55-2.16-3.32V59.33H23V59H18.83v.33H20.1Z"/><path class="cls-1" d="M49.56,21.46a1.15,1.15,0,0,0-1.16-1.11A1.2,1.2,0,0,0,49.56,21.46Z"/><path class="cls-1" d="M49.56,22.62a1.2,1.2,0,0,0-1.22-1.05A1.13,1.13,0,0,0,49.56,22.62Z"/><path class="cls-1" d="M49.5,23.84a1.12,1.12,0,0,0-1.16-1.11A1.2,1.2,0,0,0,49.5,23.84Z"/><path class="cls-1" d="M49.61,17.86a1.15,1.15,0,0,0-1.16-1.05A1.11,1.11,0,0,0,49.61,17.86Z"/><path class="cls-1" d="M49.61,19.08A1.25,1.25,0,0,0,48.39,18,1.21,1.21,0,0,0,49.61,19.08Z"/><path class="cls-1" d="M49.56,20.24a1.11,1.11,0,0,0-1.16-1.05A1.11,1.11,0,0,0,49.56,20.24Z"/><path class="cls-1" d="M59,40l-.3-.15,0,0,.16-.31-.34.1-.06,0-.1-.3-.16.32h0l-.33-.11.11.33-.33.17.33.11-.11.39.33-.16h0l.16.32.1-.3h.05l.35.15-.15-.35,0,0Z"/><path class="cls-1" d="M57.25,27.16a1.16,1.16,0,0,0-1.16,1.11C56.81,28.27,57.14,27.82,57.25,27.16Z"/><path class="cls-1" d="M52.38,26.05a1.11,1.11,0,0,0,1.16,1.05A1.11,1.11,0,0,0,52.38,26.05Z"/><path class="cls-1" d="M56.15,29.32a1.11,1.11,0,0,0,1.16-1.05A1.11,1.11,0,0,0,56.15,29.32Z"/><path class="cls-1" d="M59.8,36.63a1.12,1.12,0,0,0-1.16-1.11C58.64,36.3,59.14,36.57,59.8,36.63Z"/><path class="cls-1" d="M39.2,40.67l10,5.85,0,2.68-1.05.5v.11h3.27V49.7l-1.05-.5,0-2.71,10-5.82c.11-.06.06-.22.06-.22L60,33.75a.24.24,0,0,0-.06-.17c-.06,0-.06.06-.06.17l-.22,6.31s0,.11-.17.22L50.21,45l-.07-4.21,8.12-4.76a.27.27,0,0,0,.06-.17l0-.94a1.13,1.13,0,0,0,1.2-1,1.2,1.2,0,0,0-1.2,1l-.18-4.6c0-.06,0-.11-.06-.11v.11l-.22,5.32s0,.06-.11.11l-7.58,3.92L50,35.25l6.11-3.6a.27.27,0,0,0,.06-.17L56,27.16A.05.05,0,0,0,56,27.1v.06l-.12,3A1.2,1.2,0,0,0,54.65,29a1.14,1.14,0,0,0,1.2,1.11l0,1a.17.17,0,0,1-.06.11l-5.74,3-.08-4.47,4.26-2.55c.06,0,.06-.11.06-.11l-.11-3c0-.06,0-.06-.06-.06v.06L54,26.88a.05.05,0,0,1-.06.06l-4,2.08-.07-3.85,2.79-1.6v-.06l-.06-1a1.13,1.13,0,0,0,1.22-1.05,1.15,1.15,0,0,0-1.22,1.05l-.06-1-.11,1.77a.05.05,0,0,1-.06.06l-2.52,1.34-.13-7.87c0-.06,0-.06-.06-.06v.06l-.14,7.9L47,23.34v-.06L46.87,22a1.14,1.14,0,0,0,1.19-1.1,1.24,1.24,0,0,0-1.19,1l0-.42c0-.06,0-.06-.06-.06v.06l-.06,1a1.07,1.07,0,0,0-1.16-1.05,1.11,1.11,0,0,0,1.16,1.05l-.06,1a1.11,1.11,0,0,0-1.16-1.05,1.11,1.11,0,0,0,1.16,1.05h0a.05.05,0,0,0,.06.06l.48.28a1.16,1.16,0,0,0-1.2,1.1,1.25,1.25,0,0,0,1.21-1.09l.83.49a1.11,1.11,0,0,0-1.16,1.05,1.11,1.11,0,0,0,1.16-1l1.46.86L49.46,29,46.3,27.38a1.2,1.2,0,0,0,1.16-1.11,1.12,1.12,0,0,0-1.16,1.1l-.83-.44a.05.05,0,0,1-.06-.06l-.11-2.82a.05.05,0,0,0-.06-.06v.05A1.21,1.21,0,0,0,44,23a1.14,1.14,0,0,0,1.22,1.11h0l-.11,2A1.12,1.12,0,0,0,44,25a1.2,1.2,0,0,0,1.16,1.11l0,.84a1.16,1.16,0,0,0-1.17-.9,1.13,1.13,0,0,0,1.16,1h0s0,.11.06.11l4.32,2.58-.08,4.46L47,33a1.25,1.25,0,0,0,1.21-1.11A1.17,1.17,0,0,0,47,33l-3.38-1.77c-.11-.06-.11-.11-.11-.11l-.11-4-.06-.06,0,0a1.2,1.2,0,0,0-1.19-1A1.21,1.21,0,0,0,43.3,27.2l0,1a1.15,1.15,0,0,0-1.14-1c.11.65.44,1.09,1.13,1.1l-.05,2.08a1.2,1.2,0,0,0-1.19-1,1.14,1.14,0,0,0,1.19,1.1l0,1.06a.27.27,0,0,0,.06.17l1.32.79a1.19,1.19,0,0,0-1.16,1.09,1.16,1.16,0,0,0,1.21-1.07l.79.47A1.2,1.2,0,0,0,44.24,34,1.16,1.16,0,0,0,45.45,33l.79.47a1.15,1.15,0,0,0-1.17,1.1,1.25,1.25,0,0,0,1.21-1.07l1.63,1a1.15,1.15,0,0,0-1.18,1,1.16,1.16,0,0,0,1.21-1l1.41.84-.08,4.41-7.64-3.95h0c-.11-.06-.11-.11-.11-.11l-.17-5.32c0-.06,0-.11-.06-.11a.19.19,0,0,0-.06.11l-.07,2.54a1.2,1.2,0,0,0-1.2-1,1.21,1.21,0,0,0,1.2,1.1l-.09,3a.12.12,0,0,0,.06.17l8.12,4.79-.07,4.2-9.37-4.79h0a.34.34,0,0,1-.11-.22l-.22-6.31a.24.24,0,0,0-.06-.17c-.06,0-.06.06-.06.17l-.28,6.7S39.09,40.61,39.2,40.67Z"/><path class="cls-1" d="M58.47,38.18a1.13,1.13,0,0,0,1.22,1.05C59.63,38.51,59.14,38.23,58.47,38.18Z"/><path class="cls-1" d="M51.55,30.59a1.16,1.16,0,0,0-1.22-1.05A1.13,1.13,0,0,0,51.55,30.59Z"/><path class="cls-1" d="M47.9,33.47a1.2,1.2,0,0,0,1.16-1.11A1.12,1.12,0,0,0,47.9,33.47Z"/><path class="cls-1" d="M47.84,30.59A1.11,1.11,0,0,0,49,29.54,1.11,1.11,0,0,0,47.84,30.59Z"/><path class="cls-1" d="M47,30.09A1.11,1.11,0,0,0,48.17,29,1.11,1.11,0,0,0,47,30.09Z"/><path class="cls-1" d="M45.57,30.59a1.11,1.11,0,0,0-1.16,1.05A1.11,1.11,0,0,0,45.57,30.59Z"/><path class="cls-1" d="M44.68,29a1.16,1.16,0,0,0-1.16,1.11C44.24,30.15,44.57,29.71,44.68,29Z"/><path class="cls-1" d="M43.58,31.2a1.2,1.2,0,0,0,1.16-1.11A1.12,1.12,0,0,0,43.58,31.2Z"/><path class="cls-1" d="M52.49,22.07A1.16,1.16,0,0,0,51.33,21,1.16,1.16,0,0,0,52.49,22.07Z"/><path class="cls-1" d="M52.44,23.12A1.12,1.12,0,0,0,51.27,22,1.2,1.2,0,0,0,52.44,23.12Z"/><path class="cls-1" d="M46.46,31a1.11,1.11,0,0,0-1.16,1.05A1.11,1.11,0,0,0,46.46,31Z"/><path class="cls-1" d="M46.79,21.46a1.11,1.11,0,0,0-1.16-1.05A1.11,1.11,0,0,0,46.79,21.46Z"/><path class="cls-1" d="M52.75,34.74l-.1.34.31-.16,0,0,.15.3.1-.29.06,0,.34.15-.14-.34a.39.39,0,0,0,0-.07l.29-.1-.31-.15,0,0,.16-.32-.39.11-.11-.33-.17.33-.33-.11.11.33h0l-.32.16.3.1A.35.35,0,0,0,52.75,34.74Z"/><path class="cls-1" d="M53.76,20.4a1.2,1.2,0,0,0-1.22,1.05A1.13,1.13,0,0,0,53.76,20.4Z"/><path class="cls-1" d="M46.62,25.83a1.16,1.16,0,0,0-1.22,1.05A1.13,1.13,0,0,0,46.62,25.83Z"/><path class="cls-1" d="M44,24a1.11,1.11,0,0,0,1.16,1.05A1.11,1.11,0,0,0,44,24Z"/><path class="cls-1" d="M48,28.27a1.17,1.17,0,0,0,1.22-1.11A1.25,1.25,0,0,0,48,28.27Z"/><path class="cls-1" d="M47.73,25.89a1.11,1.11,0,0,0,1.16-1.05A1.11,1.11,0,0,0,47.73,25.89Z"/><path class="cls-1" d="M42.08,28.27a1.11,1.11,0,0,0,1.16,1.05A1.11,1.11,0,0,0,42.08,28.27Z"/><path class="cls-1" d="M47,23.12A1.2,1.2,0,0,0,48.12,22,1.12,1.12,0,0,0,47,23.12Z"/><path class="cls-1" d="M54.21,25.17c.72,0,1.05-.44,1.16-1.11A1.16,1.16,0,0,0,54.21,25.17Z"/><path class="cls-1" d="M43.8,32A1.16,1.16,0,0,0,42.58,33,1.17,1.17,0,0,0,43.8,32Z"/><path class="cls-1" d="M47.18,27.82a1.2,1.2,0,0,0,1.16-1.11A1.12,1.12,0,0,0,47.18,27.82Z"/><path class="cls-1" d="M39.92,33.91A1.11,1.11,0,0,0,41.09,35,1.11,1.11,0,0,0,39.92,33.91Z"/><path class="cls-1" d="M41.2,31.81A1.16,1.16,0,0,0,40,30.7C40.14,31.37,40.48,31.81,41.2,31.81Z"/><path class="cls-1" d="M44.46,28.65a1.21,1.21,0,0,0,1.22-1.11A1.17,1.17,0,0,0,44.46,28.65Z"/><path class="cls-1" d="M45.29,29.1A1.13,1.13,0,0,0,46.51,28,1.2,1.2,0,0,0,45.29,29.1Z"/><path class="cls-1" d="M42,30.43a1.11,1.11,0,0,0,1.16,1.05A1.11,1.11,0,0,0,42,30.43Z"/><path class="cls-1" d="M46.18,29.6a1.11,1.11,0,0,0,1.16-1.05A1.11,1.11,0,0,0,46.18,29.6Z"/><path class="cls-1" d="M55.31,23a1.16,1.16,0,0,0-1.16,1.11C54.87,24.06,55.2,23.62,55.31,23Z"/><path class="cls-1" d="M47.34,31.48a1.2,1.2,0,0,0-1.22,1.05A1.13,1.13,0,0,0,47.34,31.48Z"/><path class="cls-1" d="M52.21,37.46l.11-.39-.32.16,0,0-.15-.31-.1.3-.06,0-.34-.14.14.34a.41.41,0,0,0,0,.06l-.3.1.3.15,0,0-.15.31.34-.1.06,0,.1.3L52,38h0l.33.11-.11-.33.33-.17Z"/><path class="cls-1" d="M55.09,40.78l-.35-.1a.41.41,0,0,0,0-.06l.14-.34-.32.16,0,0-.15-.31-.15.31,0,0-.32-.16.11.39-.33.11.33.17-.11.33.33-.11h0l.16.32.16-.32h0l.33.11L54.72,41l0,0Z"/><path class="cls-1" d="M61.85,39a1.21,1.21,0,0,0-1.22-1.11C60.69,38.68,61.18,39,61.85,39Z"/><path class="cls-1" d="M51.61,40c.06.72.55,1,1.22,1.05A1.13,1.13,0,0,0,51.61,40Z"/><path class="cls-1" d="M54.82,45l-.11.33.33-.11h0l.16.32.16-.32h0l.33.11L55.59,45l.33-.17-.33-.11.11-.39-.33.16h0l-.16-.32-.16.32h0l-.32-.16.11.39-.33.11Z"/><path class="cls-1" d="M57.7,42.44c0,.72.5,1.05,1.16,1.11A1.09,1.09,0,0,0,57.7,42.44Z"/><path class="cls-1" d="M96.4,82.31a2.35,2.35,0,0,1,.33-.39,1.89,1.89,0,0,0,.5-1.33c-.06-.61-.55-1-.89-1.49.22-.22.66-.66.66-1.05a.24.24,0,0,0-.22-.22c-.5,0-.72.55-.72.94a1.11,1.11,0,0,0,.11.33,13.28,13.28,0,0,1-2.33,2.21l-.14.16a6.07,6.07,0,0,1-3.13,1.45c-.11,0-.28-.06-.28-.17s.28-.44.83-1.11l3.43-3.71h.89l.11-.17h-.83l1.77-1.88h-.94L93.8,77.77h-.89l-.17.17h.94l-2.13,2.31a7.07,7.07,0,0,1-1.3.51c-.33,0-.5-.33-.5-.72.44-.11,1.33-.61,1.33-1.11,0-.22-.11-.28-.33-.28a1.81,1.81,0,0,0-1.16,1.27,5.51,5.51,0,0,0-1.72.77l1.77-1.94H88.7l-1.46,1.66,0-.06a1.61,1.61,0,0,1-1,.44.83.83,0,0,1-.61-.22,2.85,2.85,0,0,0,.61-1.44c0-.22-.11-.39-.28-.39a.2.2,0,0,0-.17.06.64.64,0,0,0-.61-.33c-1.09,0-2.84,1.39-3.63,2.64a11.89,11.89,0,0,1-2,1.07c.11-.11.22-.28.33-.39a1.89,1.89,0,0,0,.5-1.33c-.06-.61-.55-1-.89-1.44.22-.28.66-.72.66-1.05,0-.11-.11-.28-.22-.28-.5,0-.72.55-.72.94a.7.7,0,0,0,.11.33A11.41,11.41,0,0,1,77,81.2a7.18,7.18,0,0,1-3.72,1.72c-.28,0-.55-.06-.55-.33s.11-.5.94-1.38c1,0,3.43-.72,3.43-2a.61.61,0,0,0-.61-.61c-1.5,0-4.21,2.32-4.21,3.82,0,.5.44.66.89.66a6.92,6.92,0,0,0,3.55-1.5,1.23,1.23,0,0,0-.23.62c-.06.5.06.94.78.94a3.85,3.85,0,0,0,1.94-.66,8.75,8.75,0,0,0,2.14-1.08,1.92,1.92,0,0,0-.26.85.86.86,0,0,0,.89.83c1.05,0,2.16-.72,3.49-2.38a1.06,1.06,0,0,0,.72.28,1.57,1.57,0,0,0,.75-.23L85.1,82.86H86l.83-1a5.13,5.13,0,0,1,2.77-1.77c0,.5.28.83.66.83a6.59,6.59,0,0,0,1.07-.43l-.24.26c-.78.89-1.05,1.38-1.05,1.77s.17.55.5.55a5.94,5.94,0,0,0,3-1.33,1.16,1.16,0,0,0-.17.55c-.06.5.06.94.78.94a3.85,3.85,0,0,0,1.94-.66A10.3,10.3,0,0,0,98.95,81l-.11-.11A10.42,10.42,0,0,1,96.4,82.31ZM76.52,78.76a.26.26,0,0,1,.28.28c0,.72-1.5,2-3,2C75.25,79.43,76,78.76,76.52,78.76ZM77.13,83c-.44.06-.5-.33-.5-.72a1.53,1.53,0,0,1,.44-.83A14.8,14.8,0,0,0,79.4,79.1a3,3,0,0,1,.39,1C79.9,81.42,78,82.92,77.13,83Zm8.08-3.1a1.52,1.52,0,0,0,.17.72c-.94,1.27-2.27,2.33-3.21,2.33-.39,0-.55-.22-.55-.39s.11-.44.44-.83c1.49-1.72,2.6-3,3.21-3,.17,0,.28.17.33.28A1.24,1.24,0,0,0,85.21,79.87ZM94,83.08c-.44,0-.5-.39-.5-.72a1.21,1.21,0,0,1,.44-.83,14.81,14.81,0,0,0,2.33-2.33,3,3,0,0,1,.39,1C96.73,81.53,94.79,83,94,83.08Z"/><path class="cls-1" d="M54.15,45.27a1.1,1.1,0,0,0-.72,1.44A1.18,1.18,0,0,0,54.15,45.27Z"/><path class="cls-1" d="M32.89,82.2c.11-.11.28-.22.33-.39a1.6,1.6,0,0,0,.5-1.33c-.06-.61-.55-1-.89-1.44.22-.22.66-.66.66-1.05a.24.24,0,0,0-.22-.22c-.44,0-.66.55-.66.94a2,2,0,0,0,.06.33,10.51,10.51,0,0,1-2,2l-.14.05c-1.61,1.38-2.66,1.83-3.43,1.83a.32.32,0,0,1-.33-.33,28.78,28.78,0,0,1,2.44-3.32c2.1-1.38,6.15-4,6.15-5.59a.46.46,0,0,0-.5-.5c-1.15,0-5.79,4.69-7.64,7.45v0c-1.66,1.33-3.1,2.33-4.32,2.33-.28,0-.55-.06-.55-.33s.11-.5.94-1.38c1,0,3.43-.72,3.43-2a.61.61,0,0,0-.61-.61,5.47,5.47,0,0,0-3.26,1.94h0c-2.27,2-3.1,2.38-3.49,2.38-.17,0-.33-.06-.33-.17s.28-.44.89-1.11l3.43-3.71h.89l.11-.17h-.89l1.77-1.88h-.89l-1.77,1.88h-.94l-.11.17h.89l-2.3,2.5,0-.06a1.91,1.91,0,0,1-1,.44,1.06,1.06,0,0,1-.66-.22A2.44,2.44,0,0,0,19,79.15c0-.22-.06-.39-.28-.39a.2.2,0,0,0-.17.06.51.51,0,0,0-.55-.33c-1.49,0-4,2.44-4,3.77a.85.85,0,0,0,.83.83c1.11,0,2.21-.72,3.54-2.38A1,1,0,0,0,19,81a1.59,1.59,0,0,0,.74-.24l0,0c-.78.89-1,1.38-1,1.77s.17.55.5.55c.55,0,1.5-.59,3.08-1.94a2.44,2.44,0,0,0-.48,1.28c0,.5.44.66.89.66,1.42,0,3-1.1,4.23-2.16a3.15,3.15,0,0,0-.58,1.33c0,.5.22.83.78.83s1.35-.21,2.87-1.41a1.57,1.57,0,0,0-.21.58c-.06.5.06.89.78.89a3.38,3.38,0,0,0,1.94-.66,9.37,9.37,0,0,0,2.88-1.55l-.06-.11A9.7,9.7,0,0,1,32.89,82.2Zm2-8.86h0c.17,0,.28.11.28.33,0,1.38-3,3.32-5.65,5.21h-.06C32.39,75.17,34.33,73.34,34.88,73.34Zm-8.8,5.43a.26.26,0,0,1,.28.28c0,.72-1.49,2-3,2C24.81,79.43,25.53,78.76,26.08,78.76Zm-7.92,1.83c-.94,1.27-2.27,2.33-3.21,2.33-.39,0-.5-.22-.5-.39a1.19,1.19,0,0,1,.39-.83c1.49-1.72,2.6-3,3.21-3a.31.31,0,0,1,.33.28,1.24,1.24,0,0,0-.39.94A1.53,1.53,0,0,0,18.16,80.59ZM30.45,83c-.44.06-.5-.33-.44-.72a1.46,1.46,0,0,1,.39-.83,19.69,19.69,0,0,0,2.38-2.27,2.82,2.82,0,0,1,.33,1C33.22,81.48,31.34,82.92,30.45,83Z"/><path class="cls-1" d="M53.88,37.68a1.16,1.16,0,0,0-1.22-1.05A1.16,1.16,0,0,0,53.88,37.68Z"/><path class="cls-1" d="M52.66,43.72a1.16,1.16,0,0,0-1.16-1.11C51.61,43.27,51.94,43.72,52.66,43.72Z"/><path class="cls-1" d="M57.86,34.25a1.12,1.12,0,0,0-1.16-1.11A1.2,1.2,0,0,0,57.86,34.25Z"/><path class="cls-1" d="M54,35.58a1.18,1.18,0,0,0,.72-1.44A1.14,1.14,0,0,0,54,35.58Z"/><path class="cls-1" d="M55.65,38.18a1.14,1.14,0,0,0-.72,1.44A1.18,1.18,0,0,0,55.65,38.18Z"/></svg>
