<svg id="Layer_1" data-name="Layer 1" xmlns="http://www.w3.org/2000/svg" viewBox="0 0 100 100"><defs><style>.cls-1{fill:#FFFFFF;}</style></defs><title>foxwoods</title><path class="cls-1" d="M44.61,75.74a2.77,2.77,0,0,1-.61.06H41.46c-.21,0-.46,0-.64,0a1.38,1.38,0,0,1-.28-.07s-.06,0-.08.12-.13.63-.13.74,0,.1.06.1.06,0,.07-.08a.78.78,0,0,1,.11-.22c.1-.14.25-.17.62-.19l1,0v2.62c0,.58,0,1.09,0,1.36s-.06.33-.19.35a.88.88,0,0,1-.23,0c-.08,0-.1,0-.1.05s0,.06.13.06l.81,0,1,0c.07,0,.12,0,.12-.06s0-.05-.1-.05l-.33,0c-.19,0-.23-.17-.25-.35s0-.78,0-1.37V76.14l.8,0c.57,0,.74.19.75.36v.07c0,.1,0,.13.07.13s.05,0,.06-.1,0-.61,0-.74S44.66,75.74,44.61,75.74Z"/><path class="cls-1" d="M9.87,54.64c-.09,0-.18.09-.32.14a4.91,4.91,0,0,1-1,.09c-.5,0-5.14,0-5.6,0-.11,0-1.55-.07-2.58-.07-.25,0-.37,0-.37.18s.09.13.18.13a3.61,3.61,0,0,1,.78.06c.75.16.94.52,1,1.3s0,1.37,0,4.93v4c0,2.2,0,4-.11,5-.09.66-.21,1.17-.66,1.26a2.5,2.5,0,0,1-.69.11c-.14,0-.18.07-.18.13s.12.18.37.18c.69,0,2.13-.08,2.24-.08s1.55.08,2.81.08c.25,0,.37-.07.37-.18s0-.13-.18-.13-.71-.07-1-.11c-.68-.09-.82-.6-.89-1.26-.11-1-.11-2.77-.11-5V63.52c0-.16,0-.21.16-.21.39,0,2.87,0,3.44.07a1.38,1.38,0,0,1,1.19.82,4,4,0,0,1,.14.82c0,.11,0,.21.15.21s.15-.23.15-.44,0-1.08.09-1.53c.07-.72.18-1.11.18-1.25s0-.19-.11-.19-.16.12-.25.23c-.2.3-.49.37-1,.41-.32,0-.64,0-1,0l-2.92,0c-.14,0-.16-.07-.16-.21V56c0-.19.07-.25.2-.25l3.5.07a1.74,1.74,0,0,1,1.55.73,2.45,2.45,0,0,1,.21.87c0,.16,0,.27.16.27s.16-.14.18-.25.09-1.26.11-1.49c.07-.64.18-.91.18-1.06S10,54.64,9.87,54.64Z"/><path class="cls-1" d="M50.36,78.17a4.08,4.08,0,0,1-2.21-2.61,4.12,4.12,0,0,1-2.23,2.62h0a4.16,4.16,0,0,1,2.25,2.62,4.1,4.1,0,0,1,2.19-2.6h0Z"/><path class="cls-1" d="M40.86,80.49a1.26,1.26,0,0,1-.72-.44c-.38-.4-.82-1-1.39-1.68a1.79,1.79,0,0,0,.85-1.43,1.1,1.1,0,0,0-.44-.88A2.06,2.06,0,0,0,38,75.78l-.91,0-.88,0c-.1,0-.14,0-.14.06s0,.06.11.06l.25,0c.21,0,.26.15.28.37s0,.38,0,1.36v1.13c0,.59,0,1.09,0,1.36s-.06.33-.19.35a.89.89,0,0,1-.23,0c-.08,0-.1,0-.1.05s0,.06.13.06l.78,0,.94,0c.08,0,.13,0,.13-.06s0-.05-.08-.05l-.31,0c-.19,0-.23-.17-.25-.35s0-.78,0-1.37v-.09s0-.05,0-.05h.56a.13.13,0,0,1,.11,0c.08.1.38.53.64.88a3.09,3.09,0,0,0,.88.94,1.3,1.3,0,0,0,.69.12H41c.08,0,.12,0,.12-.06s0-.05-.08-.05Zm-2.4-2.28a.64.64,0,0,1-.46.11,1.67,1.67,0,0,1-.49-.06s-.06,0-.06-.12V76.19c0-.05,0-.08.06-.09a1.4,1.4,0,0,1,.34,0,1,1,0,0,1,1,1.17A1.13,1.13,0,0,1,38.46,78.21Z"/><path class="cls-1" d="M25.84,64.45c0-4.54-3.27-7.31-7.66-7.31a7.54,7.54,0,0,0-7.68,7.62c0,3.51,2.22,7.66,7.56,7.66A7.65,7.65,0,0,0,25.84,64.45Zm-7.25,7.23c-3.51,0-6.23-2.92-6.23-7.46,0-4.27,2.44-6.41,5.69-6.41C21.13,57.81,24,60.32,24,65,24,70.66,20.35,71.68,18.59,71.68Z"/><path class="cls-1" d="M49.84,72.36c.21,0,.31-.23.8-1.65.75-2.14,2.68-8.23,3.52-10.66.36-1.05.67-1.86,1.24-2.07a2.53,2.53,0,0,1,.65-.1c.12,0,.17-.06.17-.15s-.1-.11-.27-.11c-.59,0-1.42.06-1.55.06s-1-.06-2-.06c-.23,0-.33,0-.33.13s.08.13.17.13c.88,0,1.09.23,1.09.57a4.26,4.26,0,0,1-.21,1.22c-.67,2.45-2.43,8-2.95,9.76h-.08L46.35,58.58c-.23-.65-.35-.9-.48-.9s-.19.1-.48.88L41.33,69.49h0c-.29-1-2.28-8.05-2.57-9.28a14.24,14.24,0,0,1-.36-1.74.5.5,0,0,1,.25-.46,1.86,1.86,0,0,1,.75-.12c.1,0,.19,0,.19-.13s-.08-.13-.35-.13c-1,0-1.8.06-2,.06l-.85,0a.61.61,0,0,0-.2,0H35a.47.47,0,0,0-.25.05h-.15c-.17,0-1-.06-1.7-.06-.23,0-.33.06-.33.13s.06.13.17.13a2.26,2.26,0,0,1,.57.06.42.42,0,0,1,.33.34,1.51,1.51,0,0,1-.19.69c-.19.4-2.24,3.68-2.82,4.5-1-1.65-1.78-3.06-2.58-4.58a1.39,1.39,0,0,1-.19-.63.32.32,0,0,1,.23-.33,1.73,1.73,0,0,1,.52-.06c.11,0,.17,0,.17-.13s-.06-.13-.32-.13c-.65,0-1.63.06-1.8.06s-1.7-.06-2.24-.06c-.25,0-.33,0-.33.13s.06.13.17.13A3.38,3.38,0,0,1,25,58a3.06,3.06,0,0,1,1.49,1.53l3.06,5.15-3.46,5.47c-.63,1-1,1.4-1.59,1.55a3,3,0,0,1-.73.1.14.14,0,0,0-.15.13c0,.08,0,.13.19.13.63,0,1.57-.06,1.74-.06s1.38.06,1.84.06c.13,0,.23,0,.23-.13a.14.14,0,0,0-.15-.13l-.36,0a.37.37,0,0,1-.31-.36,1.93,1.93,0,0,1,.25-.84l3-5.07c1.15,1.93,2.26,3.83,3.29,5.7.17.31,0,.5-.1.54a.15.15,0,0,0-.11.15c0,.1.09.11.59.15,1,0,1.9,0,3.07,0,.17,0,.27-.06.27-.15s-.06-.12-.15-.12a3,3,0,0,1-.67-.11,2.07,2.07,0,0,1-1.13-.86c-.4-.52-3.68-6.09-4-6.68l3.08-4.63c.55-.82.92-1.38,1.47-1.55l.06,0c.5.19.75.48,1.05,1.49l3.41,11.35c.38,1.3.48,1.51.67,1.51s.33-.21.63-1c.69-1.78,3.31-8.79,4-10.62h0l3.75,10.64C49.53,72.12,49.64,72.36,49.84,72.36Z"/><path class="cls-1" d="M28.66,77.7l-.18-.13c-.53-.4-.68-.63-.68-.92a.67.67,0,0,1,.76-.66.81.81,0,0,1,.7.31.77.77,0,0,1,.17.42c0,.08,0,.11.06.11s.07-.05.07-.19c0-.51,0-.69,0-.78s0-.06-.09-.07a3.35,3.35,0,0,0-.86-.11c-.89,0-1.48.51-1.48,1.21a1.9,1.9,0,0,0,.95,1.52l.29.23c.53.41.63.71.63,1a.78.78,0,0,1-.86.73.88.88,0,0,1-.92-.65,1.32,1.32,0,0,1-.06-.33c0-.05,0-.11-.06-.11s-.07.07-.08.17,0,.49,0,.84c0,.14,0,.17.12.22a2.22,2.22,0,0,0,.94.17,1.84,1.84,0,0,0,1-.26,1.28,1.28,0,0,0,.6-1.11C29.71,78.73,29.43,78.3,28.66,77.7Z"/><path class="cls-1" d="M33,75.69a2.47,2.47,0,0,0-2.64,2.51,2.44,2.44,0,0,0,2.58,2.51,2.53,2.53,0,0,0,2.65-2.62A2.32,2.32,0,0,0,33,75.69Zm.2,4.7c-1.23,0-2-1.06-2-2.39,0-1.59.84-2,1.57-2,1,0,1.87.89,1.87,2.32C34.67,80.17,33.63,80.39,33.18,80.39Z"/><path class="cls-1" d="M78.13,57.89a3.53,3.53,0,0,1,.65.06c.63.13.78.44.82,1.09s0,1.15,0,4.13v3.37c0,1.84,0,3.35-.1,4.15-.08.55-.17,1-.55,1.05a2.89,2.89,0,0,1-.57.08c-.11,0-.15.06-.15.12s.1.15.31.15c.57,0,1.78-.06,1.88-.06s2.61.23,4.25.23a7.61,7.61,0,0,0,5.8-2.2,7.82,7.82,0,0,0,2.07-5.4,6.83,6.83,0,0,0-1.86-4.86c-2.28-2.36-5.78-2.18-7.68-2.18-1.15,0-2.36.06-2.59.06s-1.3-.06-2.16-.06c-.21,0-.31,0-.31.15S78.06,57.89,78.13,57.89Zm3.12,5c0-1.47,0-3.43,0-4.08a.35.35,0,0,1,.23-.38,5.15,5.15,0,0,1,1.24-.13c2.28,0,4.46.27,6.26,2.16a6.84,6.84,0,0,1,1.84,4.82,6.69,6.69,0,0,1-1.53,4.57,6.43,6.43,0,0,1-4.56,1.78c-2.26,0-3-.4-3.26-.77a4.15,4.15,0,0,1-.21-1.45c0-.36,0-2.12,0-4.15Z"/><path class="cls-1" d="M67.14,80.48c-.19,0-.24-.14-.26-.31s0-.78,0-1.4V77.64c0-1,0-1.15,0-1.36s.06-.33.24-.36l.19,0c.06,0,.1,0,.1-.06s-.05-.05-.13-.05l-.78,0-.83,0c-.1,0-.15,0-.15.05s0,.06.1.06a1.11,1.11,0,0,1,.23,0c.14,0,.2.14.22.36s0,.38,0,1.36v1.12c0,.62,0,1.13,0,1.39s-.06.29-.18.32a1,1,0,0,1-.23,0c-.08,0-.1,0-.1.05s0,.06.13.06l.81,0,1,0c.07,0,.12,0,.12-.06s0-.05-.1-.05Z"/><path class="cls-1" d="M26.19,79.65s-.06,0-.07.1c0,.26-.12.4-.29.47a1.61,1.61,0,0,1-.6.08c-.65,0-.75-.1-.77-.54,0-.19,0-.77,0-1v-.5s0-.06,0-.06.79,0,.91,0,.33.12.36.25a1.61,1.61,0,0,1,0,.23.05.05,0,0,0,.06.06c.06,0,.06-.07.06-.12s0-.3,0-.43a4.52,4.52,0,0,1,.05-.46s0-.05,0-.05-.06,0-.1.08a.45.45,0,0,1-.31.1c-.15,0-.88,0-1,0s0,0,0-.07V76.18s0-.06,0-.06l.91,0c.32,0,.39.12.43.23a.71.71,0,0,1,0,.23c0,.06,0,.09.06.09s.06,0,.06-.07,0-.36,0-.42c0-.29.05-.37.05-.41s0-.06,0-.06l-.1,0-.28,0h-1.6l-.92,0c-.1,0-.14,0-.14.06s0,.06.11.06l.25,0c.21,0,.26.15.28.36s0,.38,0,1.36v1.13c0,.59,0,1.09,0,1.36s-.06.33-.19.35a1,1,0,0,1-.23,0h-.06l-.18,0a1.27,1.27,0,0,1-.72-.44c-.38-.4-.82-1-1.39-1.68a1.8,1.8,0,0,0,.85-1.43,1.11,1.11,0,0,0-.44-.88,2,2,0,0,0-1.18-.28l-.91,0-.88,0c-.1,0-.14,0-.14.06s0,.06.11.06l.25,0c.21,0,.26.15.27.37s0,.38,0,1.36v1.13c0,.59,0,1.09,0,1.36s-.06.33-.19.35a.89.89,0,0,1-.23,0c-.08,0-.1,0-.1.05s0,.06.13.06l.78,0,.94,0c.08,0,.13,0,.13-.06s0-.05-.08-.05l-.31,0c-.19,0-.23-.17-.25-.35s0-.78,0-1.37v-.09a0,0,0,0,1,.05-.05h.56a.14.14,0,0,1,.12,0c.08.1.38.53.63.88a3.11,3.11,0,0,0,.88.94,1.3,1.3,0,0,0,.69.12h.74l.8,0c.37,0,.8,0,1.77,0,.25,0,.3,0,.35-.17a4.91,4.91,0,0,0,.08-.71C26.25,79.7,26.25,79.65,26.19,79.65Zm-5.61-1.44a.64.64,0,0,1-.46.11,1.68,1.68,0,0,1-.49-.06s-.06,0-.06-.12V76.19c0-.05,0-.08.06-.09a1.42,1.42,0,0,1,.34,0,1,1,0,0,1,1,1.17A1.13,1.13,0,0,1,20.58,78.21Z"/><path class="cls-1" d="M92.93,71.85a5.8,5.8,0,0,0,2.56.52,5,5,0,0,0,2.88-.8A4,4,0,0,0,100,68.38c0-1.53-.54-2.72-2.8-4.5l-.53-.42c-1.8-1.47-2.34-2.12-2.34-3.22A2.18,2.18,0,0,1,96.69,58c1.77,0,2.28.8,2.4,1a3.44,3.44,0,0,1,.25,1c0,.15,0,.25.15.25s.13-.13.13-.44c0-1.3.08-1.93.08-2s0-.13-.19-.13a3.12,3.12,0,0,1-.67-.1A7.47,7.47,0,0,0,97,57.36c-2.43,0-4,1.4-4,3.45,0,1.3.46,2.49,2.49,4.15l.86.71c1.65,1.36,2.2,2.13,2.2,3.45a2.55,2.55,0,0,1-2.74,2.55,2.6,2.6,0,0,1-2.82-2A3.4,3.4,0,0,1,93,69c0-.15,0-.21-.13-.21s-.13.1-.15.31-.1,1.07-.1,2C92.64,71.64,92.66,71.71,92.93,71.85Z"/><path class="cls-1" d="M78.66,64.45c0-4.54-3.27-7.31-7.66-7.31a7.57,7.57,0,0,0-4.48,1.34,8.28,8.28,0,0,0-4.69-1.34,7.54,7.54,0,0,0-7.68,7.62c0,3.51,2.22,7.66,7.56,7.66A7.75,7.75,0,0,0,66.28,71a7.55,7.55,0,0,0,4.61,1.4A7.65,7.65,0,0,0,78.66,64.45ZM62.24,71.68c-3.51,0-6.23-2.92-6.23-7.46,0-4.27,2.44-6.41,5.69-6.41a5.48,5.48,0,0,1,3.82,1.55,8,8,0,0,0,.09,11.09A5.24,5.24,0,0,1,62.24,71.68Zm2.93-7.46a7.36,7.36,0,0,1,1-4.06,9.27,9.27,0,0,1,.41,9.05A8.44,8.44,0,0,1,65.18,64.21Zm6.24,7.46a5.74,5.74,0,0,1-4-1.62,8.15,8.15,0,0,0,2.12-5.61A7,7,0,0,0,67.22,59a5.59,5.59,0,0,1,3.65-1.22c3.08,0,5.92,2.51,5.92,7.19C76.79,70.66,73.17,71.68,71.41,71.68Z"/><path class="cls-1" d="M76.43,75.69a2.47,2.47,0,0,0-2.64,2.51,2.44,2.44,0,0,0,2.58,2.51A2.53,2.53,0,0,0,79,78.09,2.32,2.32,0,0,0,76.43,75.69Zm.2,4.7c-1.23,0-2-1.06-2-2.39,0-1.59.84-2,1.57-2,1,0,1.87.89,1.87,2.32C78.12,80.17,77.09,80.39,76.64,80.39Z"/><path class="cls-1" d="M73.45,75.78l-.63,0-.78,0c-.1,0-.17,0-.17.06s0,.06.1.06a1,1,0,0,1,.34,0c.15.06.21.19.22.58l.06,2.88h0c-.11-.1-1-1-1.41-1.46-.93-.93-1.91-2-2-2.05s-.16-.2-.24-.2-.08.09-.08.22l-.06,3.79c0,.56,0,.74-.2.79a1.08,1.08,0,0,1-.29,0c-.06,0-.1,0-.1.05s.06.06.14.06l.69,0,.79,0c.09,0,.15,0,.15-.06s0-.05-.11-.05a1,1,0,0,1-.33,0c-.13,0-.21-.21-.22-.71l-.06-2.69h0c.11.12.82.92,1.52,1.61s1.48,1.5,1.89,1.88c.07.07.15.14.22.14s.08-.06.08-.2l.07-4c0-.36.06-.49.24-.54a.69.69,0,0,1,.19,0c.08,0,.12,0,.12-.06S73.53,75.78,73.45,75.78Z"/><path class="cls-1" d="M63.69,77.7l-.18-.13c-.53-.4-.68-.63-.68-.92a.67.67,0,0,1,.76-.66.81.81,0,0,1,.7.31.78.78,0,0,1,.17.42c0,.08,0,.11.06.11s.07-.05.07-.19c0-.51,0-.69,0-.78s0-.06-.09-.07a3.36,3.36,0,0,0-.86-.11c-.89,0-1.48.51-1.48,1.21a1.9,1.9,0,0,0,.95,1.52l.29.23c.53.41.63.71.63,1a.78.78,0,0,1-.86.73.88.88,0,0,1-.92-.65,1.36,1.36,0,0,1-.06-.33c0-.05,0-.11-.06-.11s-.07.07-.08.17,0,.49,0,.84c0,.14,0,.17.12.22a2.23,2.23,0,0,0,.94.17,1.84,1.84,0,0,0,1-.26,1.29,1.29,0,0,0,.6-1.11C64.74,78.73,64.46,78.3,63.69,77.7Z"/><path class="cls-1" d="M56.41,79.56a1,1,0,0,1-.22.42,1.39,1.39,0,0,1-1.17.36,2.39,2.39,0,0,1-1.43-3.93,1.67,1.67,0,0,1,1.2-.4,1.92,1.92,0,0,1,1.3.4.91.91,0,0,1,.25.59c0,.09,0,.14.07.14s.07-.05.08-.15,0-.48,0-.69,0-.3,0-.35,0-.07-.1-.08-.4-.08-.64-.11a6.25,6.25,0,0,0-.93-.07,2.79,2.79,0,0,0-2,.68,2.54,2.54,0,0,0,0,3.65,3.25,3.25,0,0,0,2.2.69,3.67,3.67,0,0,0,1.15-.15.22.22,0,0,0,.17-.19,5.91,5.91,0,0,0,.14-.85c0-.05,0-.1-.06-.1S56.43,79.45,56.41,79.56Z"/><path class="cls-1" d="M61.57,80.48c-.14,0-.32-.12-.56-.7-.41-1-1.44-3.59-1.59-3.94-.06-.15-.1-.21-.16-.21s-.1.07-.18.26l-1.61,4c-.13.32-.25.54-.54.58h-.2c-.05,0-.08,0-.08.05s0,.06.12.06l.76,0,.68,0c.07,0,.11,0,.11-.06s0-.05-.1-.05h-.1c-.2,0-.26-.08-.26-.2a1.23,1.23,0,0,1,.1-.39l.35-.92s0-.05.06-.05H59.8a.06.06,0,0,1,.06,0l.51,1.36a.1.1,0,0,1-.06.15c-.06,0-.09,0-.09.06s.08,0,.19.05h1.21c.24,0,.29,0,.29-.06s0-.05-.08-.05Zm-1.9-1.85H58.5s0,0,0,0L59.06,77s0-.06,0-.06,0,0,0,.06l.58,1.58S59.71,78.63,59.67,78.63Z"/><path class="cls-1" d="M48.82,46.83c-1,.41-3.12,1.9-4.79,1.55a1.25,1.25,0,0,1-.68-1.13c-.1-1.52,1.4-2.41,2.53-3,3.08-1.53,3.6-3.15,3.6-3.15C50.48,42.93,49.75,45.33,48.82,46.83Zm.62.58c-.37,1,1,1.06,1.41.11A4.17,4.17,0,0,0,49.44,47.41ZM66.31,36.6A17.42,17.42,0,1,1,48.9,19.19,17.44,17.44,0,0,1,66.31,36.6Zm-2.18-7.39-.62.62a9.08,9.08,0,0,0,1,.15C64.4,29.72,64.26,29.47,64.14,29.21Zm-.66-1.1a2.59,2.59,0,0,0-.55.27l-.67,1.31.74.08A12,12,0,0,0,64,29q-.22-.43-.46-.85Zm-1.65-2.46-.46-.07-.55,0-2.88.09-1.65.85-.38.57L58,26.86l.11-.25-.08-.37.14-.1.18.19.29-.37.23,0-.44.85.41,0,1-.75h.32l-.24.4.51-.15-.68.58.8.08.6-.34,0,.14-.26.31.16.15,0,.12-.42-.05c-.33,0-1.31,0-1.31,0l.71.56.49-.06.17.07-.64.23v.3l-.27,0-.59.36a1.06,1.06,0,0,0,0,.26,8.89,8.89,0,0,0,1.89-.79l.47-1.08.11,0,0,.3.32-.16.08.1-.54.39-.11.38,1.12-.37,0,.18a11.45,11.45,0,0,0-1.92,1c-.16.14-.45.48-.45.48l1.1.17,1.8-1.86.29.17h.05A17,17,0,0,0,61.83,25.66Zm-4.36,2.82-.67.45-.31.55h1.77s.27-.56.3-.69a1.34,1.34,0,0,0,0-.64l.14,0,.15.25.26-.08.06.15.59-.22c0-.08,0-.17,0-.22-.58-.66-1.57-.45-2.36-.39a6.68,6.68,0,0,0-1.6.34,1.6,1.6,0,0,0-1.07.35,3.7,3.7,0,0,0-.63.93c-.06.11,0,.18.11.21a9.5,9.5,0,0,0,1.69,0c.16-.08.1-.36.1-.36l-.34-.66-.21-.08.15-.15.18,0,.4-.1-.16.24.28.51.16-.09.24-.54.09.17.2-.05-.09.16.57-.11Zm3.25-3.24.84.12L61.23,25a.19.19,0,0,0-.1,0C61,25.07,60.72,25.24,60.72,25.24ZM60,24.15a4.6,4.6,0,0,0-1,.55l.05,0a8.43,8.43,0,0,0,1.21-.19,2,2,0,0,0,.34-.2l-.34-.31Zm-2.68-.31.52-.25.34-.52.12.06,0,.32s.61-.24.85-.37a17,17,0,0,0-1.41-1C57.6,22.4,57.29,23.84,57.29,23.84Zm-.93-2.44.38,1.13a4.17,4.17,0,0,0,.2-.86C56.76,21.58,56.56,21.49,56.37,21.4Zm-3.8,1.7h.49l-.05.3L52,24l0,.86h.19l1-1v-.37l.38-.71.12,0,0,.19.7-.43.07.1-.51.51-.08.9.31.12-.3.16-1.58,1.83L52,27.78l.33,0,1.18-.94L53.75,25l.38-.3.62-2,.05-.33.07-.45H55l.1.46.34-.21s-.25.64-.41.94-.26,1-.26,1l.36-.14s.32-.57.45-.81l.09.06-.2.63.41-.11-.09.2.16.12-.62.22-.69.49v1.08l.05.08L56,24.89l.44-1.83-.69-1.47.07-.11.38.22-.11-.43c-.32-.15-.65-.3-1-.43A18.73,18.73,0,0,1,52.57,23.1Zm-.06,7.45a1.09,1.09,0,0,0-.52.53c0,.07.5.12.5.12l.55-.13A6.74,6.74,0,0,1,52.5,30.55Zm1.56,6.08c.21.1.35.43.63.34l0-.28c0-.07.14-.08.11-.17a2.84,2.84,0,0,0-.56-1,13.43,13.43,0,0,1-1.2-1.67c-.18-.17-.46-.09-.65-.24-.38-.29-.71-.69-1.21-.67a10.77,10.77,0,0,1-1.45,0c-.31,0-.61.12-.89,0s-.44.1-.68,0-.42-.21-.65-.28a.84.84,0,0,0-.23,0c0,.24-.26.27-.39.4h-.07a.09.09,0,0,1,0-.09c.09-.13.24-.24.23-.41s-.08-.14-.14-.16a1.34,1.34,0,0,0,0,.32l0,0s-.09,0-.13,0a.58.58,0,0,0-.06-.49.52.52,0,0,0-.1.51h0c-.12,0-.29-.09-.4,0a.22.22,0,0,0-.08.18.55.55,0,0,1,.24.11.14.14,0,0,1,0,.1,1.4,1.4,0,0,0-.3,0l-.18.17c-.1.09-.26.09-.3.23a.33.33,0,0,0,.13.16c.27.07.52-.11.79,0s.42.33.69.2.34.12.49.2.15.2.27.27a2.48,2.48,0,0,1,.51.19c.2.11.2.34.36.48s.14.55.18.84a1.42,1.42,0,0,1-.37,1c0,.09-.17.11-.13.23s.18.07.28.06.08-.08.11-.12a3.64,3.64,0,0,0,.38-.55,2.36,2.36,0,0,0,.1-.59l.22-.74A.76.76,0,0,1,50.2,35c.22,0,.32-.29.55-.22l.38.35c.22.25.55.26.81.43s.37.52.44.83-.08.41-.07.63-.14.14-.14.23.17.06.27.06a1.23,1.23,0,0,0,.17-1,2.26,2.26,0,0,0-.05-.66c-.08-.23-.36-.23-.48-.44-.3-.38,0-.82.17-1.16a1.58,1.58,0,0,1,.34.76,1.35,1.35,0,0,0,.4.45C53.44,35.68,53.54,36.28,54.06,36.64Zm-.8-.62s-.3-.46-.46-.5a5.82,5.82,0,0,0,.08,1.26,5,5,0,0,0,.94-.07A3.18,3.18,0,0,1,53.26,36Zm-.64-.79a1.94,1.94,0,0,1-.27-.31c-.11-.1,0-.34-.14-.41a1,1,0,0,0,0,.41.61.61,0,0,0,.48.34Zm-1.29.34c-.09.15-.08.36-.17.51a7,7,0,0,0-.57.63c-.07.1-.22.11-.24.23s0,.1.09.09c.29.06.47-.2.62-.4s.46-.29.67-.47c.06,0,.15-.1.17-.18A.73.73,0,0,0,51.34,35.56ZM48,37c.09.06.17,0,.26,0,.3-.13.27-.49.43-.73s0-.32,0-.47.08-.37,0-.52a.35.35,0,0,0-.17-.07c0,.3,0,.62-.08.91s0,.44-.2.6S47.92,36.85,48,37Zm.2-2.06v-.19c0-.09-.15-.11-.24-.13-.31,0-.44-.47-.76-.45,0,0-.11,0-.12.08a1.47,1.47,0,0,0,.64.45C47.86,34.75,48,34.88,48.18,34.93Zm-1.83-2.51a1.85,1.85,0,0,0,.18-.26c0-.08-.13-.25-.15-.23A.65.65,0,0,0,46.35,32.42ZM48,25.17c-.36.06-1.24.36-1.14,1.11.6.56,1.83,1.55,1.83,1.55l-.25-2.68-.77-.38-.15.23L48,25A.78.78,0,0,1,48,25.17ZM53.9,20.9a2.25,2.25,0,0,0,.52-.31L54,20.45C54,20.54,53.9,20.9,53.9,20.9Zm-.28-.57-.85,1.33.69-.42.17-.91ZM52,19.94a2,2,0,0,0-.32.47l-.16.52.27.51L52,21.1v-.62l.17-.11.18.54.39-.14s.35-.27.33-.57C52.76,20.11,52.4,20,52,19.94Zm-1.29.1.45.38.27-.22a2,2,0,0,0,.27-.31l-.8-.12A1.12,1.12,0,0,0,50.74,20Zm-.82.19,0,.21-.64.64-.35.84.09.31.29-.18.28-.73.15,0,0,.5H50l-.31.37h.24l.61-.67.13.13-.48.48.58.07a1.06,1.06,0,0,1-.1.18,2.55,2.55,0,0,0-1.61.9,3,3,0,0,0,0,.54l.78.46,1.14-2,0-.55-.42-1.14-.41-.41.2-.12s0-.26,0-.35l-.73,0-.16.6Zm-1.49-.56.24.61.32-.63H48.9Zm-1.15.75.46.59s.09-1.11.08-1.31l-.47,0C47.35,19.93,47.28,20.42,47.28,20.42Zm-3.85.64.3-.14.18,0,0,.12-.43.27,0,1.35.29.9.34.11.09-1.18,0-1,.2-.1.12.5.24-.22-.24-.44.09-.1.34.36.22-.19.17.09,0,.33.24-.3.19-.7.1.1,0,.41.43,0,0,.22s-.63.48-.73.86a1.16,1.16,0,0,0,0,.34.62.62,0,0,0,.2.36.57.57,0,0,0,.38-.1l.3-.67.08.07-.12.5a7,7,0,0,0-.08,1.65c-.08.29.13.55.08.87.14.08.42,0,.42,0l.45-.42.08-.16-.67-.35,0-.12.87.11-.33-.39-.59-.18v-.13l.53-.25-.05-.84s.06-.06.11-.05c.11.29.36.86.36.86l.41.35-.12-.57s-.4-.68-.6-1L46.43,21l-.4-.1-.14-.39h.28a3,3,0,0,0-.45-.53,16.77,16.77,0,0,0-2.31.62A3.71,3.71,0,0,0,43.43,21.06Zm2.15,4.13,0-.48-.6-.91.09-.32.26.09,0-.36-.21-1-.21.29-.13,1.71Zm-.18,1.72a3.56,3.56,0,0,0-1-.87c-.13,0-.14.14-.15.23a3,3,0,0,0,.35.77,1.26,1.26,0,0,0,.94.12C45.56,27,45.44,27,45.39,26.9Zm-3.74-5.61.13.58.5.53.6.46.06-.58L42.59,22l0-.12.2,0-.08-.19.13-.05.28.29a4.44,4.44,0,0,0-.06-1.26Q42.36,21,41.66,21.29Zm-.8.39.68.23-.06-.53C41.27,21.48,41.06,21.57,40.86,21.68ZM39,22.87l.13.69.8-.35.17.21-.58,1a7.46,7.46,0,0,0,.14,1.76.75.75,0,0,0,.41.38c.62.56,1.39.93,2,1.48a13.2,13.2,0,0,0,3.3,1.42,3.44,3.44,0,0,0-.4-.62l.12-.16.32.14,0-.29.15-.12.13.08.22.59.31-.32.09,0-.08.95a1.41,1.41,0,0,0,1.13.36,2.12,2.12,0,0,0-.09-.38l-.45-.22-.22.06,0-.12.26-.12.17-.47.16-.06,0,.4.26.06L47.36,29l.29,0,0-.18-2.85-1.05-1.11.49-.23-.12.8-.58,0-.3-1.16-1,.76.16,0-.1-.17-.15.07-.19h.17l0-.18s-.52-.13-.8-.16-.37.43-.5.66a.83.83,0,0,0-.05.42,2.9,2.9,0,0,0,.14.51l-.11.29-.4-.5-.52.1-.13-.15.57-.34.22-.8-.38.11-.46.48-.18,0,.59-.87.35-.27L41.77,25l-.95.48-.33.66-.27,0,.35-.82.29-.44-.4-.22-.36.25-.14,0,.3-.31-.18-.26,0-.06.42.19.65.12-.69-1.06.11-.73h.08l.15.54.39.3.1-.67.16-.07,0,.84.82,1.05,1.31.14-1.93-2.64s-.83-.3-1.25-.39A17,17,0,0,0,39,22.87ZM37.6,24c.29.08.78.5,1.14.53a.85.85,0,0,0-.08-.6l-.42-.49C38,23.61,37.81,23.8,37.6,24ZM36,25.65c.13.17.53.57.53.57l.24-.7.31-.16V26l.41-.15.27.11a3.48,3.48,0,0,0-.78.75.26.26,0,0,0,.16.31l1.52-.4.22-.21-.15-1.12-1-.11.65-.37s-.78-.44-1-.59A17.07,17.07,0,0,0,36,25.65Zm-.53.67.23,1.35.51,0a9.51,9.51,0,0,0,0-1c0-.3-.34-.55-.49-.67Zm-1,1.42a2.69,2.69,0,0,0,.81,0v-.52s0-.5-.12-.58C34.93,27,34.69,27.38,34.47,27.73Zm6.23,9.73a4.06,4.06,0,0,1,2-.83A3,3,0,0,1,45,36.34c.13.05.33.17.46.23a12.9,12.9,0,0,1,2.15-.22.93.93,0,0,1,.26,0,2.19,2.19,0,0,0,.18-1.12c-.28-.19-.63-.34-.93-.53,0,0-.12-.06-.14-.1h0s-.14-.08-.17-.15-.22-.32-.42-.38a1.73,1.73,0,0,0-.54,0h0a.61.61,0,0,1-.25,0s-.09,0-.13,0-.07-.13-.13-.19-.16-.19-.08-.3.32-.17.39-.35a.82.82,0,0,1,.25-.44l.23-.2a.54.54,0,0,0,0-.19.71.71,0,0,1,.07-.47v0a.52.52,0,0,0-.46-.18c-.18.07-.49.16-.67.24a4.87,4.87,0,0,0-1.34.37s0,.31,0,.31l.69.38.38-.1-.09.29.11.25-.34.12-.69-.28-.05.39-.49-.09-.12-.33-.09,0,0,.25-.14.06-.13-.15-.18.13-.07-.11.33-.49a1.2,1.2,0,0,0-.11-.58c-.4.08-.66.14-1,.23a2.76,2.76,0,0,0-.27.61H41.3l.08-.49-1,.32L40,32.89a10.37,10.37,0,0,0,1.52-.8c0-.05,0-.11,0-.15a7.12,7.12,0,0,0-1-.4l-.26.43A.43.43,0,0,0,40,32l.12-.36-.06-.17-.49-.07.69-.17s.7.18,1,0a.58.58,0,0,0,0-.26l-.35-.38,0-.13.48.13.32-.31c.08.06.05.17.15.17s.53-.08.53-.08l-.57.43-.09.67a3,3,0,0,0,1.19.1c.36-.29.92-.31,1.18-.75a15.77,15.77,0,0,0-2.88-1.88,1.68,1.68,0,0,0-.4.65l.56.4,0,.05-.56-.14-.61.84-.05-.08,0-.36L40,30l.35-.14.2-.68-1,.61-.29.46-.82,1.65-.25,0,.25-.6-.87.11,1-.48.25-.47-.12-.42-.67.45-.19.33-.2,0,0-.21L36.8,31l-.11-.12.3-.39-1.05-.1-.08-.15,1.8,0,1-.77-.93-.34-.81.82-.08-.19.48-.73-.87-.14,0-.21H39.1a3.47,3.47,0,0,0-.44-.46s-.87.08-.91.06a.76.76,0,0,1-.11-.11l1-.21h.32l.11-.25.14.05,0,.19.16.28a2.06,2.06,0,0,0,1,0c.05-.07,0-.2,0-.2a3.89,3.89,0,0,0-1.16-.53,8.43,8.43,0,0,0-2.51.66l-1.78.92-.28-.08,1.06-.68s0-.18-.06-.23a4.35,4.35,0,0,0-1.35,0A16.88,16.88,0,0,0,32.7,41.62,43.9,43.9,0,0,1,40.7,37.47Zm2.75-1c-.09.05-.46.21-.48.36a8.78,8.78,0,0,0,1.57-.25A2.32,2.32,0,0,0,43.45,36.5Zm-2.07.75,1.17-.38a6.5,6.5,0,0,0-.85.16A.56.56,0,0,0,41.37,37.25ZM53.78,47.83A8.07,8.07,0,0,0,51.92,47c.05-.5.22-1,.27-1.46,0,0-.4-.21-.58-.11a7.64,7.64,0,0,1-.6,1.48,2.73,2.73,0,0,0-1.2-.21C51.7,43.11,51.38,40,47,38.53c0,0,3.51,2.94-2.65,5.74-1.61.73-3.24,3.62-.73,4.71,1.8.5,3.14-1.15,4.86-1.37.28,1.88,2.41,2.12,3.26-.07a2,2,0,0,1,1.73,1.1C53.67,48.57,53.9,47.92,53.78,47.83ZM55.52,38a1.77,1.77,0,0,0-.31-.42,2.06,2.06,0,0,1-1.1-.45,5.56,5.56,0,0,0-1,0h0A20.09,20.09,0,0,0,55.52,38Zm-.62-.8a.29.29,0,0,0,.27.07s0-.1,0-.16,0-.31-.18-.38c-.15.09-.11.27-.16.39Zm9.46,6.35a16.81,16.81,0,0,0,.24-13.33c-.47,0-1.79.18-1.79.18l1.6.16.09.13L62.65,31l.18.35-.5-.13-.12.11v.17l.28.08-.27.08-.2.21-.24-.13.19-.78-2.2-.83-1.43.14.25.7,1.41.6.88-.12.31.12-.21,0-.22.19.2.08-.05.1-.58-.11-.17.05.07.43-.15.08-.39-.69-1-.36.94,1.39-.19.12-.26-.26-.32.28,0-.6L58.73,32l0,.5-.12,0-.15-.64-.76-1.35-.52-.3-1.57.08.85.44,1,0-.86.15.46.33-.59,0,.05.46-.28-.05-.32-.77-1.17-.56a4.18,4.18,0,0,1-.82,0,5.15,5.15,0,0,0,2.27,1.85l1.44-.07,0,.13-.22.08.71.25v.14l-1.09-.25-.4.13.35.2,0,.31-1.14-.44-.12.48-.33,0s0-.41,0-.69a3.13,3.13,0,0,1-.87-.31,1.31,1.31,0,0,0-.07.3l.59.56,0,.19-.69-.38-.35.53h-.4l.14-.6-.41.09s.3-.6.52-1c0,0-.42-.39-.54-.56a3.22,3.22,0,0,0-.64.17l-.11.43-.22,0,.05-.39a2.45,2.45,0,0,0-.35-.11,3.69,3.69,0,0,0,.38,1.87c.16.27.55.15.79.32a7.79,7.79,0,0,1,.92,1.28c.18.29.5.45.7.69l.09.14a2.84,2.84,0,0,0,.29.52l0,0a1,1,0,0,1,.34.75l0,.25c.13.07.24.25.38.29s.21.06.24.07.32.1.4.25a3.34,3.34,0,0,0,1,.8A21.23,21.23,0,0,1,64.36,43.54Z"/></svg>
