<svg id="Layer_1" data-name="Layer 1" xmlns="http://www.w3.org/2000/svg" viewBox="0 0 100 100"><defs><style>.cls-1{fill:#FFFFFF;}</style></defs><title>hilton</title><path class="cls-1" d="M59.66,40.93a6.26,6.26,0,0,1-1.25,3.8H61V25.6H52.65v7.82c4.53,1.33,7,4.07,7,7.51Z"/><path class="cls-1" d="M45.17,32.74a20.36,20.36,0,0,1,5,.76c-2.85-.47-7.27.21-9.55,1.91v9.33H49V34.12a11,11,0,0,1,4,1.54v9.07h1.82a9.34,9.34,0,0,1-7.68,2.53v.38c8,.59,11.35-3,11.35-7,0-4.73-4.7-7.5-9.51-8.07v-7H40.62v7.06c-5.43,1-10.74,4.08-10.74,9.13,0,7.77,11.48,12.58,21.49,12.58,15.19,0,26.89-6.94,26.89-16.68,0-11.8-16.89-20.21-30.15-20.21-15.19,0-26.38,9.12-26.38,18.87,0,5,3,9.27,6.78,12.22l.28-.18a13.92,13.92,0,0,1-5.69-11c.79-10.67,14.7-16.67,27.07-16.67,8.75,0,24.48,1.91,24.48,15.74,0,7.22-8.16,16.6-25.29,16.6-8.77,0-15.59-4.45-15.59-10.83C33.78,36.67,38.35,32.74,45.17,32.74ZM12.71,82.13V81h2.94V71.63H7.8V81h3v1.09H0V81H2.75V61.86H0V60.76H10.82v1.09h-3v8.51h7.85V61.86H12.71V60.76H23.42v1.09H20.67V81h2.75v1.09ZM27.58,60.76h4.91V63.3H27.58ZM25.16,82.13V81H27.8V67.9H25.16V66.81h7.51V81h2.45v1.09Zm11,0V81H38.9V59H36.18V58h7.62V81h2.57v1.09Zm17.83,0c-2.68,0-4.13-1.3-4.13-3.3V67.9H47.25V66.81h2.64V60.73c1.49,0,3,0,4.58,0v6.08h3.79V67.9H54.46V81h3.87v1.09Zm22.72-4.6c-.56,1.44-2.86,5-8.48,5-6.25,0-9.45-4-9.45-8.15,0-5.69,5.35-8,9.34-8,3.53,0,8.66,2,9.07,7.8A7.68,7.68,0,0,1,76.73,77.53Zm-5.32-8.26a3.37,3.37,0,0,0-3.31-1.94c-3.83,0-3.9,3.73-3.9,7,0,4.35.41,5.13.7,5.66a3.5,3.5,0,0,0,3.24,1.69c3.83,0,3.83-3.9,3.79-7.49,0-3.9-.3-4.4-.52-4.89ZM90.33,82.13V81h2.15V72c0-2,0-4-2.38-4A4.7,4.7,0,0,0,86,71.3a11.8,11.8,0,0,0-.15,3V81h2.45v1.09h-10V81H81V67.9H78.39V66.81H85.9v2.31A6.45,6.45,0,0,1,89,66.84a7.92,7.92,0,0,1,2.93-.57,8.37,8.37,0,0,1,2.23.29c3.13.88,3.27,3.12,3.27,4.74V81H100v1.09H90.33Z"/></svg>
