<svg id="Layer_1" data-name="Layer 1" xmlns="http://www.w3.org/2000/svg" viewBox="0 0 100 100"><defs><style>.cls-1{fill:#FFFFFF;}</style></defs><title>hotelIndigo</title><path class="cls-1" d="M9.93,56.47l-.2-.14a18.23,18.23,0,0,1-2.2-1.93,14.7,14.7,0,0,1-2.06-2.69A12.83,12.83,0,0,1,4,48a13.16,13.16,0,0,1-.25-1.46,12.43,12.43,0,0,1-.05-2.17,10.26,10.26,0,0,1,.52-2.69A5.05,5.05,0,0,1,5.27,40a13.41,13.41,0,0,1,2.16-1.9A22.25,22.25,0,0,1,9.7,36.64a26.27,26.27,0,0,1,2.56-1.26c.9-.38,1.8-.75,2.73-1.05q.72-.23,1.46-.4c.43-.1.86-.22,1.29-.32s.9-.2,1.35-.28a1.51,1.51,0,0,1,.43,0,.4.4,0,0,1,.34.28.69.69,0,0,1,0,.54c-.16.37-.32.75-.45,1.13A9.61,9.61,0,0,0,19,37.09a8.34,8.34,0,0,0-.06,1.54,6.29,6.29,0,0,0,.35,1.74,11.32,11.32,0,0,1,.39,1.31,10.69,10.69,0,0,1,.19,1.22,11.29,11.29,0,0,1,0,1.19,7.88,7.88,0,0,1-.11,1.16,9.69,9.69,0,0,1-.48,1.84,10.2,10.2,0,0,1-.69,1.49.5.5,0,0,1-.4.27L16.74,49a9.08,9.08,0,0,0-3.1.93A7.22,7.22,0,0,0,12,51.14a6.28,6.28,0,0,0-1.33,1.81,6.77,6.77,0,0,0-.57,1.75A7.88,7.88,0,0,0,10,56.08C10,56.21,9.94,56.33,9.93,56.47Zm-.11.39a9.61,9.61,0,0,1-1.26-.77A12.65,12.65,0,0,1,6.42,54.2C6.21,54,6,53.7,5.8,53.45a12.45,12.45,0,0,1-1.13-1.72,11.74,11.74,0,0,1-.77-1.67q-.22-.63-.41-1.27a12,12,0,0,1-.38-1.87c-.05-.41-.08-.83-.11-1.25a.53.53,0,0,0-.32-.48.34.34,0,0,0-.35,0A.84.84,0,0,0,2,45.6c-.17.38-.35.76-.51,1.14a19.06,19.06,0,0,0-.74,2.15C.56,49.43.44,50,.33,50.52s-.15.86-.21,1.3A13.54,13.54,0,0,0,0,53.21a10.61,10.61,0,0,0,0,1.37c0,.27,0,.54.08.8A10.39,10.39,0,0,0,.5,57.09a5.37,5.37,0,0,0,.78,1.57,6.81,6.81,0,0,0,2.4,2,8.28,8.28,0,0,0,1.83.68,7.58,7.58,0,0,0,1.11.21l.72.07a9.8,9.8,0,0,0,1.38,0c.31,0,.61,0,.92-.09s.63-.09.94-.15A15,15,0,0,0,12.15,61l.86-.28a5.07,5.07,0,0,1-2-1.54,5.52,5.52,0,0,1-1-2.28Zm9.36-1.09a8.35,8.35,0,0,1,2.2.77,9.6,9.6,0,0,1,1.56,1l.23.16a.43.43,0,0,0,.61-.16.8.8,0,0,0,.06-.54c0-.22-.08-.43-.13-.64a10.28,10.28,0,0,0-.43-1.52,7.73,7.73,0,0,0-1.55-2.52A7.15,7.15,0,0,0,19,50.42,6,6,0,0,0,17.27,50a6.58,6.58,0,0,0-1.83.12,6.82,6.82,0,0,0-2.1.83,5.74,5.74,0,0,0-1.52,1.3A4.74,4.74,0,0,0,11,53.75a7.61,7.61,0,0,0-.31,1.19,9.26,9.26,0,0,0-.1.95,3.87,3.87,0,0,0,0,.61,5.93,5.93,0,0,0,.09.62,3.89,3.89,0,0,0,.59,1.38,3.75,3.75,0,0,0,.68.76,4.73,4.73,0,0,0,.95.62,4,4,0,0,0,1.6.41,4.57,4.57,0,0,0,1-.06,2.56,2.56,0,0,0,.64-.14c.24-.1.47-.21.7-.33a3.23,3.23,0,0,0,1.24-1.08,2.43,2.43,0,0,0,.33-.73,3.14,3.14,0,0,0,.08-1.22,3.1,3.1,0,0,0-.63-1.55,2.46,2.46,0,0,0-1.05-.79,3.83,3.83,0,0,0-.88-.21,2.7,2.7,0,0,0-.59,0,3.91,3.91,0,0,0-1.6.52l-.12.06a1,1,0,0,1,.15-.26,2.07,2.07,0,0,1,1-.8,3.66,3.66,0,0,1,.71-.15,2.74,2.74,0,0,1,1,0,3.78,3.78,0,0,1,2.26,1.57,6.32,6.32,0,0,1,.34.64ZM3.39,62a11.66,11.66,0,0,0,1.06,1A13.45,13.45,0,0,0,6.2,64.3a17.17,17.17,0,0,0,4.88,2c.42.1.85.18,1.28.24s.62.07.93.1a5.49,5.49,0,0,0,1.65-.08A1.9,1.9,0,0,0,16,65.92a5,5,0,0,0,.7-1.17,9.72,9.72,0,0,0,.42-1.14,15,15,0,0,0,.41-1.69c.07-.4.13-.8.19-1.2,0-.17,0-.34,0-.52a5,5,0,0,1-4.42.67l-1,.43a11.72,11.72,0,0,1-2.21.7c-.35.08-.71.13-1.07.17s-.69.08-1,.09a10.89,10.89,0,0,1-2.26-.16,11.5,11.5,0,0,1-1.75-.45l-.6-.21a.35.35,0,0,0-.27.21A.65.65,0,0,0,3.39,62ZM18,60.33a12.86,12.86,0,0,1-.1,2.09,17.41,17.41,0,0,1-.35,1.87,4.74,4.74,0,0,0-.2.9.37.37,0,0,0,.2.36.61.61,0,0,0,.48,0l.35-.18a10.54,10.54,0,0,0,2.35-1.69,10.72,10.72,0,0,0,1.64-1.93,5.79,5.79,0,0,0,.68-1.35,2.29,2.29,0,0,0,.13-.61,2,2,0,0,0-.32-1.16,4,4,0,0,0-.87-1,9,9,0,0,0-1.4-1,9.81,9.81,0,0,0-1.2-.62s-.08-.06-.14,0l0,.09a3.57,3.57,0,0,1,.07,1.53,4.18,4.18,0,0,1-.82,1.83c-.16.21-.34.4-.52.62C18,60.19,18,60.26,18,60.33Zm34.82-16.5a6,6,0,0,1,.28-2,4.5,4.5,0,0,1,.74-1.41,3.81,3.81,0,0,1,1.21-1A4.06,4.06,0,0,1,56.69,39a4.14,4.14,0,0,1,1.21.08,3.1,3.1,0,0,1,1.34.64,3.58,3.58,0,0,1,1.06,1.54,5.84,5.84,0,0,1,.32,2.4,2,2,0,0,1,0,.24h-.12l-3,0-3,0h-.1a.26.26,0,0,0,0,.06,4.14,4.14,0,0,0,.29,1.39,2.49,2.49,0,0,0,1.47,1.4,3.46,3.46,0,0,0,1.06.21,7.63,7.63,0,0,0,.92,0,5.56,5.56,0,0,0,1.66-.37h0a5.31,5.31,0,0,1,.32,1.08,2.47,2.47,0,0,1-.51.2,6,6,0,0,1-1.2.26c-.33,0-.65.07-1,.08a5.17,5.17,0,0,1-2.05-.32A3.81,3.81,0,0,1,54,47a3.91,3.91,0,0,1-.76-1.13,4.72,4.72,0,0,1-.34-1.11A5.81,5.81,0,0,1,52.83,43.83Zm1.59-1.06h4.66l0,0,0-.35a3,3,0,0,0-.4-1.28,1.9,1.9,0,0,0-1.1-.88,2.51,2.51,0,0,0-1.12-.06,2,2,0,0,0-1,.45,2.41,2.41,0,0,0-.53.61A3.7,3.7,0,0,0,54.42,42.77Zm-22.52.16q0,2.47,0,4.95c0,.06,0,.12,0,.17a13.66,13.66,0,0,0,1.6,0v-.14q0-2.45,0-4.9a8.31,8.31,0,0,0-.06-1.05,4,4,0,0,0-.52-1.57,2.77,2.77,0,0,0-1.12-1.06A3.2,3.2,0,0,0,30.68,39a3,3,0,0,0-1.09.09,4,4,0,0,0-1.1.51,2.83,2.83,0,0,0-.88.87s0,.1-.13.12,0-.13,0-.2q0-2.57,0-5.14a.33.33,0,0,0,0-.19H26c0,.06,0,.09,0,.13Q26,41.59,26,48h0l0,0c.52,0,1,0,1.57,0v-.2q0-2.52,0-5a4.06,4.06,0,0,1,0-.48,2.21,2.21,0,0,1,.39-1,2.32,2.32,0,0,1,1.19-.92,2.13,2.13,0,0,1,1.12-.07,1.69,1.69,0,0,1,1,.58,2.29,2.29,0,0,1,.43.85A4.16,4.16,0,0,1,31.9,42.93ZM44.6,50.3a8.4,8.4,0,0,1-1.69,0v9.88L42.78,60l-1.73-1.91-1.7-1.84L37.4,54.21l-1.86-2L34,50.57l-.27-.28H31.67v14.5l.84,0c.28,0,.56.06.86,0V54.54l.12.09L35,56.22l1.39,1.46,1.76,1.9,1.14,1.25,1.77,2,1.26,1.42.5.56c.4,0,1.64,0,1.79,0V53.06q0-1.29,0-2.57C44.63,50.43,44.65,50.36,44.6,50.3Zm-19,0V64.85c.53,0,1.05-.11,1.58-.11s1.06.06,1.6.11V50.29c-.53,0-1.05.11-1.58.11S26.11,50.33,25.58,50.29ZM48,40.63q0,2.14,0,4.27c0,.32,0,.64,0,1a3.81,3.81,0,0,0,.2,1.08A1.86,1.86,0,0,0,49.17,48a2.64,2.64,0,0,0,1.29.26,5.16,5.16,0,0,0,.77-.09,1.86,1.86,0,0,0,.53-.16.47.47,0,0,0,0-.07c0-.23,0-.46,0-.69s0-.3,0-.46h-.06a3,3,0,0,1-1.11.09,1,1,0,0,1-.78-.56,2,2,0,0,1-.18-.85c0-1.66,0-3.32,0-5a1.15,1.15,0,0,1,0-.12h1.74c.19,0,.38,0,.57,0a7.11,7.11,0,0,0,0-1.22H49.56V37.06L48,37.55c0,.55,0,1.1,0,1.66H46.69a7.8,7.8,0,0,0,0,1.23H48Zm-12.29,4a6.09,6.09,0,0,1-.07-1,5.31,5.31,0,0,1,.38-2,4.28,4.28,0,0,1,.9-1.39,4,4,0,0,1,1.26-.88,4.22,4.22,0,0,1,1-.31A4.91,4.91,0,0,1,40.48,39a4.8,4.8,0,0,1,1.25.27,3.89,3.89,0,0,1,1.29.8,4.22,4.22,0,0,1,1.19,2,4.32,4.32,0,0,1,.15,1c0,.15,0,.31,0,.51s0,.5-.08.78A5,5,0,0,1,44,45.51a4.39,4.39,0,0,1-.69,1.21,4.16,4.16,0,0,1-1.66,1.23,4.59,4.59,0,0,1-1.56.35,4.47,4.47,0,0,1-1.49-.17,3.91,3.91,0,0,1-1.92-1.25A4.39,4.39,0,0,1,35.73,44.64Zm1.58-1a4.16,4.16,0,0,0,.09.9,3.55,3.55,0,0,0,.73,1.6,2.38,2.38,0,0,0,1.83.9c.18,0,.37,0,.55-.08a2.53,2.53,0,0,0,1.55-1.17,4.09,4.09,0,0,0,.6-2.09,4.38,4.38,0,0,0-.13-1.21,3.49,3.49,0,0,0-.71-1.47A2.3,2.3,0,0,0,40,40.25a2.67,2.67,0,0,0-.52.06,2.22,2.22,0,0,0-1,.47,2.93,2.93,0,0,0-.81,1.13A4.56,4.56,0,0,0,37.32,43.69Zm45,14.66c-.26,0-.51.06-.77.07a8.2,8.2,0,0,1-1,0c-.42,0-.84-.1-1.26-.15h-.1v5l-.36.19a4.44,4.44,0,0,1-1.32.38,5.77,5.77,0,0,1-1.26,0l-.33,0a5.07,5.07,0,0,1-1.14-.31,4.39,4.39,0,0,1-1-.54,4.33,4.33,0,0,1-.91-.9,5.12,5.12,0,0,1-.62-1.1,6.66,6.66,0,0,1-.38-1.32,8.54,8.54,0,0,1-.14-1.34c0-.4,0-.8,0-1.2a3.35,3.35,0,0,1,0-.41,11,11,0,0,1,.32-1.49,7,7,0,0,1,.72-1.64,4.86,4.86,0,0,1,1.75-1.73,4.62,4.62,0,0,1,1.84-.58,5,5,0,0,1,1,0,5.6,5.6,0,0,1,1.24.25,4.89,4.89,0,0,1,2.44,1.77l.11.12h.28a6.85,6.85,0,0,1,.61-2.15L81.78,51a10,10,0,0,0-1.33-.56,9.26,9.26,0,0,0-1.38-.35c-.32-.06-.64-.08-1-.11s-.69,0-1-.05-.49,0-.74,0l-.57,0a12.11,12.11,0,0,0-1.58.28,9,9,0,0,0-1.68.61,7.3,7.3,0,0,0-2.33,1.75,6.86,6.86,0,0,0-.82,1.15,8,8,0,0,0-1,3.57,9.09,9.09,0,0,0,0,1.32,8,8,0,0,0,.18,1.12A6.28,6.28,0,0,0,70.38,63,7.54,7.54,0,0,0,73,64.54a10.46,10.46,0,0,0,2.89.59,9.37,9.37,0,0,0,1.18,0c.47,0,.94,0,1.41-.11s.91-.12,1.36-.21c.72-.15,1.44-.32,2.17-.48l.4-.11V58.35Zm-17.6-23.3c0,.25,0,12.88,0,13h1.55c0-.29,0-12.89,0-13A15.19,15.19,0,0,0,64.71,35.05ZM100,57.8a7.63,7.63,0,0,1-.29,1.76,7.32,7.32,0,0,1-3.33,4.31,8.44,8.44,0,0,1-2.6,1,9,9,0,0,1-1.2.18,13.1,13.1,0,0,1-1.37,0A11,11,0,0,1,89.92,65a8,8,0,0,1-2-.55,7.32,7.32,0,0,1-1.43-.8,6.38,6.38,0,0,1-1.9-2.22A7.12,7.12,0,0,1,84,59.81a8.18,8.18,0,0,1-.24-1.54c0-.23,0-.46,0-.69a8.07,8.07,0,0,1,.44-2.67A7,7,0,0,1,86.09,52a7.56,7.56,0,0,1,2.43-1.48,9,9,0,0,1,1.73-.47,9.39,9.39,0,0,1,1.37-.14c.22,0,.45,0,.67,0,.4,0,.8,0,1.2.08a9,9,0,0,1,1.64.34,6.8,6.8,0,0,1,2.15,1.11,6.48,6.48,0,0,1,1.67,2,7.88,7.88,0,0,1,.87,2.39A8.48,8.48,0,0,1,100,57.8Zm-3.59-2A8,8,0,0,0,96,54.33a5.6,5.6,0,0,0-.76-1.46,4.24,4.24,0,0,0-.85-.87,3.78,3.78,0,0,0-2.12-.75,4.81,4.81,0,0,0-1.39.13A3.81,3.81,0,0,0,89,52.46a5.1,5.1,0,0,0-1.11,1.85A10.08,10.08,0,0,0,87.37,57c0,.37,0,.73-.05,1.13l0,.73A7.18,7.18,0,0,0,87.53,60a5.77,5.77,0,0,0,1,2.27,3.82,3.82,0,0,0,1.59,1.26,4,4,0,0,0,1.13.28,4.55,4.55,0,0,0,.87,0,4.24,4.24,0,0,0,1.09-.23,4.06,4.06,0,0,0,1.94-1.52,6.63,6.63,0,0,0,.94-2,8,8,0,0,0,.3-1.38c0-.37.1-.74.11-1.11A9.05,9.05,0,0,0,96.41,55.85ZM63.1,50.29V64.85c.53-.05,1.05-.11,1.58-.11s1.06.06,1.6.11V50.29c-.54.05-1.07.12-1.6.12S63.63,50.33,63.1,50.29Zm-2.22,5.19A8.53,8.53,0,0,1,61,57.64a8,8,0,0,1-.65,2.84,6.92,6.92,0,0,1-1,1.69,6.74,6.74,0,0,1-1.74,1.46,7.67,7.67,0,0,1-2.34.9c-.32.07-.65.11-1,.15a12.48,12.48,0,0,1-1.56.06H47.36V50.29h.13c2.34,0,4.68,0,7,0a7.17,7.17,0,0,1,3,.64A5.67,5.67,0,0,1,59.92,53,7,7,0,0,1,60.89,55.48Zm-3.42.66A8.26,8.26,0,0,0,57.29,55a4.61,4.61,0,0,0-1-2,3.59,3.59,0,0,0-.92-.77,4.9,4.9,0,0,0-2.35-.63c-.79,0-1.58,0-2.37,0h-.13c0,.14,0,11.83,0,12h1.81c.24,0,.48,0,.72,0a4.9,4.9,0,0,0,1.1-.21,4,4,0,0,0,2.13-1.52,5.72,5.72,0,0,0,.84-1.87,10.29,10.29,0,0,0,.32-2.21A11.75,11.75,0,0,0,57.46,56.14Z"/></svg>
