<svg id="Layer_1" data-name="Layer 1" xmlns="http://www.w3.org/2000/svg" viewBox="0 0 100 100"><defs><style>.cls-1{fill:#FFFFFF;}</style></defs><title>hyatt</title><path class="cls-1" d="M30.35,52.68a75.1,75.1,0,0,0-19.94,8.9.15.15,0,0,0,0,.21h0a.15.15,0,0,0,.21,0,86.69,86.69,0,0,1,19.77-6.89V52.68"/><path class="cls-1" d="M60.28,61.71h2.81L52.54,38.14h-.71L41.7,61.73h1.8l8-20.59,8.75,20.57m-27-13.34v7.87H30.93V48.72l-6.52-10.1H27l5.41,9.2,5.6-9.2h1.74l-6.45,9.75M12.38,56.25V47.37H2.3v8.88H0V38.61H2.3v7.56H12.38V38.61h2.3V56.25h-2.3M79.62,39.8V38.61H65.56V39.8h5.88V56.24h2.32V39.8h5.85m20.38,0V38.61H87.09V39.8H92.4V56.24h2.32V39.8H100"/><path class="cls-1" d="M74.35,55.43A84.48,84.48,0,0,1,91,61.65a.15.15,0,0,0,.2,0,.14.14,0,0,0,0-.2h0a76.88,76.88,0,0,0-16.79-8.07v2.09M59.77,52.87a91,91,0,0,1,11.1,1.72V52.3a68.67,68.67,0,0,0-12.32-2.13l1.21,2.7m-13.7-2.8a77.86,77.86,0,0,0-12.2,1.72v2.42a101.13,101.13,0,0,1,11.05-1.46l1.15-2.69m1.62,2.52q2.06-.09,4.1-.09t4,.09l-1.1-2.65q-1.44-.05-2.89,0t-3,0l-1,2.65"/></svg>
