<svg id="Layer_1" data-name="Layer 1" xmlns="http://www.w3.org/2000/svg" viewBox="0 0 100 100"><defs><style>.cls-1{fill:#FFFFFF;}</style></defs><title>hyattPlace</title><path class="cls-1" d="M42,8.1A8.1,8.1,0,1,1,33.93,0,8.1,8.1,0,0,1,42,8.1"/><path class="cls-1" d="M58.46,8.1A8.1,8.1,0,1,1,50.36,0a8.1,8.1,0,0,1,8.1,8.1"/><path class="cls-1" d="M74.89,8.1A8.1,8.1,0,1,1,66.79,0a8.1,8.1,0,0,1,8.1,8.1"/><path class="cls-1" d="M42,24.53a8.1,8.1,0,1,1-8.1-8.1,8.1,8.1,0,0,1,8.1,8.1"/><path class="cls-1" d="M58.46,24.53a8.1,8.1,0,1,1-8.1-8.1,8.1,8.1,0,0,1,8.1,8.1"/><path class="cls-1" d="M74.89,24.53a8.1,8.1,0,1,1-8.1-8.1,8.1,8.1,0,0,1,8.1,8.1"/><path class="cls-1" d="M42,41a8.1,8.1,0,1,1-8.1-8.1A8.1,8.1,0,0,1,42,41"/><path class="cls-1" d="M58.46,41a8.1,8.1,0,1,1-8.1-8.1,8.1,8.1,0,0,1,8.1,8.1"/><path class="cls-1" d="M74.89,41a8.1,8.1,0,1,1-8.1-8.1,8.1,8.1,0,0,1,8.1,8.1"/><path class="cls-1" d="M22.06,87.54H17.38V99.8h2V95.73h2.45c2.93,0,4.9-1.66,4.9-4.14v0c0-2.44-1.84-4-4.68-4m-.16,6.29H19.4V89.46H22c.83,0,2.75.21,2.75,2.15v0C24.71,93,23.6,93.82,21.9,93.82Z"/><path class="cls-1" d="M33.56,97.88V87.54h-2V99.8h8.52V97.88h-6.5"/><path class="cls-1" d="M51.63,87.45H49.95L44.36,99.8h2.12l1.37-3.05h5.82L55,99.8h2.19L51.63,87.45m1.21,7.41H48.68l2.09-4.66Z"/><path class="cls-1" d="M70.33,96.27l-.25.24a4.7,4.7,0,0,1-3.48,1.57,4.22,4.22,0,0,1-4.11-4.41v0a4.16,4.16,0,0,1,4.11-4.38A4.63,4.63,0,0,1,70,90.74l.26.25,1.38-1.48-.26-.24a6.34,6.34,0,0,0-4.75-1.93,6.2,6.2,0,0,0-6.2,6.33v0a6.09,6.09,0,0,0,6.15,6.3,6.39,6.39,0,0,0,4.88-2.14l.25-.25-1.36-1.34"/><path class="cls-1" d="M78.5,97.9V94.57h6.3v-1.9H78.5V89.44h7v-1.9H76.48V99.8h9.15V97.9H78.5"/><path class="cls-1" d="M15.08,64.51v7.66H4.73V64.51H3.25V81.32H4.73V73.56H15.08v7.76h1.48V64.51H15.08"/><path class="cls-1" d="M37.86,64.51l-6.16,8.8-6.13-8.8H23.72l7.21,10.17v6.64h1.48V74.66l7.22-10.15H37.86"/><path class="cls-1" d="M51.7,64.39H50.36L42.53,81.32h1.55l2.11-4.64H55.8l2.11,4.64h1.62L51.7,64.39M46.82,75.32,51,66.17l4.16,9.15Z"/><path class="cls-1" d="M63.89,64.51V65.9h5.77V81.32h1.48V65.9h5.77V64.51h-13"/><path class="cls-1" d="M83.72,64.51V65.9h5.77V81.32H91V65.9h5.77V64.51h-13"/></svg>
