<svg id="Layer_1" data-name="Layer 1" xmlns="http://www.w3.org/2000/svg" viewBox="0 0 100 100"><defs><style>.cls-1,.cls-2{fill:#FFFFFF;}.cls-2{fill-rule:evenodd;}</style></defs><title>intercontinental</title><path class="cls-1" d="M49.9,31.5h0C48.37,32.67,45,34.65,45,39.24c0,5,4.58,7.12,4.94,7.5a2.83,2.83,0,0,1,.38-.26c1.17-.79,4.55-2.85,4.55-7.25C54.83,34.65,51.49,32.71,49.9,31.5Zm2.41,3.42s-1.54,0-1.54,1.93,0,4.64,0,4.64,0,.08,0,.2a1.68,1.68,0,0,0,1.53,1.81v.17H47.48V43.5A1.68,1.68,0,0,0,49,41.69c0-.12,0-.2,0-.2s0-2.69,0-4.64-1.54-1.93-1.54-1.93v-.17h4.83Z"/><path class="cls-1" d="M49.9,30.21h0c-1.32,1.09-6,3.51-6,8.95s4.73,7.86,6,9h0C51.23,47,56,44.6,56,39.16S51.24,31.3,49.9,30.21Zm0,17.29h0c-1.24-1-5.49-3.19-5.49-8.34s4.24-7.31,5.49-8.35c1.26,1,5.51,3.19,5.51,8.35S51.16,46.47,49.91,47.5Z"/><path class="cls-1" d="M60,61.42V61.2c-.15,0-.61,0-.61-.57V54.52c0-.57.46-.55.61-.57v-.22H57.79V54c.15,0,.61,0,.61.57v6.11c0,.57-.46.55-.61.57v.22Z"/><path class="cls-1" d="M2.32,61.42v-.24c-.16,0-.65,0-.66-.61v-7c0-.61.5-.6.66-.61v-.24H0v.24c.16,0,.65,0,.65.61v7c0,.62-.5.6-.65.61v.24Z"/><path class="cls-1" d="M100,61.42V60.16h-.22c0,.15,0,.61-.57.61H97.27V54.52c0-.57.46-.55.61-.57v-.22H95.7V54c.15,0,.6,0,.61.57v6.11c0,.57-.46.55-.61.57v.22H100Z"/><path class="cls-2" d="M40.29,61c.58,0,1.92-.34,1.92-3.23,0-2.24-1.07-3.63-2.43-3.63-1,0-2,.64-2,3.13,0,2.08,1,3.73,2.53,3.73m-.33.58c-2.28,0-3.21-2.19-3.21-4s.9-4,3.29-4c2,0,3.22,1.48,3.22,3.81s-1.27,4.18-3.3,4.18"/><path class="cls-1" d="M66.25,53.73V54c.15,0,.61,0,.61.57v5.13l-3.94-5.92h-1.3V54c.15,0,.61,0,.61.57v6.11c0,.57-.46.56-.61.57v.22h1.9V61.2c-.15,0-.61,0-.61-.57v-5.1l3.94,5.88h.69v-6.9c0-.57.46-.55.61-.57v-.22Z"/><path class="cls-1" d="M80.7,53.73V54c.15,0,.6,0,.61.57v5.13l-3.94-5.92h-1.3V54c.15,0,.6,0,.61.57v6.11c0,.57-.46.56-.61.57v.22H78V61.2c-.15,0-.61,0-.61-.57v-5.1l3.94,5.88H82v-6.9c0-.57.46-.55.61-.57v-.22Z"/><path class="cls-1" d="M21.89,61.42V60.16h-.22c0,.15,0,.61-.57.61H18.84v-3h1.83c.57,0,.56.46.57.61h.22V56.63h-.22a.49.49,0,0,1-.57.51H18.84V54.38h2.27c.57,0,.56.46.57.61h.22V53.73H17.26V54c.15,0,.61,0,.61.57v6.11c0,.57-.46.55-.61.57v.22Z"/><path class="cls-1" d="M74.34,61.42V60.16h-.22c0,.15,0,.61-.57.61H71.28v-3h1.83c.57,0,.55.46.57.61h.22V56.63h-.22a.49.49,0,0,1-.57.51H71.28V54.38h2.27c.57,0,.55.46.57.61h.22V53.73H69.71V54c.15,0,.6,0,.6.57v6.11c0,.57-.46.55-.6.57v.22Z"/><path class="cls-1" d="M33.7,61.5a5.14,5.14,0,0,0,2.13-.45l.26-1.67-.23,0a1.92,1.92,0,0,1-2,1.5c-1.22,0-2.86-1-2.86-3.74,0-1.94.75-3.94,2.54-3.94a2,2,0,0,1,2.22,1.76H36V53a9.27,9.27,0,0,0-2.28-.35c-2.62,0-3.83,1.83-3.83,4.53C29.85,59.58,31.2,61.5,33.7,61.5Z"/><path class="cls-1" d="M88.62,55H88.4c0-.15,0-.61-.57-.61H86.5v6.25c0,.57.46.56.61.57v.22H84.92V61.2c.15,0,.6,0,.61-.57V54.38H84.18c-.57,0-.56.46-.57.61H83.4V53.73h5.22Z"/><path class="cls-1" d="M92.78,58.83l.66,1.8c.2.57-.26.55-.4.57v.22h2.15V61.2c-.16,0-.56-.09-.88-.89l-2.39-6.58h-.64l-2.4,6.58c-.32.8-.64.88-.8.88v.22h1.86V61.2c-.14,0-.61,0-.4-.57l.65-1.8Zm-1.29-3.55,1.07,2.94H90.41Z"/><path class="cls-1" d="M8.38,53.73V54c.15,0,.61,0,.61.57v5.13L5,53.73H3.74V54c.15,0,.61,0,.61.57v6.11c0,.57-.46.56-.61.57v.22h1.9V61.2c-.15,0-.61,0-.61-.57v-5.1L9,61.42h.69v-6.9c0-.57.46-.55.61-.57v-.22Z"/><path class="cls-1" d="M16.3,55h-.22c0-.15,0-.61-.57-.61H14.18v6.25c0,.57.46.56.61.57v.22H12.6V61.2c.15,0,.61,0,.61-.57V54.38H11.86c-.57,0-.56.46-.57.61h-.22V53.73H16.3Z"/><path class="cls-1" d="M48.89,53.73V54c.15,0,.61,0,.61.57v5.13l-3.94-5.92h-1.3V54c.15,0,.61,0,.61.57v6.11c0,.57-.46.56-.61.57v.22h1.9V61.2c-.15,0-.61,0-.61-.57v-5.1l3.94,5.88h.69v-6.9c0-.57.46-.55.61-.57v-.22Z"/><path class="cls-1" d="M56.82,55H56.6c0-.15,0-.61-.57-.61H54.7v6.25c0,.57.46.56.61.57v.22H53.12V61.2c.15,0,.6,0,.61-.57V54.38H52.38c-.57,0-.56.46-.57.61h-.22V53.73h5.22Z"/><path class="cls-1" d="M29,60.86a17,17,0,0,1-2.4-3.07A2.28,2.28,0,0,0,28,55.7c0-.77-.45-2-2.56-2H23.33V54c.15,0,.61,0,.61.57v6.11c0,.57-.46.55-.61.57v.22h2.18V61.2c-.15,0-.61,0-.61-.57V58h.74l1.53,2.18a2.54,2.54,0,0,0,2.24,1.34,1.62,1.62,0,0,0,.45-.05v-.22A1.27,1.27,0,0,1,29,60.86Zm-4-3.39h-.11V54.24H25c1.45,0,1.92.53,1.92,1.5C26.95,56.46,26.59,57.47,25,57.47Z"/><path class="cls-1" d="M17.45,69.74h-.57V68H14.66v1.72h-.57v-4h.57V67.5h2.22V65.78h.57Z"/><path class="cls-1" d="M23.84,67.76a2,2,0,0,1-2.16,2,2,2,0,1,1,0-4.06A2,2,0,0,1,23.84,67.76Zm-3.67,0a1.48,1.48,0,0,0,1.54,1.49,1.62,1.62,0,0,0,1.15-.47,1.65,1.65,0,0,0,.39-1,1.54,1.54,0,0,0-3.09,0Z"/><path class="cls-1" d="M28.58,66.28H27.2v3.45h-.57V66.28H25.27v-.5h3.3Z"/><path class="cls-1" d="M32.81,66.29H31.13V67.5h1.62V68H31.13v1.23h1.73v.51h-2.3v-4h2.24Z"/><path class="cls-1" d="M35.6,69.22h1.78v.51H35v-4h.57Z"/><path class="cls-1" d="M41.2,66.65a1.3,1.3,0,0,0-.93-.41c-.39,0-.63.21-.63.46s.23.47,1,.91a1.74,1.74,0,0,1,.51.44,1,1,0,0,1,.21.66,1.06,1.06,0,0,1-1.15,1.08,1.78,1.78,0,0,1-1.07-.37v-.72a1.39,1.39,0,0,0,1.07.58.57.57,0,0,0,.61-.52c0-.33-.34-.57-.52-.68a3.36,3.36,0,0,1-1-.71.92.92,0,0,1-.2-.59,1.06,1.06,0,0,1,1.17-1.05,1.66,1.66,0,0,1,.91.28Z"/><path class="cls-1" d="M49.65,69.74h-.72l-.46-.54a2.85,2.85,0,0,1-.35.28,1.93,1.93,0,0,1-.92.31,1,1,0,0,1-1-.93c0-.38.22-.77.93-1.17a1.46,1.46,0,0,1-.45-.92.9.9,0,0,1,1-.91.89.89,0,0,1,1,.87c0,.53-.49.87-.73,1l.56.64a2.63,2.63,0,0,0,.42-.64h.57a3.44,3.44,0,0,1-.64,1Zm-1.53-.93-.64-.74-.25.17c-.24.17-.44.36-.44.6a.45.45,0,0,0,.49.41,1.18,1.18,0,0,0,.72-.33Zm0-2.06a.42.42,0,0,0-.45-.41.4.4,0,0,0-.43.38,1.12,1.12,0,0,0,.36.67C48,67.17,48.14,67,48.14,66.75Z"/><path class="cls-1" d="M55.63,65.78a1.64,1.64,0,0,1,.68.13,1,1,0,0,1,.62,1,1,1,0,0,1-.66,1A3.25,3.25,0,0,1,57.15,69c.17.27.27.4.54.79H57c-.13-.19-.68-1.05-.81-1.22-.39-.5-.58-.5-.85-.5H55.2v1.72h-.56v-4Zm-.43.48v1.24h.22a2,2,0,0,0,.55-.06.6.6,0,0,0,.38-.57.58.58,0,0,0-.3-.53,1.59,1.59,0,0,0-.67-.09Z"/><path class="cls-1" d="M61.82,66.29H60.14V67.5h1.62V68H60.14v1.23h1.73v.51h-2.3v-4h2.24Z"/><path class="cls-1" d="M65.92,66.65a1.3,1.3,0,0,0-.93-.41c-.39,0-.63.21-.63.46s.23.47,1,.91a1.72,1.72,0,0,1,.51.44,1,1,0,0,1,.21.66,1.06,1.06,0,0,1-1.15,1.08,1.78,1.78,0,0,1-1.07-.37v-.72a1.39,1.39,0,0,0,1.07.58.57.57,0,0,0,.61-.52c0-.33-.33-.57-.52-.68a3.4,3.4,0,0,1-1-.71.93.93,0,0,1-.2-.59A1.06,1.06,0,0,1,65,65.73a1.65,1.65,0,0,1,.91.28Z"/><path class="cls-1" d="M72.23,67.76a2,2,0,0,1-2.16,2,2,2,0,1,1,0-4.06A2,2,0,0,1,72.23,67.76Zm-3.66,0a1.48,1.48,0,0,0,1.54,1.49,1.63,1.63,0,0,0,1.15-.47,1.66,1.66,0,0,0,.39-1,1.54,1.54,0,0,0-3.08,0Z"/><path class="cls-1" d="M75.38,65.78a1.63,1.63,0,0,1,.68.13,1,1,0,0,1,.62,1,1,1,0,0,1-.66,1A3.27,3.27,0,0,1,76.9,69c.17.27.27.4.54.79h-.67c-.13-.19-.68-1.05-.81-1.22-.39-.5-.58-.5-.85-.5H75v1.72h-.56v-4Zm-.43.48v1.24h.22a2,2,0,0,0,.55-.06.6.6,0,0,0,.38-.57.58.58,0,0,0-.3-.53,1.6,1.6,0,0,0-.67-.09Z"/><path class="cls-1" d="M81.77,66.28H80.39v3.45h-.57V66.28H78.46v-.5h3.3Z"/><path class="cls-1" d="M85.63,66.65a1.3,1.3,0,0,0-.93-.41c-.39,0-.62.21-.62.46s.23.47,1,.91a1.77,1.77,0,0,1,.51.44,1,1,0,0,1,.21.66,1.06,1.06,0,0,1-1.15,1.08,1.78,1.78,0,0,1-1.07-.37v-.72a1.39,1.39,0,0,0,1.07.58.57.57,0,0,0,.61-.52c0-.33-.33-.57-.52-.68a3.41,3.41,0,0,1-1-.71.92.92,0,0,1-.2-.59,1.06,1.06,0,0,1,1.17-1.05,1.65,1.65,0,0,1,.91.28Z"/></svg>
