<svg id="Layer_1" data-name="Layer 1" xmlns="http://www.w3.org/2000/svg" viewBox="0 0 100 100"><defs><style>.cls-1{fill:#FFFFFF;}</style></defs><title>kimpton</title><path class="cls-1" d="M15.9,35.06h1.85V51.44H15.9Z"/><path class="cls-1" d="M21.33,35.06H23.2L29.81,44l6.61-8.94h1.87V51.44H36.44V38.17l-6.61,8.77h-.09l-6.61-8.75V51.44h-1.8Z"/><path class="cls-1" d="M41.84,35.06h5.09c3.7,0,6.13,2,6.13,5.19v0c0,3.53-2.95,5.36-6.44,5.36H43.69v5.78H41.84ZM46.7,44c2.71,0,4.49-1.45,4.49-3.6v0c0-2.34-1.75-3.56-4.4-3.56h-3.1V44Z"/><path class="cls-1" d="M59.84,36.77h-5.5V35.06H67.21v1.71h-5.5V51.44H59.84Z"/><path class="cls-1" d="M67.19,43.3v0a8.35,8.35,0,1,1,16.71,0v0a8.35,8.35,0,1,1-16.71,0ZM82,43.3v0a6.51,6.51,0,0,0-6.46-6.76,6.43,6.43,0,0,0-6.41,6.72v0A6.51,6.51,0,0,0,75.57,50,6.43,6.43,0,0,0,82,43.3Z"/><path class="cls-1" d="M87.05,35.06h1.73L98.2,47.75V35.06H100V51.44H98.53l-9.67-13v13h-1.8Z"/><path class="cls-1" d="M11.36,49.27,5.71,41.91l6.75-6.86H10.07L1.85,43.61V35.06H0V51.44H1.85v-5.6l2.59-2.63,5.63,7.35a2.24,2.24,0,0,0,1.78.88h1V49.59H12A.82.82,0,0,1,11.36,49.27Z"/><path class="cls-1" d="M0,60H.9v2.14H3.36V60h.9v5.15h-.9V63H.9v2.17H0Z"/><path class="cls-1" d="M6.26,62.56h0A2.64,2.64,0,0,1,9,59.89a2.61,2.61,0,0,1,2.68,2.65h0a2.64,2.64,0,0,1-2.7,2.66A2.61,2.61,0,0,1,6.26,62.56Zm4.43,0h0a1.76,1.76,0,0,0-1.75-1.83A1.74,1.74,0,0,0,7.2,62.53h0A1.76,1.76,0,0,0,9,64.37,1.73,1.73,0,0,0,10.69,62.56Z"/><path class="cls-1" d="M14,60.81H12.34V60h4.18v.84H14.89v4.31H14Z"/><path class="cls-1" d="M17.69,60h3.82v.81H18.6v1.34h2.58v.81H18.6v1.38h2.95v.81H17.69Z"/><path class="cls-1" d="M22.77,60h.9V64.3h2.71v.82H22.77Z"/><path class="cls-1" d="M26.66,64.37l.54-.65a2.38,2.38,0,0,0,1.62.67c.56,0,.91-.26.91-.65h0c0-.37-.21-.57-1.16-.79s-1.71-.59-1.71-1.54h0a1.57,1.57,0,0,1,1.76-1.49,2.85,2.85,0,0,1,1.87.65l-.49.68a2.34,2.34,0,0,0-1.4-.53c-.53,0-.84.27-.84.61h0c0,.4.24.57,1.23.81s1.65.65,1.65,1.51v0c0,1-.76,1.54-1.84,1.54A3.17,3.17,0,0,1,26.66,64.37Z"/><path class="cls-1" d="M37.28,64.52a2.26,2.26,0,0,1-1.57.67A1.52,1.52,0,0,1,34,63.72h0a1.54,1.54,0,0,1,1.1-1.44,1.67,1.67,0,0,1-.43-1.07h0a1.35,1.35,0,0,1,1.48-1.29,1.27,1.27,0,0,1,1.37,1.24h0c0,.68-.45,1.08-1.13,1.34l.88.9a7.49,7.49,0,0,0,.55-1l.68.36a7.68,7.68,0,0,1-.7,1.17l.82.82-.68.48ZM36.76,64l-1.15-1.17a1,1,0,0,0-.68.85v0a.78.78,0,0,0,.86.75A1.42,1.42,0,0,0,36.76,64Zm0-2.8h0a.56.56,0,0,0-.58-.58.59.59,0,0,0-.62.62h0a1.09,1.09,0,0,0,.39.76C36.45,61.8,36.73,61.56,36.73,61.19Z"/><path class="cls-1" d="M42.55,60h2.29a2.07,2.07,0,0,1,1.49.51,1.56,1.56,0,0,1,.43,1.11h0a1.54,1.54,0,0,1-1.22,1.56l1.39,1.95H45.85l-1.26-1.79H43.45v1.79h-.9Zm2.23,2.55c.65,0,1.06-.34,1.06-.86h0c0-.55-.4-.85-1.07-.85H43.45v1.73Z"/><path class="cls-1" d="M48.16,60H52v.81H49.07v1.34h2.58v.81H49.07v1.38H52v.81H48.16Z"/><path class="cls-1" d="M52.74,64.37l.54-.65a2.38,2.38,0,0,0,1.62.67c.56,0,.91-.26.91-.65h0c0-.37-.21-.57-1.16-.79s-1.71-.59-1.71-1.54h0A1.57,1.57,0,0,1,54.7,59.9a2.85,2.85,0,0,1,1.87.65l-.49.68a2.34,2.34,0,0,0-1.4-.53c-.53,0-.84.27-.84.61h0c0,.4.24.57,1.23.81s1.65.65,1.65,1.51v0c0,1-.76,1.54-1.84,1.54A3.17,3.17,0,0,1,52.74,64.37Z"/><path class="cls-1" d="M58.92,60.81H57.29V60h4.18v.84H59.83v4.31h-.91Z"/><path class="cls-1" d="M63.73,59.94h.84l2.26,5.18h-1l-.52-1.24H62.92l-.53,1.24h-.93ZM65,63.08,64.14,61l-.88,2.06Z"/><path class="cls-1" d="M67.73,62.94V60h.9V62.9c0,1,.49,1.46,1.3,1.46s1.29-.48,1.29-1.43V60h.9v2.92a2.05,2.05,0,0,1-2.21,2.31A2,2,0,0,1,67.73,62.94Z"/><path class="cls-1" d="M74.1,60h2.29a2.07,2.07,0,0,1,1.49.51,1.56,1.56,0,0,1,.43,1.11h0a1.54,1.54,0,0,1-1.22,1.56l1.39,1.95H77.4l-1.26-1.79H75v1.79h-.9Zm2.23,2.55c.65,0,1.06-.34,1.06-.86h0c0-.55-.4-.85-1.07-.85H75v1.73Z"/><path class="cls-1" d="M81.28,59.94h.84l2.26,5.18h-1l-.52-1.24H80.47l-.53,1.24H79Zm1.29,3.14L81.68,61l-.88,2.06Z"/><path class="cls-1" d="M85.56,60h.84l2.76,3.56V60H90v5.15h-.76l-2.84-3.66v3.66h-.89Z"/><path class="cls-1" d="M92.79,60.81H91.15V60h4.18v.84H93.7v4.31h-.91Z"/><path class="cls-1" d="M96,64.37l.54-.65a2.38,2.38,0,0,0,1.62.67c.56,0,.91-.26.91-.65h0c0-.37-.21-.57-1.16-.79s-1.71-.59-1.71-1.54h0A1.57,1.57,0,0,1,98,59.9a2.85,2.85,0,0,1,1.87.65l-.49.68A2.34,2.34,0,0,0,98,60.7c-.53,0-.84.27-.84.61h0c0,.4.24.57,1.23.81s1.65.65,1.65,1.51v0c0,1-.76,1.54-1.84,1.54A3.17,3.17,0,0,1,96,64.37Z"/></svg>
