<svg id="Layer_1" data-name="Layer 1" xmlns="http://www.w3.org/2000/svg" viewBox="0 0 100 100"><defs><style>.cls-1{fill:#FFFFFF;}</style></defs><title>loews</title><path class="cls-1" d="M24.33,54.54A9.41,9.41,0,1,0,33.71,64,9.34,9.34,0,0,0,24.33,54.54Zm-.09,16.21a6.81,6.81,0,1,1,6.86-6.51A6.77,6.77,0,0,1,24.24,70.76Z"/><path class="cls-1" d="M54.15,26.72h-12V9.92c-1.64,0-3.24,0-4.82,0v21.6H54.15Z"/><path class="cls-1" d="M34,89.18v-2c0-.62,0-1.24,0-1.86s0-1.26,0-1.89h-.76v6.42a16.94,16.94,0,0,0,3.19,0v-.65C35.62,89.19,34.82,89.25,34,89.18Z"/><path class="cls-1" d="M41.32,86.88c-.39-.28-.82-.5-1.21-.79a3.45,3.45,0,0,1-.79-.73.76.76,0,0,1,.41-1.17,1.86,1.86,0,0,1,1.12,0l.93.27v-.7a.53.53,0,0,0-.12-.08,2.87,2.87,0,0,0-2.46,0,1.65,1.65,0,0,0-.13,2.83c.27.19.57.35.84.54a7.86,7.86,0,0,1,1,.8.84.84,0,0,1-.29,1.41,1.67,1.67,0,0,1-1.19.12c-.33-.1-.65-.23-1-.36l-.34.55a1.73,1.73,0,0,0,.17.13,3.19,3.19,0,0,0,2.45.3,1.65,1.65,0,0,0,1.33-1.34A1.63,1.63,0,0,0,41.32,86.88Z"/><path class="cls-1" d="M46.74,86a7.58,7.58,0,0,0-1.15,1.2l1.13,1.12a4.39,4.39,0,0,0,1.18-1.18A6,6,0,0,0,46.74,86Z"/><path class="cls-1" d="M18.24,84.38a3.44,3.44,0,0,0-2.53-1,3.16,3.16,0,0,0-2.93,1.92,3.86,3.86,0,0,0,0,3,2.76,2.76,0,0,0,2.41,1.8,5.9,5.9,0,0,0,1,0,2.91,2.91,0,0,0,2.26-1.34,3.63,3.63,0,0,0,.43-2.83A2.87,2.87,0,0,0,18.24,84.38Zm-.37,3.7a2.19,2.19,0,0,1-2.3,1.26,2.23,2.23,0,0,1-2.13-2.09,3.07,3.07,0,0,1,.2-1.77,2.2,2.2,0,0,1,2.15-1.37A2.19,2.19,0,0,1,18,85.87,3.19,3.19,0,0,1,17.87,88.08Z"/><path class="cls-1" d="M9.38,84.88c0,.46,0,.93,0,1.37H5.84c0-.94,0-1.86,0-2.76H5.05v6.41h.82V87H9.39v2.88h.78V83.48H9.38C9.38,84,9.39,84.43,9.38,84.88Z"/><path class="cls-1" d="M28,89.2c0-.41,0-.76,0-1.1a3.37,3.37,0,0,1,.07-1.1h2.09a3.28,3.28,0,0,0,.46-.07v-.68H28V84.17c.19,0,.35,0,.51-.05h1.77c.13,0,.26,0,.4,0l.22-.59H27.17V89.9h3.77l-.1-.68C29.87,89.2,28.94,89.24,28,89.2Z"/><path class="cls-1" d="M2.77,70.27V54.85H.06c-.1.75-.06,17.74,0,18H10.73l-.39-2.6Z"/><path class="cls-1" d="M20.41,84.08c.62.14,1.25-.08,1.88.15V89.9h.81V87c0-.47,0-.94,0-1.41s0-1,0-1.47H25l.23-.64H20.41Z"/><path class="cls-1" d="M51.38,57.44l.79-2.57H40.41v18H52.15a10.59,10.59,0,0,0-.63-2.58H47.27c-1.42,0-2.83,0-4.24,0V64.63H51.7V62H43V57.44Z"/><path class="cls-1" d="M82.09,86.65a1.73,1.73,0,0,0,.7-1.71,1.53,1.53,0,0,0-1.23-1.39,4.15,4.15,0,0,0-.8-.13c-.54,0-1.07,0-1.59,0V89.9H80V87.32c.57-.2.76-.16,1.08.29s.55.83.82,1.25l.71,1.09h1l-1.92-3C81.81,86.83,82,86.75,82.09,86.65Zm-1.39-.1H80c0-.15,0-.26,0-.36,0-.68,0-1.36,0-2.08a3.63,3.63,0,0,1,1.36.19A1.14,1.14,0,0,1,81.71,86,1.3,1.3,0,0,1,80.7,86.55Z"/><path class="cls-1" d="M76.67,85.52a3.48,3.48,0,0,0-3.94-2.08,2.82,2.82,0,0,0-2.1,1.77A3.47,3.47,0,0,0,71.11,89a3.39,3.39,0,0,0,4.31.52,3.18,3.18,0,0,0,1.42-2.86c0-.21,0-.45,0-.69A2.7,2.7,0,0,0,76.67,85.52Zm-1.52,3.26a2.37,2.37,0,0,1-3.8-1,3.37,3.37,0,0,1,.08-2.26,2.21,2.21,0,0,1,2.23-1.4,2.17,2.17,0,0,1,2.09,1.52A10.3,10.3,0,0,1,76,86.81,2.71,2.71,0,0,1,75.15,88.77Z"/><path class="cls-1" d="M94,86.72c-.38-.25-.78-.46-1.15-.72a2.76,2.76,0,0,1-.6-.55.77.77,0,0,1,.4-1.26,1.85,1.85,0,0,1,1.07,0l.93.26v-.72a3.08,3.08,0,0,0-2.33-.18,1.45,1.45,0,0,0-1,1,1.69,1.69,0,0,0,.64,1.93c.38.27.8.49,1.19.75a3.4,3.4,0,0,1,.67.54.88.88,0,0,1-.44,1.52,1.92,1.92,0,0,1-1.33,0l-.68-.31-.35.59a3.74,3.74,0,0,0,.42.26,3.26,3.26,0,0,0,2.39.1,1.61,1.61,0,0,0,1.13-1.8A1.84,1.84,0,0,0,94,86.72Z"/><path class="cls-1" d="M99,65.38a7.87,7.87,0,0,0-2.29-2c-1.13-.7-2.27-1.38-3.4-2.09A3.67,3.67,0,0,1,92,59.78a2,2,0,0,1,.53-2.45,3.05,3.05,0,0,1,1.75-.68,9.51,9.51,0,0,1,4.47.77,2.19,2.19,0,0,0,.27.08v-2.3a1.91,1.91,0,0,0-.27-.18,9.12,9.12,0,0,0-6.08-.52,4.72,4.72,0,0,0-2.18,7.91,9.77,9.77,0,0,0,2,1.55c1,.6,2,1.18,3,1.78A3.64,3.64,0,0,1,97,67.42a2.28,2.28,0,0,1-1.4,3.22A6.15,6.15,0,0,1,94,70.9,6.26,6.26,0,0,1,91,70.22l-1.27-.64-1.26,2.2.26.18a9.25,9.25,0,0,0,7.73.93,5.07,5.07,0,0,0,2.74-2A4.73,4.73,0,0,0,99,65.38Z"/><path class="cls-1" d="M80.76,54.92c0,.11-.07.19-.1.28l-2.36,7.28q-.91,2.8-1.82,5.6c0,.12,0,.3-.23.36l-4.66-13.5a13.88,13.88,0,0,0-3.13,0c.09.35.17.7.26,1a3,3,0,0,1,0,1.65c-.36,1.28-.71,2.56-1.06,3.84l-1.81,6.6c0,.15-.09.29-.17.53-1.35-4.7-3-9.17-4.43-13.72H58.5l6.22,18h2.17L70.62,60l4.45,12.88h2c.22-.29,6.22-17.37,6.32-18Z"/><path class="cls-1" d="M59.58,89.18V87h2.58v-.72H59.58V84.17c.21,0,.38-.05.56-.05h1.63l.49,0,.22-.61H58.77v6.4a24,24,0,0,0,3.75,0l-.11-.63C61.46,89.16,60.51,89.24,59.58,89.18Z"/><path class="cls-1" d="M62.61,31.53V9.94H57.82v7H46.05V22.2H57.84v9.34Z"/><path class="cls-1" d="M55.34,86.59a1.75,1.75,0,0,0,.62-1.7,1.51,1.51,0,0,0-1.19-1.33,3.47,3.47,0,0,0-.8-.14c-.55,0-1.1,0-1.63,0V89.9h.78V87.33a.84.84,0,0,1,1.17.34l1.44,2.27h1l-1.91-3C55,86.83,55.18,86.72,55.34,86.59Zm-.88-.21a2,2,0,0,1-1.28.15v-2.4a3.4,3.4,0,0,1,1.33.17,1,1,0,0,1,.59.93A1.21,1.21,0,0,1,54.46,86.38Z"/><path class="cls-1" d="M67.71,87c-.34-.25-.71-.46-1.05-.7a6.17,6.17,0,0,1-.92-.73.77.77,0,0,1,.37-1.35,2.13,2.13,0,0,1,1.46.08l.5.2v-.74a3.13,3.13,0,0,0-2.39-.18,1.57,1.57,0,0,0-1,1.68,1.64,1.64,0,0,0,.73,1.25c.33.22.67.41,1,.63a5,5,0,0,1,.83.63.9.9,0,0,1-.43,1.56,2,2,0,0,1-1.33,0l-.68-.3-.34.59A3.12,3.12,0,0,0,67,90a1.65,1.65,0,0,0,1.36-1.24A1.62,1.62,0,0,0,67.71,87Z"/><path class="cls-1" d="M84.62,84.13h1.87V89.9h.81c0-1.93,0-3.81,0-5.76l1.87,0,.21-.62H84.62Z"/></svg>
