<svg id="Layer_1" data-name="Layer 1" xmlns="http://www.w3.org/2000/svg" viewBox="0 0 100 100"><defs><style>.cls-1{fill:#FFFFFF;}</style></defs><title>mandalayBay</title><path class="cls-1" d="M2.12,63.83c0,.05,0,.09-.12.09s-.46-.06-1-.06-.72.06-.87.06-.13,0-.13-.09.24-.14.73-.2A11.51,11.51,0,0,0,1,61.8l.23-2.34-.15-.23a1,1,0,0,0-.47-.45C.36,58.7.2,58.7.2,58.6s0-.09.12-.09.46.05.79.05H1.6l1.88,3.24L4.9,58.52a2.39,2.39,0,0,0,.44,0h.11c.32,0,.57,0,.75,0s.12,0,.12.09-.23.15-.72.2l.19,3.65a10.91,10.91,0,0,0,.13,1.18c.5.05.74.09.74.19s0,.09-.12.09-.47-.06-1.1-.06-1,.06-1.09.06-.12,0-.12-.09.23-.14.72-.19c0-.46,0-.9,0-1.34l-.16-2.88c-.6,1.27-1,2.13-1.18,2.55l-.21.49c-.07.16-.08.26-.17.26s-.1-.05-.14-.14L1.37,59.68l-.11,1.7q0,.4,0,.77a9.47,9.47,0,0,0,.11,1.48c.51.05.77.09.77.19"/><path class="cls-1" d="M11.23,63.64c.49.05.73.09.73.2s0,.09-.11.09-.48-.07-1-.07-.81.07-1,.07-.12,0-.12-.09.24-.14.74-.2a20.52,20.52,0,0,0,1-1.91l.71-1.56c.24-.53.42-1,.55-1.36s.09-.51.21-.51.08.08.11.26a12.15,12.15,0,0,0,.6,1.84l.82,2.08c.07.16.23.56.5,1.17.49.06.72.09.72.2s0,.09-.12.09-.5-.07-1.09-.07-1.06.07-1.18.07-.12,0-.12-.09.24-.14.73-.2a10.26,10.26,0,0,0-.49-1.48H11.62a9.3,9.3,0,0,0-.39,1.48M13.4,62l-.81-2.19L11.69,62Z"/><path class="cls-1" d="M20.18,61.21a15,15,0,0,0,.19,2.43c.55,0,.81.08.81.2s0,.09-.12.09-.45-.06-1-.06-.88.06-1,.06-.12,0-.12-.09.26-.14.8-.2a17.6,17.6,0,0,0,.2-2.52V59.34c-.25-.3-.38-.5-.71-.59-.14,0-.25-.06-.25-.14s0-.09.12-.09.35.05.77.05l.49,0,3.38,4.07,0-1.38a15.09,15.09,0,0,0-.19-2.43c-.55,0-.81-.09-.81-.2s0-.09.12-.09.44.07,1,.07.88-.07,1-.07.12,0,.12.09-.26.16-.8.2a17.21,17.21,0,0,0-.2,2.52v2c0,.34,0,.51,0,.54s0,.12-.08.12,0,0-.06,0l-3.69-4.39Z"/><path class="cls-1" d="M29.29,62.15V60.29c0-.54,0-1-.05-1.48-.49-.05-.73-.1-.73-.2s.05-.09.13-.09.47.07.92.07.91-.07,1.39-.07a2.54,2.54,0,0,1,2.84,2.64,2.7,2.7,0,0,1-2.92,2.79c-.43,0-.87-.09-1.33-.09s-.71.07-.89.07-.13,0-.13-.09.24-.14.73-.19c0-.45.05-.95.05-1.48m1.48,1.61c1.27,0,2-.89,2-2.49s-.74-2.58-2-2.58a1.83,1.83,0,0,0-.63.11c0,.44-.05.93-.05,1.48v1.87c0,.54,0,1,.05,1.48a1.13,1.13,0,0,0,.56.13"/><path class="cls-1" d="M38.45,63.64c.49.05.73.09.73.2s0,.09-.11.09-.48-.07-1-.07-.81.07-1,.07-.12,0-.12-.09.24-.14.74-.2a20.52,20.52,0,0,0,1-1.91l.71-1.56c.24-.53.42-1,.55-1.36s.09-.51.21-.51.08.08.1.26a12.1,12.1,0,0,0,.6,1.84l.82,2.08c.07.16.23.56.51,1.17.49.06.72.09.72.2s0,.09-.12.09-.5-.07-1.09-.07-1.05.07-1.18.07-.12,0-.12-.09.24-.14.73-.2a10.32,10.32,0,0,0-.49-1.48H38.84a9.54,9.54,0,0,0-.39,1.48M40.63,62l-.81-2.19L38.92,62Z"/><path class="cls-1" d="M48.68,63.7a4.51,4.51,0,0,0,1.79-.36l.05-.62c0-.1,0-.17.09-.17s.05.05.05.15,0,.28,0,.67,0,.78,0,.89,0,.1-.06.1-.06,0-.08-.11l0-.23a8.88,8.88,0,0,0-2-.14h-.86a10.9,10.9,0,0,0-1.11.05c-.08,0-.13,0-.13-.09s.24-.15.73-.2c0-.45.05-.94.05-1.48V60.29c0-.54,0-1-.05-1.48-.49-.05-.73-.1-.73-.2s.05-.09.13-.09.41.05,1.09.05,1-.05,1.09-.05.13,0,.13.09-.24.15-.73.2c0,.44-.05.93-.05,1.48v1.87c0,.54,0,1,.05,1.48a2.52,2.52,0,0,0,.56.07"/><path class="cls-1" d="M55.22,63.64c.49.05.73.09.73.2s0,.09-.11.09-.48-.07-1-.07-.81.07-1,.07-.12,0-.12-.09.24-.14.74-.2a20.28,20.28,0,0,0,1-1.91l.71-1.56c.24-.53.42-1,.55-1.36s.09-.51.21-.51.08.08.11.26a11.74,11.74,0,0,0,.6,1.84l.82,2.08c.07.16.23.56.5,1.17.49.06.72.09.72.2s0,.09-.12.09-.5-.07-1.09-.07-1.06.07-1.18.07-.12,0-.12-.09.24-.14.73-.2a10.6,10.6,0,0,0-.49-1.48H55.61a9.58,9.58,0,0,0-.39,1.48M57.39,62l-.81-2.19L55.68,62Z"/><path class="cls-1" d="M62.23,58.61c0-.05,0-.09.12-.09a10.34,10.34,0,0,0,1.09.07,10.59,10.59,0,0,0,1.1-.07c.07,0,.12,0,.12.09s-.24.15-.73.2L65.26,61a6.85,6.85,0,0,0,1.16-2.23c-.49-.05-.73-.1-.73-.2s0-.09.12-.09.45.07.93.07.71-.07.87-.07.12,0,.12.09-.19.13-.57.2a17,17,0,0,0-1.82,2.45v.9c0,.54,0,1,.05,1.48.54.05.81.09.81.19s-.05.09-.13.09-.49-.06-1.17-.06-1.06.06-1.17.06-.14,0-.14-.09.27-.14.81-.19c0-.45.05-.95.05-1.48V61.4L63,58.81c-.49-.05-.73-.1-.73-.2"/><path class="cls-1" d="M78.52,58.81c-.49-.05-.73-.1-.73-.2s.05-.09.13-.09.46.07.93.07,1.17-.08,1.67-.08c1.24,0,1.91.47,1.91,1.27,0,.62-.55,1.24-1.51,1.45,1.1,0,1.67.47,1.67,1.21s-.86,1.51-2.22,1.51c-.57,0-1.08-.08-1.53-.08s-.74.07-.91.07-.13,0-.13-.09.24-.14.73-.2c0-.45.05-.95.05-1.48V60.29c0-.53,0-1-.05-1.48m.93,2.36h.47c1.12,0,1.64-.36,1.64-1.24a1.17,1.17,0,0,0-1.24-1.25,3.4,3.4,0,0,0-.81.13c0,.44-.05.94-.05,1.48v.88Zm.87,2.58a1.19,1.19,0,0,0,1.33-1.2c0-.82-.47-1.21-1.43-1.21l-.77,0v.8c0,.54,0,1,.05,1.48a3.45,3.45,0,0,0,.81.11"/><path class="cls-1" d="M87.39,63.64c.49.05.73.09.73.2s0,.09-.11.09-.48-.07-1-.07-.81.07-1,.07-.12,0-.12-.09.24-.14.74-.2a20.91,20.91,0,0,0,1-1.91l.71-1.56c.24-.53.42-1,.55-1.36s.09-.51.21-.51.08.08.11.26a12.21,12.21,0,0,0,.6,1.84l.82,2.08c.07.16.23.56.5,1.17.49.06.72.09.72.2s0,.09-.12.09-.5-.07-1.09-.07-1.06.07-1.18.07-.12,0-.12-.09.24-.14.73-.2a10.26,10.26,0,0,0-.49-1.48H87.78a9.56,9.56,0,0,0-.39,1.48M89.57,62l-.81-2.19L87.86,62Z"/><path class="cls-1" d="M94.48,58.61c0-.05,0-.09.12-.09a10.26,10.26,0,0,0,1.09.07,10.55,10.55,0,0,0,1.1-.07c.08,0,.12,0,.12.09s-.24.15-.73.2L97.51,61a6.8,6.8,0,0,0,1.16-2.23c-.49-.05-.73-.1-.73-.2s0-.09.12-.09.45.07.93.07.72-.07.87-.07.12,0,.12.09-.19.13-.56.2a17.07,17.07,0,0,0-1.82,2.45v.9c0,.54,0,1,.05,1.48.54.05.81.09.81.19s-.05.09-.14.09-.49-.06-1.17-.06-1.06.06-1.17.06-.14,0-.14-.09.27-.14.81-.19c0-.45.05-.95.05-1.48V61.4l-1.51-2.59c-.49-.05-.72-.1-.72-.2"/><path class="cls-1" d="M.39,66.75c-.22,0-.34,0-.34-.09s0,0,.06,0,.21,0,.43,0,.47,0,.7,0c.62,0,.95.22.95.61s-.3.65-.83.71l.48.68c.14.2.23.32.36.32a.72.72,0,0,0,.13,0,0,0,0,0,1,0,0,.45.45,0,0,1-.36.2c-.27,0-.39-.18-.6-.48L.92,68a.12.12,0,0,1,0-.07s0,0,.06,0h.18c.46,0,.68-.14.68-.49a.66.66,0,0,0-.67-.66,1.39,1.39,0,0,0-.29,0c0,.2,0,.43,0,.68v.86c0,.25,0,.48,0,.68.23,0,.34,0,.34.09s0,0-.06,0-.21,0-.5,0-.46,0-.5,0-.06,0-.06,0S.17,69,.39,69c0-.21,0-.44,0-.68v-.86c0-.25,0-.48,0-.68"/><path class="cls-1" d="M5.24,69a2,2,0,0,0,.8-.16l0-.21c0-.05,0-.07,0-.07s0,0,0,.07,0,.13,0,.27,0,.32,0,.38,0,0,0,0,0,0,0-.05l0-.11a4.08,4.08,0,0,0-.91-.07H4.61a5.06,5.06,0,0,0-.51,0s-.06,0-.06,0,.11-.07.34-.09c0-.21,0-.43,0-.68v-.86c0-.25,0-.47,0-.68-.23,0-.34,0-.34-.09s0,0,.06,0a5,5,0,0,0,.5,0h.5A4.06,4.06,0,0,0,6,66.57l0-.11s0-.05,0-.05,0,0,0,0,0,.18,0,.38,0,.23,0,.27,0,.07,0,.07,0,0,0-.07l0-.21a2,2,0,0,0-.83-.16l-.35,0c0,.2,0,.43,0,.68v.37h.11a3.88,3.88,0,0,0,1-.11l0-.2s0-.07,0-.07,0,0,0,0,0,.17,0,.36,0,.32,0,.37,0,0,0,0,0,0,0-.06l0-.2a4.07,4.07,0,0,0-1-.11H4.8v.41c0,.25,0,.48,0,.68l.41,0"/><path class="cls-1" d="M8.36,69.16c0,.1,0,.16-.05.16s0,0,0,0a4.84,4.84,0,0,0,0-.53c0-.32,0-.48,0-.51s0-.05,0-.05,0,0,0,.08l0,.25a1.18,1.18,0,0,0,.91.42c.36,0,.56-.15.56-.37s-.25-.37-.75-.46a1.13,1.13,0,0,1-.6-.21.66.66,0,0,1-.21-.51.78.78,0,0,1,.88-.8,1.82,1.82,0,0,1,.66.13l0-.14c0-.1,0-.16.06-.16s0,0,0,0a4.25,4.25,0,0,0-.05.74s0,.08,0,.11,0,.06,0,.06,0,0,0-.08l0-.19A1.15,1.15,0,0,0,9,66.79c-.36,0-.58.17-.58.4a.29.29,0,0,0,.11.23,1.67,1.67,0,0,0,.74.18c.47.08.72.33.72.73s-.34.81-.93.81A1.65,1.65,0,0,1,8.38,69Z"/><path class="cls-1" d="M12.22,68.79a1.18,1.18,0,0,1-.34-.89,1.29,1.29,0,0,1,.37-1,1.35,1.35,0,0,1,1-.38,1.27,1.27,0,0,1,.92.35,1.19,1.19,0,0,1,.35.89,1.27,1.27,0,0,1-1.36,1.33,1.27,1.27,0,0,1-.93-.35m1,.27c.51,0,.87-.44.87-1.2s-.34-1.2-.84-1.2-.87.44-.87,1.2.34,1.2.84,1.2"/><path class="cls-1" d="M16.69,66.75c-.23,0-.34,0-.34-.09s0,0,.06,0,.22,0,.43,0,.47,0,.7,0c.62,0,.95.22.95.61s-.3.65-.83.71l.48.68c.14.2.23.32.36.32a.75.75,0,0,0,.13,0,0,0,0,0,1,0,0,.45.45,0,0,1-.36.2c-.27,0-.39-.18-.6-.48L17.22,68a.12.12,0,0,1,0-.07s0,0,.06,0h.18c.46,0,.68-.14.68-.49a.66.66,0,0,0-.68-.66,1.4,1.4,0,0,0-.29,0c0,.2,0,.43,0,.68v.86c0,.25,0,.48,0,.68.23,0,.34,0,.34.09s0,0-.06,0-.21,0-.5,0-.46,0-.5,0-.06,0-.06,0,.11-.07.34-.09c0-.21,0-.44,0-.68v-.86c0-.25,0-.48,0-.68"/><path class="cls-1" d="M21.74,66.73c0,.21,0,.45,0,.7v.86c0,.25,0,.48,0,.68.22,0,.33,0,.33.09s0,0-.06,0-.22,0-.49,0-.46,0-.52,0-.06,0-.06,0,.11-.07.33-.09c0-.21,0-.43,0-.68v-.86c0-.24,0-.48,0-.7a2,2,0,0,0-.82.17l0,.2c0,.05,0,.07,0,.07s0,0,0-.07,0-.13,0-.27,0-.31,0-.38,0,0,0,0,0,0,0,.05l0,.11a4.07,4.07,0,0,0,.92.07h.28a4,4,0,0,0,.91-.07l0-.11s0-.05,0-.05,0,0,0,0,0,.18,0,.38,0,.23,0,.27,0,.07,0,.07,0,0,0-.07l0-.2a2,2,0,0,0-.82-.17"/><path class="cls-1" d="M27.77,69c.23,0,.34,0,.34.09s0,0-.05,0-.22,0-.44,0-.37,0-.44,0-.06,0-.06,0,.11-.07.34-.09a9.13,9.13,0,0,0,.45-.88l.33-.72c.11-.24.19-.46.25-.63s0-.24.1-.24,0,0,0,.12a5.42,5.42,0,0,0,.28.84l.38,1,.23.54c.23,0,.33,0,.33.09s0,0-.06,0-.23,0-.5,0-.49,0-.54,0-.05,0-.05,0S28.81,69,29,69a4.72,4.72,0,0,0-.22-.68H28a4.61,4.61,0,0,0-.18.68m1-.77-.37-1-.41,1Z"/><path class="cls-1" d="M31.86,67.86A6.69,6.69,0,0,0,31.94,69c.25,0,.37,0,.37.09s0,0-.05,0-.21,0-.46,0-.41,0-.46,0-.06,0-.06,0,.12-.07.37-.09a8.11,8.11,0,0,0,.09-1.16V67c-.11-.14-.18-.23-.33-.27s-.11,0-.11-.06,0,0,.05,0,.16,0,.35,0h.23L33.5,68.5v-.63a7,7,0,0,0-.09-1.12c-.25,0-.37,0-.37-.09s0,0,.06,0,.21,0,.46,0,.4,0,.46,0,.06,0,.06,0-.12.07-.37.09a8,8,0,0,0-.09,1.16v.94c0,.16,0,.24,0,.25s0,.06,0,.06l0,0-1.7-2Z"/><path class="cls-1" d="M36.08,68.29v-.86c0-.25,0-.47,0-.68-.22,0-.34,0-.34-.09s0,0,.06,0,.21,0,.42,0,.42,0,.64,0a1.17,1.17,0,0,1,1.31,1.21,1.25,1.25,0,0,1-1.35,1.29c-.2,0-.4,0-.61,0s-.33,0-.41,0-.06,0-.06,0,.11-.07.34-.09c0-.2,0-.44,0-.68m.68.74c.58,0,.94-.41.94-1.14s-.34-1.19-.9-1.19a.84.84,0,0,0-.29.05c0,.2,0,.43,0,.68v.86c0,.25,0,.48,0,.68a.52.52,0,0,0,.26.06"/><path class="cls-1" d="M45.23,66.58c0-.1,0-.16.06-.16s0,0,0,0a5.46,5.46,0,0,0-.07.92s0,.07,0,.11,0,.06,0,.06,0,0,0-.08l0-.27a.85.85,0,0,0-.74-.56c-.5,0-.86.45-.86,1.2s.38,1.13.88,1.13a1,1,0,0,0,.67-.27c.09-.08.13-.16.17-.16s0,0,0,0a.48.48,0,0,1-.14.19,1.21,1.21,0,0,1-.92.37,1.14,1.14,0,0,1-1.16-1.22,1.29,1.29,0,0,1,1.32-1.35,2,2,0,0,1,.78.17Z"/><path class="cls-1" d="M47.32,69c.23,0,.34,0,.34.09s0,0-.05,0-.22,0-.44,0-.37,0-.44,0-.06,0-.06,0S46.77,69,47,69a9,9,0,0,0,.45-.88l.33-.72c.11-.24.2-.46.25-.63s0-.24.1-.24,0,0,0,.12a5.46,5.46,0,0,0,.28.84l.38,1,.23.54c.23,0,.33,0,.33.09s0,0-.05,0-.23,0-.5,0-.49,0-.54,0-.05,0-.05,0,.11-.07.34-.09a5,5,0,0,0-.23-.68H47.5a4.38,4.38,0,0,0-.18.68m1-.77-.37-1-.41,1Z"/><path class="cls-1" d="M51.26,69.16c0,.1,0,.16-.06.16s0,0,0,0a5,5,0,0,0,0-.53c0-.32,0-.48,0-.51s0-.05,0-.05,0,0,0,.08l0,.25a1.18,1.18,0,0,0,.91.42c.36,0,.56-.15.56-.37s-.25-.37-.75-.46a1.14,1.14,0,0,1-.6-.21.66.66,0,0,1-.21-.51.78.78,0,0,1,.88-.8,1.82,1.82,0,0,1,.66.13l0-.14c0-.1,0-.16.06-.16s0,0,0,0a4.23,4.23,0,0,0-.05.74s0,.08,0,.11,0,.06,0,.06,0,0,0-.08l0-.19a1.14,1.14,0,0,0-.81-.32c-.36,0-.57.17-.57.4a.29.29,0,0,0,.11.23,1.68,1.68,0,0,0,.74.18c.48.08.72.33.72.73s-.34.81-.93.81a1.65,1.65,0,0,1-.68-.16Z"/><path class="cls-1" d="M55.16,66.75c-.23,0-.34,0-.34-.09s0,0,.06,0a4.57,4.57,0,0,0,.5,0,4.66,4.66,0,0,0,.5,0s.06,0,.06,0-.11.07-.34.09c0,.2,0,.43,0,.68v.86c0,.25,0,.48,0,.68.23,0,.34,0,.34.09s0,0-.06,0-.21,0-.5,0-.46,0-.5,0-.06,0-.06,0,.11-.07.34-.09c0-.21,0-.44,0-.68v-.86c0-.25,0-.47,0-.68"/><path class="cls-1" d="M58.33,67.86A6.71,6.71,0,0,0,58.42,69c.25,0,.37,0,.37.09s0,0-.06,0-.2,0-.46,0-.41,0-.46,0-.06,0-.06,0,.12-.07.37-.09a8.11,8.11,0,0,0,.09-1.16V67c-.11-.14-.18-.23-.32-.27s-.11,0-.11-.06,0,0,.05,0,.16,0,.35,0h.23L60,68.5v-.63a7,7,0,0,0-.09-1.12c-.25,0-.37,0-.37-.09s0,0,.06,0a4.51,4.51,0,0,0,.46,0c.25,0,.41,0,.46,0s.06,0,.06,0-.12.07-.37.09a8,8,0,0,0-.09,1.16v.94c0,.16,0,.24,0,.25s0,.06,0,.06l0,0-1.7-2Z"/><path class="cls-1" d="M62.49,68.79a1.18,1.18,0,0,1-.34-.89,1.29,1.29,0,0,1,.37-1,1.35,1.35,0,0,1,1-.38,1.26,1.26,0,0,1,.92.35,1.19,1.19,0,0,1,.35.89,1.37,1.37,0,0,1-2.28,1m1,.27c.51,0,.87-.44.87-1.2s-.34-1.2-.84-1.2-.87.44-.87,1.2.34,1.2.84,1.2"/><path class="cls-1" d="M70.5,68.9a2.07,2.07,0,0,0,.82-.17l0-.28s0-.08,0-.08,0,0,0,.07,0,.13,0,.31,0,.36,0,.41,0,0,0,0,0,0,0-.05l0-.11a4.15,4.15,0,0,0-.91-.06H70c-.32,0-.49,0-.51,0s-.06,0-.06,0,.11-.07.34-.09c0-.21,0-.43,0-.68v-.86c0-.25,0-.47,0-.68-.23,0-.34,0-.34-.09s0,0,.06,0a4.91,4.91,0,0,0,1,0s.06,0,.06,0-.11.07-.34.09q0,.31,0,.68v.86q0,.37,0,.68a1.1,1.1,0,0,0,.26,0"/><path class="cls-1" d="M73.62,69c.23,0,.34,0,.34.09s0,0-.05,0-.22,0-.44,0-.37,0-.44,0-.05,0-.05,0,.11-.07.34-.09a9.3,9.3,0,0,0,.45-.88l.33-.72c.11-.24.19-.46.25-.63s0-.24.1-.24,0,0,0,.12a5.45,5.45,0,0,0,.28.85l.38,1,.23.54c.23,0,.33,0,.33.09s0,0-.06,0-.23,0-.5,0-.49,0-.54,0-.05,0-.05,0,.11-.07.34-.09a5,5,0,0,0-.23-.68H73.8a4.57,4.57,0,0,0-.18.68m1-.77-.37-1-.41,1Z"/><path class="cls-1" d="M88.17,69a2,2,0,0,0,.8-.16l0-.22c0-.05,0-.07,0-.07s0,0,0,.06,0,.13,0,.27,0,.32,0,.38,0,0,0,0,0,0,0-.05l0-.11a4.05,4.05,0,0,0-.91-.07h-.52c-.32,0-.48,0-.51,0s-.06,0-.06,0,.11-.07.34-.09c0-.21,0-.43,0-.68v-.86c0-.25,0-.47,0-.68-.23,0-.34,0-.34-.09s0,0,.06,0a4.9,4.9,0,0,0,.5,0H88a4.1,4.1,0,0,0,.91-.07l0-.11s0-.05,0-.05,0,0,0,0,0,.18,0,.38,0,.23,0,.27,0,.07,0,.07,0,0,0-.07l0-.21a2,2,0,0,0-.83-.16l-.35,0c0,.21,0,.43,0,.68v.37h.11a3.92,3.92,0,0,0,1-.1l0-.2s0-.07,0-.07,0,0,0,0,0,.17,0,.36,0,.31,0,.36,0,0,0,0,0,0,0-.06l0-.2a4,4,0,0,0-1-.11h-.06v.41c0,.25,0,.48,0,.68l.41,0"/><path class="cls-1" d="M77.49,69.16c0,.1,0,.16-.06.16s0,0,0,0a4.87,4.87,0,0,0,0-.53c0-.32,0-.48,0-.51s0-.05,0-.05,0,0,0,.08l0,.25a1.18,1.18,0,0,0,.91.42c.36,0,.56-.15.56-.37s-.25-.37-.75-.46a1.14,1.14,0,0,1-.6-.21.66.66,0,0,1-.21-.51.78.78,0,0,1,.88-.8,1.81,1.81,0,0,1,.66.13l0-.14c0-.1,0-.16.06-.16s0,0,0,0a4.17,4.17,0,0,0-.06.74s0,.08,0,.11,0,.06,0,.06,0,0,0-.08l0-.19a1.14,1.14,0,0,0-.81-.32c-.36,0-.58.17-.58.4a.29.29,0,0,0,.11.23,1.67,1.67,0,0,0,.74.18c.48.08.72.33.72.73s-.34.81-.93.81a1.65,1.65,0,0,1-.68-.16Z"/><path class="cls-1" d="M94.57,69c.23,0,.34,0,.34.09s0,0-.05,0-.22,0-.44,0-.37,0-.44,0-.05,0-.05,0S94,69,94.26,69a9.29,9.29,0,0,0,.45-.88l.33-.72c.11-.24.19-.46.25-.63s0-.24.1-.24,0,0,0,.12a5.47,5.47,0,0,0,.28.85l.38,1,.23.54c.23,0,.33,0,.33.09s0,0-.06,0-.23,0-.5,0-.48,0-.54,0-.05,0-.05,0,.11-.07.34-.09a5,5,0,0,0-.23-.68h-.86a4.53,4.53,0,0,0-.18.68m1-.77-.37-1-.41,1Z"/><path class="cls-1" d="M98.22,69.16c0,.1,0,.16-.06.16s0,0,0,0a5,5,0,0,0,0-.53c0-.32,0-.48,0-.51s0-.05,0-.05,0,0,0,.08l0,.25a1.18,1.18,0,0,0,.91.42c.36,0,.56-.15.56-.37s-.25-.37-.75-.46a1.13,1.13,0,0,1-.6-.21.66.66,0,0,1-.21-.51.78.78,0,0,1,.88-.8,1.82,1.82,0,0,1,.66.13l0-.14c0-.1,0-.16.06-.16s0,0,0,0a4.3,4.3,0,0,0-.05.74s0,.08,0,.11,0,.06,0,.06,0,0,0-.08l0-.19a1.15,1.15,0,0,0-.82-.32c-.36,0-.57.17-.57.4a.29.29,0,0,0,.11.23,1.67,1.67,0,0,0,.74.18c.48.08.72.33.72.73s-.34.81-.93.81a1.65,1.65,0,0,1-.68-.16Z"/><path class="cls-1" d="M92.58,68.28h-.45s0,0,0,.05.28,0,.35,0a2.3,2.3,0,0,1,0,.29v.18a.67.67,0,0,1,0,.18,2,2,0,0,1-.6.07c-.53,0-.89-.47-.89-1.15s.36-1.2.86-1.2a.85.85,0,0,1,.74.56l0,.27c0,.05,0,.08,0,.08s0,0,0-.06,0-.07,0-.11a5.38,5.38,0,0,1,.07-.92s0,0,0,0,0,.05-.06.16l0,.17a2,2,0,0,0-.78-.17A1.29,1.29,0,0,0,90.49,68a1.14,1.14,0,0,0,1.16,1.22,4.3,4.3,0,0,0,1.06-.12,2.16,2.16,0,0,1,0-.23v-.11c0-.1,0-.34,0-.4s.3,0,.3,0-.07-.05-.07-.05h-.37"/><path class="cls-1" d="M85.58,66.57c-.07,0-.22,0-.44,0s-.36,0-.44,0-.05,0-.05,0,.11.06.34.09a4.35,4.35,0,0,1-.18.68l0,.09-.41,1-.37-1,0-.09a4.87,4.87,0,0,1-.22-.68c.22,0,.34,0,.34-.09s0,0-.05,0-.24,0-.54,0-.44,0-.5,0-.05,0-.05,0,.11.06.33.09l.23.54.38,1a5.65,5.65,0,0,1,.28.85c0,.08,0,.12,0,.12s0-.08.1-.24.14-.39.25-.63l.33-.72a9.14,9.14,0,0,1,.45-.88c.23,0,.34,0,.34-.09s0,0-.06,0"/><path class="cls-1" d="M0,46.92s1.63-3,7-5.95,9.8-1.37,9.68-.16c-.09.91-1.57,1.83-1.42,2s1.78-1.26,1.65-2.65-4-3.75-10.64-.19C.87,42.93,0,46.92,0,46.92"/><path class="cls-1" d="M12.66,41.93s-7.46,2.48-7.05,7,10.09,4.19,17.87,1.78c8.17-2.52,15.05-6.25,19.68-8.54,2.93-1.45,19-10.38,32-11.19,9-.56,9.32-.23,9.31.92s-2.56.18-7.65,1.48a39.24,39.24,0,0,0-13.65,6.52c-6.9,5.37-6.57,8.32-6.69,9.78-.17,2.22,2.35,3.87,1.79,4-1.39.21-4.12-2.49-4-5.35.19-4,2.58-6.67,4.49-8.45a26.86,26.86,0,0,1,11.47-6.08c-1.54.35-7.51.11-26.42,9.89s-26.07,12-32.72,11.94S1.91,52.63,1.88,50c0-2.86,3.27-7.4,10.79-8"/><path class="cls-1" d="M85,38S74.52,41.82,74.36,48.45c-.16,6.45,10,6.48,17,4.37,6-1.83,8.9-4.87,8.67-6.75-.21-1.73-1.53-1.09-1.16-.94a1,1,0,0,1,.7,1c0,.51-1.21,4.17-8.73,5.78-7,1.52-12.14-1.06-12.31-4.83s6.44-7.19,10.78-8.94c3.54-1.43,4.33-1.31,4.22-2.06,0-.12,0-.48-.69-.43-2.31.18-7.18.61-9,.86-2.55.36-11.17,1.13-18.49,7.57-3.41,3-2.73,4.4-2.73,4.4s3.18-5,11.21-8S85,38,85,38"/></svg>
