<svg id="Layer_1" data-name="Layer 1" xmlns="http://www.w3.org/2000/svg" viewBox="0 0 100 100"><defs><style>.cls-1{fill:#FFFFFF;}</style></defs><title>marriott</title><path class="cls-1" d="M94.83,65.39c-1.28-.67-1.48-2.57-1.45-7.18l0-7.07H91l.55-1.31H93.4V46.48l4.53-1.67v4.91H100l-.55,1.45H97.93V63.4a2.85,2.85,0,0,0,.9,2h-4ZM50.36,35.16c.35.95,1.13,1.92.57,3a3.09,3.09,0,0,1-2.44,2.19,4.19,4.19,0,0,1-3.13-.8,7.76,7.76,0,0,1,3.23-8l1.76,3.55Z"/><path class="cls-1" d="M54.85,45c-.58,1.95-6.33.67-8.13-2.53,2.37.26,5-1.83,5.08-4.22Zm2.35-.25a1.48,1.48,0,0,0,.92-.94L51.94,30.34a1.43,1.43,0,0,0-1.24.29ZM60,41.79a7.64,7.64,0,0,0-5.25-11.44Zm-.58,8.58a3.27,3.27,0,0,1,3.23-.27,2.77,2.77,0,0,1,1,.81l-1.82,2.84a3.49,3.49,0,0,0-.7-.41,2.29,2.29,0,0,0-2.4.33v8.27a4.64,4.64,0,0,0,1,3.41H55.58a3.56,3.56,0,0,1-1.16-2.65l0-11a2.43,2.43,0,0,0-.55-1.78l4.29,0c.35.25.36.68.55,1l.73-.58Zm5.24,2.72c0-1,.2-2.3-.48-3.2h4a1.53,1.53,0,0,1,.5.85,3,3,0,0,1,.3,1l0,11.72a4.2,4.2,0,0,0,.95,1.95H65.66c-1.39-1.35-.94-3.56-1-5.85Zm6.3.12c.43-1.19,1.77-1.79,2.75-2.44,1.49-.55,3.13-1.91,4.81-.8A11.07,11.07,0,0,1,82,53.32a15.11,15.11,0,0,1,.46,1.74c0,.78.16,1.36.15,2.14a20.09,20.09,0,0,1,0,2.44,5.07,5.07,0,0,1-1.82,3.65c-1.66,1.48-3.75,3.15-6,2-2-.95-4.41-2.82-4.26-5.39a27,27,0,0,1,.08-5.17,4.24,4.24,0,0,1,.33-1.52Zm4.14,8.29c.2.73.58,1.62,1.46,1.72.51,0,.9-.41,1.19-.78.93-1.82.8-3.81.8-5.88-.3-1.54.07-3.65-1.59-4.59-.58-.22-1,.18-1.39.55a6.14,6.14,0,0,0-.76,3.34,21.58,21.58,0,0,0,.3,5.64Zm10.48,3.89c-1.29-.67-1.48-2.57-1.45-7.18l0-7.07H81.7l.55-1.31h1.89V46.48l4.53-1.67v4.91h2.07l-.55,1.45H88.66V63.4a2.85,2.85,0,0,0,.9,2h-4ZM44.19,51.71a2.74,2.74,0,0,0-.55-1.78l4.29,0c.35.25.36.68.55,1l.73-.58a3.27,3.27,0,0,1,3.23-.27,2.77,2.77,0,0,1,1,.81l-1.82,2.84a3.49,3.49,0,0,0-.7-.41,2.29,2.29,0,0,0-2.4.33v8.27a4.64,4.64,0,0,0,1,3.41H45.38a3.35,3.35,0,0,1-1.16-2.65l0-11ZM11.72,56.06l-1.57,3.21c-1.07,1.89-2.56,4.22-4.85,4.79a5.84,5.84,0,0,1-2.53,0L0,68.56a2.18,2.18,0,0,0,.78.52c4.87,1.86,6.83-.14,11.62-11l4.53,9.65h6l-2.85-6.51,1.61-3.37,4.45,9.73,5.77,0L21.85,45.45,17.2,47.76,20.84,56l-1.6,3.25L12.57,44.88l-4.9,2.5,4.05,8.69ZM30.25,60A4.83,4.83,0,0,1,32.74,56c1.48-.91,3.2-1.28,4.72-2.07.27-.22.6-.48.61-.83a.89.89,0,0,0-.58-.91c-2.32-.5-4.24,1-5.93,2.4a12.82,12.82,0,0,1,.88-3.22c.25-.27.4-.63.73-.83a11.06,11.06,0,0,1,5.54-.91,4,4,0,0,1,3.41,2.55,6.59,6.59,0,0,1,.3,2l0,9a3.82,3.82,0,0,0,.84,2.14H39a3,3,0,0,1-.91-1.77c-1.2,1.06-3.71,2.64-5.2,1.59A5.25,5.25,0,0,1,30.25,60Zm7.61-3.13c0-.62-.48-.69-.8-.69A3.61,3.61,0,0,0,34.66,58a4.57,4.57,0,0,0-.58,2.14A3.67,3.67,0,0,0,34.33,62a1.27,1.27,0,0,0,.88.63,2.33,2.33,0,0,0,1.79-.4c1.21-.68,1-2,1-3.25l-.15-2.18Z"/></svg>
