<svg id="Layer_1" data-name="Layer 1" xmlns="http://www.w3.org/2000/svg" viewBox="0 0 100 100"><defs><style>.cls-1{fill:#FFFFFF;}</style></defs><title>mgmGrand</title><path class="cls-1" d="M.17,66.78H3.69l3.25,8.76,3.2-8.76H13.5v.66h-.28a1.71,1.71,0,0,0-.72.11.67.67,0,0,0-.28.28,2.16,2.16,0,0,0-.11.72v7.33a2.32,2.32,0,0,0,.11.88c.06.17.11.28.28.33a1.7,1.7,0,0,0,.72.11h.28v.66H9.26v-.66h.33a1.89,1.89,0,0,0,.61-.06.55.55,0,0,0,.28-.22.51.51,0,0,0,.17-.28c0-.22.06-.39.06-.55V67.94L7.05,77.85H6.28L2.59,68.1v7.82a2.18,2.18,0,0,0,.11.83.5.5,0,0,0,.33.33,2.28,2.28,0,0,0,.77.11h.28v.66H.16v-.66H.39a2.71,2.71,0,0,0,.83-.11,1,1,0,0,0,.33-.33,2.82,2.82,0,0,0,.11-.88V68.6a2,2,0,0,0-.11-.77.45.45,0,0,0-.28-.28,1.91,1.91,0,0,0-.72-.11H.17v-.66Zm23.75,0h.61l.88,3.42-.72.28A6.36,6.36,0,0,0,23,68.1a3.59,3.59,0,0,0-4.9.72A5.19,5.19,0,0,0,17,72.18a5.78,5.78,0,0,0,.61,2.59,4,4,0,0,0,1.54,1.76,3.58,3.58,0,0,0,2.09.61,3.71,3.71,0,0,0,1.32-.22,3.77,3.77,0,0,0,1-.61A1.26,1.26,0,0,0,24,75.7a4,4,0,0,0,.11-.94v-.5a1.64,1.64,0,0,0-.17-.88.87.87,0,0,0-.39-.39,4.32,4.32,0,0,0-1.16-.11v-.66h4.52v.66H26.5a1.48,1.48,0,0,0-.61.11.66.66,0,0,0-.28.28,2.5,2.5,0,0,0-.06.77v3.8h-.83l-.39-.94a7,7,0,0,1-1.43.72,6.57,6.57,0,0,1-2.26.44,5.05,5.05,0,0,1-3.8-1.65,6.07,6.07,0,0,1,0-8.21,5.26,5.26,0,0,1,3.86-1.65,8.29,8.29,0,0,1,1.16.11l1,.33a4.5,4.5,0,0,1,.77.5Zm4.3,0h3.47L35,75.54l3.14-8.76h3.36v.66h-.28a1.59,1.59,0,0,0-.66.11.66.66,0,0,0-.28.28,1.3,1.3,0,0,0-.11.72v7.33a3,3,0,0,0,.06.88.56.56,0,0,0,.28.33,2.16,2.16,0,0,0,.72.11h.28v.66H37.3v-.66h.28a1.71,1.71,0,0,0,.61-.06.7.7,0,0,0,.33-.22,1,1,0,0,0,.11-.28,2.06,2.06,0,0,0,.06-.55V67.94L35.1,77.85h-.83L30.63,68.1v7.82a2.18,2.18,0,0,0,.11.83.49.49,0,0,0,.33.33,2,2,0,0,0,.77.11h.22v.66H28.21v-.66h.22a2.3,2.3,0,0,0,.77-.11,2.45,2.45,0,0,0,.39-.33,3.42,3.42,0,0,0,.06-.88V68.6a2.51,2.51,0,0,0-.06-.77.67.67,0,0,0-.28-.28,2.16,2.16,0,0,0-.72-.11h-.39v-.66h0Zm28.93,0h.61l.88,3.42-.72.28a6.35,6.35,0,0,0-1.65-2.37,3.59,3.59,0,0,0-4.9.72,5.19,5.19,0,0,0-1.16,3.36,5.79,5.79,0,0,0,.61,2.59,4,4,0,0,0,1.54,1.76,3.69,3.69,0,0,0,2.09.61,3.51,3.51,0,0,0,1.32-.22,3.77,3.77,0,0,0,1-.61,1.26,1.26,0,0,0,.39-.61,2.3,2.3,0,0,0,.11-.94v-.5a1.65,1.65,0,0,0-.17-.88.67.67,0,0,0-.39-.39,4.33,4.33,0,0,0-1.16-.11v-.66h4.52v.66h-.39a1.49,1.49,0,0,0-.61.11.67.67,0,0,0-.28.28,2.5,2.5,0,0,0-.06.77v3.8H58l-.44-.94a7,7,0,0,1-1.43.72,6.53,6.53,0,0,1-2.2.44,5.09,5.09,0,0,1-3.86-1.65,6.07,6.07,0,0,1,0-8.21,5.26,5.26,0,0,1,3.86-1.65,8.3,8.3,0,0,1,1.16.11l1,.33a4.55,4.55,0,0,1,.77.5l.28-.72Zm9,2.53a3.35,3.35,0,0,1,1.21.17,1.3,1.3,0,0,1,.61.61,1.78,1.78,0,0,1-.06,2,1.44,1.44,0,0,1-.88.61,7.13,7.13,0,0,1-1.38.11H63.75V69.31h2.37Zm-4.79-.17h.39a1.1,1.1,0,0,1,.5.11c.11,0,.17.11.22.22a1.46,1.46,0,0,1,.11.61v6.06a4.57,4.57,0,0,0-.06.66.43.43,0,0,1-.11.28.3.3,0,0,1-.22.17,1.22,1.22,0,0,1-.5.06h-.33v.55h3.53V77.3h-.22a1.3,1.3,0,0,1-.61-.11.56.56,0,0,1-.28-.33V73.45H64.9l3.42,4.41h2.09V77.3h-.17a2,2,0,0,1-.55-.11,1.29,1.29,0,0,1-.49-.33,1.67,1.67,0,0,1-.39-.44l-2.42-3a4.48,4.48,0,0,0,1.82-.33,3.32,3.32,0,0,0,1-.88,2.62,2.62,0,0,0,.33-1.32,2.22,2.22,0,0,0-.33-1.21,2.11,2.11,0,0,0-1.1-.83,6.2,6.2,0,0,0-2-.28H61.32v.55h0Zm13.5.66,1.43,4H73.39l1.43-4Zm-3.14,6.45a1.71,1.71,0,0,1-.33.72c-.11.11-.17.22-.28.28a1.55,1.55,0,0,1-.55.06v.55h2.76V77.3H73c-.22,0-.33,0-.39-.06a.79.79,0,0,1-.22-.17c-.05-.06-.05-.11-.05-.22a4.44,4.44,0,0,1,.11-.44l.72-2h3.36l.61,1.82a4.37,4.37,0,0,1,.22.66c0,.11-.11.22-.22.33a3,3,0,0,1-.44.06h-.28v.55h3.31V77.3h-.17a1,1,0,0,1-.61-.17,2.46,2.46,0,0,1-.39-.77L75.65,68.6h-1.1l-2.86,7.66Zm8.65-7.66H83.2l4.24,6.94V70.25a1.59,1.59,0,0,0-.11-.66.56.56,0,0,0-.28-.33,1.38,1.38,0,0,0-.55-.11h-.28V68.6h3.14v.55H89.2a4.26,4.26,0,0,0-.55.06.64.64,0,0,0-.33.33,2.45,2.45,0,0,0-.11.72v7.6h-.77l-5.12-8.38v6.67a1.89,1.89,0,0,0,.06.66c0,.11.06.17.17.28a1.2,1.2,0,0,0,.28.17,1.9,1.9,0,0,0,.66.06v.55H80.33V77.3h.17a1.59,1.59,0,0,0,.66-.11.67.67,0,0,0,.28-.28,2.56,2.56,0,0,0,.11-.77v-5.9c0-.39,0-.61-.06-.66a.51.51,0,0,0-.22-.33,1.58,1.58,0,0,0-.66-.11h-.28V68.6h0Zm12.56.72h1.38a7.07,7.07,0,0,1,1.21.06,2.81,2.81,0,0,1,1.21.33,2.69,2.69,0,0,1,1,.77,3.9,3.9,0,0,1,.72,1.21,6.13,6.13,0,0,1,.22,1.54,6.56,6.56,0,0,1-.22,1.6A3.61,3.61,0,0,1,97.74,76a2.38,2.38,0,0,1-.83.72,3.11,3.11,0,0,1-1,.28c-.44.06-.77.11-1,.11h-2V69.31Zm-1.6-.11a.67.67,0,0,1,.28.28,1.59,1.59,0,0,1,.11.66v6.23a4.29,4.29,0,0,1-.06.55.55.55,0,0,1-.22.28,1,1,0,0,1-.44.11h-.49v.55h4.74a8.57,8.57,0,0,0,1.71-.17A4.14,4.14,0,0,0,98.4,77a3.68,3.68,0,0,0,1.16-1.54,4.47,4.47,0,0,0,.44-2.09,4.94,4.94,0,0,0-.88-2.92A4.34,4.34,0,0,0,97,68.87a13.33,13.33,0,0,0-3.19-.28H90.47v.55a2.31,2.31,0,0,1,.83.06Z"/><path class="cls-1" d="M10.14,56c-1,5.4-7.22,1.16-8.76,6,1.76.77,2-1.21,3-1.71l.22.22c-.06.61-.94.88-1,1.49,1.38.55,1.54-.77,2.26-1.49.28,0,.61-.06.72.28-.33.38-.94.72-1,1.21H7.88c5.62-.55,4-6.94,6.94-9.7l.28.22c-2,2.09-1.16,5.29-2.76,7.49,3.53-2.7,5.9-6.56,9.75-8.48-2.09-1.38-4.13-3.47-6-5C14.66,49.92,12.07,52.84,10.14,56Z"/><path class="cls-1" d="M56.69,47.05c-.44.72-.17,2.15-.22,2.75l.22.22c.22,2.7,1.1,6.28-1.71,8-1.87,2.87-6.39.33-7.49,4h1c.44-.49,1.1-.88,1.27-1.49.33.06.72-.61,1,0L49.25,62c1.65.55,2-.77,3-1.49.83.61-.61.88-.5,1.49,3.19.94,5.29-1.27,7-3.47.61-1.27-.28-3.14.72-4.24-.17,1.43.44,3.8-.5,5.23l1-.22c3-.77.39-4.52,2.26-5.73,1.21-3,4.3-4.63,6.5-7.27C65.4,41.6,60.17,45.51,56.69,47.05Zm5,6.23a4.94,4.94,0,0,1,1.21-4A13.3,13.3,0,0,0,61.71,53.28Z"/><path class="cls-1" d="M94.6,55c-.94-1.71,1-5.07-1.76-5.51-4.85.06-8.59-2.53-12-6.23l.28-.22c3.25,1.43,6.72,3.91,10.69,2.2,4.41-2.26.94-7.33,2-11.18l-.5.5c-.22.06-.33-.17-.5-.28a5.3,5.3,0,0,0-.5-4.24l-.5,1.27c-.72-.33-.66-1.32-1-2l-2.26,2.7c-2.75,4,4.79,5,4.24,9a4.35,4.35,0,0,1-1.71,3.25c-6.56,1.16-10.25-6.06-14.21-10.19-5.29-3-11.13-4.41-17.19-5.51-6.11-1.43-10.85,2.81-16.47.28a13.2,13.2,0,0,0-7.71-4.24c.5-.44,1.65-.17,2-.28a7.08,7.08,0,0,0-6.23-4c-1.16-1.16-2.31-2.48-3.75-3-3-1-5.45.61-7.71,2l-.28-.28,1.54-1.49a2.4,2.4,0,0,0-2.26-1.49,9.13,9.13,0,0,1-4.24,5c-4,.28-5.12,5-8.21,7l.22.28a3.07,3.07,0,0,0,1.27-.28c.77,1.43-1.49.33-2,1l1.21,2.26c1.21.72,3.14-.44,4,1,0,.28.06.61-.28.77a1,1,0,0,1-1.49-.28,1.24,1.24,0,0,0-1.49,0,3.39,3.39,0,0,0,2,3c1.27-1.21,2.64-1.6,3.47-3.2.28,0,.61-.11.77.22.17.72.77,1.32,0,2l.72.5a4.25,4.25,0,0,0,.77,4.24c.06-1.21-.22-2.64.28-3.75a9.2,9.2,0,0,1,0,4.24c.55.44,0,1.21-.5,1.27-.83,5.51,6.17,7.49,8.21,11.46l.5-3.25c.72.06,1.65-.17,2.26.28v-.28c-.94-1-3.25-1.65-2.76-3.25L25.07,48a6.72,6.72,0,0,0,5.45,0l-.72-.77c-.61-1.27-2.09-2.48-1.49-4,1.49,4.24,6.28,7.33,9.2,10.74.55,1.76,3.2,4.24.77,5.73-2-.77-3.47,1.1-4.24,2.2,1.71.72,1-1.32,2.2-1.71.28,0,.61-.11.77.22-.66.39-.55,1.1-1.27,1.49h1c.77-.11.77-1,1.21-1.49.28,0,.61-.06.77.28-.55.27-.5.83-.77,1.21h3.47c6-2,.28-6.89.55-10.47.11-.11.22-.33.5-.22.33-.83-.77-1.32,0-2,.22-.11.33.11.5.22-.28-2.42-.17-5.78-3-7.22l.28-.28c.94.83,2.2,1.32,2.76,2.53.28,1.49.28,3.47,1,4.46,7,.33,12.4-3.09,18.18-5.73,4.24-1.65,6.67,2.48,9.48,5,4.85,4.13,11.18,4.52,17.41,5.23,1.87,1.27,2.31,3.14,2.75,5-.61,1.32-2.15,1.54-3.47,1.76-.66.44-.83,1.16-1.27,1.71,2,1,1.21-1.65,2.76-1.71.49.55-.39,1.38-.77,1.71l5-.22c-.06-.94,1-1.21,1.49-1.76C97.19,58.51,94.82,56.7,94.6,55ZM11.35,24.63c-.39.11,1.38-.72.5-1.27l1.49.5Zm4,8.21c.44-2.76,5.4-4.85,2.48-7.71-1.71,0-3,.88-4.52,1.21,1.6-.55,4.68-3,5.51,0C19.28,29.2,16.53,30.69,15.37,32.84Zm1.71,5v-2l.28.28c.66-3.08,4-4.41,4.74-7.49C21.71,32.23,17.19,34.11,17.08,37.85Zm2.26,6.72a3.18,3.18,0,0,1-.38-.63c-.51-.41-1.14-.9-.11-1.41A1.58,1.58,0,0,0,19,43.95C19.26,44.19,19.53,44.41,19.34,44.58Zm3.75.72a4.46,4.46,0,0,0-.41-1.65C22,42.81,20.79,42.2,20.83,41a14.31,14.31,0,0,1,1.85,2.59A1.7,1.7,0,0,1,23.09,45.29Zm.72-22.92c0-.16,0-.31,0-.47,0-1-.19-2.07.48-2.78l-.22-.22a5.2,5.2,0,0,0-2.75,5c-.06-1.54-.06-3.14,1-4.24a6.88,6.88,0,0,1,2.26-1,8.35,8.35,0,0,0-.75,3.28C23.82,22.06,23.82,22.22,23.8,22.37Zm7.77,2.48c-1,1.93-2.53,2.64-2.75,4.74A5.51,5.51,0,0,1,31.57,24.85Zm-3.75,2.26a6.17,6.17,0,0,0-1,2.75C26.5,28.65,27.27,27.94,27.82,27.11ZM29,47.77c-1.32.22-2.09-.88-3-1.71-.44-1.32.94-2.48-.22-3.53a2,2,0,0,1,.22,2.75C26.78,46.28,27.77,47.61,29,47.77Zm.5-10.19c.06-1.49-1.27-2.37-1.49-3.75a4.66,4.66,0,0,0,1.49,2.26h0l.28-.28Zm.5-7c1.1-.77,2.09-2.81,3.75-2.7-1.65.5-2.31,2.31-3.47,3.47ZM30.8,44.3l1,1,.28-.22c.66,1.65,2.42.61,3.2,2C33.66,46.39,31.85,45.84,30.8,44.3ZM41,48.54c.11.55-.17,1.32.28,1.76v2.2c-.61-2,.5-5.23-2.26-6L38,45.4a3.26,3.26,0,0,1-.51-.6l.51.6C39.19,46.5,40.85,46.64,41,48.54Zm22.2-15.43a31.61,31.61,0,0,0-7.49-2.53C58.35,31,61,31.52,63.19,33.12ZM49.75,46.56c3.31-2.31,7.66-6,12-7.71C57.63,41.16,54.16,45,49.75,46.56ZM46,37.85c4.9-2.48,10.36-4.57,16.2-4,.83.44,1.71-.94,2,.28C57.69,33.45,51.74,35.81,46,37.85Zm34.88,7.71c-.57-1-1.56-1.75-1.88-2.77v0a2.23,2.23,0,0,1-.09-.46,1.58,1.58,0,0,0,.09.46v0C79.37,43.82,80.69,44.46,80.88,45.57ZM70.19,44.8c3.58,2.81,7.38,6,12.18,5C77.63,51.19,73.66,47.77,70.19,44.8Zm21.16,16.7c.39-.17.17-.83.77-.72C91.9,61,92.07,61.77,91.35,61.49Zm.53-9.63c-1.49-.86-4.37-.21-6-1.06,2.09-.06,4.24-.11,5.95,1l0,.07a1.9,1.9,0,0,1,1,1.7Z"/><path class="cls-1" d="M0,80.17H2.92v.44H1.71v3.14h-.5V80.61H0Zm6.83,0h.44v3.58H6.83V82.1H5v1.65h-.5V80.17H5v1.49H6.83Zm5,3.58H9.15V80.17h2.64v.44H9.64v1.1h2v.39h-2v1.21h2.15Zm6.67-2.48a.88.88,0,0,0-1-.77c-.61,0-1.16.49-1.16,1.43s.28,1.49,1.21,1.49c.28,0,.83-.17,1-1H19a1.54,1.54,0,0,1-1.6,1.43c-.83,0-1.6-.55-1.6-1.93a1.66,1.66,0,0,1,1.65-1.87A1.38,1.38,0,0,1,19,81.27h-.5Zm2.26-1.1h.5v3.58h-.5Zm2.09,0h2.87v.44H24.46v3.14H24V80.61H22.81Zm6,3.58h-.5V82.32l-1.38-2.15h.61l1,1.71,1-1.71h.55l-1.32,2.15Zm8.1-1.82c0,.88-.44,1.49-1.21,1.49a1.31,1.31,0,0,1-1.27-1.49,1.29,1.29,0,0,1,1.27-1.43C36.42,80.5,36.86,81.1,36.86,81.93Zm.5,0a1.74,1.74,0,1,0-3.47,0,1.75,1.75,0,1,0,3.47,0Zm2.2,1.82h-.5V80.17h2.48v.44h-2v1.1h1.76v.39H39.56Zm8.7,0H45.62V80.17h2.64v.44H46.12v1.1h2v.39h-2v1.21h2.15Zm4.08-3.58h.5v3.58h-.55l-1.82-2.92v2.92H50V80.17h.61L52.34,83Zm2,0h2.92v.44H56v3.14h-.5V80.61H54.33Zm7.16,3.58H58.84V80.17h2.59v.44H59.28v1.1h2v.39h-2v1.21h2.2Zm2.2-3.2H64.9c.28,0,.66.06.66.61s-.39.66-.72.66H63.69V80.55h0Zm0,1.65H64.9c.55,0,.61.33.61.66a6.45,6.45,0,0,0,.11.88h.61v-.11c-.17-.06-.22-.11-.22-.33v-.66c-.06-.49-.22-.55-.44-.66a.88.88,0,0,0,.5-.88c0-.72-.61-.94-1.16-.94H63.25v3.58h.44V82.21Zm3.69-2H70.3v.44H69.09v3.14h-.5V80.61H67.38v-.44Zm4.52,2.09.61-1.54.55,1.54Zm1.32.44.33,1h.55l-1.32-3.58h-.55l-1.32,3.58h.49l.39-1Zm2.48-2.53h.44v3.58H75.7Zm4.74,0h.44v3.58h-.5l-1.82-2.92h-.06v2.92h-.44V80.17h.55L80.44,83Zm5.24,3.58v-3l-1,3h-.5l-1-3v3h-.5V80.17h.72l1,3h.06l1-3h.72v3.58h-.5Zm5,0H88V80.17h2.64v.44H88.48v1.1h2v.39h-2v1.21h2.15Zm4.08-3.58h.49v3.58h-.55l-1.82-2.92v2.92h-.49V80.17h.6L94.71,83Zm2,0h2.92v.44H98.4v3.14h-.5V80.61H96.69v-.44Z"/></svg>
