<svg id="Layer_1" data-name="Layer 1" xmlns="http://www.w3.org/2000/svg" viewBox="0 0 100 100"><defs><style>.cls-1{fill:#FFFFFF;}</style></defs><title>mirage</title><path class="cls-1" d="M99.47,23.12c.1-.95-1-1.25-1.29-2-1.69-1.47-3.36-3.29-5.69-3.14-.43,0-.32-.62-.79-.57a8.54,8.54,0,0,0-4-2,9.44,9.44,0,0,0-2.6-.32c-.18.07-.51-.13-.53.22-.29-.42-1-.23-1.43-.48a.24.24,0,0,0-.24.22c0,.65.71.6,1.13.88a6.78,6.78,0,0,1,2.43.73c.36.4,1.18.11,1.34.71a2.25,2.25,0,0,1-1.6.09A14.37,14.37,0,0,0,83,18.91c0,.2.18.37.21.58-.22.1-.46-.16-.6-.31-.84,0,.19.56-.07.88-.09,0-.12-.11-.19-.11s-.2.06-.24.22c-.41.4-.81.72-1.26,1.12-.11,0-.2.12-.08.18,1.4-.15,2.43-1.26,3.83-1.48a4.74,4.74,0,0,1,2.35-.53,11.57,11.57,0,0,1-1.44,2.17c-.07.38-.67.73-.32,1.06a9.88,9.88,0,0,1-.33,1.72c.11,0,.19-.39.31-.11a8.3,8.3,0,0,1,2.05-1.81c.24.28-.2.48-.15.78a11,11,0,0,0-.83,1.8c-.2.16.09.41-.14.55,0,.18-.14.3,0,.41s.33-.13.53-.34a.23.23,0,0,1,.23.11c.45.59-.63.59-.24,1.16-.05.46.21,0,.41.14A7.65,7.65,0,0,1,88.6,24h.11c.29.28,0,.66-.14,1-.09,1.48-.44,3-.48,4.5-.45,1.63,0,3.22-.21,5,.27.49-.06,1.09.21,1.58-.25.47.14,1-.16,1.43a1.93,1.93,0,0,1-.06,1.06c-.12.39.19.74-.07,1.05a28.84,28.84,0,0,1-.57,5.12.67.67,0,0,1-.24.82,16.12,16.12,0,0,1-.4,2.64c-.12,1.91-.26,4-.39,6a.3.3,0,0,0,0,.25c.11-.08.49-.27.28-.44-.39-.24.17-.28.14-.48a4.91,4.91,0,0,1,.18.88c-.06.09,0,.31-.19.25-.27.6.41,1.07.19,1.65-.06.25.15.8-.26.83a.4.4,0,0,0,.14.49c-.28.29.11.56,0,.89s-.23,0-.38.11c-.16.37.39.3.52.54a.85.85,0,0,1-.4.63c0,.2-.15.59.2.53a.78.78,0,0,1-.09.89c.28.24.09.58.1.85.13-.59.63-1,.51-1.68.49-.72.33-1.62.64-2.43.39-2.46.74-4.9.9-7.38.19-.33.06-.84.17-1.21A63.77,63.77,0,0,0,90,41.17c.37-2.87,0-5.82,0-8.67.2-3.25.37-6.54,1.77-9.25,0-.12.27-.42.38-.18-.05.46.64.58.52,1.08a5.49,5.49,0,0,1,1,3c0,.18.42.28.11.45,0,.23-.23.48,0,.68s.63,0,.92-.13a.88.88,0,0,1,.21-.51c.7-1.5-.26-2.88-.37-4.3.06,0,.08-.14.16-.1a5.16,5.16,0,0,1,1.68,2.6h.45c.22,0,.44-.15.46-.4,0-1.7-1.17-3-2.36-4.11-.65-.36-1.24-1-2-1-.12-.1-.37-.19-.33-.41s.1-.28.26-.24a6,6,0,0,1,2.12.43c.47,0,.31.74.84.6a48.54,48.54,0,0,1,4,3.33c.09-.07.29-.06.28-.24C99.77,23.61,99.77,23.2,99.47,23.12Z"/><path class="cls-1" d="M86.12,56.51c.74,0-.25-.42.2-.69a.16.16,0,0,0-.17-.17A2.31,2.31,0,0,0,86.12,56.51Z"/><path class="cls-1" d="M86.29,55.26c.06-.11.07-.34-.1-.36s0,.09,0,.13S86.11,55.32,86.29,55.26Z"/><path class="cls-1" d="M86.09,57.58c.2,0,0-.16.1-.27C86,57.22,86.05,57.51,86.09,57.58Z"/><path class="cls-1" d="M84.54,24.93a.34.34,0,0,0,.13-.19C84.62,24.75,84.51,24.82,84.54,24.93Z"/><path class="cls-1" d="M65.41,50.09a4.32,4.32,0,0,0,0,1.1.48.48,0,0,0,.09-.1C65.46,50.73,65.63,50.35,65.41,50.09Z"/><path class="cls-1" d="M40.29,30.37c-.05-.05-.14-.13-.2-.06S40.25,30.38,40.29,30.37Z"/><path class="cls-1" d="M37.06,25.88a14.11,14.11,0,0,0,2.63-1.36l1.73-.69c1-.34,1.9-1.1,2.95-1.35.1.07.1.16,0,.23a13.37,13.37,0,0,0-2.89,3.21c0,.2,0,.43-.09.59s-.15,0-.22.08a5.63,5.63,0,0,1-.57,1.3c.1.72-.63,1.2-.48,2,.14,0,.23-.06.38,0a1.62,1.62,0,0,1,.33.78,1.6,1.6,0,0,1-.59.55c-.2.14-.48-.16-.56.12a1.25,1.25,0,0,0,1.23-.23c1.37-1.83,2.44-3.8,4-5.54a8.87,8.87,0,0,1,2.85-2.18c.23.08-.06.23,0,.38a7.47,7.47,0,0,0-1.67,5.39c.43,2.59.71,5.22,1.11,7.78,0,.9,0,1.76,0,2.65.25.67-.06,1.32.18,2,0,2.56.21,5.15.08,7.86.05.59-.05,1.45,0,2.1-.16.46.24.8,0,1.16a25.24,25.24,0,0,0,.71,6.47c.09.36.32.14.52,0,.1.13,0,.41.2.45s.31-.09.4-.22c.11-1.09.78-1.93,1-3-.28-2.75-.14-5.65-.15-8.5-.28-3.84-.33-7.84-.66-11.72-.3-.22-.12-.63-.15-1-.19-.17-.16-.42-.25-.62-.1-2.74-1.65-5.63-.16-8.3a.23.23,0,0,1,.32,0,24.16,24.16,0,0,1,1.15,6.45c0,.23.2.44.08.68.15.31.53.23.79.35.33-.24.4-.67.73-.94.19-.82.74-1.68.39-2.53C52.49,28,51.24,26,51,23.72a.19.19,0,0,1,.24-.15c1.11,1,2.6,2,3.07,3.42.59,1.17.17,2.69,1.12,3.73.21.19.55.09.77,0,.14-.84,0-1.72.13-2.52-.05-.07-.17-.08-.19-.19.4-1.35-.94-2.22-1.35-3.31-.07-.06-.14-.06-.19-.13-.05-.52-.69-.58-.68-1.1.43.05,1,0,1.45.08.18,0,.3-.22.32.08.1,0,.22.06.37.07,0,.23,0,.56.11.76a.3.3,0,0,0,.22-.06c.07-.23.14-.45.22-.68.22.13.85.2,1.09.41a16,16,0,0,0-.15,2.45c-.45,1.68,0,3.38-.21,5.08a3.17,3.17,0,0,1,0,1.24c.31.42-.1.95.11,1.45,0,.12-.22.26-.07.41-.17.76,0,1.36-.2,2.09a32.47,32.47,0,0,1-.53,4.91.68.68,0,0,1-.26.83,9.7,9.7,0,0,1-.38,2.67c-.13,2.2-.33,4.74-.41,7.08h.07c.23-.37-.16-1,.37-1.22,0-.14-.23-.21-.18-.36.23,0,0-.23.21-.32a2.61,2.61,0,0,1,.25,1,.72.72,0,0,0-.26.67A2.49,2.49,0,0,1,56.3,54c-.38.09,0,.43,0,.68-.29.24.09.45,0,.72s-.29.08-.42.16c-.09.39.4.25.54.5s-.18.37-.25.55c-.29,0-.12.35-.18.55a.31.31,0,0,1,.28.13c.17.33-.07.63-.12.93.32.19,0,.57.1.77.11-.52.5-.9.47-1.47s.47-.77.27-1.24a42.51,42.51,0,0,0,1-5.7c0-1.49.3-2.91.42-4.37A61.44,61.44,0,0,0,59.48,38c.55-4-.53-7.92.21-11.8a17.23,17.23,0,0,1,1.63-6.12c.09-.05.27-.08.32.06-.05.47.57.57.45,1.06a5.31,5.31,0,0,1,1,3.1c.46.25-.06.55,0,.86s.35.28.58.33c.08-.3.56-.1.46-.5a3.49,3.49,0,0,0,.34-2.51c-.41-.51-.15-1.28-.51-1.81,0-.13,0-.38.17-.32a4.91,4.91,0,0,1,1.17,1.42c-.14.33-.18.72-.31,1a78.3,78.3,0,0,0-.61,13.75A15.68,15.68,0,0,0,65,40c.13,2.53.47,5,.45,7.56,0,.09.09,0,.13,0,0-.2.14-.39,0-.56.08-.14.23,0,.32,0a.18.18,0,0,1,0-.29c.13,0,.23.13.28.24a10.11,10.11,0,0,1-.49,1.24c-.07.07-.17-.17-.2,0-.06.32,0,1,.15.26,0-.18.3-.31.38,0,.47.34-.24.71.07,1,0,.16-.1.25-.14.35a8.63,8.63,0,0,0,.27,1.39c0,.14-.25.1-.17.3s0,.52.21.29a11.17,11.17,0,0,0,.69-3.79c.42-.85,0-1.88.3-2.78A11.49,11.49,0,0,1,67,42.85c.21-1.44-.9-2.5-.44-3.92-.47-1.81,0-3.94-.37-5.78a32.9,32.9,0,0,0,.3-3.82c1.16-.32,2-1.31,3-1.9a.16.16,0,0,1,.19,0,1.81,1.81,0,0,1,1.17-.8c.2.31-.09.64-.21.93a32.44,32.44,0,0,0-1.33,3.7c.13,0,.26-.22.41-.34.09.13.37,0,.33.28a.11.11,0,0,1-.16,0c-.37.49-.25,1.35-.25,1.89.05,0,.09,0,.13-.07,0-.49.49-.72.45-1.2.43-.49.67-1.11,1.15-1.57.15-.14.12-.42.34-.47.05,0,.05.09.1.13a38.79,38.79,0,0,1-1,5.2c-.67,5.38-1.21,10.58-.47,16,.3.24.07.7.25,1,.18,2.53.34,5,.42,7.54h.07c0-.14.23-.39,0-.47a.17.17,0,0,1,.08-.16c.37.25,0-.11.3-.24.14,0,.22.21.27.33a12.51,12.51,0,0,0-.52,1.18c-.31-.22-.19.25-.21.33.19,0,.15-.3.37-.33s.22.39.34.59c-.1.19-.45.5-.1.68-.32.31,0,.57-.07,1s.44.63,0,.86a.68.68,0,0,0,.07.43c.21,0,.17-.21.32-.28.24-1.14.36-2.26.49-3.4a4.91,4.91,0,0,0,.14-2c.3-1-.17-1.92,0-2.92a.14.14,0,0,0,0-.14c.21-1.41-.9-2.47-.38-3.88-.49-1.79,0-4-.35-5.81.56-2.63.25-5.67.65-8.38.77-3.11,1.14-6.43,2.17-9.42.07,0,.18,0,.21.08A17.22,17.22,0,0,1,76.27,33c.24.26.07.54.11.88.27,0,0-.45.27-.6a.14.14,0,0,1,.16.06c.23.12,0,.2-.1.23.08.27-.11.55.13.74.08-.3.45-.68.16-1,0-.09,0-.13.1-.19.29,0,.25-.35.31-.56a13.32,13.32,0,0,0-.32-3.63c0-.13,0-.29.17-.28a.49.49,0,0,1,.26.37c.7.54.83,1.35,1.22,2.05.12.15-.05.43.14.58a.87.87,0,0,0,.87-.17c.59-1.43-.56-2.54-1.2-3.68,0-.18-.26-.37-.07-.56.79.44,1.29,1.46,2.1,2,.64.63.66,1.62,1.51,2,.39-.47.15-1.19.15-1.77a21.6,21.6,0,0,0-4.38-5.24c-.37-.3-1.07-.11-1.14-.72a3.3,3.3,0,0,1,1.23-.35,6.69,6.69,0,0,1,2.72-.39c.48,0,1,.27,1.42.32.26-.89-.86-.89-1.32-1.28a10.59,10.59,0,0,0-7.09,1l-2-.27a7.53,7.53,0,0,0-4.77,1,27.79,27.79,0,0,0,.7-3.44.66.66,0,0,0,0-.27c.49.44,1,1,1.47,1.44.07,0,.1.09.2.06.3-.4-.23-.67-.25-1-.23,0-.19-.24-.18-.38a4.73,4.73,0,0,0-1-1.29c.36-1.06.48-2.24.93-3.27.06,0,.07-.05.14,0a24.89,24.89,0,0,1,1,2.49c.11,1,.67,1.91.51,2.92.3.22,0,.56.13.85.22-.08,0-.48.24-.6.07,0,.16,0,.2.06.19.13-.1.16-.14.23.14.26-.14.59.17.74.13-.25.18-.55.31-.79s-.35-.23-.08-.38c.25,0,.26-.31.3-.51-.1-1.13.14-2.4-.31-3.4,0-.16-.12-.56.16-.51a7.59,7.59,0,0,1,1.43,2.27c.12.2,0,.52.21.65a.89.89,0,0,0,.85-.17c.72-1.6-.85-2.75-1.38-4.1.14-.28.27.1.41.1.73,1.12,2.3,1.71,2.63,3.12.19.26.39.61.73.58a3.52,3.52,0,0,0,.1-1.73,23.56,23.56,0,0,0-4.44-5.19c-.37-.27-1.07-.15-1.16-.72.66-.32,1.53-.29,2.21-.66.47-.15,1.2.08,1.65-.1.57,0,1,.36,1.5.23.22-.74-.71-.76-1.09-1.09a10.4,10.4,0,0,0-7.41.87c-.64-.08-1.36-.19-1.92-.27a7.68,7.68,0,0,0-5.58,1.42c-.11.55-.82.8-.57,1.47.18,0,.44.14.57,0,.46,0,.06.31-.07.44,1,0,1.79-.87,2.86-.87.24.23-.09.46-.09.64-.48.32-.81,1.11-1.23,1.47a.41.41,0,0,0-.49-.2c-1.63-1.56-3.74-2-5.92-2.34-.33.2-.57,0-.93,0a.36.36,0,0,1-.21.28.29.29,0,0,0-.12-.29c-.54.18-.92-.43-1.39-.18-.24.78.78.71,1.13,1a7.1,7.1,0,0,1,2.39.71c.34.42,1.09.09,1.3.69-.06.25-.38.15-.56.23-1.55-.36-2.76.58-4,1.19-.61.14.18.52-.1.8a.6.6,0,0,1-.28-.2c-.16,0-.19-.22-.31-.25-.61.14.16.54.08.88s-.25-.12-.39-.1,0,.16-.08.25a10.32,10.32,0,0,0-1,1c0,.21-.54.13-.28.37,1.33-.24,2.39-1.24,3.72-1.48.65-.53,1.54-.39,2.31-.56,0,0,.05.05.07.07a9.59,9.59,0,0,1-1.2,1.76,1.78,1.78,0,0,0-1-.11c-1.68.34-3.34.76-5,1.15-.84-.58-1.52-1.5-2.52-1.77-.35-.1-.61-.45-1-.54-1.61-.47-3.25-.88-4.92-1.24-.61,0-1.43-.23-2,.05-.18,1.08-1.61.37-2.3.87-.2,0-.29.22-.21.37-.32.44-.34,1-.8,1.37a1,1,0,0,0-.79.62.51.51,0,0,0,.35.14A3.47,3.47,0,0,1,37.06,19a6.5,6.5,0,0,0,.94-.18,20,20,0,0,1,2.8.31c.23,0,.4.34.64.13.48.14,1,.11,1.43.46,0,.18-.17.23-.24.35a22.93,22.93,0,0,0-3.56,1.49c-1.31,1.14-2.74,2.11-3.91,3.25a.33.33,0,0,0,.28.1c.14-.51.62.15.71-.42a.41.41,0,0,1,.59.06c.06.31-.29.12-.44.2.13.4-.42.33-.43.67-.23,0-.23.29-.41.42-.11.51-.69.73-.94,1.18a.18.18,0,0,0,.16.08C35.42,26.54,36.35,26.47,37.06,25.88Zm25.71-8.32c-.23-.2-.58.12-.74-.22a.34.34,0,0,1,.12-.48,10.66,10.66,0,0,1,1.29.08.91.91,0,0,0,.46.26,2.62,2.62,0,0,0-.23.9A8.59,8.59,0,0,0,62.77,17.56ZM68,25.12A1.89,1.89,0,0,1,69.08,25a1.18,1.18,0,0,1-.64,1c-.07.5-.87.68-.79,1.19-.31.22.16.42-.06.68,0,.71-.71,1-1.14,1.51,0-1.23,0-2.42.08-3.49C67,25.73,67.44,25.28,68,25.12Zm-2.18-6.6a11.14,11.14,0,0,0-.21,1.35,7.78,7.78,0,0,0-.83-.95h0a5.78,5.78,0,0,0,.68-.86c.14.09.32.28.45.37A.21.21,0,0,1,65.78,18.52Zm-.91-4.15c.16.56-.37.9-.37,1.44a5.73,5.73,0,0,0-.85-.54C63.84,14.81,64.46,14.55,64.86,14.37Zm-6.81,6.79h.16c.24.38-.12.75-.2,1.1,0,.16,0,.35,0,.5a4.75,4.75,0,0,0-.75-.51A6.94,6.94,0,0,1,58.06,21.16Zm-1.49-1.5a.33.33,0,0,1,.18,0c.21.26-.21.48-.19.8a5.48,5.48,0,0,0-.65,1.34c-.33-.37-.88,0-1.28-.21A8.66,8.66,0,0,1,56.57,19.65Zm-1.91.4a4.36,4.36,0,0,1-.31,1.49c0-.1-.09-.2-.28-.13-.42.25-.6-.34-.86-.51C53.59,20.28,54.23,20.52,54.66,20.05Z"/><path class="cls-1" d="M55.93,53.33c-.21-.17-.12-.29-.07-.5s-.08-.27-.19-.24C55.75,52.87,55.38,54.24,55.93,53.33Z"/><path class="cls-1" d="M55.66,54.77a.94.94,0,0,0,0-.83C55.6,54.16,55.49,54.58,55.66,54.77Z"/><path class="cls-1" d="M50.7,17.43c-.16,0-.29.19-.3.35C50.68,18,50.52,17.49,50.7,17.43Z"/><path class="cls-1" d="M69.21,73.13c.35-.28.85-.59.57-1.06-1.4-1.62-3.45-.22-4.93.3-.6.15-.18-.85-.65-1.1-.31-.41-.79-.23-1.07.05a1.91,1.91,0,0,0-.3,1.6c-.26.34-.57.53-.83.87-.53.15-1,1.15-1.51.62a2.86,2.86,0,0,1,.11-1.85,1.08,1.08,0,0,0-.21-.91.87.87,0,0,0-.91-.45c-.88.46-.89,1.63-1,2.57a3.42,3.42,0,0,0,1.33,2.55c1.35.2,2.14-.61,3.06-1.42A11.51,11.51,0,0,1,63.25,76c.19.44.59.88,1.13.67.45-.69.89-1.72.3-2.48a9.3,9.3,0,0,1,3-1.39C68.18,73,68.64,73.31,69.21,73.13Z"/><path class="cls-1" d="M58.82,66.38c-.1.28-.32.53-.17.88s.69.51,1.16.48c.28,0,.35-.34.54-.5a6.11,6.11,0,0,0-.06-.69A1.46,1.46,0,0,0,58.82,66.38Z"/><path class="cls-1" d="M57.6,76.29c.75-.09.76-1.25.23-1.63-2.16,0-2.36-2.4-3.14-3.79A1.71,1.71,0,0,0,52.57,70c-2.3.8-4.2,2.66-6.41,3.71a1.5,1.5,0,0,1-1.66-.39c-.52-1.29,0-3.39-1.82-3.81-4.08-.07-6.9,3.23-10.28,5.06-.35.09-.66.53-1,.27A9.68,9.68,0,0,1,33.07,71c1.1-3.19,3.6-6.12,2.75-9.77-.74-1.48-2.37-1.81-3.91-2-10.81.88-19.83,6.2-28.64,12.12-.25.22-.69,0-1,.18-.82.28-2,.39-2.27,1.42.31.91,1.28.89,2.1.93,2-.64,3.81-1.94,5.71-2.93,1.1-.62,1.71-1.65,2.81-2.17a25.31,25.31,0,0,0,4.86-2.84c1.29-.84,2.71-.82,4-1.66a74.06,74.06,0,0,1,7.21-2.67c2.42,0,4.72-1.09,7.06-.09a3,3,0,0,1,.13,2.7c-1.09,2.47-2.15,5-3.33,7.38A11.15,11.15,0,0,0,29.29,76a1.79,1.79,0,0,0,2,.93c2-.89,4.22-1.72,5.87-3.4,1.51-.8,3-2,4.7-2.16.9,1.23.79,3,2.29,3.88,2.44,1.15,4.43-.87,6.33-2.11.88-.37,1.52-1.12,2.52-1.26C54,73,54,74.57,55.13,75.61,55.91,75.93,56.59,76.53,57.6,76.29Z"/><path class="cls-1" d="M74,72c-.21-.72-1-.86-1.62-.86a5,5,0,0,0-3.26,3.3c.12.72.14,1.57.89,1.92a2.51,2.51,0,0,0,2.62-1.11c.19.22.53.54.72.76a3,3,0,0,0,1.89-.2c.47-.31,1.17-.87.73-1.53-.41-.32-.79.05-1.19.12C72.84,74.7,74.55,72.86,74,72Zm-2.85,2.52a.55.55,0,0,1-.12-.85,3.88,3.88,0,0,1,1.55-1A2.29,2.29,0,0,1,71.18,74.56Z"/><path class="cls-1" d="M95,74.48c-1.73.33-3.52,1-5.37.46a17,17,0,0,0,3.49-1.19c0-.1.1-.12.07-.25,0-.76-.9-1-1.4-1.36-.06-.75-.9-1.08-1.53-1.24-.81-.32-1.48.21-2.08.58a4.25,4.25,0,0,0-1,2.51A40.73,40.73,0,0,1,82,75.28c-.06-.1-.19-.13-.19-.22-.77-1.17.43-2.1.22-3.3-.44-.6-1.13.34-1.41-.45a2.09,2.09,0,0,0-1.88-.08,3.65,3.65,0,0,0-2.22,2.93c-.07.63.46,1.2,1,1.64,1.06.51,1.95-.36,2.71-.76a1.29,1.29,0,0,0,.12.6,6.82,6.82,0,0,1-1.89.67c-3.5,1.45-7.46,2.57-9.75,6.13-.86,1.75-.25,3.89.55,5.5.77,1.83,2.68,2.6,4.46,2.8,3,.06,5.91-.92,7.41-3.67,2.1-2.87,1.13-7.08,1-10.44,1.89-.45,3.81-.85,5.66-1.3,1.24,1.42,3.41,1.35,5.14,1,.85,0,1.51-.61,2.42-.29a.79.79,0,0,0,.57-1C95.69,74.65,95.35,74.61,95,74.48ZM79,74.19c-.25.09-1.26.11-.72-.48a2.28,2.28,0,0,1,1.42-1.18c.13.06.32,0,.41.19C79.69,73.19,79.69,74,79,74.19Zm1.66,10.75c-.23.62-.67,1.19-.93,1.84A12.65,12.65,0,0,1,78,88.24c-1.8.8-4.31,1.53-6.19.39-1.28-1.11-1.64-2.93-2-4.6.12-1.23,2-2.85,3.2-3.64,1.1-.15,2-1.08,2.94-1.54a24.09,24.09,0,0,1,4.66-1.59C80.86,79.85,81.22,82.34,80.63,84.94ZM89,73.43c-.18-.53.41-.88.64-1.31a1.23,1.23,0,0,1,1.13.48c-.16.28.68.7-.07.66A15.07,15.07,0,0,1,89,73.43Z"/><polygon class="cls-1" points="56.71 85.94 55.45 82.55 54.91 82.55 56.71 87.26 58.52 82.55 57.98 82.55 56.71 85.94"/><polygon class="cls-1" points="21.7 82.55 21.21 82.55 21.21 87 22.93 87 22.93 86.54 21.7 86.54 21.7 82.55"/><path class="cls-1" d="M28.67,87h.54l.54-1.26h1.9L32.17,87h.55l-2-4.66Zm1.28-1.72.76-1.78.74,1.78Z"/><path class="cls-1" d="M40.38,84.45l-.29-.13c-.3-.14-.7-.31-.7-.7a.71.71,0,0,1,.74-.69.82.82,0,0,1,.77.48l.4-.25a1.28,1.28,0,0,0-1.15-.69,1.17,1.17,0,0,0-1.24,1.13c0,.64.45.9,1,1.14l.27.12c.41.19.82.37.82.88a.89.89,0,0,1-.91.86.91.91,0,0,1-.89-.82l-.48.14a1.4,1.4,0,0,0,2.78-.22C41.45,85,41,84.7,40.38,84.45Z"/><polygon class="cls-1" points="64.67 87 66.98 87 66.98 86.54 65.17 86.54 65.17 84.79 66.92 84.79 66.92 84.33 65.17 84.33 65.17 83.01 66.98 83.01 66.98 82.55 64.67 82.55 64.67 87"/><path class="cls-1" d="M75.18,85.22H76.5a1.52,1.52,0,0,1-1.59,1.39A1.86,1.86,0,0,1,73.65,86a1.79,1.79,0,0,1-.52-1.25,1.84,1.84,0,0,1,1.81-1.86,1.8,1.8,0,0,1,1.53.84l.36-.34a2.31,2.31,0,1,0-1.91,3.64,2.19,2.19,0,0,0,1.65-.74A2.11,2.11,0,0,0,77,84.76H75.18Z"/><path class="cls-1" d="M83,87h.54l.54-1.26H86L86.5,87H87l-2-4.66Zm1.28-1.72L85,83.5l.74,1.78Z"/><path class="cls-1" d="M94.72,84.45l-.3-.13c-.3-.14-.69-.31-.69-.7a.71.71,0,0,1,.74-.69.82.82,0,0,1,.77.48l.39-.25a1.27,1.27,0,0,0-1.15-.69,1.17,1.17,0,0,0-1.24,1.13c0,.64.45.9,1,1.14l.27.12c.41.19.82.37.82.88a.89.89,0,0,1-.92.86.91.91,0,0,1-.89-.82l-.48.14a1.4,1.4,0,0,0,2.78-.22C95.78,85,95.29,84.7,94.72,84.45Z"/></svg>
