<svg id="Layer_1" data-name="Layer 1" xmlns="http://www.w3.org/2000/svg" viewBox="0 0 100 100"><defs><style>.cls-1{fill:#FFFFFF;}</style></defs><title>moheganSun</title><path class="cls-1" d="M44.85,68.61a.19.19,0,0,0-.15-.05.31.31,0,0,1-.05-.21c-.05-.1,0-.15,0-.26v-.77a1.12,1.12,0,0,0,0-.41c-.05-.1-.05-.15-.1-.21s-.1-.1-.15-.16a1.22,1.22,0,0,0-.41-.1.39.39,0,0,0-.21.05c-.1,0-.15.05-.26.1l-.15.15c-.05.05-.1.1-.05.21a.05.05,0,0,0,.05.05c.1.05.15,0,.21,0a.31.31,0,0,0,.21-.05c.05,0,.05-.05.1-.05s.1-.1.15-.1a.39.39,0,0,1,.15.1c.05.05,0,.15,0,.21v.26a.72.72,0,0,1-.15.21c-.05.05-.1.05-.15.1s-.1.1-.21.1-.15.05-.21.1-.05.05-.05.1-.1,0-.1.05a.27.27,0,0,0-.1.21v.31a.19.19,0,0,0-.05.15c0,.05.05.05.1.15l.1.1a.46.46,0,0,0,.26.05h.26c.05,0,.05-.05.15-.05s.05-.05.1-.05a.18.18,0,0,1,.1.05.46.46,0,0,0,.26.05h.21c.05-.05.1-.05.15-.1h0c.05-.05.1-.05.1-.1a.1.1,0,0,0,0-.15C45,68.61,44.9,68.61,44.85,68.61Zm-.67-.11c0,.05-.05.05-.15.1s-.05.05-.15,0-.1,0-.1-.05a.19.19,0,0,1-.05-.16c-.05-.1,0-.15,0-.21a.19.19,0,0,1,.05-.15l.15-.15c.05-.05.15-.15.21-.1s.05.05.05.1V68c0,.05-.05.05-.05.1s.05.05.05.1v.15C44.18,68.41,44.23,68.46,44.18,68.51Z"/><path class="cls-1" d="M52.94,58.16c.1-.72.82-1.29.62-2.22a3,3,0,0,0-.41-.67H53c-.05-.05-.1-.15-.15-.15-.21-.15-.36-.21-.51-.31-.31-.26-.57-.51-.88-.77-.1-.1-.21-.1-.31-.21a1.37,1.37,0,0,1-.31-.26,7.27,7.27,0,0,1-.67-.31.44.44,0,0,0-.26-.15A3.53,3.53,0,0,0,48.4,53a8.46,8.46,0,0,0-2.37.67c-.26.1-.67.57-.26.77a1.39,1.39,0,0,0,1-.15c.15-.05.26-.21.41-.26a3,3,0,0,1,3.19.82,6.42,6.42,0,0,1,.21.72c0,.05.1.15.1.21V56a3.19,3.19,0,0,0-.72.05,10.22,10.22,0,0,0-2.94.72c-.15.05-.31.05-.41.15a3.2,3.2,0,0,0-.72.93,1.29,1.29,0,0,0-.05.77c.21,1,1.49.82,2.57.72a4.27,4.27,0,0,0,1.65-.26,1.63,1.63,0,0,0,.62-.41c.1.88.62,1.75,1.6,1.34a1.29,1.29,0,0,0,.36-.21c.05-.1,0-.21.05-.36a4.24,4.24,0,0,1,.21-.77Zm-2.21.05a8.73,8.73,0,0,0-2.27.15,1,1,0,0,1-.57,0c-.31-.1-.31-.26-.26-.57l.31-.15a3.87,3.87,0,0,1,.82-.21,10.47,10.47,0,0,1,1.34-.21,1.15,1.15,0,0,1,.62.05Z"/><path class="cls-1" d="M47.32,66.61l-.1-.1a.19.19,0,0,0-.15-.05h-.15c-.05,0-.05.05-.1.05s-.1.05-.15.05H46.6c-.05-.05,0-.1-.05-.1h-.1c-.05,0-.05.05-.1.05l-.15.15c-.05,0-.1.05-.15.05s-.1.05-.15.05a.19.19,0,0,0-.15.05c0,.05-.05.1,0,.15s.05.05.1.05.05,0,.1.05.05.1.1.15a.19.19,0,0,0,.05.15v.36c-.05.05-.05.1-.05.21s.05.05.05.1v.15c-.05.1,0,.15,0,.26s0,.1-.05.21a.19.19,0,0,1-.15.05c-.05.05-.1.05-.1.1a.19.19,0,0,0-.05.15.05.05,0,0,0,.05.05c.05.05.1,0,.15,0H46a.19.19,0,0,1,.15-.05h.62c.05-.05.05-.05.05-.1s-.05-.1-.05-.15-.15-.05-.15-.1a.19.19,0,0,1-.05-.15c-.05-.1,0-.21,0-.36v-1a.19.19,0,0,1,.05-.15.05.05,0,0,1,.05-.05c0-.05,0-.05.05-.05l.05.05a.16.16,0,0,1,.05.1,29.91,29.91,0,0,0,.31.1c.05,0,.1-.05.15-.1s.05-.1.05-.15v-.1h0v-.1A.05.05,0,0,0,47.32,66.61Z"/><path class="cls-1" d="M50.46,66.5a.19.19,0,0,0-.15-.05h-.1c-.05,0-.05.05-.1.05s-.05.05-.1,0h-.15a.19.19,0,0,0-.15-.05l-.05.05c-.05.05-.05.05-.05.1v.1c.05.05,0,.05.05.1s.05.05.05.1V67a.18.18,0,0,1,.05.1l-.05.05c0,.05,0,.05-.05.05v.26l-.1.1c0,.05,0,.05-.05.1s-.05.05-.05.1v.1c-.05.1-.05.1-.05.15s-.05.1-.1.1a.05.05,0,0,1-.05-.05c-.05-.05-.05-.05-.05-.1a.19.19,0,0,0-.05-.15v-.1c0-.05.05-.05,0-.1s-.05-.1-.05-.15l-.1-.1c0-.05,0-.05-.05-.1s0-.05-.05-.15V67a.19.19,0,0,1-.05-.15.11.11,0,0,1,.1-.1.19.19,0,0,1,.05-.16V66.5c-.05-.05-.05-.05-.1-.05s-.1.05-.15.05h-.26a.77.77,0,0,1-.31-.05h-.26v.1c0,.05,0,.1.05.1s.05.05.05.1a.18.18,0,0,1,.1.05l.1.1c0,.05.05.05.05.1a.19.19,0,0,0,.05.15c0,.05.05.1.05.16s.05.1.1.15.05.1.05.15.05.1.05.16-.05.05-.05.1.05.1.05.15l.1.1a.05.05,0,0,0,.05.05.19.19,0,0,1,.05.15v.15c0,.05.05.1.05.15a.16.16,0,0,0,.05.1v.1c.05.05.05.05.05.1v.1c0,.05-.05.05-.05.1v.15a.16.16,0,0,0-.05.1c-.05.1-.05.1-.05.15a.19.19,0,0,1-.05.15c-.05.05-.05.05-.1.05s-.05.1-.05.21-.05.1-.1.15-.05.05-.1.1-.05.1-.15.1l-.1.1c-.05.05-.1.05-.1.1v.15l.05.05h.1c.05,0,.05,0,.1-.05a.16.16,0,0,0,.1-.05.16.16,0,0,0,.1-.05.16.16,0,0,1,.05-.1c.05-.05.05-.05.1-.05s.05-.05.05-.1a.16.16,0,0,0,.05-.1.19.19,0,0,1,.05-.15c0-.05.05-.05.05-.1a.19.19,0,0,0,.05-.15c.05-.05.05-.05.05-.1s.05-.05.05-.1a.19.19,0,0,0,.05-.1c0-.05,0-.05.05-.15a.05.05,0,0,1,.05-.05c0-.05.05-.1.05-.15s.05-.05.05-.1.05-.05.05-.1,0-.1,0-.21l.1-.1c.05-.1.05-.15.1-.26s.05-.15.1-.26.1-.1.1-.15.05-.05.05-.1v-.1a.19.19,0,0,0,.05-.16c0-.05.05-.05.05-.15s.05-.1.1-.15v-.05l.05-.05v-.1c.05-.05.05-.1.1-.15v-.05c0-.05.05-.05.05-.1a.18.18,0,0,1,.1-.05c0-.05.05-.05.05-.1h.15c0-.05.05-.05.05-.1A.05.05,0,0,0,50.46,66.5Z"/><path class="cls-1" d="M24.25,68.61a.19.19,0,0,0-.15-.05c-.05-.05-.05-.16-.1-.21s.05-.15.05-.26V66.91c-.05-.1-.05-.15-.1-.21s-.1-.1-.21-.16a.75.75,0,0,0-.36-.1c-.1,0-.15,0-.21.05s-.15.05-.26.1a.71.71,0,0,0-.21.15c0,.05-.05.1-.05.21s.05.05.1.05.1,0,.21,0a.19.19,0,0,0,.15-.05c.05,0,.1-.05.15-.05s.1-.1.15-.1.1.05.15.1v.21a.47.47,0,0,1-.05.26.27.27,0,0,1-.1.21c-.05.05-.1.05-.21.1s-.1.1-.15.1-.15.05-.21.1l-.1.1a.16.16,0,0,0-.1.05c-.05.05-.05.1-.05.21a.19.19,0,0,0-.05.15v.31c0,.05.05.05.05.15a.38.38,0,0,0,.15.1A.31.31,0,0,0,23,69h.26c.05,0,.1-.05.15-.05a.19.19,0,0,1,.15-.05c.05,0,.05.05.1.05a.38.38,0,0,0,.21.05H24c.1-.05.15-.05.21-.1h0l.1-.1c0-.05.05-.1,0-.15A.16.16,0,0,0,24.25,68.61Zm-.67-.11c-.05.05-.1.05-.15.1s-.1.05-.15,0a.19.19,0,0,1-.15-.05c0-.05-.05-.1-.05-.16s0-.15.05-.21a.19.19,0,0,1,.05-.15c0-.05.05-.1.1-.15s.15-.15.21-.1.05.05.05.1v.21c0,.05.05.05.05.1s-.05.05-.05.1v.05A.19.19,0,0,1,23.58,68.51Z"/><path class="cls-1" d="M32.59,58.16c.41.72,1,.93,2,1a13.34,13.34,0,0,0,3.24-.1A11.3,11.3,0,0,0,39,58.47c0-.05-.05-.1,0-.16a2.25,2.25,0,0,0-.41-.1c-.15,0-.41.1-.57.1-.31.05-.62,0-.88.05.05-.05-.05-.31-.05-.36A5.54,5.54,0,0,1,34,57.44a1.71,1.71,0,0,1-.57-.46c.05-.05.05-.21.15-.21s.31.1.57.05a7.92,7.92,0,0,0,1.08-.15,6.56,6.56,0,0,0,1.91-.93,1.74,1.74,0,0,0,.31-.15v-.21l.26-.26c.36-.31.62-.46.15-.88a1.5,1.5,0,0,0-1.24-.31,4.52,4.52,0,0,0-1.6.67A7.43,7.43,0,0,0,34,55c-.05,0-.1.1-.15.15s-.15.05-.21.1-.05.1-.1.15a2.28,2.28,0,0,0-1.08,2.68Zm1.7-2.32a2.26,2.26,0,0,1,.72-.67,4,4,0,0,1,.82-.36.69.69,0,0,1,.26-.15.74.74,0,0,1,.67.26l.1.15c-.05,0-.1.15-.15.21-.31.62-1.7.77-2.52.82C34.24,56,34.24,55.95,34.29,55.84Z"/><path class="cls-1" d="M28,68.77c0-.05-.05-.05-.1-.1a.18.18,0,0,1-.05-.1V68.2c0-.05-.05-.1-.05-.15s.05-.05.05-.1v-.15c0-.05.05-.05.05-.1s0-.05-.05-.1a.16.16,0,0,0-.05-.1v-.36c0-.05.05-.1,0-.1V66.6c.05-.05.05-.05.05-.1V65.32a.19.19,0,0,1,.05-.15V65c.05-.05.05-.1.05-.21s.05-.1,0-.15-.05-.05-.1-.05-.05,0-.1.05-.1.05-.15.05l-.1.1a.18.18,0,0,1-.1.05.05.05,0,0,1-.05.05c-.05.05-.05.1-.1.1l-.1.1c-.05,0-.05,0-.1.05a.19.19,0,0,0-.05.15.16.16,0,0,0,.05.1H27l.1.1c.05,0,.05.05.1.1v1c0,.05-.05.1-.05.15V67a.16.16,0,0,1,.05.1v.21c0,.05-.05.05-.05.1s0,.15,0,.26v.46a.05.05,0,0,0-.05.05v.15a44.6,44.6,0,0,0-.1.31c-.05.05-.1.05-.15.1a.19.19,0,0,1-.15.05c0,.05-.05.05-.05.1V69l.05.05h.67c.1-.05.1-.05.15-.05h.21c.05,0,.1.05.15.05S28,69,28,69s.05-.05.05-.1S28,68.82,28,68.77Z"/><path class="cls-1" d="M29.25,67.33a.19.19,0,0,1,.15-.05h.21a.25.25,0,0,0,.31,0h.31c.05,0,.1-.05.21-.05s.1.05.21,0h.1c0-.05,0-.1,0-.15s0-.05-.05-.1-.05-.05-.1-.1-.05-.1-.1-.15-.05-.1-.1-.1-.1-.1-.15-.1a.76.76,0,0,0-.46-.05H29.4a.19.19,0,0,1-.15.05l-.1.1-.1.1-.1.1c0,.05-.05.1-.05.15a.19.19,0,0,0-.05.15v.15c0,.05-.05.05-.05.1v.31c0,.05-.05.05-.05.1V68c0,.05.05.05.05.1s-.05.1-.05.15.05.1.05.15.05.05.05.1.05.1.1.15a.71.71,0,0,0,.15.21c.05.05.1.05.15.1s.05,0,.1.05H30c.05,0,.05-.05.1-.05s.1.05.21.05l.1-.1c.05-.05.1-.05.15-.1s.1-.1.1-.15.05-.1.05-.15,0-.1-.05-.1-.05-.05-.1-.05-.05.05-.1.05-.05.05-.1.05h-.26c-.05,0-.1.05-.15.05h-.26c-.1-.05-.21-.05-.31-.15s-.1-.1-.15-.21,0-.21,0-.36Zm.05-.52c.05-.05.1-.05.15-.1h.21a.19.19,0,0,1,.15.05.18.18,0,0,1,.1.05c.05.05.05.1,0,.1s-.05.05-.1.05a.39.39,0,0,1-.21.05H29.4a.18.18,0,0,0-.1.05.16.16,0,0,1-.05-.1C29.25,66.91,29.3,66.86,29.3,66.81Z"/><path class="cls-1" d="M34.91,67.33a.19.19,0,0,1,.15-.05h.21a.25.25,0,0,0,.31,0h.31c.1,0,.1-.05.21-.05s.1.05.21,0h.1c0-.05,0-.1,0-.15s0-.05-.05-.1-.05-.05-.1-.1-.05-.1-.1-.15-.05-.1-.1-.1-.1-.1-.15-.1a.76.76,0,0,0-.46-.05h-.36a.19.19,0,0,1-.15.05l-.1.1-.1.1-.1.1c0,.05-.05.1-.05.15a.19.19,0,0,0-.05.15v.15c0,.05-.05.05-.05.1v.31c0,.05-.05.05-.05.1V68c0,.05.05.05.05.1s-.05.1-.05.15.05.1.05.15.05.05.05.1.05.1.1.15a.7.7,0,0,0,.15.21c.05.05.1.05.15.1S35,69,35,69h.67c.05,0,.05-.05.1-.05s.1.05.21.05l.1-.1c.05-.05.1-.05.15-.1s.1-.1.1-.15.05-.1.05-.15,0-.1-.05-.1-.05-.05-.1-.05a.18.18,0,0,1-.1.05c-.05,0-.05.05-.1.05h-.26c-.05,0-.1.05-.15.05h-.26c-.1-.05-.21-.05-.31-.15s-.1-.1-.15-.21,0-.21,0-.36Zm.05-.52c.05-.05.1-.05.15-.1h.21c.1,0,.1,0,.15.05a.18.18,0,0,1,.1.05c.05.05.05.1,0,.1s-.05.05-.1.05a.31.31,0,0,1-.21.05h-.21a.18.18,0,0,0-.1.05.16.16,0,0,1-.05-.1C34.91,66.91,35,66.86,35,66.81Z"/><path class="cls-1" d="M33.37,66.5H33c-.05,0-.1-.05-.15-.05h-.67c-.05,0-.05.05-.1.05s-.1.05-.21.1-.05.05-.1.1-.05.05-.1.1l-.1.1V67c0,.05,0,.05-.05.1v.46c0,.05.05.1.05.15s.05.05.05.1.05.05.1.05.05.05.05.1,0,.05-.05.1l-.05.05a.05.05,0,0,1-.05.05v.41l.1.1c0,.05,0,.05.05.1v.05c-.05.05-.05.05-.1.05a.05.05,0,0,1-.05.05.16.16,0,0,0-.05.1l-.1.1c0,.05,0,.05-.05.1s-.05.1-.05.15-.05.05-.05.1v.21a.05.05,0,0,1,.05.05.19.19,0,0,1,.05.15c.05.05.05.1.1.15l.05.05c.05.05.1.05.15.1s.05.05.1.1h.05c.05.05.1.05.15.1h.46l.05.05h.15c.1-.05.15-.05.21-.1s.15-.1.26-.15l.21-.21c.05-.05.05-.1.1-.15l.1-.1c0-.05.05-.1.05-.15v-.15c0-.1,0-.15,0-.26v-.15c0-.05-.05-.1-.1-.15s-.05-.05-.05-.1-.05-.1-.1-.15a.18.18,0,0,0-.1-.05.27.27,0,0,0-.21-.1c-.05,0-.05,0-.1-.05s-.1.05-.21,0H32.7a.19.19,0,0,0-.15-.05h-.1c-.05,0-.1.05-.15.05s-.15-.05-.21-.15a.18.18,0,0,1-.05-.1c0-.05,0-.05.05-.1h.1c0,.05.05.05.1.05a.16.16,0,0,0,.1.05h.26a.19.19,0,0,1,.15-.05H33c.05-.05.05-.05.1-.05s.1-.05.15-.05l.1-.1c.05,0,.05-.05.1-.05v-.1a.19.19,0,0,0,.05-.16c.05-.05.05-.05.05-.1s.05-.05.05-.1v-.26c0-.05-.05-.05-.05-.1a.05.05,0,0,0-.05-.05v-.1c.05-.05.05-.05.05-.1s0-.05.05-.05,0-.05.05-.05v-.16a.18.18,0,0,0-.1-.05C33.47,66.45,33.42,66.5,33.37,66.5Zm-1.29,2.68v-.1c.05-.05.05-.05.1-.05h.26a.19.19,0,0,1,.15-.05h.05c.05.05.05.05.1.05s.1.05.1.1a.19.19,0,0,1,.15.05l.1.1c0,.05.05.05.05.1v.1l.05.05c0,.05,0,.1,0,.21s-.05.1-.1.15-.05.1-.15.15-.05.05-.15.05h-.1c-.05.05-.1,0-.15,0h-.26c-.05,0-.1-.05-.15-.05A.19.19,0,0,0,32,70a.39.39,0,0,1-.1-.21v-.21c.05-.05.05-.1.1-.15s.05-.05.05-.1l.1-.1Zm1-1.91c-.05.05-.05.05-.05.1a.05.05,0,0,0,.05.05v.15a.05.05,0,0,0-.05.05l-.1.1c-.05,0-.05.05-.1.1s-.05.05-.1.05-.05,0-.1,0-.1.05-.15,0l-.05-.05a.26.26,0,0,1-.21-.1l-.05-.05a.19.19,0,0,1-.05-.15.18.18,0,0,1-.05-.1c-.05-.05-.05-.05-.05-.1v-.21c.05-.05.05-.1.1-.15a.19.19,0,0,1,.05-.15c.05-.05.1-.05.15-.1a.05.05,0,0,1,.05-.05h.15a.3.3,0,0,1,.21.05.19.19,0,0,1,.15.05c.05,0,.05.05.1.15A.18.18,0,0,1,33,67c.05,0,.05.05.05.1Z"/><path class="cls-1" d="M42.43,68.72a.05.05,0,0,1-.05-.05c-.05-.05-.1-.05-.1-.15v-.87c.05-.05.05-.05.05-.1v-.36a.1.1,0,0,1,0-.15V66.4a.16.16,0,0,1,.05-.1v-.36c0-.05-.05-.1,0-.21v-.31c0-.1-.05-.15-.05-.21s.05-.05.05-.1a.19.19,0,0,0,.05-.15l.1-.1v-.1c0-.05,0-.05-.05-.1l-.05.05c-.05,0-.1.05-.15.05s-.05.1-.1.1-.15.1-.26.1h-.15c-.05,0-.05,0-.1.05s-.05.05-.05.1a.05.05,0,0,1,.05.05c.05,0,.05,0,.1.05l.05.05c.05.05.05.05.05.1v.31a.19.19,0,0,0-.05.15v.56c0,.05.05.05.05.1v.1h-.05a.11.11,0,0,1-.1-.1c-.05,0-.05-.05-.05-.1s-.05-.05-.1-.05h-.36c-.05,0-.05,0-.1.05H41a.19.19,0,0,1-.15.05c-.05.05-.05.1-.1.15a.16.16,0,0,0-.1.05c-.05,0-.1.05-.15.05s-.05.05-.05.1-.05.05-.1.15V67c-.05.05-.05.1-.1.15v.1c0,.1-.05.15-.05.21v.31c-.05.05,0,.1-.05.15V68a.19.19,0,0,0,.05.15c0,.05,0,.05.05.1s.05.1.1.15a.19.19,0,0,0,.05.15l.1.1c0,.05,0,.05.05.05a.19.19,0,0,0,.15.05l.1.1c.1,0,.1.05.15.05s.1.05.15.05h.1a.18.18,0,0,1,.1-.05c.05,0,.1-.05.15-.1s.1-.05.15-.05.05-.05.1-.05l.05.05V69c.05,0,.05.05.1.05H42c.05-.05.05-.05.1-.05h.21c.05,0,.1.05.15.05a.05.05,0,0,0,.05-.05,0,0,0,0,0,.05-.05.18.18,0,0,0-.05-.1C42.53,68.77,42.43,68.77,42.43,68.72Zm-.67-1v.15a.05.05,0,0,0-.05.05v.36a.19.19,0,0,0-.05.15c-.05.05-.05.1-.1.1a.11.11,0,0,1-.1.1c-.05.05-.05.05-.1.05H41.2c-.05,0-.05,0-.1-.05a.19.19,0,0,1-.15-.05c-.05,0-.05-.05-.1-.1s-.05-.05-.1-.05-.05-.05-.05-.1,0-.05,0-.1-.05-.05-.1-.05v-.31c0-.05-.05-.1,0-.15a.05.05,0,0,1,.05-.05v-.1c0-.1,0-.1.05-.15s0-.1.05-.15.05-.1.05-.15.1-.05.21-.1.05-.05.1-.05a.19.19,0,0,1,.15-.05h.21a.19.19,0,0,0,.15.05.18.18,0,0,0,.05.1.19.19,0,0,1,.05.15.18.18,0,0,1,.05.1c.05.05,0,.1,0,.21S41.76,67.58,41.76,67.69Z"/><path class="cls-1" d="M39.39,68.66c-.05-.05-.1-.05-.1-.1v-.1l.05-.05a.18.18,0,0,0-.05-.1v-.46c0-.05-.05-.05-.05-.1v-.15c0-.05.05-.05.05-.1s-.05-.1-.05-.15a.05.05,0,0,0,.05-.05v-.1a.18.18,0,0,0-.05-.1c0-.05-.05-.1-.05-.15v-.1c-.05-.05-.1-.1-.15-.1s-.1-.05-.15-.1a.46.46,0,0,0-.26-.05h-.15l-.1.1c-.05,0-.1.05-.15.05a.05.05,0,0,1-.05-.05c-.05,0,0-.05,0-.1l.05-.05c0-.05,0-.1-.05-.1s-.1,0-.15,0a.19.19,0,0,0-.15.05c-.05,0-.05,0-.1.05s-.05.05-.1.1-.1.05-.15.05h-.1c-.05,0-.1.05-.15.05s-.05.05-.05.1a.05.05,0,0,0,.05.05c0,.05.05.05.1.05s.05.05.1.05V67a.19.19,0,0,0-.05.15l.05.05c0,.05.05.05.05.1v.15c0,.05,0,.05-.05.1v.57c.05.05,0,.05,0,.1v.31a.05.05,0,0,0-.05.05.05.05,0,0,1-.05.05.19.19,0,0,1-.15.05c0,.05-.05.1-.05.15a.11.11,0,0,0,.1.1c0,.05.05,0,.1,0s.05,0,.1.05h.77c.05-.05.1-.05.1-.1a.05.05,0,0,0,.05-.05c.05,0,0,.05.05.1h.05a.19.19,0,0,0,.15.05c.05,0,.1-.05.15-.05h.62c.05,0,.05,0,.1-.05v-.1c0-.05,0-.05-.05-.1A.05.05,0,0,0,39.39,68.66Zm-.67-1.08v.15c0,.05-.05.1-.05.15a.39.39,0,0,1,.05.21v.31a.19.19,0,0,1-.05.16c0,.05,0,.05-.05.1s-.05.05-.1.05-.05.1-.1.1h-.05c-.05,0-.1-.05-.15-.05l-.1-.1a.38.38,0,0,1-.1-.15v-.77a.05.05,0,0,0,.05-.05c0-.1-.05-.15-.05-.26a.19.19,0,0,1,.05-.15c0-.1,0-.15.05-.21s.05-.05.1-.05a.16.16,0,0,0,.1-.05.05.05,0,0,0,.05-.05h.05c.05.05.05.05.1.05l.1.1c.05.05.05.05.05.1a.19.19,0,0,1,.05.16Z"/><path class="cls-1" d="M87.59,68.71c-.05-.05-.1-.05-.15-.1a.47.47,0,0,1-.05-.26v-.82c-.05-.1,0-.21,0-.31V67c0-.05.05-.1.05-.21v-.21c.05-.05.05-.05,0-.1h-.05c-.05,0-.05,0-.1.05a.05.05,0,0,0-.05.05l-.1.1c-.05,0-.05,0-.1.05s-.05.05-.1.1a.19.19,0,0,1-.15.05c0,.05-.05.05-.1.1s-.05,0-.1.05v.05c0,.05,0,.05.05.1a.05.05,0,0,1,.05.05h.1c.05,0,.05,0,.05.05s.05.05.05.1v.21l-.05.05v.26l.05.05v.26a.3.3,0,0,1-.05.21c0,.05.05.1,0,.21s-.05.05-.05.1a.31.31,0,0,0-.21.05c-.05,0-.05,0-.1.05s-.05.05-.05.1.05.05.1.05,0,.05.05.05.05,0,.1,0h.41c0-.05.05-.05.1-.05h.15a.18.18,0,0,0,.1.05h.15c0-.05.05-.05.05-.06a.1.1,0,0,0,0-.15A.18.18,0,0,0,87.59,68.71Z"/><path class="cls-1" d="M85.69,66.61c-.05-.05-.05-.1-.1-.1s-.05-.05-.15-.05h-.1c-.05,0-.1.05-.15.05s-.05.05-.1.05H85c-.05-.05-.05-.1-.1-.1h-.05c-.05,0-.05.05-.1.05s-.1.1-.21.15-.05.05-.1.05-.15.05-.21.05-.1,0-.1.05a.19.19,0,0,0-.05.15c.05.05.05.05.1.05s.1,0,.15.05a.18.18,0,0,1,.05.15.19.19,0,0,1,.05.15v.36c0,.05-.05.1,0,.21s0,.05.05.1-.05.1-.05.15v.26a.39.39,0,0,1-.05.21.19.19,0,0,1-.15.05c-.05.05-.1.05-.1.1a.19.19,0,0,0-.05.15l.05.05c.05.05.1,0,.15,0h.15c.05-.05.05-.05.1-.05h.62c.05-.05.1-.05.1-.1s-.05-.1-.1-.15-.1-.05-.15-.1-.05-.1-.05-.15,0-.21,0-.36v-.46a.45.45,0,0,1,.05-.26v-.1c0-.05-.05-.1-.05-.15S85,67,85,67l.05-.05a.05.05,0,0,1,.05-.05c.05,0,.05.05.1.05s0,.1.05.1.05.05.1.05a.19.19,0,0,0,.15.05c.1,0,.1-.05.15-.1a.19.19,0,0,0,.05-.15c.05-.05.05-.05.05-.1h0c0-.05,0-.05,0-.1S85.74,66.61,85.69,66.61Z"/><path class="cls-1" d="M88.93,67.33a.19.19,0,0,1,.15-.05h.21a.25.25,0,0,0,.31,0h.31c.05,0,.1-.05.21-.05s.1.05.21,0h.1c0-.05,0-.1,0-.15s0-.05-.05-.1-.05-.05-.1-.1-.05-.1-.1-.15a.11.11,0,0,0-.1-.1c-.05-.05-.1-.1-.15-.1a.75.75,0,0,0-.46-.05h-.36a.19.19,0,0,1-.15.05l-.1.1-.1.1-.1.1a.19.19,0,0,1-.05.15.19.19,0,0,0-.05.15v.15c0,.05-.05.05-.05.1v.31c0,.05-.05.05-.05.1V68c0,.05.05.05.05.1s-.05.1-.05.15.05.1.05.15.05.05.05.1.05.1.1.15a.69.69,0,0,0,.15.21c.05.05.1.05.15.1S89,69,89,69h.67c.05,0,.05-.05.1-.05s.1.05.21.05l.1-.1c.05-.05.1-.05.15-.1s.1-.1.1-.15.05-.1.05-.15,0-.1-.05-.1-.05-.05-.1-.05-.05.05-.1.05-.05.05-.1.05h-.26c-.05,0-.1.05-.15.05h-.26c-.1-.05-.21-.05-.31-.15s-.1-.1-.15-.21,0-.21,0-.36Zm.05-.52c.05-.05.1-.05.15-.1h.21a.19.19,0,0,1,.15.05.18.18,0,0,1,.1.05c0,.05.05.1,0,.1s-.05.05-.1.05a.39.39,0,0,1-.21.05h-.21a.18.18,0,0,0-.1.05.16.16,0,0,1-.05-.1C88.93,66.91,89,66.86,89,66.81Z"/><path class="cls-1" d="M89.65,59.29c.05,0,.21-.1.21-.15s0-.1.05-.21l.1-.05c0-.05,0-.15-.05-.1-.15-.21-.77-.88-.77-1.08s.1-.26.1-.36c.05-.31-.1-.51-.15-.77-.05-.57.1-.77-.36-1-.05,0-.15-.1-.21-.1a1.21,1.21,0,0,0-1.18.62v.36c0,.05-.1.15-.1.21a1.77,1.77,0,0,0,.1.72,3.83,3.83,0,0,1-1.6.36,2.79,2.79,0,0,1-.52-.15c0-.05.05-.1,0-.15a.18.18,0,0,0-.1-.05c.05-.21,0-.36.1-.52s.31-.31.26-.62-.46-.41-.72-.51-.46-.31-.72-.26-.21.57-.26.77a2.23,2.23,0,0,0-.26,1.18c0,.15.15.31.21.41s.05.21.1.31a1.05,1.05,0,0,0,.41.21,1.19,1.19,0,0,0,.26.26,4.78,4.78,0,0,0,2.16.21c.21,0,.67-.26.93-.21.1,0,.21.15.31.21C88.26,59,89.08,59.55,89.65,59.29Z"/><path class="cls-1" d="M83.21,68.35c-.05,0-.05.05-.1.05s-.1.05-.15.05H82.7c-.05,0-.05.05-.1.05h-.26a.58.58,0,0,1-.31-.15c-.1-.05-.15-.1-.15-.21s0-.21,0-.36v-.16c0-.05-.05-.1-.05-.15a.18.18,0,0,1,.21-.21h.15a.31.31,0,0,0,.21.05.19.19,0,0,0,.15-.05h.31c.05,0,.1-.05.16-.05s.15.05.21,0h.1c.05-.05,0-.1,0-.15V67c-.05-.05-.1-.05-.1-.1s-.05-.1-.1-.15-.05-.1-.1-.1a.27.27,0,0,0-.21-.1c-.15-.1-.26-.05-.41-.05H82a.19.19,0,0,1-.15.05l-.1.1c-.05.05-.1.05-.1.1l-.1.1c0,.05-.05.1-.05.15s-.05.1-.1.15.05.1,0,.15v.1c-.05.05,0,.1,0,.15a.19.19,0,0,1-.05.15v.57c0,.05.05.1.05.15s.05.05.05.1a.19.19,0,0,1,.05.15.4.4,0,0,0,.21.21c.05.05.1.05.1.1A.19.19,0,0,1,82,69h.67L82.7,69c.1,0,.15.05.21.05s.1-.05.15-.1.1-.05.15-.1.05-.1.1-.15v-.15c0-.05.05-.1,0-.1S83.27,68.35,83.21,68.35Zm-1.29-1.54c.05-.05.1-.05.15-.1h.21a.19.19,0,0,1,.15.05.18.18,0,0,1,.1.05h0c0,.05,0,.1,0,.1s-.05.05-.1.05a.47.47,0,0,1-.26.05H82l-.05.05a.16.16,0,0,1-.05-.1A.19.19,0,0,1,81.93,66.81Z"/><path class="cls-1" d="M80.49,66.91c0-.05-.05-.05-.1-.1s-.1-.1-.15-.15l-.1-.1c-.05,0-.05-.05-.1-.05s-.15,0-.21-.05h-.1c-.05-.05-.05,0-.1,0s-.1.05-.15.05-.05.05-.1.1l-.05.05c-.05-.05-.1-.05-.1-.1a.05.05,0,0,1,.05-.05c0-.05.05-.05,0-.1s0-.05-.05-.05A.19.19,0,0,0,79,66.3l-.1.1c-.05.05-.05.1-.1.1s-.1.1-.15.1-.1.05-.15.1a.19.19,0,0,0-.15.05.07.07,0,0,0,0,.1.05.05,0,0,1,.05.05l.1.1a.05.05,0,0,0,.05.05v.36c0,.05,0,.05.05.1v.1c0,.05-.05.1-.05.16V68c0,.1.05.15.05.26s-.05.15-.05.21v.1a1.59,1.59,0,0,1,.05.46.19.19,0,0,1-.05.15v.46a.19.19,0,0,0,.05.15.39.39,0,0,1-.05.21c0,.05,0,.05-.05.1a.19.19,0,0,1-.05.15c0,.05-.05.1-.05.15l-.1.1a.18.18,0,0,0-.05.1v.1c.05,0,.05.05.1.05h.1c0-.05,0-.05.05-.05h.31c.05,0,.1-.05.15-.05a.19.19,0,0,1,.15.05h.15a.05.05,0,0,0,.05-.05c.05,0,.05-.05,0-.1s0-.05-.05-.05-.05-.05-.1-.05-.05-.1-.1-.15v-.93c0-.05-.05-.05-.05-.1v-.15c0-.05,0-.1.05-.1s0-.1.05-.1a.16.16,0,0,1,.1-.05l.1.1c.05.05.1.05.15.1h.1c.1,0,.15,0,.21-.05S80,69,80,69a1.66,1.66,0,0,0,.31-.26l.26-.36c0-.05.05-.15.05-.21v-.21c0-.1,0-.15,0-.26v-.41c0-.1,0-.15-.05-.21S80.54,67,80.49,66.91Zm-.26,1v.26c-.05.1-.05.15-.1.26a.11.11,0,0,1-.1.1c-.05.1-.1.15-.21.15a.38.38,0,0,1-.21.05c-.1,0-.1-.05-.15-.05s-.1,0-.15-.05-.1-.1-.1-.15-.05-.1-.1-.15.05-.21,0-.26v-.82a.19.19,0,0,0,.05-.15l.1-.1h.36a.18.18,0,0,1,.1.05h.15l.1.1c0,.05,0,.1.05.1s0,.05.05.05a25,25,0,0,1,.1.31c.05.05,0,.1.05.15Z"/><path class="cls-1" d="M93.41,68.66c-.05-.05-.1-.05-.1-.1v-.1l.05-.05a.18.18,0,0,0-.05-.1v-.46c0-.05-.05-.05-.05-.1v-.15c0-.05.05-.05.05-.1s-.05-.1-.05-.15a.05.05,0,0,0,.05-.05v-.1a.18.18,0,0,0-.05-.1c0-.05-.05-.1-.05-.15v-.1c-.05-.05-.1-.1-.15-.1s-.1-.05-.15-.1a.46.46,0,0,0-.26-.05h-.15l-.1.1c-.05,0-.1.05-.16.05a.05.05,0,0,1-.05-.05v-.1a.05.05,0,0,0,.05-.05c0-.05,0-.1-.05-.1s-.1,0-.15,0a.19.19,0,0,0-.15.05c-.05,0-.05,0-.1.05s-.05.05-.1.1-.1.05-.15.05h-.1c-.05,0-.1.05-.15.05s-.05.05-.05.1a.05.05,0,0,0,.05.05c0,.05.05.05.1.05s.05.05.1.05V67a.19.19,0,0,0-.05.15l.05.05c0,.05,0,.05.05.1v.15c0,.05-.05.05-.05.1v1a.05.05,0,0,0-.05.05.05.05,0,0,1-.05.05.19.19,0,0,1-.15.05c0,.05-.05.1-.05.15a.18.18,0,0,0,.05.1c.05.05.1,0,.15,0s.05,0,.1.05h.77c.05-.05.1-.05.1-.1a.05.05,0,0,0,.05-.05c.05,0,0,.05.05.1h.05a.19.19,0,0,0,.15.05c.05,0,.1-.05.15-.05h.62c.05,0,.05,0,.1-.05v-.1c0-.05,0-.05-.05-.1A.05.05,0,0,0,93.41,68.66Zm-.67-1.34v.77h0v.46l-.1.1c0,.05-.05.05-.1.05s-.05.1-.1.1h-.05c-.05,0-.1-.05-.16-.05s-.05-.05-.1-.1a.37.37,0,0,1-.1-.15v-.77a.05.05,0,0,1,.05-.05c0-.1-.05-.15-.05-.26a.19.19,0,0,1,.05-.15c0-.1,0-.15.05-.21s.05-.05.1-.05a.16.16,0,0,0,.1-.05.05.05,0,0,0,.05-.05h.05c.05.05.05.05.1.05l.1.1.1.1Z"/><path class="cls-1" d="M77.6,68.77c0-.05-.05-.05-.1-.05s-.1-.05-.1-.1-.1-.1-.1-.15l-.1-.1a.05.05,0,0,0-.05-.05c-.05-.05-.05-.1-.1-.15S77,68,76.93,68s0-.1-.05-.1-.05-.05-.1-.05-.05-.1-.05-.15-.05-.05-.05-.1,0-.05.05-.1.05-.05.1-.1.05-.1.05-.15.05-.05.1-.1A.18.18,0,0,0,77,67c0-.05,0-.05.05-.1s.05-.05.1-.1a.18.18,0,0,0,.1-.05c.05,0,.1-.05.15-.05h.1c.05-.05.1-.05.1-.1v-.1h-.52c-.1,0-.21-.1-.31,0a.05.05,0,0,1-.05.05.11.11,0,0,0,.1.1c0,.05,0,.1.05.1s-.05.1-.05.15-.05.1-.1.1-.05.1-.1.15-.1.05-.15.05,0,.05-.05,0-.05-.05-.05-.1-.05-.05-.05-.1-.05-.05-.1-.05v-.1c-.05-.05-.05-.05,0-.1s0-.05.05-.1l.05-.05c0-.05,0-.05-.05-.1h-.21c-.05,0-.05.05-.1.05s-.1-.05-.15-.05h-.46l-.1.1c0,.05.05.05.1.1a.05.05,0,0,1,.05.05c.05,0,.05.05.1.05s0,.05.05.1a.05.05,0,0,0,.05.05l.15.15a.18.18,0,0,1,.05.1.16.16,0,0,0,.05.1c0,.05,0,.1.05.1a.05.05,0,0,0,.05.05c.05.05.05.1.1.15l.05.05a.18.18,0,0,0,.05.1c0,.05-.05.05-.05.1s-.05.05-.05.1l-.1.1-.1.1c0,.05-.05.05-.1.1s-.05.15-.1.21l-.05.05c-.05.05-.05.1-.1.1s-.1.05-.15.1h-.1c-.05.05-.05.05-.05.1l-.05.05c.05.05.05.05.1.05s.05,0,.1,0h.26l.05.05h.15C75.9,69,76,69,76,69v-.1c-.05,0-.05-.05-.1-.05v-.1c0-.05,0-.05.05-.1s0-.05.05-.1.05-.15.1-.21l.15-.15c0-.05,0-.05.05-.05h.05c.05,0,.05.05.1.1a.18.18,0,0,0,.05.1c0,.05.05.05.1.1a.05.05,0,0,1,.05.05c.05,0,.05.05.05.1s.05.05.05.1-.05.05-.05.1-.05.05-.1.1-.05.05-.05.1.05,0,.1.05h.52c.05,0,.1.05.15,0V69c.05,0,.05.05.1.05h.21c0-.05.05-.05.05-.11S77.65,68.82,77.6,68.77Z"/><path class="cls-1" d="M99.95,59.65a7.48,7.48,0,0,0-.93-1.8c-.05-.05-.05-.1-.1-.21s-.21-.15-.31-.26a3.31,3.31,0,0,0-3.24-1.44c-.77.05-1.49.41-2.27.46,0-.05-.1,0-.1,0a2.3,2.3,0,0,0-.1-.31,1.89,1.89,0,0,0-1.39-.46,6.31,6.31,0,0,0-1.39.46.34.34,0,0,0-.05.57l.36.21h.1a1,1,0,0,1,.41.52c.1.46-.26.82-.1,1.34,0,.05-.05.15,0,.21h.1a1.25,1.25,0,0,0,.41.31,1.21,1.21,0,0,0,.62-.1c.51-.15.67-.46.87-.93.05-.1.05-.21.16-.31a3.54,3.54,0,0,1,2.47-.67,1.66,1.66,0,0,1,.31.15,3.37,3.37,0,0,1,1.54,1.13,4.57,4.57,0,0,0,.77,1c.31.16.67.21,1,.36a3.07,3.07,0,0,0,.51.36h.15c.15-.05.26-.31.26-.46A.18.18,0,0,0,99.95,59.65Z"/><path class="cls-1" d="M55.2,69.07c-.05-.05-.05-.1-.1-.15s-.05-.05-.1-.1a.19.19,0,0,0-.05-.15c-.05,0-.05-.05-.1-.05a.27.27,0,0,0-.21-.1c-.05,0-.1,0-.1-.05s-.15.05-.21,0h-.05a.18.18,0,0,0-.15-.05H54c-.05,0-.1.05-.15.05s-.15-.05-.21-.15a.18.18,0,0,1-.05-.1c0-.05,0-.05.05-.1h.05a.19.19,0,0,0,.15.05c.05.05.05.05.1.05h.26c.05-.05.05-.05.1-.05h.21c.05-.05.05-.05.1-.05s.05-.05.1-.05.1-.05.16-.1l.05-.05c.05-.05.05-.05.05-.1a.19.19,0,0,0,.05-.16c.05-.05.05-.05.05-.1v-.1l.05-.05v-.21c-.05-.05-.05-.05-.05-.1L55,67v-.1c0-.05.05-.05.05-.1v-.05l.05-.05a.19.19,0,0,0,.05-.16c-.05,0-.05-.05-.1-.05s-.1,0-.21,0h-.31c-.05,0-.1-.05-.15-.05h-.67c-.05,0-.05.05-.1.05s-.15.05-.21.1-.05.05-.1.1-.05.05-.1.1-.1.05-.1.1V67c-.05.05,0,.05-.05.1v.1c-.05,0-.05.05-.05.1a.19.19,0,0,0,.05.15v.1c0,.05.05.1.05.15s0,.05.05.1a.18.18,0,0,0,.1.05c0,.05.05.05.05.1s-.05.05-.05.1l-.05.05-.05.05v.15c-.05.05-.05.05-.05.1s.05.1.05.15.05.05.05.1.05.05.05.1.05.05,0,.05a.05.05,0,0,1-.05.05l-.05.05a.16.16,0,0,0-.05.1c-.05.05-.1.05-.1.1s-.05.05-.05.1a.19.19,0,0,0-.05.15c-.05,0-.05.05-.05.1s-.05.05-.05.1.05.05.05.1a.05.05,0,0,1,.05.05A.19.19,0,0,0,53,70c0,.05.05.1.1.15l.05.05c.05.05.1.05.15.1a.16.16,0,0,0,.05.1h.1c.05.05.1.05.1.1H54c.05,0,.05.05.1.05h.15c.05-.05.1-.05.21-.1s.15-.1.26-.15.16-.15.21-.21.05-.1.1-.15l.1-.1c0-.05.05-.1.05-.15v-.15c0-.1,0-.15,0-.26Zm-1.65-2c0-.05.05-.1.1-.15a.19.19,0,0,1,.05-.15l.1-.1c.05,0,.05-.05.1-.05H54a.46.46,0,0,1,.26.05.19.19,0,0,1,.15.05c.05,0,.05.05.1.15a.18.18,0,0,1,.05.1.18.18,0,0,1,.05.1.19.19,0,0,1-.05.15v.15a.1.1,0,0,1,0,.15v.05l-.1.1c-.05,0-.05.05-.1.1s-.05.05-.1.05-.05,0-.1,0-.1.05-.15,0-.05-.05-.1-.05-.1-.05-.15-.1a.05.05,0,0,1-.05-.05.19.19,0,0,1-.05-.15c-.05,0-.05-.05-.1-.1Zm1.23,2.63c-.05.05-.05.1-.1.15l-.15.15a.19.19,0,0,1-.15.05h-.1c-.05.05-.1,0-.15,0h-.26c-.05,0-.1-.05-.15-.05a.19.19,0,0,0-.15-.05.38.38,0,0,1-.1-.21v-.21c.05-.05.05-.1.1-.15s0-.05.05-.1.05-.05.05-.1,0-.05,0-.05v-.1c.05-.05.05-.05.1-.05H54a.18.18,0,0,1,.15-.05h.05c.05.05.05.05.1.05l.1.1a.19.19,0,0,1,.15.05c0,.05.05.05.1.1s0,.05.05.1-.05.05,0,.1a.05.05,0,0,0,.05.05C54.79,69.59,54.79,69.64,54.79,69.75Z"/><path class="cls-1" d="M96,68.51c-.05,0-.1.05-.15.05a.39.39,0,0,1-.21.05h-.36c-.05,0-.1-.05-.15-.05s-.1-.05-.15-.1a.05.05,0,0,1-.05-.05c-.05-.05-.05-.05-.05-.1s-.05-.05-.05-.1,0-.05-.05-.1a.19.19,0,0,0-.05-.15c0-.05,0-.05-.05-.1v-.05c-.05-.05,0-.05,0-.1s0-.05.05-.05v-.46c.05-.05.05-.1.05-.21s.05-.05.05-.1a.31.31,0,0,1,.21-.05.19.19,0,0,1,.15-.05.19.19,0,0,0,.15.05c.05.05.05.1.1.1s.1.05.21.1h.15c.05,0,.05,0,.1-.05s.1,0,.1-.05v-.1c0-.05-.05-.05-.05-.1l-.1-.1-.1-.1h-.1a.16.16,0,0,0-.1-.05h-.31c-.1,0-.15.05-.21.05a.19.19,0,0,0-.15.05c-.05,0-.1.05-.15.1s-.1.05-.15.1a.18.18,0,0,0-.05.1c-.05.05-.05.1-.1.15a.18.18,0,0,0-.05.1,13.17,13.17,0,0,0-.1.21.05.05,0,0,1-.05.05V68c.05,0,.05,0,.05.05v.26c0,.05.05.1.05.15a.16.16,0,0,0,.05.1c0,.05.05.05.1.1s0,.05.05.1a.05.05,0,0,1,.05.05c.05,0,.1.05.15.05s.05.05.1.05.1.05.15.1h.56c.05,0,.05-.05.15-.05s.1-.05.21-.1a.72.72,0,0,0,.21-.15l.1-.1v-.15h-.05C96.09,68.46,96.09,68.46,96,68.51Z"/><path class="cls-1" d="M97.43,67.33a.19.19,0,0,1,.15-.05h.21a.19.19,0,0,0,.15.05.19.19,0,0,0,.15-.05h.31c.05,0,.1-.05.21-.05s.1.05.21,0h.1c0-.05,0-.1,0-.15s0-.05-.05-.1-.05-.05-.1-.1-.05-.1-.1-.15-.05-.1-.1-.1-.1-.1-.15-.1a.76.76,0,0,0-.46-.05h-.36a.19.19,0,0,1-.15.05l-.1.1-.1.1-.1.1a.19.19,0,0,1-.05.15.19.19,0,0,0-.05.15v.15c0,.05-.05.05-.05.1v.31c0,.05-.05.05-.05.1V68c0,.05.05.05.05.1s-.05.1-.05.15.05.1.05.15.05.05.05.1.05.1.1.15a.71.71,0,0,0,.15.21c.05.05.1.05.15.1s.05,0,.1.05h.67c.05,0,.05-.05.1-.05s.1.05.21.05l.1-.1c.05-.05.1-.05.15-.1s.1-.1.1-.15.05-.1.05-.15,0-.1-.05-.1-.05-.05-.1-.05-.05.05-.1.05-.05.05-.1.05H98.3c-.05,0-.1.05-.15.05h-.26c-.1-.05-.21-.05-.31-.15s-.1-.1-.15-.21,0-.21,0-.36Zm.05-.52c.05-.05.1-.05.15-.1h.21a.19.19,0,0,1,.15.05.18.18,0,0,1,.1.05c0,.05.05.1,0,.1S98,67,98,67a.39.39,0,0,1-.21.05h-.21a.18.18,0,0,0-.1.05.16.16,0,0,1-.05-.1C97.43,66.91,97.48,66.86,97.48,66.81Z"/><path class="cls-1" d="M87.49,65.52c0-.05-.05-.1-.05-.15a.05.05,0,0,1-.05-.05.16.16,0,0,0-.1-.05c-.05,0-.1-.05-.15-.05s-.05,0-.1.05h-.1c0,.05-.05.05-.05.1v.26c0,.05,0,.05.05.1s.05.05.1.05.05.05.1.05h.1a.05.05,0,0,1,.05-.05c.05-.05.05-.05.1-.05v-.05c0-.05.05-.05.05-.1h0A0,0,0,0,0,87.49,65.52Z"/><path class="cls-1" d="M63.49,65.78c.05,0,.05.05.1.05h.05c.05-.05.05-.05.1-.05a.05.05,0,0,1,.05-.05l.05-.05c0-.05.05-.05.05-.1h0v-.21c-.05,0-.05-.05-.1-.05s-.05-.05-.1-.05-.05-.05-.1-.05-.1,0-.1.05h-.1c-.05.05-.05.05-.05.1s0,.15,0,.26v.1A.19.19,0,0,0,63.49,65.78Z"/><path class="cls-1" d="M65.81,61.76c.15-.1.36-.26.26-.51s-.67-.46-.82-.62c-.36-.26-.67-.67-1.08-.93a2.37,2.37,0,0,0-.52-.26c-.1-.05-.1,0-.15-.05s-.1-.1-.15-.15h-.05v-.05c0-.05-.36-.41-.41-.52a7.25,7.25,0,0,1-.41-.93,3.07,3.07,0,0,0-3.35-1.6c-.62.1-1.29.36-1.91.41h-.36a1.05,1.05,0,0,0-.31-.46,2,2,0,0,0-1.29-.26c-.05,0-.26.1-.31.1-.62.21-1,.31-1.24.88a2.67,2.67,0,0,1,.77.31v.1h.1a3.28,3.28,0,0,0,.1.36c.05.41-.15,1.08,0,1.49,0,.05.15.1.26.15a.67.67,0,0,0,.67.21,1.21,1.21,0,0,0,.93-.51c.05-.05.15-.1.15-.21.15-.26.15-.51.31-.72a3.78,3.78,0,0,1,2.37-.57c1,.26,1.7,1.34,2.32,2.06a3.23,3.23,0,0,0,.51.62c.1.05.15,0,.26.05a2.71,2.71,0,0,1,.57.26c.46.31.83.82,1.29,1.13.15.05.26.21.41.26A1.92,1.92,0,0,0,65.81,61.76Z"/><path class="cls-1" d="M64,68.71c-.05-.05-.1-.05-.1-.1a.47.47,0,0,1-.05-.26v-.67c0-.05-.05-.1-.05-.15s.05-.21.05-.31V67a.39.39,0,0,1,.05-.21v-.31h-.05c-.05,0-.1,0-.1.05s-.05.05-.1.05-.05.05-.05.1-.1,0-.1.05-.1.05-.15.1-.05.05-.1.05l-.1.1c-.05,0-.1,0-.1.05l-.05.05.1.1.05.05h.1a.05.05,0,0,1,.05.05c.05.05,0,.05,0,.1s0,.1.05.1v.1a.05.05,0,0,0-.05.05v.31c.05.1,0,.15,0,.26v.41l-.1.1a.19.19,0,0,0-.15.05c-.05,0-.1,0-.1.05s-.05.05-.05.1a.05.05,0,0,0,.05.05C63,69,63,69,63,69s.05,0,.1,0h.36a.16.16,0,0,1,.1-.05h.15a.18.18,0,0,1,.1.05H64a.22.22,0,0,1,.1-.06.1.1,0,0,0,0-.15A.11.11,0,0,0,64,68.71Z"/><path class="cls-1" d="M57.57,68.61a.19.19,0,0,0-.15-.05c-.05-.05-.05-.16-.1-.21s.05-.15.05-.26V66.91c-.05-.1-.05-.15-.1-.21s-.1-.1-.21-.16a.75.75,0,0,0-.36-.1.39.39,0,0,0-.21.05c-.1,0-.15.05-.26.1l-.15.15A.27.27,0,0,0,56,67c.05.05.05.05.1.05s.15,0,.21,0a.19.19,0,0,0,.15-.05c.05,0,.1-.05.15-.05s.1-.1.16-.1.1.05.15.1,0,.15,0,.21a.46.46,0,0,1-.05.26.27.27,0,0,1-.1.21c-.05.05-.1.05-.16.1s-.15.1-.21.1-.15.05-.21.1-.05.05-.05.1A.19.19,0,0,0,56,68c-.05.05-.05.1-.05.21s-.05.1-.05.15v.31c0,.05.05.05.1.15s.05.05.1.1a.38.38,0,0,0,.26.05h.21c.1,0,.1-.05.15-.05a.19.19,0,0,1,.15-.05c.05,0,.05.05.1.05a.46.46,0,0,0,.26.05h.21c.05-.05.1-.05.15-.1h0c.05-.05.1-.05.1-.1a.1.1,0,0,0,0-.15C57.62,68.61,57.62,68.61,57.57,68.61Zm-.67-.26v.15c-.05.05-.1.05-.15.1s-.1.05-.16,0a.19.19,0,0,1-.15-.05.19.19,0,0,0-.05-.16c0-.1,0-.15.05-.21a.19.19,0,0,1,.05-.15c0-.05.05-.1.15-.15s.1-.15.21-.1v.1c.05,0,0,.05,0,.1v.1c0,.05.05.05.05.1s-.05.05-.05.1Z"/><path class="cls-1" d="M67.1,68.66c0-.05-.05-.05-.05-.1v-.72c0-.05-.05-.05-.05-.1v-.15c0-.05.05-.05.05-.1s-.05-.1-.05-.15a.05.05,0,0,0,.05-.05v-.1a.18.18,0,0,0-.05-.1.19.19,0,0,1-.05-.15.16.16,0,0,0-.05-.1.11.11,0,0,0-.1-.1c-.05-.05-.1-.05-.15-.1a.55.55,0,0,0-.31-.05h-.1l-.1.1c-.05,0-.1.05-.16.05s-.05,0-.05-.05,0-.05,0-.1L66,66.5a.18.18,0,0,0-.05-.1c-.05-.05-.1,0-.15,0s-.1,0-.15.05-.05,0-.1.05a.11.11,0,0,0-.1.1c-.05,0-.1.05-.15.05h-.15a.18.18,0,0,1-.1.05c0,.05-.05.05-.05.1a.05.05,0,0,0,.05.05c0,.05.05.05.1.05a.05.05,0,0,0,.05.05c.05.05,0,.05,0,.05v.15a.05.05,0,0,0,.05.05c0,.05,0,.05.05.1v.15c0,.05-.05.05-.05.1v.88c0,.05,0,.05-.05.1v.05a.05.05,0,0,1-.05.05.19.19,0,0,1-.15.05c0,.05-.05.1-.05.15s0,.1.05.1.1,0,.15,0,.05,0,.1.05H66c.05-.05.1-.05.1-.1a.05.05,0,0,0,.05-.05c.05,0,0,.05.05.1h.05a.19.19,0,0,0,.15.05c.05,0,.1-.05.15-.05h.62a.16.16,0,0,0,.1-.05v-.1c0-.05-.05-.05-.05-.1S67.15,68.66,67.1,68.66Zm-.62-1.08v.15c0,.05-.05.1-.05.15a.38.38,0,0,1,.05.21h0v.31a.19.19,0,0,1-.05.16c0,.05,0,.05-.05.1s-.05.05-.1.05-.05.1-.1.1h-.05c-.05,0-.1-.05-.16-.05l-.1-.1a.37.37,0,0,1-.1-.15v-.77a.05.05,0,0,1,.05-.05c0-.1-.05-.15-.05-.26a.19.19,0,0,1,.05-.15c0-.1,0-.15.05-.21s.05-.05.1-.05A.05.05,0,0,0,66,67c.05,0,.05,0,.1-.05h.05c.05.05.05.05.1.05l.1.1c.05.05.05.05.05.1a.19.19,0,0,1,.05.16Z"/><path class="cls-1" d="M62.21,68.76c-.05-.05-.05-.1-.1-.15s-.05-.05-.05-.1V67.22a.18.18,0,0,1-.05-.1c0-.1-.05-.1-.1-.21s-.05-.1-.1-.15,0-.05-.05-.1-.05-.1-.15-.1-.1-.05-.21-.05-.1,0-.15,0h-.36l-.1.1-.1.1h-.1c-.05,0-.05-.05-.1-.05s-.1-.15-.21-.15-.1-.05-.21-.05-.1-.05-.21,0a.47.47,0,0,0-.26.05h-.1c-.05.05-.1.1-.15.1v-.1a.19.19,0,0,0-.15-.05c-.05,0-.05.05-.1.05s-.1.05-.15.05-.05.1-.1.1-.05,0-.1.05-.05,0-.1.05a.11.11,0,0,0-.1.1c-.05,0-.05.05-.05.1V67c0,.05.05.05.1.1s.05.05.05.1.05.05.05.1-.05.05-.05.1v.1l.05.05v.21a.05.05,0,0,1-.05.05V68c0,.05.05.05.05.1v.15c0,.05,0,.05-.05.1v.1c-.05.05-.05.1-.1.1s-.05.05-.1.1-.05,0-.1.05-.05.1-.05.15.05.05.1.05.05.05.1.05h.26a.19.19,0,0,1,.15-.05c.05,0,.1.05.15.05s.05,0,.15.05h.21a.05.05,0,0,1,.05-.05.19.19,0,0,0-.05-.15c0-.05-.05-.05-.05-.1s-.05-.05-.05-.1-.05-.05-.05-.15a.05.05,0,0,1-.05-.05V67.22a.18.18,0,0,1,.05-.1c.05-.05.05-.1.1-.15s.15-.1.26-.15h.15a.39.39,0,0,1,.21.05A.16.16,0,0,0,60,67v.21c0,.05-.05.1-.05.21s.05.05.05.1v.67a.16.16,0,0,1-.05.1c0,.05.05.1.05.15v.16c-.05.05-.05.05-.05.1s-.05.05-.1.05-.1.1-.15.1-.05.05-.1.05a.05.05,0,0,1-.05.05c0,.05.05.05.05.1h1.18l.05-.05v-.1c0-.05-.05-.05-.1-.1l-.1-.1a.19.19,0,0,0-.05-.15.18.18,0,0,1,.05-.1V68.2c.05-.05,0-.1,0-.15s-.05-.05-.05-.1v-.36c.05-.1,0-.15.05-.26v-.16c0-.05.05-.1.05-.15s.05-.05.1-.1.1-.05.21-.05h.15c.1,0,.15,0,.21.05l.05.05a.19.19,0,0,1,.05.15v.31a.16.16,0,0,0,.05.1V68c0,.05-.05.05-.05.1v.62l-.1.1c-.05.05-.1.05-.1.1V69c.05.05.05.05.1.05h.26a.19.19,0,0,1,.15-.05h.21C62,69,62,69,62,69h.21c.05,0,.1,0,.11-.06s0-.05-.05-.1S62.26,68.81,62.21,68.76Z"/><path class="cls-1" d="M70.13,69.07c-.05-.05-.05-.1-.1-.15l-.1-.1a.19.19,0,0,0-.05-.15c-.05,0-.05-.05-.1-.05a.27.27,0,0,0-.21-.1c-.05,0-.1,0-.1-.05s-.15.05-.21,0H69.2a.19.19,0,0,0-.15-.05h-.1c-.05,0-.1.05-.21.05s-.1-.05-.15-.15-.05-.05-.05-.1,0-.05.05-.1h.05a.19.19,0,0,0,.15.05c.05.05.05.05.1.05h.26c.05-.05.05-.05.1-.05h.21c.05-.05.05-.05.1-.05s.05-.05.1-.05.1-.05.15-.1l.05-.05c.05-.05.05-.05.05-.1s.05-.1.05-.16.05-.05.05-.1v-.1l.05-.05v-.21c-.05-.05-.05-.05-.05-.1L70,67v-.1c0-.05.05-.05.05-.1v-.05l.05-.05a.19.19,0,0,0,.05-.16c-.05,0-.05-.05-.1-.05s-.1,0-.21,0h-.31c-.05,0-.1-.05-.15-.05h-.67c-.05,0-.05.05-.1.05s-.15.05-.21.1-.05.05-.1.1-.05.05-.1.1-.1.05-.1.1,0,.05-.05.1.05.05,0,.1v.1c-.05,0-.05.05-.05.1v.15c0,.05.05.05.05.1s.05.1.05.15,0,.05.05.1l.05.05c.05.05.05.05.05.1v.1a.05.05,0,0,0-.05.05l-.05.05v.15c-.05.05-.05.05-.05.1s.05.1.05.15.05.05.05.1.05.05.05.1.05.05,0,.05a.05.05,0,0,1-.05.05l-.05.05c-.05.05-.05.1-.1.1s-.05.05-.05.1-.05.05-.05.1a.19.19,0,0,0-.05.15c-.05,0-.05.05-.05.1s-.05.05-.05.1.05.05.05.1a.05.05,0,0,1,.05.05.19.19,0,0,0,.05.15c0,.05.05.1.1.15a.05.05,0,0,0,.05.05c.05.05.1.05.1.1s.05.05.1.1h.1l.1.1h.46c.05,0,.05.05.1.05h.15c.05-.05.1-.05.21-.1s.15-.1.26-.15.15-.15.21-.21.05-.1.1-.15.05-.05.1-.1.05-.1.05-.15v-.15c0-.1,0-.15,0-.26Zm-1.65-2c0-.05.05-.1.05-.15s.05-.1.1-.15l.1-.1c.05,0,.05-.05.1-.05h.1a.46.46,0,0,1,.26.05c.05,0,.1,0,.1.05s.1.05.1.15a.11.11,0,0,1,.1.1.18.18,0,0,1,.05.1.19.19,0,0,1-.05.15v.15a.1.1,0,0,1,0,.15v.05c-.05.05-.1.05-.1.1s-.05.05-.1.1-.05.05-.1.05-.05,0-.1,0-.1.05-.15,0-.05-.05-.1-.05-.1-.05-.15-.1-.05-.05-.1-.05v-.15c-.05,0-.05-.05-.1-.1v-.1C68.48,67.22,68.43,67.17,68.48,67.12Zm1.13,2.78-.15.15a.19.19,0,0,1-.15.05h-.1c-.05.05-.1,0-.15,0h-.26c-.05,0-.1-.05-.15-.05a.19.19,0,0,0-.15-.05.39.39,0,0,1-.1-.21v-.21c.05-.05.05-.1.1-.15s0-.05.05-.1.05-.05.05-.1v-.15c.05-.05.05-.05.1-.05h.26A.19.19,0,0,1,69.1,69h.05c.05.05.05.05.1.05l.1.1a.19.19,0,0,1,.15.05c0,.05.05.05.05.1l.1.1c0,.05-.05.05,0,.1v.05c.05.05.05.1,0,.21S69.67,69.85,69.62,69.9Z"/><path class="cls-1" d="M73.17,67.33c0-.05.05-.05.1-.05h.21a.19.19,0,0,0,.16.05.19.19,0,0,0,.15-.05h.31c.1,0,.1-.05.21-.05s.1.05.21,0h.1c0-.05,0-.1,0-.15s0-.05-.05-.1-.05-.05-.1-.1-.05-.1-.1-.15-.05-.1-.1-.1-.1-.1-.16-.1-.31-.05-.46-.05h-.36a.19.19,0,0,1-.15.05l-.1.1-.1.1-.1.1a.19.19,0,0,1-.05.15.19.19,0,0,0-.05.15v.15c0,.05-.05.05-.05.1v.31c0,.05-.05.05-.05.1V68c0,.05.05.05.05.1s-.05.1-.05.15.05.1.05.15.05.05.05.1.05.1.1.15a.69.69,0,0,0,.15.21c.05.05.1.05.15.1s.05,0,.1.05h.67c.05,0,.05-.05.1-.05s.1.05.21.05l.1-.1c.05-.05.1-.05.15-.1s.1-.1.1-.15.05-.1.05-.15,0-.1-.05-.1-.05-.05-.1-.05a.18.18,0,0,1-.1.05c-.05,0-.05.05-.1.05H74c-.05,0-.1.05-.15.05h-.26c-.1-.05-.21-.05-.31-.15s-.1-.1-.15-.21v-.36c0-.05.05-.1,0-.16v-.15A.19.19,0,0,1,73.17,67.33Zm0-.52c.05-.05.1-.05.15-.1h.21c.1,0,.1,0,.15.05a.18.18,0,0,1,.1.05c.05.05.05.1,0,.1s-.05.05-.1.05a.31.31,0,0,1-.21.05h-.21a.18.18,0,0,0-.1.05.16.16,0,0,1-.05-.1C73.12,66.91,73.17,66.86,73.17,66.81Z"/><path class="cls-1" d="M45.31,55.69c.1-.15.41-.46.31-.72s-.31-.36-.46-.36-.26.1-.31.1a3.72,3.72,0,0,0-.62.26v.1a4.53,4.53,0,0,1-.51.41,5.39,5.39,0,0,1-2.83.46c-.36-.05-.72-.05-.88-.26s.1-.46.31-.62a3.9,3.9,0,0,1,1.24-.57A3.08,3.08,0,0,1,42,54.3c.67-.1,1.91.62,2.27-.05a.61.61,0,0,0-.15-.57.28.28,0,0,0-.15-.21h-.1l-.15-.1a4,4,0,0,0-1.39-.1A6.46,6.46,0,0,0,39,54.4c-.31.31-.72.72-.51,1.29a2.63,2.63,0,0,0,.67.82c.05.05.15.05.26.1a7.24,7.24,0,0,0,2.83.21,7.33,7.33,0,0,1,1-.21.76.76,0,0,0,.21.1,11.53,11.53,0,0,0-.1,2,11.3,11.3,0,0,1-.21,1.39c0,.1-.15.26-.15.31-.05.36.05.62-.1.82-.21.36-1.13.51-1.75.46a5.12,5.12,0,0,0-.93-.1c-.36.05-.46.15-.51.57a.47.47,0,0,0,.26.05c.05.05.1.21.21.26a7.22,7.22,0,0,0,2.57-.05,2.52,2.52,0,0,0,.67-.21c.05-.05.15-.21.21-.26s.26,0,.36,0a2,2,0,0,0,.57-.31l-.15-.26c.1-.1.15-.26.26-.36s.21-.15.31-.26a10.2,10.2,0,0,0,.41-3,7.51,7.51,0,0,1-.26-1.49l.1-.15c0-.21-.05-.21,0-.31S45.31,55.74,45.31,55.69Z"/><path class="cls-1" d="M19.05,62.64a.73.73,0,0,0,.1-.31.8.8,0,0,0-.15-.62l-.1-.05c-.05-.15,0-.31-.05-.46a3.9,3.9,0,0,0-1.08-1v-.1c-.05-.05-.15-.1-.15-.15s-.05-.26-.15-.36H17.4a2.23,2.23,0,0,1-.31-.36c-.15-.26-.15-.62-.31-1-.05-.15-.26-.31-.31-.46s0-.41-.05-.67A15.41,15.41,0,0,1,16,55.48c-.05-.51.05-1,0-1.54a3.81,3.81,0,0,0-.21-.82c-.05-.1-.15-.21-.21-.31a5,5,0,0,1-.26-.82c-.05-.36.05-.77,0-1.08a2.11,2.11,0,0,0-.15-.41A11.54,11.54,0,0,0,15,49.15c0-.05-.15-.41-.15-.46s-.1,0-.15-.05v-.1l.21-.1c-.05-.05-.1-.05-.05-.1s-.15-.1-.21-.15A1.9,1.9,0,0,0,13.54,48h0a2,2,0,0,0-1.08.36.83.83,0,0,0-.26.46,8.87,8.87,0,0,1-.57.72,1.07,1.07,0,0,1-.31.21c-.31.26-.52.57-.82.77-.15.1-.36.1-.41.26s-.05.36-.15.51l-.41.36a2.29,2.29,0,0,0-.41.57c-.1.1-.1.21-.15.31s-.26.15-.31.26-.05.15-.1.21H8.5a.84.84,0,0,1-.51.05.23.23,0,0,1-.15-.15c-.15-.21,0-.1,0-.31a.51.51,0,0,0-.15-.05,3,3,0,0,1-.31-.72,15.94,15.94,0,0,1-.05-1.6,2.27,2.27,0,0,0-1.08-1.6c-.1-.05-.21-.15-.31-.15a1.73,1.73,0,0,0-.51,0,1.77,1.77,0,0,0-1.13.62c0,.05-.05.05-.1.05a2,2,0,0,1-.15.51c-.1.26-.36.46-.46.67a2.16,2.16,0,0,0-.21.51c0,.1.05.21,0,.31s-.1.1-.1.15-.1.36-.21.52l-.1.05c-.15.21-.15.46-.31.67a7,7,0,0,0-.51,1.08,2.61,2.61,0,0,0-.1.67.75.75,0,0,1,.1.36s-.1.1-.1.15a3.53,3.53,0,0,0-.26.67c-.15.46-.1,1-.26,1.44s-.36.93-.51,1.34a2.52,2.52,0,0,0-.21.57.94.94,0,0,0,.41.82c-.05.05-.15.15-.15.21a4.45,4.45,0,0,1-.41.51,5.92,5.92,0,0,0-.57.57.55.55,0,0,0,.15.67c1,.57,2.68-2.73,3-3.5a4.85,4.85,0,0,0,.31-.93v-.41c0-.1.15-.26.21-.36a2.52,2.52,0,0,0,.05-.87c0-.05-.05-.26-.05-.36s.21-.46.26-.67A10,10,0,0,1,4,53.26c.05,0,.1-.1.15-.15s-.05-.21,0-.26a2.19,2.19,0,0,1,.21-.51,2.38,2.38,0,0,1,.31-.46c.05-.15,0-.26.05-.46.05-.05.15-.05.15-.1s.05-.31.1-.51c.15.1.52.26.57.36s-.05.36,0,.67a2.71,2.71,0,0,0,.15.62c.05.05.1.15.15.15a13.19,13.19,0,0,0,.67,1.49c.1.15.21.26.31.41v.21a.9.9,0,0,1-.31.57c-.05,0-.1-.05-.15,0s0,.21.05.26a1.81,1.81,0,0,0-.41.26c-.1.05-.15.05-.26.1s-.36.51-.1.72a1.71,1.71,0,0,0,1.18.21c.05,0,.1-.1.15-.1a1.28,1.28,0,0,1,.46-.21,6.73,6.73,0,0,1,1.08-.26l.67-.31a1.14,1.14,0,0,0,.41-.05c.05,0,.1-.15.15-.15h.05c.21-.21.1-.67.26-.88.05-.05.26-.05.31-.15s.05-.26.1-.36a5.43,5.43,0,0,0,.51-.62c.05-.1.05-.21.1-.31s.26-.21.31-.31c.21-.21.26-.46.46-.67.05-.1.21-.21.26-.31s.05-.36.15-.52a3.07,3.07,0,0,1,.82-.41c.31-.05.72.1.67.36-.05.1-.21.21-.26.31V52s.26.1.26.21c.1.31-.05.67.05.93s.26.26.31.41.05.46.1.72.15.36.21.52a.75.75,0,0,1-.1.36,3.13,3.13,0,0,0,0,1,7.81,7.81,0,0,0,.93,2.68A4,4,0,0,0,15.75,60c0,.05.1.1.15.1a11.7,11.7,0,0,0,1.39,1.39c-.26.1-.62.31-.51.72A11,11,0,0,0,19,63.87c.15.05.31.1.41,0s.1-.1.1-.15A1,1,0,0,0,19.05,62.64Z"/><path class="cls-1" d="M31.87,59.45v-.15c.1-.05.15-.1.26-.15.72-.51-.31-.77-.67-.93A3,3,0,0,1,31,58a2.17,2.17,0,0,0-.36-1.44c-.05-.05-.15-.1-.21-.15s-.1-.21-.15-.26h-.1c-.05-.05-.1-.15-.15-.21s-.36-.05-.57-.1a4.34,4.34,0,0,0-1-.36,5,5,0,0,0-2,.31A8.43,8.43,0,0,0,27,53.42a6.06,6.06,0,0,1,.36-2l.05-.1c.05-.05.05-.15.1-.21s.26-.1.36-.15a1.78,1.78,0,0,0,.57-.51.83.83,0,0,0,.21-.36,3.78,3.78,0,0,0,.62-.88,5.41,5.41,0,0,1,.31-.82c.05-.1.15-.1.21-.21a2.26,2.26,0,0,0,.31-.36c-.31-.15-.67-.51-1.18-.46s-.51.62-.77,1l-.46.46h-.1c-.05.05-.05.15-.15.26s-.15,0-.15.05c-.15.1-.1.31-.21.41s-.36.31-.51.51a3.73,3.73,0,0,0-.31,1.08,5.94,5.94,0,0,1-.05,1,3.11,3.11,0,0,1-.36.52A24,24,0,0,0,25,55.12a16.12,16.12,0,0,0-.51,2.27,5.25,5.25,0,0,1-.05.87c0,.1-.15.16-.21.26a1.26,1.26,0,0,0-.51,1.13,1.58,1.58,0,0,0,1-.1c.1-.05.21-.21.31-.26s.1,0,.21-.05.1-.1.1-.15a3.06,3.06,0,0,0,.67-.93c.15-.26.15-.46.31-.72a2.57,2.57,0,0,1,.67-.62c.1-.05.26-.21.36-.26a2.89,2.89,0,0,1,1,.1,1.65,1.65,0,0,1,1.54,1.44,3,3,0,0,0,.26.72c.21.31.67.36,1.13.46A1.42,1.42,0,0,0,31.87,59.45Z"/><path class="cls-1" d="M82.75,57.33c-.26-.26-.46-.51-.72-.77-.1-.1-.26-.15-.31-.31-.05,0,0-.05,0-.1l-.1-.05a1.8,1.8,0,0,0-.57-.67,7.35,7.35,0,0,0-1.85-.72,11.15,11.15,0,0,0-1.13-.51c-.57-.1-1.08-.1-1.7-.21a4.34,4.34,0,0,1-.87-.26,15.47,15.47,0,0,1-2.22-.51,3.11,3.11,0,0,0-.41-.21,1.7,1.7,0,0,0-.46-.15v-.67c.05-.15.36-.36.41-.46s-.05-.15,0-.26.1-.15.15-.21v-.1c.1-.1.26-.05.41-.15a.18.18,0,0,0,.05-.1,3.92,3.92,0,0,1,.67-.31,6.61,6.61,0,0,1,1.8-.31,2.87,2.87,0,0,1,1-.1c.26.05.62.21.87.26.41.15.82.21,1.18.36a2.42,2.42,0,0,1,.51.26c0,.1-.05.21-.05.36.05,0,.05.05.1.1a1.94,1.94,0,0,0,.82.21,1.33,1.33,0,0,0,.93-.26v-.05c-.1-.05-.15-.05-.21-.1a1.26,1.26,0,0,0,.26-.77,6.5,6.5,0,0,0-1.8-.88,7,7,0,0,0-2.27-.51,6.4,6.4,0,0,0-1.08-.1c-.41.05-.93.21-1.29.26-.52.15-1,.15-1.55.31a6.9,6.9,0,0,0-1.39.67c-.05,0-.1.1-.15.15s-.36.15-.51.26l-.05.1c-.05.05-.1,0-.1.05s.05.05.05.05l-.1.1c-.21.21-.52.36-.62.57s-.15.31-.21.57l-.1.15c0,.1.05.15.05.26s-.1.31,0,.57.88.51,1.24.62l.05.1-.1.1V54h.21c.31.1.46.26.67.31.41.1.77.05,1.18.15.15.05.26.15.41.21s.31,0,.57.05c.51.1,1.08.31,1.6.41l1.13.26a4.71,4.71,0,0,1,.77.31h.41a6.8,6.8,0,0,1,1.24.46c.1.05.21.21.31.26.36.21.51.26.46.88a1.14,1.14,0,0,0,.05.72,1.42,1.42,0,0,0,.62.46.19.19,0,0,1,.15.05c.1.05,0,.26,0,.26a7,7,0,0,1-1,1.13c-.1.15-.15.36-.31.46a6.33,6.33,0,0,1-1.18.57,9.9,9.9,0,0,1-2.57.67,6.3,6.3,0,0,1-1.7-.1,3.4,3.4,0,0,1-.72,0,5.39,5.39,0,0,0-.52-.21,9.07,9.07,0,0,1-1.39-.36c-.1-.05-.26-.05-.36-.15s-.21-.46-.31-.62-.05-.05-.1-.1a2.76,2.76,0,0,0-1.34-1.18.82.82,0,0,0-.36,0c-.21.1-.05.83,0,1s.15.46.21.62-.05.31,0,.41.46.26.51.36.1.15.15.21a1.29,1.29,0,0,0,.46.21,14.61,14.61,0,0,0,1.6.51c.52.1,1.08.31,1.6.41.31.05.62,0,.93.05.1,0,.36.15.46.15a6.83,6.83,0,0,0,2.11-.21c.62-.1,1.18-.1,1.8-.21.36-.1.77-.26,1.08-.36a3.82,3.82,0,0,0,.82-.15c.46-.15.62-.67,1-1a1.65,1.65,0,0,0,.31-.15c0-.1-.05-.21,0-.31s.21-.15.26-.21.05-.21.15-.31.21-.21.26-.36a1.64,1.64,0,0,0-.1-2.11C82.9,57.44,82.75,57.39,82.75,57.33Z"/><path class="cls-1" d="M23.48,57.75l.05-.05a.6.6,0,0,0,0-.52,1.77,1.77,0,0,0-.05-.57c-.1-.31-.41-.52-.62-.72a2.14,2.14,0,0,1-.57-.62,1.41,1.41,0,0,1-.67-.1c-.05,0-.1-.15-.15-.15a2.2,2.2,0,0,0-1-.1c-.1,0-.41.05-.51.05a1.86,1.86,0,0,0-.46.41,4.31,4.31,0,0,0-1.6,1.44c0,.1-.15.26-.15.41a1.22,1.22,0,0,0,.21,1c.05.05.15.1.21.15s0,.26.05.41l.1.1v.05a5.39,5.39,0,0,0,2.32.31c.15,0,.36-.15.51-.21A4.43,4.43,0,0,0,23.48,57.75Zm-2.63.62h0c-.05,0-.15.1-.21.1a2.08,2.08,0,0,1-1.18-.15,2.37,2.37,0,0,1,.1-1.24c.05-.05.21-.15.21-.21v-.05a2.56,2.56,0,0,1,.88-.57c.1,0,.31-.15.41-.15a1,1,0,0,1,.36.1c.77.26.67.62.88,1.44A4.21,4.21,0,0,1,20.85,58.37Z"/><path class="cls-1" d="M68.13,42.25l-.67-1.54c-.05-.05-.1-.15-.21-.15l-.05-.05a.39.39,0,0,1-.21-.1l-.57-.1c-.21.05-.26.21-.26.41s.1.26.15.51-.1.26-.05.46v1c0,.26-.05.26-.05.51s.1.21.1.46l.15.05a.57.57,0,0,0,.26-.05l.51-.31c.05,0,.15-.1.21-.15l.62-.72C68.13,42.4,68.18,42.3,68.13,42.25Z"/><path class="cls-1" d="M67.51,38.54a.16.16,0,0,1,.05.1l.1.1.1.1c.05,0,.05.05.1.05A.19.19,0,0,1,68,39h.26a13.42,13.42,0,0,1,.21-.1c.05-.05.1-.05.15-.1a.16.16,0,0,1,.05-.1.18.18,0,0,0,.05-.1c0-.05.05-.05.05-.1v-.26a.19.19,0,0,0-.05-.15c0-.05-.05-.05-.05-.1l-.1-.1a.18.18,0,0,0-.1-.05c0-.05-.05-.05-.1-.05s-.05-.1-.1-.1-.1.05-.15.05h-.26c0,.05-.05.05-.1.05l-.1.1c-.05.05-.05.05-.05.1s-.1.05-.1.1v.15c-.05,0,0,.05,0,.1h-.05c0,.05.05.1.05.15Z"/><path class="cls-1" d="M59.78,38.7c0,.05,0,.1.05.1s.05.05.1.1A.18.18,0,0,0,60,39c.05,0,.1,0,.1.05h.15a.19.19,0,0,0,.15-.05h.1a.16.16,0,0,1,.1-.05c.05-.05.1-.05.1-.1s.05-.05.1-.1.05-.05.05-.1v-.15c.05,0,.05-.05.05-.1v-.15c0-.05-.05-.05-.05-.1a.16.16,0,0,1-.05-.1c0-.05-.1-.05-.1-.1s-.05-.05-.1-.05-.05-.1-.1-.1h-.1a.19.19,0,0,0-.15-.05h-.1a.19.19,0,0,1-.15.05c-.05,0-.05.05-.1.05l-.1.1c-.05,0-.05.05-.1.1a.16.16,0,0,1-.05.1v.1c0,.05-.05.1-.05.15v.15a.18.18,0,0,1,.05.1C59.68,38.64,59.73,38.64,59.78,38.7Z"/><path class="cls-1" d="M68,46.63h.26a.19.19,0,0,0,.15-.05.18.18,0,0,1,.1-.05c0-.05.05-.05.1-.1l.05-.05a.19.19,0,0,0,.05-.15c.05-.05.05-.05.05-.1s.05-.1.05-.15h-.05v-.1c0-.05-.05-.1-.05-.15a.18.18,0,0,1-.05-.1c-.05,0-.05-.05-.05-.1a.16.16,0,0,0-.1-.05.19.19,0,0,0-.15-.05c0-.05-.05-.05-.1-.1a.18.18,0,0,0-.1.05h-.26a.19.19,0,0,1-.15.05.18.18,0,0,1-.05.1c-.05.05-.1.05-.1.1a.16.16,0,0,0-.05.1c0,.05-.05.1-.05.15v.26c0,.05.05.05.05.1a.19.19,0,0,0,.05.15.18.18,0,0,0,.1.05c0,.05,0,.1.05.1a.19.19,0,0,0,.15.05A.18.18,0,0,0,68,46.63Z"/><path class="cls-1" d="M59.89,46.37c.05.05.05.1.1.1s.05.05.1.05.1,0,.15.05h.26c.05,0,.05,0,.1-.05a.18.18,0,0,0,.1-.05c.05-.05.1-.05.1-.1a.18.18,0,0,0,.1-.05.19.19,0,0,1,.05-.15v-.1a.19.19,0,0,0,.05-.15v-.1c0-.05-.05-.1-.05-.15s-.05-.05-.05-.1-.05-.05-.1-.1-.05-.05-.1-.1a.16.16,0,0,1-.1-.05h-.36a.19.19,0,0,0-.15.05H60c-.05.05-.1.05-.1.1s-.05.05-.05.1-.1.05-.1.1v.26h-.05v.15l.1.1v.1Z"/><polygon class="cls-1" points="67.46 38.28 67.46 38.28 67.46 38.28 67.46 38.28"/><path class="cls-1" d="M62.67,39.47l-.1.51c-.05.1,0,.21.1.16a1.73,1.73,0,0,1,.51,0,1.74,1.74,0,0,0,.52,0c.26,0,.26-.05.51-.05h.51a1.22,1.22,0,0,1,.46.1c.26,0,.26.05.52.05h.21V40l-.1-.57a.4.4,0,0,0-.1-.26l-.36-.31-.21-.21s-.36-.21-.51-.31a7.76,7.76,0,0,0-1.13.1c-.05,0-.21,0-.26.05l-.41.67A1.1,1.1,0,0,0,62.67,39.47Z"/><path class="cls-1" d="M60.66,41.53a4.07,4.07,0,0,0,.05,1.13c0,.05,0,.21.1.26l.62.46a.55.55,0,0,1,.26.1l.62.15a1.42,1.42,0,0,0-.05-.46c0-.26.05-.26.05-.51s-.1-.26-.1-.51.05-.26.05-.51-.05-.26-.05-.51-.15-.26-.1-.51.05-.21-.15-.31l-.26.05a.54.54,0,0,0-.26.1l-.26.36a.51.51,0,0,0-.21.26A2.31,2.31,0,0,0,60.66,41.53Z"/><path class="cls-1" d="M62.41,44.31a.19.19,0,0,0,.05.15l.31.51a1.1,1.1,0,0,0,.15.26l.62.51h.05c.05,0,.1.05.15.05h.36l1.34-.62A.23.23,0,0,0,65.6,45l.05-.05c.05-.05.05-.15.1-.26l.1-.46c0-.05,0-.05-.05-.05-.26-.05-.26.1-.51.1s-.26-.15-.51-.15-.26.05-.51.05a1.77,1.77,0,0,1-.52-.05c-.21,0-.21.1-.46.1a1.73,1.73,0,0,1-.51-.05C62.57,44.21,62.51,44.15,62.41,44.31Z"/><path class="cls-1" d="M63.54,34.89c.05.26,0,.46.05.72a4.56,4.56,0,0,0,.26.51c.05.21.05.41.1.57s.05.26.1.36l.15.15c.05-.05.21-.1.21-.15a3.25,3.25,0,0,0,.15-.41c.05-.1,0-.31.05-.51s.26-.31.31-.51.05-.46.1-.72-.1-.52,0-.77h0c0-.26.15-.51.15-.77s-.1-.57-.1-.82a3.91,3.91,0,0,1,.05-.77c-.05-.21-.15-.46-.21-.67s-.1-.41-.15-.57-.21-.31-.26-.46.05-.31,0-.41-.05-.1-.05-.15a.05.05,0,0,0-.05-.05v-.05c0-.05,0-.05-.05-.05v-.05l-.05-.05a.11.11,0,0,0-.1.1v.05c0,.05,0,.05-.05.05v.05c0,.05-.05.1-.05.15a.39.39,0,0,1-.05.26.94.94,0,0,0-.1.36c0,.05-.05.05-.05.1s-.05.1-.05.15-.05.36-.1.62-.05.41-.1.67-.15.46-.15.72a4.54,4.54,0,0,0-.1.82,4.17,4.17,0,0,0,.15.77A3.83,3.83,0,0,0,63.54,34.89Z"/><path class="cls-1" d="M64.42,43.07l.31-.21c.05,0,.1-.05.15-.1l.15-.21c.05,0,.05,0,.05-.05h.05c0-.05.05-.1.05-.15s.05-.05.05-.1,0,0,0-.1v-.21a1,1,0,0,0-.15-.41c-.05-.05-.1-.1-.15-.1s-.05-.1-.1-.1a.05.05,0,0,1-.05-.05h-.05a.19.19,0,0,0-.15-.05l-.36-.1h-.15l-.31.05c-.05,0-.1.05-.15.05l-.15.21a.11.11,0,0,1-.1.1l-.15.31a2.49,2.49,0,0,0,0,.62.51.51,0,0,0,.05.15l.15.1c.05.15.26.21.46.26H63.8c.05.05.1.05.21.1h.41Z"/><path class="cls-1" d="M64.93,41.37v.05H65C64.93,41.42,64.93,41.42,64.93,41.37Z"/><path class="cls-1" d="M51.49,42.1a.05.05,0,0,0,.05.05h.1c.1.05.21.05.26.1s.26.05.36.05a.93.93,0,0,0,.36.26c.15.05.36.05.62.1a2.86,2.86,0,0,0,.62.21,3.92,3.92,0,0,0,.77-.05,4.68,4.68,0,0,0,.82.05,4.43,4.43,0,0,0,.82,0,3.63,3.63,0,0,0,.72-.15l.67-.15c.21-.05.46.05.62,0h.1c.15-.05.31-.15.46-.21A.19.19,0,0,1,59,42.3a.16.16,0,0,1,.1-.05h.21a.05.05,0,0,1,.05-.05.05.05,0,0,0,.05-.05l.05-.05V42h0a0,0,0,0,0-.05,0h-.1L59,41.84H58.7a1.12,1.12,0,0,0-.41-.26c-.15-.05-.36-.05-.62-.1s-.41-.15-.67-.21a4.6,4.6,0,0,1-.72-.15,1.22,1.22,0,0,0-.41.1h-.31a1.27,1.27,0,0,1-.62-.05h-.31c-.26.05-.46.15-.72.21s-.46.05-.67.1a1.49,1.49,0,0,0-.46.1c-.15,0-.26.05-.41.05a4.08,4.08,0,0,0-.72.26h-.15l-.05.05h.05a.16.16,0,0,0-.05.1C51.44,42.1,51.44,42.1,51.49,42.1Z"/><path class="cls-1" d="M59.47,42s0,0,0,0h0Z"/><path class="cls-1" d="M61.95,34.83c.1.21.21.36.31.57s0,.51.05.72a3.16,3.16,0,0,1,.31.57c.05.15.1.26.15.41v.21c.05.05.05.15.1.26a.05.05,0,0,0,.05.05.18.18,0,0,1,.05.1h.15v-.05h.05v-.05c.05,0,.1-.05.15-.1a.18.18,0,0,0,.05-.1v-.05h0V37.2a3.92,3.92,0,0,0,.05-.77c-.05-.26-.15-.51-.21-.77a5.35,5.35,0,0,0-.15-.77c-.1-.21-.21-.46-.31-.67a.75.75,0,0,0-.15-.21c0-.05-.05-.21-.1-.21s-.15.05-.21.05-.1.21-.15.21-.15,0-.15.1-.15.1-.15.15a.32.32,0,0,0,0,.31C61.85,34.68,61.95,34.78,61.95,34.83Z"/><path class="cls-1" d="M66.32,48.48a.92.92,0,0,0-.21-.46,1.23,1.23,0,0,1-.31-.57.75.75,0,0,1-.1-.36v-.36l-.05-.05c0-.05-.1-.1-.15-.1l-.05-.05H65.4c0-.05,0-.05-.05-.05a.18.18,0,0,0-.05-.1l-.05-.05h-.05v.05a.05.05,0,0,0-.05.05.05.05,0,0,1-.05.05c-.05.05-.15.1-.15.21a.15.15,0,0,0,0,.21v.05a3.12,3.12,0,0,0,.05.72c.05.26.1.46.15.72s.26.51.36.72.1.57.21.77c0,.05.05.05.1.05l.05.05c.05.05.1.1.15.1l.05.05c.05.05.1.1.21.05h.05c.05,0,.05,0,.1-.05s.05-.05.05-.1.05-.05.1-.1a2.18,2.18,0,0,0,.05-.26c.05-.05-.1-.16-.1-.26h0c0-.05.05-.21.05-.26C66.48,48.94,66.43,48.69,66.32,48.48Z"/><path class="cls-1" d="M56.49,40.34c0,.05.05.05.1.1l.67.31c.26.1.41.26.67.36a1.65,1.65,0,0,0,.72.05,2.13,2.13,0,0,0,.82.15h.36v-.1a.18.18,0,0,0,.05-.1h.05V41H60s-.05-.1-.05-.15a14,14,0,0,0-.1-.1V40.7l-.05-.05h-.1c-.21-.1-.46-.05-.67-.15a3.13,3.13,0,0,1-.57-.31c-.21-.05-.41-.15-.62-.21s-.31-.31-.46-.41h-.26c-.05,0-.1-.05-.21-.05s-.1-.05-.1,0h-.05a.05.05,0,0,0-.05.05h-.05a.28.28,0,0,1-.26.15c-.05.05-.15.05-.15.15h-.05V40a1.35,1.35,0,0,1,.26.31Z"/><path class="cls-1" d="M56.59,44.67c.05,0,.16-.15.21-.15H57c.21-.1.46-.1.67-.21a.05.05,0,0,0,.05-.05l.88-.46a3.58,3.58,0,0,1,.67-.26,2.6,2.6,0,0,1,.67-.1v-.05c.05,0,.05-.05.1-.05a.19.19,0,0,1-.05-.15.11.11,0,0,0-.1-.1h-.05a1.4,1.4,0,0,0-.31-.26.76.76,0,0,0-.57.1h-.21A2,2,0,0,0,58,43a4,4,0,0,0-.72.26c-.21.1-.51.1-.77.21-.05.05-.1.15-.15.21s-.15.1-.15.15.05.15.05.26.05.1.1.15-.1.26-.05.31S56.49,44.62,56.59,44.67Z"/><path class="cls-1" d="M65.19,37.36c0,.05,0,.1.05.1v.05c0,.05.05.05.1.05s.05.05.05.1h.05v.05h.1v-.05h.05c0-.05.05-.1.05-.15l.05-.05a.16.16,0,0,1,.05-.1v.05c.05-.26.1-.46.15-.72s.15-.41.26-.62a2.77,2.77,0,0,1,.26-.57,3.75,3.75,0,0,1,.15-.72v-.46c0-.1.1-.26.05-.36a.39.39,0,0,0-.1-.21c-.05-.05-.1-.05-.1-.1h-.1c-.05,0-.1.05-.15.1h-.1v.05l-.05.05v.05a6,6,0,0,0-.26.57.9.9,0,0,0-.21.26v.1a3.52,3.52,0,0,0-.26.67c-.05.26-.1.57-.15.82s.05.36.05.57Z"/><path class="cls-1" d="M69,43.54a.05.05,0,0,0,.05.05c.1.05.21.15.31.1h.05c.1,0,.15.05.21.05h.31a3.44,3.44,0,0,0,.62.31c.21.05.46.15.67.21a3.52,3.52,0,0,0,.67.26c.05.05.21-.05.31-.05h.21c.1-.05.26.05.31.05l.05-.05c0-.05,0-.05.05-.05v-.1c0-.05.05-.1.05-.15a.47.47,0,0,0-.05-.26.05.05,0,0,0-.05-.05c-.05-.05,0-.21-.1-.21l-.77-.31c-.26-.1-.67,0-.93-.1a3.87,3.87,0,0,0-.82-.21c-.15,0-.31-.05-.52-.05h-.36c-.1.05-.21.15-.31.21H68.8a.18.18,0,0,1-.05.1c0,.05.05.05.1.1v.05C68.9,43.48,69,43.54,69,43.54Z"/><path class="cls-1" d="M64.11,54.92h.05v-.05a.11.11,0,0,0,.1-.1,2.21,2.21,0,0,1,.05-.26.73.73,0,0,0,.15-.21c0-.05.05-.15.05-.21a.77.77,0,0,0,.15-.36c.05,0,.05,0,.05-.05.05-.31.1-.57.15-.88a.19.19,0,0,0,.05-.15A.19.19,0,0,0,65,52.5c.05-.26,0-.52.05-.77V50.9c0-.26-.1-.51-.1-.77s0-.51-.05-.77a2.62,2.62,0,0,0-.1-.67l-.15-.62-.15-.46a2.7,2.7,0,0,0-.15-.36c0-.05,0-.1-.05-.1v-.21a.1.1,0,0,0-.16,0L64,47v.05a.26.26,0,0,0-.1.21.88.88,0,0,0-.05.36,1.22,1.22,0,0,1-.1.41c-.05.21-.05.41-.1.62s-.15.41-.21.67-.15.46-.15.72a1.3,1.3,0,0,0,.1.62,2.2,2.2,0,0,1-.1.57,3.38,3.38,0,0,0,0,.72,4.89,4.89,0,0,0,.21.67v.05c0,.31.1.62.1.93a.65.65,0,0,0,.05.31l.1.1a2.56,2.56,0,0,0,.15.36c.05.05.1.15.05.21a.11.11,0,0,0,.1.1v.15Z"/><path class="cls-1" d="M72.3,41.22h-.21a2.17,2.17,0,0,1-.57.1l-.67.15a1.7,1.7,0,0,0-1,.36c-.15.05-.31,0-.41.05s-.15.1-.21.1h-.05a.18.18,0,0,0-.05.1.18.18,0,0,0,.05.1h.1c.15,0,.21.1.31.15s.21.15.36.1a1.29,1.29,0,0,0,.41.05,5.34,5.34,0,0,0,.51.21c.21.05.46.05.67.1a3.89,3.89,0,0,1,.77,0c.26,0,.51-.05.82-.05s.52.1.77.1.52-.15.72-.21.51,0,.72-.05l.57-.15a2.25,2.25,0,0,0,.36-.21h.1c.15,0,.31.05.41,0a.86.86,0,0,1,.26-.1.11.11,0,0,0,.1-.1V42h0c-.05,0-.05-.05-.1-.05a.86.86,0,0,1-.26-.1.88.88,0,0,1-.36-.05c-.15-.05-.36-.05-.52-.1s-.36-.15-.57-.21-.41-.15-.67-.21-.36-.05-.51-.1h-.46a3.42,3.42,0,0,1-.72.05A2.89,2.89,0,0,1,72.3,41.22Z"/><path class="cls-1" d="M62.15,50.18h.15c.05.05.1,0,.21,0s.05-.05.1-.05,0-.26.05-.31c.1-.21.21-.46.31-.67a4,4,0,0,0,.15-.77,1.81,1.81,0,0,0,.15-.72c0-.15.05-.36.05-.51V47a.19.19,0,0,1,.05-.15v-.1s0-.1-.05-.1h-.05v-.05c-.1-.05-.15-.15-.26-.26L63,46.27c-.05,0-.05,0-.05.05a.05.05,0,0,0-.05.05v.05h-.05v.05c-.05.1-.1.15-.1.21s-.05.05-.05.1a1.28,1.28,0,0,1-.1.36.19.19,0,0,1-.05.15,3.13,3.13,0,0,1-.15.67,3,3,0,0,1-.31.57,2.17,2.17,0,0,1-.15.62v.1a.19.19,0,0,1-.05.15v.21c0,.1.05.15.05.26a.19.19,0,0,1,.05.15v.05A.27.27,0,0,0,62.15,50.18Z"/><path class="cls-1" d="M68.74,40.81a.19.19,0,0,0-.05.15h.05V41c0,.05.05.05.05.1s.1.05.15.05h.1c.05,0,.05.05.1.05h.05a.16.16,0,0,1,.21,0h.05a3.35,3.35,0,0,0,.72,0A3.82,3.82,0,0,0,71,41c.26-.1.62-.15.88-.26l.67-.36c.1-.05.1-.15.15-.21s.05-.1.05-.15a.1.1,0,0,0,0-.15c0-.05-.05-.1-.1-.15a.39.39,0,0,0-.21-.1c-.1-.05-.15,0-.26,0s-.15-.15-.26-.15a1.12,1.12,0,0,1-.26.15,2.67,2.67,0,0,1-.57.36,2.45,2.45,0,0,1-.57.21c-.21.1-.51.1-.72.21a1.05,1.05,0,0,0-.31.21.05.05,0,0,0-.05.05h-.1c-.15.05-.41.05-.52.1H68.8A.05.05,0,0,1,68.74,40.81Z"/></svg>
