<svg id="Layer_1" data-name="Layer 1" xmlns="http://www.w3.org/2000/svg" viewBox="0 0 100 100"><defs><style>.cls-1{fill:#FFFFFF;}</style></defs><title>omniHotels</title><path class="cls-1" d="M45,53.25l-.15-9.69a3.1,3.1,0,0,1,2.84,2.32,3.12,3.12,0,0,1,3.5,2.29,5.34,5.34,0,0,0-5.87,5.09H46c.43-4.27,3.75-4.91,5.22-4.83a3.15,3.15,0,0,1-1.51,3.25,3.12,3.12,0,0,1-.78,4.13c-.17-2.3-1.25-2.85-1.84-3.15l-.71.57c1.48.29,2.07,1.83,2.25,2.78a3.12,3.12,0,0,1-4-.71h0a3.12,3.12,0,0,1-4,.71c.17-.95.76-2.49,2.25-2.78l-.71-.57c-.59.3-1.67.85-1.84,3.15a3.12,3.12,0,0,1-.78-4.13,3.15,3.15,0,0,1-1.51-3.25c1.47-.08,4.79.56,5.22,4.83H44a5.34,5.34,0,0,0-5.87-5.09,3.12,3.12,0,0,1,3.51-2.29,3.1,3.1,0,0,1,2.84-2.32l-.15,9.69H45Z"/><path class="cls-1" d="M22.59,56c-.77-.16-.82-.78-.82-1.76L21.64,49a1.92,1.92,0,0,1,.73-1.76c.09-.05.18-.08.18-.15s-.18-.07-.22-.07h-1a.46.46,0,0,0-.46.32l-3.33,7.1-3.42-7.1a.46.46,0,0,0-.46-.32H12.25s-.2,0-.22.05.08.09.17.15A2.13,2.13,0,0,1,13.45,49l-.16,5.19c0,1-.18,1.61-.76,1.78-.11,0-.2.09-.2.13s0,.11.12.11h2c.2,0,.26,0,.26-.05s0-.12-.16-.18c-.36-.16-.8,0-.8-1.4l.16-5.23h0l3,6.56a.32.32,0,0,0,.53,0l3.15-6.73h0l.12,5.34c0,1.1-.37,1.38-.73,1.48,0,0-.19,0-.19.13s.05.08.26.08h2.54c.11,0,.09,0,.09-.08s-.06-.1-.17-.12Z"/><path class="cls-1" d="M32.09,47.1c-.28,0-.65.05-.93.05s-.85-.05-1.05-.05-.23.05-.23.12.12.11.31.16.76.12.76,1.26v5.81l-6.46-7.07a.65.65,0,0,0-.48-.3H23c-.15,0-.17,0-.17.09s.05.08.12.09a2.71,2.71,0,0,1,1.5,2.1v4.75c0,1.2,0,1.43-.51,1.72-.24.14-.42.2-.42.28s0,.07.11.07.75,0,1,0c.49,0,.92,0,1.08,0s.11,0,.11-.05-.09-.07-.28-.19-.69-.16-.69-1.53v-5c2.1,2,4.34,4.76,6,6.65.14.14.21.16.34.14s.14-.57.14-1.28V48.64c0-1.24.57-1.25.73-1.32s.22-.08.22-.12,0-.11-.23-.11Z"/><path class="cls-1" d="M35.65,56c-.5-.26-.82-.7-.82-1.92V48.46a1.19,1.19,0,0,1,.72-1.19.1.1,0,0,0,.09-.11c0-.07-.18-.07-.23-.07-.31,0-.8.05-1.11.05-.5,0-.93-.05-1.09-.05s-.22,0-.22.08,0,.07.09.09a1.28,1.28,0,0,1,.7,1.19v5.8A1.84,1.84,0,0,1,32.95,56c-.09.07,0,.11,0,.13s-.1.05,0,.05.62,0,1.38,0,1.23,0,1.35,0,.15,0,.15,0S35.75,56.1,35.65,56Z"/><path class="cls-1" d="M6,44.95a5.72,5.72,0,0,0-6,5.7A5.51,5.51,0,0,0,5.8,56.3c3.11,0,6.19-2.08,6.19-5.66A5.77,5.77,0,0,0,6,44.95ZM7.59,55.58C5,56.51,2.69,55,1.7,52.3.64,49.38,1.86,46.71,4,45.79c2.4-1,5.07.35,6.13,3.28C11.15,51.77,10.55,54.51,7.59,55.58Z"/><path class="cls-1" d="M63.78,45.21c-.2,0-.92.07-1.53.07-.38,0-1-.07-1.35-.07-.07,0-.28,0-.28.08a.13.13,0,0,0,.12.13c.56.17.93.25.93.9v3.9H55.57V46.31c0-.64.38-.72.94-.88a.13.13,0,0,0,.12-.13c0-.08-.22-.08-.28-.08-.38,0-1,.07-1.35.07-.61,0-1.33-.07-1.53-.07s-.26,0-.26.1.05.08.12.12c.58.22,1.09.35,1.09.88v8.24c0,.87-.29,1.19-.9,1.4-.14,0-.23.13-.23.17s.07.07.2.07.6-.05,1.52-.05,1.31.05,1.45.05.18,0,.18-.05-.06-.09-.18-.15c-.47-.23-.87-.18-.88-1.43V50.63h6.09v3.88c0,1.25-.4,1.24-.87,1.47-.13.06-.18.1-.18.15s.08.05.18.05.66-.05,1.46-.05,1.37.05,1.52.05.2,0,.2-.07-.11-.1-.23-.17a1.38,1.38,0,0,1-.91-1.44V46.32c0-.53.52-.68,1.1-.9.07,0,.12,0,.12-.12s0-.1-.26-.1Z"/><path class="cls-1" d="M80.73,48.8l-.2-1.72H73.82l-.2,1.72a.12.12,0,0,0,.23.08c.39-.74.39-1.09,1.4-1.09h1.38v6.45c0,1.4-.22,1.65-.76,1.79-.19,0-.34,0-.34.11s0,.08.12.08.5,0,1.56,0,1.27,0,1.36,0,.15,0,.15-.05,0-.05-.13-.09c-.49-.11-.9-.44-.9-1.8V47.78h1.4c1,0,1,.35,1.4,1.09a.12.12,0,0,0,.23-.08Z"/><path class="cls-1" d="M87.44,54.55a.19.19,0,0,0-.12.07c-1,1.11-4.39,1.33-4.65.62V51.9h2.19c.74,0,.83.29,1.11,1a.22.22,0,0,0,.14.07c.05,0,.05-.13.05-.22v-2.3c0-.13,0-.22-.07-.22s-.07,0-.09.07c-.18.37-.28.95-1.14.94H82.67V47.69h2.46c1.4.06,1.22,1.08,1.2,1.22a.12.12,0,1,0,.23,0l.27-1.86H81.19c-.12,0-.28,0-.28.08s0,.05.09.08a1.21,1.21,0,0,1,.61,1.21V54.7c0,.63-.14,1.11-.77,1.29-.18,0-.24.11-.24.16s.05,0,.19,0h5.78l.92-1.42a.39.39,0,0,0,0-.16.06.06,0,0,0-.07-.07Z"/><path class="cls-1" d="M93.76,54.81c-2.5,1.26-3.72.84-3.92.59V48.46a1.18,1.18,0,0,1,.7-1.19.1.1,0,0,0,.09-.11c0-.07-.17-.07-.23-.07-.31,0-.8.05-1.11.05-.5,0-.93-.05-1.09-.05s-.22,0-.22.08,0,.07.09.09a1.26,1.26,0,0,1,.68,1.19v6c0,.63-.09,1.33-.73,1.5-.18,0-.24.11-.24.16s.05,0,.19,0h5.13l.8-1.22c.1-.16,0-.27-.16-.16Z"/><path class="cls-1" d="M97.82,50.94c-1-.35-2.93-.82-2.88-1.93C95,47.71,96,47.38,97,47.41a3.44,3.44,0,0,1,2.34,1.88c.08.18.2.14.22,0a8,8,0,0,0-.22-1.77c0-.19-.19-.2-.26-.15a.57.57,0,0,1-.52-.11A4,4,0,0,0,97,46.89c-.52,0-2.84.57-2.9,2.23a2.29,2.29,0,0,0,1.8,2.56c.79.33,3.35.79,3.35,2.31,0,1.71-1.33,1.88-2.15,1.88a2.69,2.69,0,0,1-2.8-2.07c-.14-.44-.41-.24-.33.08A11.53,11.53,0,0,0,94.64,56a4.45,4.45,0,0,0,2.56.46,2.78,2.78,0,0,0,.63-5.49Z"/><path class="cls-1" d="M69.07,46.89a4.81,4.81,0,0,0-5,4.79,4.63,4.63,0,0,0,4.88,4.75c2.61,0,5.2-1.75,5.2-4.75A4.85,4.85,0,0,0,69.07,46.89Zm1.37,8.93c-2.16.79-4.12-.48-4.95-2.75-.89-2.45.13-4.7,2-5.47,2-.86,4.26.3,5.15,2.75.83,2.27.32,4.57-2.16,5.47Z"/></svg>
