<svg id="Layer_1" data-name="Layer 1" xmlns="http://www.w3.org/2000/svg" viewBox="0 0 100 100"><defs><style>.cls-1{fill:#FFFFFF;}</style></defs><title>palazzo</title><path class="cls-1" d="M40.28,67.75H36.15l-.28.69a7,7,0,0,0-.63,2,.87.87,0,0,0,.33.74,1.37,1.37,0,0,0,.86.25v.37H33.19V71.4a1.74,1.74,0,0,0,1.08-.51,6.25,6.25,0,0,0,.85-1.67q0-.12.39-.93l3.16-7.56H39l3.64,8.65.5,1.14a1.52,1.52,0,0,0,.45.61,1.66,1.66,0,0,0,.86.28v.37H40.15V71.4a3.19,3.19,0,0,0,1.06-.12.45.45,0,0,0,.28-.46,4.68,4.68,0,0,0-.37-1.05Zm-.14-.36-1.93-4.64L36.3,67.39Z"/><path class="cls-1" d="M54.32,68.56l-.08,3.2H45.48V71.4h.32a1.88,1.88,0,0,0,1-.18.82.82,0,0,0,.35-.55,11.65,11.65,0,0,0,.08-1.74V63.59a11.06,11.06,0,0,0-.08-1.68.73.73,0,0,0-.32-.52,2.5,2.5,0,0,0-1.07-.14h-.24v-.37h5.23v.37h-.48a2.65,2.65,0,0,0-1.05.13.7.7,0,0,0-.33.49,10.23,10.23,0,0,0-.08,1.72v5.7a9.74,9.74,0,0,0,.06,1.48.69.69,0,0,0,.35.46,2.89,2.89,0,0,0,1.22.16h.83a1.88,1.88,0,0,0,1-.18,2.08,2.08,0,0,0,.92-.77,6,6,0,0,0,.8-1.89Z"/><path class="cls-1" d="M61.9,67.75H57.76l-.28.69a7,7,0,0,0-.63,2,.87.87,0,0,0,.33.74,1.38,1.38,0,0,0,.86.25v.37H54.81V71.4a1.74,1.74,0,0,0,1.08-.51,6.26,6.26,0,0,0,.85-1.67q0-.12.39-.93l3.16-7.56h.31l3.64,8.65.5,1.14a1.51,1.51,0,0,0,.45.61,1.66,1.66,0,0,0,.86.28v.37H61.76V71.4a3.19,3.19,0,0,0,1.06-.12.45.45,0,0,0,.28-.46,4.68,4.68,0,0,0-.37-1.05Zm-.14-.36-1.93-4.64-1.92,4.64Z"/><path class="cls-1" d="M67.19,71.77v-.28l7-10.24H70.82a7.05,7.05,0,0,0-1.43.09,1.69,1.69,0,0,0-.77.64A3.81,3.81,0,0,0,68,63.38h-.35L68,60.88h8.09v.37l-7,10.15h3.32a5.31,5.31,0,0,0,2.15-.26,2.4,2.4,0,0,0,.83-.92A6.35,6.35,0,0,0,76,68.95h.37L76,71.77Z"/><path class="cls-1" d="M77.91,71.77v-.28l7-10.24H81.55a7.05,7.05,0,0,0-1.43.09,1.69,1.69,0,0,0-.77.64,3.81,3.81,0,0,0-.66,1.41h-.35l.35-2.51h8.09v.37l-7,10.15h3.32a5.31,5.31,0,0,0,2.15-.26,2.4,2.4,0,0,0,.83-.92,6.35,6.35,0,0,0,.57-1.27h.37l-.37,2.82Z"/><path class="cls-1" d="M88.15,66.25a5.19,5.19,0,0,1,1.69-4A6,6,0,0,1,94,60.68a6.18,6.18,0,0,1,4.25,1.51A5.22,5.22,0,0,1,100,66.31a5.41,5.41,0,0,1-1.63,4.09,6.63,6.63,0,0,1-8.56,0A5.44,5.44,0,0,1,88.15,66.25Zm1.84.06a6.25,6.25,0,0,0,1,3.94,3.77,3.77,0,0,0,3.14,1.32,3.54,3.54,0,0,0,2.91-1.32,6.14,6.14,0,0,0,1.07-3.93,6.23,6.23,0,0,0-1.05-3.89,4.11,4.11,0,0,0-6.07,0A6.19,6.19,0,0,0,90,66.31Z"/><path class="cls-1" d="M11.35,62.08h-.15l0-1h4.23l0,1h-.14a1.67,1.67,0,0,0-.2-.62.54.54,0,0,0-.28-.23,2,2,0,0,0-.51,0h-.7v3.08a5.75,5.75,0,0,0,0,.67.34.34,0,0,0,.13.24.73.73,0,0,0,.4.08h.21v.15H12.25v-.15h.23a.76.76,0,0,0,.39-.07A.33.33,0,0,0,13,65a4.67,4.67,0,0,0,0-.7V61.18h-.65a2.55,2.55,0,0,0-.57,0,.51.51,0,0,0-.27.24A1.72,1.72,0,0,0,11.35,62.08Z"/><path class="cls-1" d="M19.68,63.21H17.4v1.05a5.41,5.41,0,0,0,0,.67.35.35,0,0,0,.13.24.72.72,0,0,0,.4.08h.11v.15h-2v-.15h.11a.76.76,0,0,0,.39-.07.33.33,0,0,0,.14-.22,4.68,4.68,0,0,0,0-.7V62.12a4.44,4.44,0,0,0,0-.67.29.29,0,0,0-.13-.21,1,1,0,0,0-.43-.06H16.1V61h2v.15H18a1,1,0,0,0-.42.05.28.28,0,0,0-.13.2,4.11,4.11,0,0,0,0,.69V63h2.28v-.87a4.67,4.67,0,0,0,0-.67.29.29,0,0,0-.13-.21,1,1,0,0,0-.43-.06H19V61h2v.15H20.9a1.06,1.06,0,0,0-.42.05.28.28,0,0,0-.13.2,4.09,4.09,0,0,0,0,.69v2.14a5.75,5.75,0,0,0,0,.67.34.34,0,0,0,.13.24.73.73,0,0,0,.4.08H21v.15H19v-.15h.15a.75.75,0,0,0,.38-.07.32.32,0,0,0,.14-.22,4.92,4.92,0,0,0,0-.7Z"/><path class="cls-1" d="M25.28,64h.15l-.09,1.36H21.73v-.15h.09a.68.68,0,0,0,.42-.09.39.39,0,0,0,.12-.22,5.11,5.11,0,0,0,0-.68V62.12a4.86,4.86,0,0,0,0-.66.31.31,0,0,0-.13-.22.88.88,0,0,0-.41-.06V61h3.12l.1,1.09h-.15a1.7,1.7,0,0,0-.25-.65.64.64,0,0,0-.36-.24,3.12,3.12,0,0,0-.66,0H23V63h.46a1.26,1.26,0,0,0,.45-.05.29.29,0,0,0,.17-.17,1.51,1.51,0,0,0,0-.43h.15v1.49h-.15a1.27,1.27,0,0,0-.06-.49.3.3,0,0,0-.18-.16,1.48,1.48,0,0,0-.4,0H23v1a2.23,2.23,0,0,0,.1.91q.1.14.54.14H24a1.54,1.54,0,0,0,.57-.09A1,1,0,0,0,25,64.8,2.13,2.13,0,0,0,25.28,64Z"/><path class="cls-1" d="M58.31,27.41c1-.66,2-1.32,3.15-2a.72.72,0,1,0-.74-1.24c-1.38.84-2.66,1.66-3.88,2.46a29.35,29.35,0,0,0-13-2.76,32.47,32.47,0,0,0-4.11.26,10.21,10.21,0,0,0-6.38-1.81c-6.93,0-12,2.75-15,8.17a.24.24,0,1,0,.43.24c2.9-5.25,7.78-7.92,14.53-7.92A10.18,10.18,0,0,1,39,24.23a26.87,26.87,0,0,0-11.69,4.58c-.43.29-.65.47-.68.49l-.06.07c-3,2.38-4.68,5.13-4.68,7.38a3.56,3.56,0,0,0,1.46,3,4.76,4.76,0,0,0,1,.55h0a8.72,8.72,0,0,0,3.41.59c9.38,0,14.29-7.6,14.29-11.68A6.33,6.33,0,0,0,40.65,25c1-.09,2.07-.14,3.19-.14a22.87,22.87,0,0,1,11.48,2.77c-8.17,5.6-12.92,10.91-18.85,22.11l-1,1.88c-6.67,12.68-13,24.66-25.25,24.66-2,0-3.27-.36-3.87-1.1S5.93,73,6.2,71.75s.5-2.43-.14-3.22a3.05,3.05,0,0,0-2.48-.81,3.67,3.67,0,0,0-2.67,1A3.24,3.24,0,0,0,0,71a6.09,6.09,0,0,0,2.26,4.42,9.87,9.87,0,0,0,6.66,2.22c11.26,0,21.53-7.76,30.51-23.07,2.37-4,4.19-7.37,5.8-10.31,4.21-7.7,6.47-11.84,11.5-15.74a14,14,0,0,1,5.93,11.71c0,8-6.1,14.7-13.31,14.7A9,9,0,0,1,43.2,52.7a.75.75,0,0,0-1.26.47.73.73,0,0,0,.16.55c.74.91,3,3,8.14,3,6,0,17.68-4.36,17.68-14.45C67.92,37.39,64.86,31.22,58.31,27.41ZM38.79,33.08c-3.26,4.76-10.07,8-14.31,6.72a4.25,4.25,0,0,1-.83-.48,3,3,0,0,1-1.26-2.57c0-2.14,1.61-4.75,4.48-7l.08,0a19.05,19.05,0,0,1,4.28-2.39,31,31,0,0,1,8.4-2.16C41,27.52,40.69,30.3,38.79,33.08Z"/></svg>
