<svg id="Layer_1" data-name="Layer 1" xmlns="http://www.w3.org/2000/svg" viewBox="0 0 100 100"><defs><style>.cls-1{fill:#FFFFFF;}</style></defs><title>ritzCarlton</title><path class="cls-1" d="M94.11,89.27V85.64c0-2-1.19-1.44-1.19-1.82,0-.06.06-.06.13-.06H94c.06,0,.19.13.25.19l4.64,5.2c.06.06.06.13.12.13v-4.2c0-1.32-1.06-.94-1.06-1.25,0-.06.06-.06.13-.06h1.82c.06,0,.13,0,.13.06,0,.25-.56.06-.56.81v5.64c0,.25,0,.38-.13.38s-.13,0-.31-.25l-4.2-4.7c-.06-.06-.13-.19-.25-.19s-.06,0-.06.19v4c0,.88.88.56.88.81,0,.06,0,.13-.13.13s-.5-.06-.94-.06-.88.06-.94.06-.13-.06-.13-.13C93.23,90.21,94.11,90.59,94.11,89.27Zm-5.2,1.44a3.31,3.31,0,0,1-3.38-3.57,3.48,3.48,0,0,1,3.57-3.51,3.37,3.37,0,0,1,3.51,3.45A3.47,3.47,0,0,1,88.91,90.71Zm-.13-6.77a2.68,2.68,0,0,0-2.57,2.95,3.31,3.31,0,0,0,3.13,3.51,2.65,2.65,0,0,0,2.57-2.95,3.31,3.31,0,0,0-3.13-3.51Zm-7.14,5.83V84.7c0-.06,0-.44-.13-.44H79.95c-.63,0-.63.19-.81.69,0,.13,0,.25-.13.25a.13.13,0,0,1-.13-.13l.13-.94c0-.13,0-.38.13-.38h5.64c.25,0,.25.06.31.25v.81c.06.06.06.19-.06.19-.38,0,.13-.75-.88-.75H82.77c-.44,0-.38,0-.38.5v5c0,.81.81.5.81.81a.12.12,0,0,1-.12.13c-.19,0-.5-.06-.75-.06a8.77,8.77,0,0,0-1.38.06c-.06,0-.06-.06-.06-.13,0-.25.75-.13.75-.75ZM76.13,84.7v4.76c0,.56-.06.81.75.81,2.26,0,2.57-1,2.69-1a.06.06,0,0,1,.06.06,1.41,1.41,0,0,1-.5.94.94.94,0,0,1-.94.38c-.75,0-1.5-.06-2.19-.06-.44,0-.82.06-1.19.06-.12,0-.19-.06-.19-.13s.12-.06.44-.25.31-.38.31-.81v-5c0-.5-.82-.44-.82-.63s.06-.13.19-.13h1.88c.13,0,.19,0,.19.13s-.69,0-.69.81Zm-4.7,2.38,1.63,2.51c.75,1.06,1.19.69,1.19.94s-.56.13-.63.13c-.69,0-1.06-.5-1.44-1.06l-1.13-1.69c-.31-.56-.19-.5-1.25-.5-.31,0-.25.13-.25.25v2.07c0,.81,1,.5,1,.88,0,.06-.06.06-.19.06a7.67,7.67,0,0,0-1.13-.06c-.31,0-.69.06-1.06.06a.13.13,0,0,1-.13-.13c0-.25.75-.13.75-.81v-5c0-.94-.88-.5-.88-.81,0-.06.06-.13.19-.13h2.26c.19,0,2.32-.19,2.32,1.69a1.82,1.82,0,0,1-1.25,1.63Zm-1.88-2.63v2.44c0,.19.56.13,1.06.13a1.27,1.27,0,0,0,1.32-1.38c0-1.19-.88-1.57-1.82-1.57-.38,0-.56,0-.56.38ZM65.6,89.08l-.31-.75c-.13-.25-.19-.38-.44-.38H62.72a.52.52,0,0,0-.5.19l-.63,1.38a2.72,2.72,0,0,0-.06.31c0,.69.69.38.69.63s-.13.19-.25.19-.56-.06-.81-.06-.5.06-.75.06a.13.13,0,0,1-.13-.13c0-.19.5-.06.75-.56l2.32-5c.56-1.19.56-1.38.69-1.38s.19.31.25.38l2,5a4.41,4.41,0,0,0,.5,1.13c.25.44.82.19.82.44s-.06.13-.13.13c-.38,0-.75-.06-1.19-.06-.25,0-.5.06-.75.06-.06,0-.25,0-.25-.13s.63-.13.63-.5C65.91,89.84,65.66,89.4,65.6,89.08Zm-1.88-4.14-1.06,2.38c-.06.12,0,.19.13.19h1.94c.19,0,.19-.06.13-.19l-.94-2.38q-.09-.19-.19,0ZM51.57,86.51A4.37,4.37,0,0,1,56,81.94a6,6,0,0,1,3.26.94c.13,0,.19-.13.31-.13s.13.19.19.94.13,1.06-.12,1.06-.19-.31-.25-.37a3.47,3.47,0,0,0-3.2-2.13c-2.38,0-3.51,1.57-3.51,3.89,0,2.07,1.19,4.2,3.57,4.2a3.57,3.57,0,0,0,3.26-1.75.28.28,0,0,1,.19-.19c.06,0,.12.13.06.13l-.25,1.25c0,.06-.88.94-3.63.94a4.06,4.06,0,0,1-4.26-4.2Zm-3.2,1.38,1.82-.69a2.58,2.58,0,0,1,.44-.13c.13,0,.13.19.13.31,0,.44,0,.38-.38.5l-1.82.69a1.6,1.6,0,0,1-.44.13c-.13,0-.06-.19-.06-.25C48.06,88,48,88,48.37,87.89Zm-1.69-3.7-3.26,5.51a.62.62,0,0,0-.13.37c0,.06.13.13.38.13h1.82c1.25,0,1.19-.69,1.57-.69.06,0,.06.13.06.19l-.38.63a.39.39,0,0,1-.44.25h-4a.13.13,0,0,1-.13-.13.23.23,0,0,1,.06-.19l3.38-5.76a.49.49,0,0,0,.19-.25.06.06,0,0,0-.06-.06H43.67c-1.32,0-1,1-1.32,1a.13.13,0,0,1-.13-.13l.13-1c.06-.25.06-.31.38-.31h3.76c.25,0,.31.06.31.19a.32.32,0,0,1-.12.25Zm-8.33,5.58V84.7c0-.06,0-.44-.13-.44H36.65c-.63,0-.63.19-.81.69,0,.13-.06.25-.19.25s-.06-.06-.06-.13l.06-.94c.06-.13,0-.38.19-.38h5.64c.25,0,.25.06.25.25l.06.81c0,.06.06.19-.06.19-.38,0,.13-.75-.88-.75H39.47c-.44,0-.38,0-.38.5v5c0,.81.75.5.75.81,0,0,.06.13-.06.13s-.5-.06-.81-.06a8.22,8.22,0,0,0-1.32.06.13.13,0,0,1-.13-.13c0-.25.81-.13.81-.75Zm-5-.19v-5c0-.69-.75-.5-.75-.75,0-.06,0-.06.06-.06h2c.13,0,.19,0,.19.06,0,.25-.75,0-.75.75v5.26c0,.63.88.44.88.69,0,.06,0,.13-.19.13s-.63-.06-1.07-.06-.75.06-.94.06a.17.17,0,0,1-.19-.19c0-.25.75.06.75-.88Zm-4.76-3.32,2,3.07c.88,1.32,1.5.88,1.5,1.19,0,.13-.69.13-.81.13-.88,0-1.38-.63-1.82-1.32L28.13,87.2c-.44-.69-.31-.63-1.63-.63-.44,0-.31.19-.31.31v2.57c0,1.06,1.25.69,1.25,1.06,0,.13-.13.13-.19.13s-.44-.06-1.44-.06c-.44,0-.94.06-1.38.06a.13.13,0,0,1-.13-.13c0-.31.88-.13.88-1.06v-6.2c0-1.19-1-.69-1-1.07a.2.2,0,0,1,.19-.19,6.79,6.79,0,0,0,.81.06c.69,0,1.38-.06,2-.06.19,0,2.88-.25,2.88,2.13a2.37,2.37,0,0,1-1.5,2.13Zm-2.38-3.38v3.07c0,.25.75.19,1.32.19a1.59,1.59,0,0,0,1.69-1.75c0-1.44-1.13-1.94-2.32-1.94-.44,0-.69-.06-.69.44Zm-8.77,1.88v1.82c0,.31,0,.31.38.31h1.07c1,0,.75-.75.94-.75s.13.06.13.19v1.75a.13.13,0,0,1-.13.13c-.31,0,.06-.88-.75-.88H17.61c-.25,0-.19.19-.19.31v1.82c0,.56-.06.81.75.81,2.26,0,2.57-1,2.69-1a.06.06,0,0,1,.06.06,1.41,1.41,0,0,1-.5.94.94.94,0,0,1-.94.38c-.75,0-1.44-.06-2.19-.06-.44,0-.81.06-1.19.06-.13,0-.19-.06-.19-.13s.13-.06.44-.25.31-.38.31-.81V85c0-.44,0-.94-.56-1-.06,0-.25-.06-.25-.13s0-.13.31-.13H20.3c.06,0,.13.06.13.19,0,1.06-.13,1.19-.19,1.19-.25,0-.13-.5-.25-.69-.25-.38-1.25-.31-1.69-.31-.87,0-.87,0-.87.62ZM9.09,89.58v-5c0-.69-.81-.5-.81-.75,0-.06.06-.06.13-.06h2a.28.28,0,0,1,.19.06c0,.19-.75,0-.75.75V86.7c0,.13,0,.13.19.13H13.6c.06,0,.06-.19.06-.25v-2c0-.69-.75-.5-.75-.75,0-.06.06-.06.19-.06h1.69c.25,0,.31.06.31.13s-.69,0-.69.69v5.14c0,.75.88.56.88.81,0,0,0,.13-.06.13-.31,0-.56-.06-.94-.06-.63,0-.88.06-1.06.06s-.25,0-.25-.13.69-.13.69-.75V87.45c0-.12.06-.25-.06-.25H10c-.13,0-.13.06-.13.19v2.44c0,.63.94.44.94.75a.22.22,0,0,1-.13.06c-.13,0-.88-.06-1.38-.06a2.56,2.56,0,0,0-.81.06c-.06,0-.13-.06-.13-.19s.75.06.75-.88Zm-5.64,0V83.26c0-.06.06-.56-.13-.56h-2c-.75,0-.75.19-1,.88,0,.13-.06.25-.19.25A.13.13,0,0,1,0,83.7L.13,82.5c0-.13,0-.5.25-.5.94,0,1.88.06,3.45.06C6,82.06,7.14,82,7.39,82s.31.13.31.38l.06,1a.15.15,0,0,1-.13.25c-.44,0,.19-.94-1-.94H4.89c-.56,0-.5-.06-.5.63v6.2c0,1,1,.63,1,1a.12.12,0,0,1-.13.13c-.31,0-.63-.06-1-.06a12.35,12.35,0,0,0-1.63.06.17.17,0,0,1-.19-.19c0-.25,1-.12,1-.88Zm46.12-79c1.82-.06,3.63.25,3.88.13a6.76,6.76,0,0,0,2.44-1.13,1.67,1.67,0,0,1,2.19.19l.81.56c.5.5,1.44,1.69,1.69,1.94a1.42,1.42,0,0,0,.94.25c1.63-.06,3.76,1.25,4.13,2.76.25.94.81,4.2.88,4.39.38.63,1.07,1.5,1.13,1.75.31.56-.5.19-.38.81a1.68,1.68,0,0,0,1.13,1.44c1.32,1.5,1.32,2.95,1.19,3s-1.06-.19-1.13-.13v.31c.94,2.82,1.88,4.64-.31,8.21a4.45,4.45,0,0,0-.82,1.94c0,.31.19,1.19.19,1.75A5,5,0,0,1,66.23,42c-1.57,2.38-2.51,4.76-.44,7.33,1.13,1.38,2.19,1.94,3.82.94.5-.5.56-.94.94-.94.75.56.94,2,.82,3.07A4.12,4.12,0,0,1,68,55.87c-4.7,1.13-6.83-1.13-7.52-1.25-1.32-.19-6.2-.25-8.77-2.13-1.19-1-1.75-1.69-2.13-1.63-1.63.38-2,2.57-6,3.13a12.46,12.46,0,0,0-3.51.5c-2.57,1.63-5.45,2.88-9.46,1.57-2.13-.82-5.14-4.51-2.51-6.89a6.39,6.39,0,0,0,2.19,2.07,4.79,4.79,0,0,0,4.57-.88,4.74,4.74,0,0,0,1.57-2.82l.31-6.14a12.25,12.25,0,0,1,1.5-4.64c.31-.5,1.19-1.38,1-1.94s-.5-.44-.81-.63A2.45,2.45,0,0,1,37.78,33a15.27,15.27,0,0,0-.63-1.63c-.56-.81-2.38-1.25-3.45-1.19-.63.25-.75.63-1.19.25a1,1,0,0,1-.19-1.38c.5-.75.75-1,2.82-1.13.81.06,1.88.69,2.13.44.38-.44-.88-1.69-1.13-1.82-.63-.25-1-.31-1.38-1.13s-1-2.88-1.13-3a3.13,3.13,0,0,1-.81-1.32,1.75,1.75,0,0,1,.44-1.63l.31-.19a15.18,15.18,0,0,0,1.32-.81l.44-.31a35.14,35.14,0,0,1,3.57-1.82l.44-.25c.69-.56.63-.81,1.07-1.75a1.51,1.51,0,0,1,.5-.56A11.45,11.45,0,0,1,43,13.08a16.84,16.84,0,0,0,4.2-.56c.81-.38,1.5-1.88,2.38-1.88ZM58,18.28c-.19-.19-.5-.69.25-.44a9.14,9.14,0,0,1,5.14,4.64c1.5,2.63,1.19,4.26-.25,6.58-.38.63-2.32,2.69-2.57,3.2A7.45,7.45,0,0,0,58.46,35c-.12.25.13.38.38.25A23.45,23.45,0,0,0,64.72,31a5,5,0,0,0,.81-5.26c-.13-.38-.69-1.25-1-1.94-.25-.5-.5-1.57-.75-2.32a5.13,5.13,0,0,0-1.94-2.63,18,18,0,0,1-3.2-2.57c-.44-.63-.06-1,.31-1.75.94-1.32-1.19-4.64-2.63-4.26-.94.38-.25.31-2.44,1.44a1.75,1.75,0,0,0-.75,2.63c.44.44,1.19,1.06,1.38,1.25,0,.06.13.25-.12.31s-.38.31-.63.13A4.81,4.81,0,0,1,53,15.4c-.44-.38-1.94-1.44-2.13-1.57-1.44-.56-5.76-.5-7.39-.25a5.8,5.8,0,0,0-1.94.63c-.06.06-.69.88-.56.94h.19c.25-.06.88-.44,1.19-.56s1.75.13,2,.56c-.06,0-.69-.06-1.07-.06-1.07.25-.38,1.32-.06,1.25H44v.25l-.06.19-.38.44c-.13.13-.06.13.19.13.5-.06.75-.13.75.13a3.55,3.55,0,0,1-1.5.94c-.56.19-.38-.13-.88-.56-.13-.13-.81-.31-1-.44l-.25-.25c-.25-.69-.06-1-.5-.81a63.77,63.77,0,0,0-6,2.94,2.13,2.13,0,0,0-.38.38c-.25.44-.44.75-.38,1s.13.38.31.5.75-.31,1.19-.5c.19-.13.31-.06.38.13s-.5.88-.63,1.13c-.5.94,0,2.07.5,3,.31.56.5.13.94-.25.63-.69,2.57-.81,3.26-1.19A7.16,7.16,0,0,1,41,22.54a1.71,1.71,0,0,1,1.69,1.07,11.94,11.94,0,0,0,2.32,2.13,1.43,1.43,0,0,1,.75,1.44c-.06.13-1.88.31-2.76.69a4.24,4.24,0,0,0-1.69,1.44c-2.38,1.94-2.69,1.32-3.13,1.82s.44,2.57,1.32,2.57c1.13-.06,1.06.38,2.19-.19a3.49,3.49,0,0,0,.88-1.19,8.13,8.13,0,0,1,.94-1.82,5.8,5.8,0,0,1,3.82-2.19c.56-.13,3.57.38,4.45-.13,1.13-.88.63-1.75-.25-1.82a2.38,2.38,0,0,0-.94,0l-.69.06a1.77,1.77,0,0,1,.06-.5c.69-1.69,2.44-2.63,4.51-2.95.19,0,.19-.06.5.19.13.06.13.25.06.38a3.63,3.63,0,0,0-.63,1.5c-.38,2-.06,1.82-.94,3.13a5.2,5.2,0,0,1-2.63,1.13,25.13,25.13,0,0,0-7.39,3.51A25.9,25.9,0,0,0,40,35.95a12.93,12.93,0,0,0-2.32,9.34c.19,2.07-.19,5.26-1.25,6.45a5.81,5.81,0,0,1-6,1.25,1,1,0,0,0-.56-.31.41.41,0,0,0-.5.31c.19,1.07,1.88,2.19,3.63,2.44a6.22,6.22,0,0,0,3.32-.75l.75-.56L37,53.37S39,52.3,39.35,48.29c.06-1.06.13-3.63.06-4l-.19-.94c-.13-.63.13-5.76,1-7a6.25,6.25,0,0,1,2.07-1.94c3.63-2.19,8.27-2.57,11.53-5.14,2.88-2.19,3.57-3.7,3.32-5.83-.56-2.63-2.19-2.82-3.38-3.38-.31-.13-.25-.56-.5-1A8.5,8.5,0,0,0,52.19,18a1.37,1.37,0,0,1-.31-.25c-.38-.38.56-.5.5-.5a1.7,1.7,0,0,1,.56,0c1.69.19,4.14.75,5.26,2.13A5.39,5.39,0,0,1,59.59,24a7.66,7.66,0,0,1-3.95,5.14,38.62,38.62,0,0,1-8.21,4.07l-3,1.44A5.57,5.57,0,0,0,42,37.14a12.09,12.09,0,0,0-.81,6.77c.06.88-.25,1.44.13,1.94.06.19.19.25.44.31.63-1.94-.06-4.7,2.44-7.52a14.44,14.44,0,0,1,5-3.82,1.06,1.06,0,0,1,.63-.19l-.06.63a19.82,19.82,0,0,1-.88,1.94c-.31.81-1.19,4.2-.81,5.51.5,2.82.75,4.76,3.32,7A5.8,5.8,0,0,0,56.7,50.8c.25-.13.38-.31.13-.63a2.11,2.11,0,0,0-.75-.38,9.37,9.37,0,0,1-4.95-6.08,17.74,17.74,0,0,0-.63-2.19c-.06-.19-.25-.19-.31.06-.13.44-.06,1.13-.19,1.25-.44.31-.81-1.69-.81-1.75-.63-4.14,2.57-7.52,3.51-8.58a10,10,0,0,1,2.07-1.75c.31-.13.63,0,.56.13-.13.31-1.63,2.51-1.94,3.2a28,28,0,0,0-1,3.63c.13.69.44,1.44.94,0a25.48,25.48,0,0,1,3.2-5.64c2.63-3.32,2.26-3.57,3.51-5.14.06-.13.25-.06.31.13a1,1,0,0,1,.13.69c0,.25-.13,1.07.13,1.13s.25,0,.56-.88a12.35,12.35,0,0,0,.44-2.51,11.36,11.36,0,0,0-.13-1.57c-.31-2.38-1.57-3.76-3.51-5.64Zm.25,27.63c.31,3,4.07,8.83,8.4,7.64.56-.13.75,0,1.32-.5.13-.06.5-.38.25-.56l-1.38-.31c-1.82.19-3.95-1.94-4.39-3.51l-.5-1.38c-.13-.38-.31-1.5-.63-1.63h-.13c-.06,0-.19.38-.31.56-1.82-.69-1.44-4.14-.69-5.2l1.38-1.88c1.25-1.19,3.7-3.38,3.82-3.63,0,0,.5-.94.63-1.19s.06-.31-.06-.38l-3.63,2.38a51.48,51.48,0,0,1-4.89,2.38,4.61,4.61,0,0,0-1.07,6.52c.13.13.25.25.44-.06s.31-1.88.5-2.82c.06-.38.69-1.94,1.32-1.82l.06.13a18,18,0,0,1-.44,2,18.76,18.76,0,0,0,0,3.26ZM44.86,50.3c-.13-.13-.06-.25.06-.56s.56-.75.75-1.07a6.5,6.5,0,0,0,1.07-4.57c-.06-.88-.44-2-.5-2.76-.13-1.13,0-1.94-.5-1.69A5.8,5.8,0,0,0,44,43.53c-.06,1.25.13,4.07.06,4.64a7.2,7.2,0,0,1-.63,2.26c-.19.44-.63.94-.69,1.13-.19.44.25.44.81.31a4.9,4.9,0,0,0,2.13-1.06s.44-.38.19-.56c-.06,0-.81.19-1.06.06ZM33.08,29.68a3.31,3.31,0,0,0,.81-.06,7,7,0,0,1,2.26.5,1.37,1.37,0,0,0,1.06.13,1,1,0,0,0,.56-.13c.56-.38.06-.75,0-.75a22.56,22.56,0,0,0-2.19-.75,3.5,3.5,0,0,0-1.07-.25c-.94.19-1.32.5-1.44.75A.78.78,0,0,0,33.08,29.68Zm6.08-.94a.43.43,0,0,0-.5.19c-.13.06-.06.13-.06.31s.44.81.63.88.25.13.31.06.44-.31.38-.5A1.31,1.31,0,0,0,39.16,28.74Zm.38-.94c-.06.19.31.75.56.63a4.41,4.41,0,0,0,1-.88c.06-.19.19-.44.13-.5a.88.88,0,0,0-.75-.13A1.73,1.73,0,0,0,39.54,27.8Zm-1.82-1.07V25.8a.93.93,0,0,0-.06-.38,1.31,1.31,0,0,1-.25-.38.2.2,0,0,0-.13-.06c-.13-.06-.19,0-.31.06a1.41,1.41,0,0,0-.31.31c-.06,0-.13.13-.13.25a2.22,2.22,0,0,0,.38.81.87.87,0,0,1,.25.19,1,1,0,0,0,.56.13Zm26.19-7.14c.19.19.75.44.94.31s.13-.81.06-1.07A4.75,4.75,0,0,0,64,16.77a4.9,4.9,0,0,0-1.63-1.07c-1.19,0-.75.88-.75.88a15.38,15.38,0,0,0,2.26,3ZM50.75,12.7a.73.73,0,0,0,.38-.88,1.18,1.18,0,0,0-.5-.13c-.25-.06-.56.25-.56.56a.46.46,0,0,0,.69.44ZM46.43,25.92a2.08,2.08,0,0,1-1.19-1c-.13-.19-1.57-2.07-2.19-2.19-.38-.06-.44,0-.63-.25-.63-1-.69-1.88-1.82-2.51-.13-.06-.38-.38-.19-.56a.67.67,0,0,1,.5,0,4.18,4.18,0,0,1,2.44,1.5c.38.56.44,1,.88,1.38a4.37,4.37,0,0,1,.56.38,3.91,3.91,0,0,1,.88,1.13c.31.63.56,1.19.88,1.94.06.19,0,.25-.13.19Zm-10-5.51a.76.76,0,0,1-.5-.13s-.06-.06-.06-.31a.65.65,0,0,1,.38-.5c.06,0,.25-.19.44-.19h.63c.06,0,0,.13-.06.19a7.83,7.83,0,0,1-.56.75A.28.28,0,0,1,36.4,20.41Zm19.36-5c-.5-.06-2.13-1-2.19-1.44a1.35,1.35,0,0,1,0-.88,3.25,3.25,0,0,1,1.82-1.5c.31-.06.31.13.31.19A7.66,7.66,0,0,0,55.58,13c0,.38.44,1.19.81,1.19a.88.88,0,0,0,.38-.13,2,2,0,0,0,.82-.81c.13-.38.19-.44.31-.75s.25-.13.44.19a1.42,1.42,0,0,1,0,1.13A1.94,1.94,0,0,1,57.2,15a2.27,2.27,0,0,1-.81.31,1.13,1.13,0,0,1-.63.06ZM49.5,52.05a3.9,3.9,0,0,1,1.25,1c.31.31,1.5,1.57,1.94,1.63.25,0,.56.44.56.44s-.06.31-.56.44a1.46,1.46,0,1,0,.25,2.88,2.75,2.75,0,0,0,2.26-1.06c.38-.38.56-.06.56-.06a16,16,0,0,1,1.06,1.38c.06.06.44.44-.13.94s-1.06.94-1.19,1.06-.44.38-.75-.06a1.94,1.94,0,0,0-2.94-.5C50.5,61.2,50.69,63.27,52.88,64a6.73,6.73,0,0,0,5.83-.56,1.72,1.72,0,0,0,.75-1,3.1,3.1,0,0,0,.19-2.07c-.13-.25-.38-.69-.38-.69s-.31-.44-.06-.69a10.52,10.52,0,0,1,1.19-1.07s.75-.5,1.13.06l.69,1.25s.19.31-.19.88-.61,1-.94,1.44A2.08,2.08,0,0,0,61,63a6.88,6.88,0,0,0,.63,1.38,2.79,2.79,0,0,0,2.07.94,4.37,4.37,0,0,0,2.76-1.13c.13-.19,1.13-1.88-.88-2.32-.69-.06-1.06.06-1.32,0a2.79,2.79,0,0,1-.81-1.25c-.06-.56.25-.69.25-.69a2.58,2.58,0,0,1,1.13-.75c.44-.06.5,0,.81.31a7.85,7.85,0,0,0,.75.75.83.83,0,0,0,1.32-.94c-.44-.82-.5-.82-.69-1.19,1.63-.5,3.26-2,4.45-2.76-.12.31-4.14,8.9-4.26,9.21a3.46,3.46,0,0,0-.13,2.13,1.56,1.56,0,0,1-.19,1.69,29.21,29.21,0,0,0-1.32,4.82c.06.25.06.44.38.5v1.07c-.13.25-.75,1-1.19.94H34.15c-.44.06-1.13-.69-1.19-.94V73.67c.25-.06.31-.25.31-.5A23.81,23.81,0,0,0,32,68.34a1.56,1.56,0,0,1-.19-1.69,3,3,0,0,0-.19-2.13c-.13-.31-4.2-9.21-4.2-9.21A19.38,19.38,0,0,0,32,58.07s-.5.75-.75,1.19a.8.8,0,0,0,1.25.94s.5-.44.81-.75.38-.38.81-.31a2.58,2.58,0,0,1,1.13.75s.31.13.25.69a2.79,2.79,0,0,1-.81,1.25c-.31.06-.63-.06-1.32,0-2,.44-1,2.13-.88,2.32a4.2,4.2,0,0,0,2.76,1.13,2.79,2.79,0,0,0,2.07-.94A3.78,3.78,0,0,0,37.84,63a1.73,1.73,0,0,0-.06-1.38c-.13-.25-.63-1-.94-1.44s-.13-.88-.13-.88A10.35,10.35,0,0,1,37.41,58c.31-.56,1.13-.06,1.13-.06A7.28,7.28,0,0,1,39.66,59c.25.25,0,.69,0,.69s-.25.44-.38.69a3.44,3.44,0,0,0,.13,2.07c.38.81.75,1,.81,1A6.63,6.63,0,0,0,46,64c2.32-.75,2.51-2.82,1.07-3.88a1.88,1.88,0,0,0-2.88.5c-.38.44-.63.13-.75.06s-.69-.56-1.19-1.06-.19-.88-.13-.94a16.27,16.27,0,0,1,1.07-1.38s.19-.31.5.06A3,3,0,0,0,46,58.44c.19.06,1.63.06,1.69-1.25a1.44,1.44,0,0,0-1.44-1.63.87.87,0,0,1-.63-.44s.38-.44.56-.44c.44-.06,1.69-1.32,2-1.63a4.51,4.51,0,0,1,1.31-1ZM64.16,73.23a2.57,2.57,0,0,0,0-.69c-.06-.25-.38-.94-.44-1.32A3.17,3.17,0,0,1,64.16,69c.81-.38.94.31.81-.69H34c-.06,1,0,.31.88.69a4.07,4.07,0,0,1,.44,2.19,8,8,0,0,0-.44,1.32s-.13.63-.06.69S64.16,73.29,64.16,73.23ZM33.71,71h.38v-.75h-.38Zm31,0H65v-.75h-.38ZM33.21,67.65H65.6c.13,0,.19-.06.19-.13v-.88c0-.06-.06-.13-.19-.13H33.21c-.13,0-.13.06-.13.13v.88c0,.06,0,.13.13.13Zm1.44,7.08H64.29a.14.14,0,0,0,.13-.13v-.5a.14.14,0,0,0-.13-.13H34.65a.13.13,0,0,0-.13.13v.5a.13.13,0,0,0,.13.13Zm22.24-2.26a1.35,1.35,0,0,1-1.38-1.38v-.63a1.32,1.32,0,0,1,1.38-1.38h2.95a1.39,1.39,0,0,1,1.38,1.38v.63a1.39,1.39,0,0,1-1.38,1.38Zm1.44-.69c.75,0,1.38-.44,1.38-1s-.63-1-1.38-1-1.38.44-1.38,1S57.58,71.79,58.33,71.79Zm-19.11.69a1.39,1.39,0,0,1-1.38-1.38v-.69A1.39,1.39,0,0,1,39.22,69h2.94a1.39,1.39,0,0,1,1.38,1.38v.69a1.39,1.39,0,0,1-1.38,1.38Zm1.5-.75c.75,0,1.32-.44,1.32-1a1.21,1.21,0,0,0-1.32-1c-.75,0-1.38.5-1.38,1S40,71.73,40.73,71.73Zm7.58.75a1.35,1.35,0,0,1-1.38-1.38v-.69A1.35,1.35,0,0,1,48.31,69h2.88a1.39,1.39,0,0,1,1.38,1.38v.69a1.39,1.39,0,0,1-1.38,1.38Zm1.44-.75c.75,0,1.32-.44,1.32-1a1.21,1.21,0,0,0-1.32-1c-.75,0-1.38.5-1.38,1S49,71.73,49.75,71.73Zm-13.1-.31a.43.43,0,0,1-.44-.42s0,0,0,0a.43.43,0,0,1,.42-.44h0a.44.44,0,0,1,0,.88Zm8.58,0A.43.43,0,0,1,44.8,71s0,0,0,0a.44.44,0,1,1,.46.44Zm17.23,0A.43.43,0,0,1,62,71s0,0,0,0a.44.44,0,1,1,.46.44Zm-8.4,0a.43.43,0,0,1-.44-.42s0,0,0,0a.44.44,0,1,1,.46.44Z"/></svg>
