<svg id="Layer_1" data-name="Layer 1" xmlns="http://www.w3.org/2000/svg" viewBox="0 0 100 100"><defs><style>.cls-1{fill:#FFFFFF;}</style></defs><title>sheraton</title><path class="cls-1" d="M43.26,18.91a4.94,4.94,0,0,0,.87-1.12,1.6,1.6,0,0,1,.81-.66c.1,0,.28-.2-.15-.25a1.34,1.34,0,0,0-.51.05A3.27,3.27,0,0,0,42.11,19c-.13.25-.48.66-.36.74s.33-.08.59,0a4.7,4.7,0,0,0,2.9,0c.46-.15.56-.41.38-.38-.48-.05-1-.38-1.71-.48a1.15,1.15,0,0,0-.66.05Z"/><path class="cls-1" d="M57.13,18.91a4.54,4.54,0,0,1-.87-1.15,1.73,1.73,0,0,0-.81-.66c-.1,0-.28-.18.15-.23a1.31,1.31,0,0,1,.51.05A3.29,3.29,0,0,1,58.27,19c.13.28.48.66.36.74s-.33-.05-.58,0a4.81,4.81,0,0,1-2.88,0c-.48-.15-.58-.43-.41-.41.48-.05,1-.38,1.71-.48a1.16,1.16,0,0,1,.66.08Z"/><path class="cls-1" d="M13.28,82.11v-.29h-.46V77.17h.46v-.28H11.13v.3h.47v2.06h-2V77.17h.47v-.28H7.92v.28h.46v4.65H7.92v.29h2.14v-.29H9.6V79.54h2v2.28h-.47v.29Zm6.22-2.57a2.46,2.46,0,0,0-2.56-2.78,2.53,2.53,0,0,0-2.63,2.76,2.6,2.6,0,1,0,5.19,0Zm-1.28,0c0,1.46-.35,2.42-1.28,2.42s-1.33-1.25-1.33-2.42.26-2.65,1.33-2.65S18.22,78.4,18.22,79.55Zm6.9-.68v-2H20.51v2h.14c0-1.56,1-1.7,1.37-1.7h.12v4.65h-.47v.29h2.15v-.29h-.47V77.17h.14A1.51,1.51,0,0,1,25,78.87Zm5.75,3.24V80.27h-.17a1.51,1.51,0,0,1-1.4,1.56H27.8V79.56h.62c.53,0,.88.24.88,1.12h.16V78.25H29.3a1,1,0,0,1-.88,1.06H27.8V77.17H29c1.22,0,1.46.31,1.67,1.61h.13v-1.9H26.12v.28h.46v4.65h-.46v.29h4.75Zm5.19,0V80h-.15c-.15.8-.41,1.79-1.76,1.79h-.59V77.17H34v-.28H31.88v.28h.46v4.65h-.46v.29h4.19Zm5.48-1.67a1.76,1.76,0,0,0-1.88-1.78c-1.08,0-1.91,0-1.91-.81S38.47,77,39,77a2.07,2.07,0,0,1,2,1.6h.2V76.89H41c0,.16,0,.38-.19.38A4.89,4.89,0,0,0,39,76.75a1.69,1.69,0,1,0,0,3.37c1,0,1.93.07,1.93.89s-.8.94-1.53,1a2,2,0,0,1-2.06-1.73h-.19v1.88h.19s0-.38.27-.38c.42,0,.6.51,1.82.51,1.44,0,2.19-.84,2.19-1.81Zm7.94.26H49.3c0,.25,0,.68-.35.68s-.69-.52-.69-.52a3.19,3.19,0,0,0,.35-1.61,2.37,2.37,0,0,0-.06-.44l-.28.06A3.17,3.17,0,0,1,48,80.68L46.37,79c.25-.16.92-.49.92-1.17a1,1,0,0,0-1.16-1.06,1.46,1.46,0,0,0-1.54,1.36c0,.51.21.76.6,1.25-.28.13-1.25.6-1.25,1.54,0,.55.4,1.33,1.74,1.33a2.59,2.59,0,0,0,1.83-.47,1.08,1.08,0,0,0,.82.31c1,0,1.12-.69,1.15-.92a2.83,2.83,0,0,0,0-.46Zm-2.71-2.88a1.1,1.1,0,0,1-.59,1s-.72-.63-.72-1.18a.67.67,0,0,1,.67-.67c.4,0,.64.44.64.87Zm.55,3.77a2.09,2.09,0,0,1-1,.33,1.32,1.32,0,0,1-1.24-1.39,1.14,1.14,0,0,1,.37-.89l1.88,2Zm10-.72h-.17c0,.34-.1.87-.37.87s-.26-.33-.31-1.06a1.13,1.13,0,0,0-1-1.19,1.26,1.26,0,0,0,1.19-1.26c0-.74-.31-1.35-1.63-1.35H51.89v.28h.47v4.65h-.47v.29H54v-.29h-.47V79.62h.81c.81,0,.81.35.81,1.33s.56,1.29,1.1,1.29c.83,0,1.06-.53,1.06-1.37Zm-1.92-2.56a.91.91,0,0,1-1,1h-.81V77.17h.89c.71,0,1,.51,1,1.14Zm7.68,3.8V80.27h-.17a1.51,1.51,0,0,1-1.4,1.56H60V79.56h.62c.53,0,.88.24.88,1.12h.16V78.25h-.16a1,1,0,0,1-.88,1.06H60V77.17h1.15c1.22,0,1.46.31,1.67,1.61H63v-1.9H58.36v.28h.46v4.65h-.46v.29H63.1Zm5.48-1.67a1.76,1.76,0,0,0-1.88-1.78c-1.08,0-1.91,0-1.91-.81s.72-.85,1.28-.85a2.06,2.06,0,0,1,2,1.6h.2V76.89H68c0,.16,0,.38-.19.38A4.9,4.9,0,0,0,66,76.75a1.69,1.69,0,1,0,0,3.37c1,0,1.93.07,1.93.89s-.8.94-1.53,1a2,2,0,0,1-2.06-1.73h-.19v1.88h.19s0-.38.27-.38c.42,0,.6.51,1.82.51,1.44,0,2.19-.84,2.19-1.81Zm6.19-.9a2.46,2.46,0,0,0-2.56-2.78,2.53,2.53,0,0,0-2.63,2.76,2.6,2.6,0,1,0,5.19,0Zm-1.28,0C73.5,81,73.14,82,72.21,82s-1.33-1.25-1.33-2.42.26-2.65,1.33-2.65S73.5,78.4,73.5,79.55Zm7.74,1.31h-.17c0,.34-.1.87-.37.87s-.26-.33-.31-1.06a1.13,1.13,0,0,0-1-1.19,1.26,1.26,0,0,0,1.19-1.26c0-.74-.31-1.35-1.63-1.35H75.78v.28h.47v4.65h-.47v.29h2.15v-.29h-.47V79.62h.81c.81,0,.81.35.81,1.33s.56,1.29,1.1,1.29c.82,0,1.06-.53,1.06-1.37Zm-1.92-2.56a.91.91,0,0,1-1,1h-.81V77.17h.89c.71,0,1,.51,1,1.14Zm7.55.56v-2H82.25v2h.14c0-1.56,1-1.7,1.37-1.7h.12v4.65h-.47v.29h2.15v-.29h-.46V77.17h.14a1.51,1.51,0,0,1,1.49,1.7h.14Zm5.48,1.56a1.76,1.76,0,0,0-1.88-1.78c-1.08,0-1.91,0-1.91-.81s.72-.85,1.28-.85a2.07,2.07,0,0,1,2,1.6H92V76.89h-.2c0,.16,0,.38-.19.38a4.9,4.9,0,0,0-1.84-.51,1.69,1.69,0,1,0,0,3.37c1,0,1.93.07,1.93.89s-.8.94-1.53,1a2,2,0,0,1-2.06-1.73h-.2v1.88h.2s0-.38.27-.38c.42,0,.6.51,1.82.51,1.44,0,2.19-.84,2.19-1.81ZM46.49,50.82a8.25,8.25,0,0,0-2.37.54,2.89,2.89,0,0,1-1.88,0c-.14-.05-.57-.08-.05.49a2.45,2.45,0,0,0,.74.49c1.74.84,3.29.49,5.17-.35.46-.22,1.22-.19,1.22-.44s-.41-.41-.68-.79a8.55,8.55,0,0,0-3.87-3.27c-.82-.33-1.2-.08-1,.14.6.57.9,1.63,1.69,2.53a2.23,2.23,0,0,0,1,.65ZM49.16,50c0-.57.87-1.44,1-2,.19.52,1,1.39,1,2a1,1,0,0,1-2.07,0Zm0,2.83c0,.57.87,1.47,1,2,.19-.52,1-1.42,1-2a1,1,0,0,0-2.07,0Z"/><path class="cls-1" d="M41.35,48.67a8.32,8.32,0,0,0-2.37-.3,3,3,0,0,1-1.69-.6c-.11-.11-.49-.3-.22.44a2.48,2.48,0,0,0,.49.65c1.33,1.36,2.86,1.55,4.82,1.39.52,0,1.36.16,1.42-.08s-.35-.44-.49-.84a8.35,8.35,0,0,0-2.42-4.27c-.63-.54-1.09-.44-.93-.16.35.71.27,1.77.71,2.86a2.48,2.48,0,0,0,.68.93Z"/><path class="cls-1" d="M37.13,44.84a6.83,6.83,0,0,0-2.07-.93,2.78,2.78,0,0,1-1.39-1c-.08-.14-.38-.41-.35.33a3.85,3.85,0,0,0,.3.79c.82,1.58,2.18,2.2,4,2.59.46.14,1.2.52,1.31.33s-.22-.49-.19-.93a8,8,0,0,0-1.06-4.57c-.38-.71-.84-.73-.76-.41.11.74-.24,1.69-.16,2.8A2.34,2.34,0,0,0,37.13,44.84Z"/><path class="cls-1" d="M34.57,40.21A7.47,7.47,0,0,0,33,38.74a2.37,2.37,0,0,1-1-1.36c-.05-.14-.24-.46-.44.22a4.9,4.9,0,0,0,.05.79C31.9,40.1,33,41.05,34.51,42c.41.27,1,.82,1.12.71s-.05-.52.08-.9a7.69,7.69,0,0,0,.41-4.52c-.16-.76-.57-.9-.57-.6-.14.71-.74,1.47-1,2.53a2.23,2.23,0,0,0,0,1Z"/><path class="cls-1" d="M33.7,35a7.5,7.5,0,0,0-.92-1.82,2.47,2.47,0,0,1-.35-1.52c0-.11-.05-.49-.44.05a3.46,3.46,0,0,0-.25.71c-.33,1.58.3,2.78,1.33,4.11.27.35.54,1.06.71,1s.16-.46.41-.74A7.28,7.28,0,0,0,36,32.89c.11-.71-.19-1-.27-.74-.35.6-1.17,1.06-1.69,1.91a1.54,1.54,0,0,0-.35.9Z"/><path class="cls-1" d="M34.38,30A7,7,0,0,0,34,28.12,2.29,2.29,0,0,1,34,26.65c0-.14.05-.49-.44-.08-.08.11-.22.33-.38.6a4.59,4.59,0,0,0,.22,4.11c.16.38.25,1.09.41,1.06s.27-.38.54-.6a7.05,7.05,0,0,0,2.64-3c.27-.63.05-1-.08-.76-.46.46-1.31.68-2,1.36A1.35,1.35,0,0,0,34.38,30Z"/><path class="cls-1" d="M36.34,25.65a6.62,6.62,0,0,0,.16-2,2.2,2.2,0,0,1,.44-1.42c.08-.08.19-.41-.35-.16a1.79,1.79,0,0,0-.54.46c-1.06,1.12-1.14,2.42-1,4,.05.44-.05,1.12.11,1.14s.35-.3.71-.44a6.87,6.87,0,0,0,3.35-2.18c.44-.54.35-.93.14-.76-.57.3-1.44.3-2.31.74A1.51,1.51,0,0,0,36.34,25.65Z"/><path class="cls-1" d="M39.36,22.16a5.23,5.23,0,0,0,.74-1.58,2,2,0,0,1,.82-1c.11-.08.3-.33-.24-.27a2,2,0,0,0-.6.19,4.09,4.09,0,0,0-2,3c-.08.35-.38.9-.25,1s.38-.14.68-.14a6,6,0,0,0,3.46-.76c.52-.3.57-.63.35-.57-.57.08-1.28-.19-2.12-.14a1.37,1.37,0,0,0-.79.27Z"/><path class="cls-1" d="M48.12,18a2.33,2.33,0,0,1-1.52,1.09A2.2,2.2,0,0,1,44.78,19a2.35,2.35,0,0,1,1.5-1.09,2.38,2.38,0,0,1,1.85.14Zm7.68,7.76a1,1,0,0,0,1.33-.54,1.15,1.15,0,0,0,.16-.57h.79v6.4h-.57a9.42,9.42,0,0,0-6.29-5.88c-2.83-.44-6.12-.38-7.76,2.1a2,2,0,0,0,.65,2.56c2.91,1.77,6.1,1,10,1.5a6.14,6.14,0,0,1,5,3.57,6.54,6.54,0,0,1-.16,5.66c-2,3.4-5.69,3.73-8.06,3.73s-5-1.14-6.91-1.85A1,1,0,0,0,42.6,43a1.23,1.23,0,0,0-.16.57h-.79V36.81c.22,0,.46,0,.79,0a8.57,8.57,0,0,0,5.66,6.1c2.83.84,5.66.71,7.87-.84a2.81,2.81,0,0,0,.87-3c-.49-1.71-3.13-2.18-5-2.2-4.08-.11-9-.05-10.51-4.55a6.39,6.39,0,0,1,1.33-6.12c2.56-2.5,6.86-2.59,10.13-1.58,1.17.25,2,.87,3,1.2Zm-1.91,25a8.7,8.7,0,0,1,2.4.54,2.8,2.8,0,0,0,1.85,0c.14-.05.57-.08.05.49a2.44,2.44,0,0,1-.73.49c-1.74.84-3.29.49-5.14-.35-.49-.22-1.25-.19-1.22-.44s.38-.41.65-.79a8.55,8.55,0,0,1,3.87-3.27c.82-.33,1.2-.08,1,.14-.6.57-.87,1.63-1.69,2.53a2.23,2.23,0,0,1-1,.65Z"/><path class="cls-1" d="M59,48.67a8.33,8.33,0,0,1,2.37-.3,3,3,0,0,0,1.69-.6c.11-.11.49-.3.22.44a2.51,2.51,0,0,1-.49.65C61.49,50.23,60,50.42,58,50.25c-.52,0-1.33.16-1.42-.08s.35-.44.49-.84a8.34,8.34,0,0,1,2.42-4.27c.63-.54,1.09-.44.93-.16-.35.71-.27,1.77-.71,2.86a2.49,2.49,0,0,1-.68.93Z"/><path class="cls-1" d="M63.26,44.84a6.83,6.83,0,0,1,2.07-.93,2.67,2.67,0,0,0,1.39-1c.08-.14.38-.41.35.33a3.88,3.88,0,0,1-.3.79c-.82,1.58-2.18,2.2-4,2.59-.46.14-1.2.52-1.31.33s.22-.49.19-.93a8,8,0,0,1,1.06-4.57c.41-.71.84-.73.76-.41-.11.74.24,1.69.16,2.8a2.35,2.35,0,0,1-.36,1Z"/><path class="cls-1" d="M65.82,40.21a6.92,6.92,0,0,1,1.63-1.47,2.65,2.65,0,0,0,1-1.36c0-.14.22-.46.41.22a4.21,4.21,0,0,1,0,.79c-.27,1.71-1.36,2.67-2.91,3.57-.41.27-1,.82-1.09.71s0-.52-.11-.9a7.91,7.91,0,0,1-.41-4.52c.19-.76.57-.9.57-.6.14.71.76,1.47,1,2.53a1.69,1.69,0,0,1,0,1Z"/><path class="cls-1" d="M66.69,35a8.57,8.57,0,0,1,.92-1.82A2.47,2.47,0,0,0,68,31.61c0-.11.08-.49.46.05a3.76,3.76,0,0,1,.22.71c.33,1.58-.3,2.78-1.31,4.11-.3.35-.57,1.06-.73,1s-.14-.46-.38-.74a7.33,7.33,0,0,1-1.85-3.84c-.11-.71.19-1,.27-.74.35.6,1.17,1.06,1.69,1.91a1.38,1.38,0,0,1,.35.9Z"/><path class="cls-1" d="M66,30a6.16,6.16,0,0,1,.38-1.91,2.26,2.26,0,0,0,0-1.47c-.05-.14-.08-.49.41-.08a4,4,0,0,1,.38.6c.71,1.36.41,2.64-.19,4.11-.16.38-.27,1.09-.44,1.06s-.24-.38-.54-.6a7.23,7.23,0,0,1-2.64-3c-.24-.63-.05-1,.11-.76.44.46,1.31.68,2,1.36A1.49,1.49,0,0,1,66,30Z"/><path class="cls-1" d="M64,25.65a5.72,5.72,0,0,1-.14-2,2.44,2.44,0,0,0-.46-1.42c-.05-.08-.19-.41.38-.16a2.24,2.24,0,0,1,.52.46c1.06,1.12,1.14,2.42,1,4-.05.44.06,1.12-.11,1.14s-.35-.3-.68-.44a6.82,6.82,0,0,1-3.38-2.18c-.44-.54-.33-.93-.14-.76.57.3,1.44.3,2.31.74A1.51,1.51,0,0,1,64,25.65Z"/><path class="cls-1" d="M61.08,22.14a5.81,5.81,0,0,1-.71-1.58,2.13,2.13,0,0,0-.82-1c-.11-.08-.3-.33.24-.27a2.3,2.3,0,0,1,.6.19,4,4,0,0,1,2,3c.08.38.41.9.27,1s-.38-.14-.71-.14a5.93,5.93,0,0,1-3.43-.74c-.54-.33-.57-.65-.38-.6.6.08,1.31-.19,2.15-.14A1.31,1.31,0,0,1,61.08,22.14Z"/><path class="cls-1" d="M52.26,18a2.33,2.33,0,0,0,1.52,1.09A2.2,2.2,0,0,0,55.61,19a2.35,2.35,0,0,0-1.5-1.09,2.38,2.38,0,0,0-1.85.14Zm-39,49.42c0-3.09-2.18-5.16-5.58-5.29C4.49,62,2,62,2,59.75c0-2.12,2.14-2.51,3.81-2.51,4.36,0,5.64,4,5.82,4.75h.6V56.93h-.6c0,.47,0,1.13-.58,1.13-.76,0-2.2-1.52-5.45-1.52S.19,58.68.19,61.62a5.06,5.06,0,0,0,5.31,4.9c3,0,5.72.2,5.72,2.63,0,2.2-2.37,2.78-4.53,2.82C2.94,72,1.28,69.5.58,66.83H0V72.4H.58s.12-1.13.8-1.13c1.26,0,1.79,1.52,5.39,1.52,4.26,0,6.5-2.49,6.5-5.35Zm15,5v-.74H26.93V65a4,4,0,0,0-4.32-3.87,5.1,5.1,0,0,0-4,1.71V56.93H13.75v.74H15v14H13.64v.74H19.9v-.74H18.62V65.32c0-1.54.86-3.17,2.63-3.17a2,2,0,0,1,1.89,2.12v7.39H21.79v.74h6.46ZM39.8,66.83V66c0-2.51-1.79-5.1-5.58-5.1-3.44,0-6,2.08-6,6s2.82,5.84,6.21,5.84c2.18,0,4.92-1,5.27-4.34h-.49a3.85,3.85,0,0,1-3.77,3.37c-3.21,0-3.62-2.41-3.62-5h8Zm-3.37-.72H31.84s-.12-4.53,2.35-4.53C36.86,61.58,36.43,66.11,36.43,66.11Zm14.5-2.53a2.35,2.35,0,0,0-2.24-2.51,4.34,4.34,0,0,0-3.33,1.85V61.31H40.51V62H41.6v9.63H40.25v.74h6.3v-.74H45.22V66.83c0-2.47,1.4-5.06,3.37-5.06a.91.91,0,0,1,.8.39,1.67,1.67,0,0,0-1.89,1.71,1.75,1.75,0,0,0,1.75,1.65A1.88,1.88,0,0,0,50.92,63.58Zm13.76,6.11v-.84h-.58c0,.58,0,2.63-.89,2.63a.81.81,0,0,1-.86-.89V67c0-2.06.51-6.07-5.29-6.07-3.42,0-5.14,1.36-5.14,2.94a1.63,1.63,0,0,0,1.73,1.73,1.81,1.81,0,0,0,1.63-1.71,2,2,0,0,0-1.11-1.69A3.74,3.74,0,0,1,56,61.72,2.41,2.41,0,0,1,58.66,64c0,3.79-7.39.78-7.39,5.7,0,1.3.74,3.13,3.62,3.13s3.38-1.13,3.91-1.93c.66,1.11,1.17,1.89,2.72,1.89,2.33,0,3.17-1.09,3.17-3.07Zm-6.15-.23a2.59,2.59,0,0,1-2,2.28c-1,0-1.67-1.09-1.67-2.16,0-2.55,2.18-2.37,3.64-3.6v3.48h0Zm13.86.12v-.66h-.56c0,.8,0,2.51-1.34,2.51A1.29,1.29,0,0,1,69.25,70V62H71.3v-.72H69.25V57.46h-.54c-.35,1.79-1.54,3.85-4.05,3.85V62H66V70a2.91,2.91,0,0,0,3.17,2.82,3.05,3.05,0,0,0,3.21-3.21Zm12.84-2.63c0-3.09-1.67-6-6.32-6-4,0-6,2.63-6,6,0,3.79,2.43,5.84,6.19,5.84,3.23,0,6.11-1.83,6.11-5.84Zm-3.5-.18c0,2.16-.41,5.25-2.74,5.25s-2.68-3.83-2.68-5c0-1.87.39-5.41,2.86-5.41C81.28,61.62,81.74,64.44,81.74,66.77ZM100,72.4v-.74H98.77V64.93c0-2.08-1.46-4-4.36-4a4.79,4.79,0,0,0-4,1.87V61.31H85.49V62h1.26v9.63H85.39v.74h6.3v-.74H90.37V65.55c0-1.54.93-3.35,2.59-3.35a1.85,1.85,0,0,1,2,1.85v7.61H93.58v.74H100Z"/></svg>
