<svg id="Layer_1" data-name="Layer 1" xmlns="http://www.w3.org/2000/svg" viewBox="0 0 100 100"><defs><style>.cls-1{fill:#FFFFFF;fill-rule:evenodd;}</style></defs><title>sofitel</title><path class="cls-1" d="M0,48.81s.69-1,.72-1,.13.05.16.08A5.45,5.45,0,0,0,4,49a3.76,3.76,0,0,0,2.17-.48c.45-.29.67-.78.19-1a24.88,24.88,0,0,0-3.46-1c-2.15-.59-2.67-1.4-2.67-2s1.07-2,3.7-2a6.29,6.29,0,0,1,4,1.19l-.68,1a5.15,5.15,0,0,0-3.23-1,4.35,4.35,0,0,0-1.5.25c-.73.27-.75.66-.58.84s.71.48,2.77,1,3.33,1,3.61,2.05a1.45,1.45,0,0,1-.19.78,2.37,2.37,0,0,1-.58.7,3.8,3.8,0,0,1-1,.61,5.32,5.32,0,0,1-2.34.39A7.63,7.63,0,0,1,2.82,50a6.54,6.54,0,0,1-1.45-.44A4.68,4.68,0,0,1,0,48.81Zm15.94-2.45c0-.8,1-1.77,2-2.61a5.7,5.7,0,0,1,3-1.5c.83,0,2,.75,3.35,2.05s1.51,1.68,1.51,2.06a5.19,5.19,0,0,1-1.92,2.42,6.07,6.07,0,0,1-3,1.56c-.82,0-2.07-.76-3.38-1.92s-1.54-1.77-1.54-2.07Zm1.57.06c0-.54.23-.84,1.22-1.74a3.66,3.66,0,0,1,2.19-1A3.76,3.76,0,0,1,23,44.7c1.13.92,1.22,1.49,1.22,1.58s0,.67-1.45,1.82a3.69,3.69,0,0,1-1.85.88,2,2,0,0,1-.83-.14,5.54,5.54,0,0,1-1.21-.72c-1.45-1-1.39-1.69-1.39-1.69Zm17-3.79h7.36v1.19h-6c-.07,0-.1,0-.1.05s.11,1.54.11,1.68.08.16.22.16H40V46.9H35.91s0,.05,0,.15,0,.93-.1,1.5S35.62,50,35.62,50h-1a29,29,0,0,1-.27-3.88,22.75,22.75,0,0,1,.24-3.47Zm15.71,0h1.1s0,.4.13,1.57a26.22,26.22,0,0,1,0,4.28c-.09,1.12-.17,1.53-.17,1.53h-1s-.07-.48-.17-1.65a24,24,0,0,1,0-4.22c.15-1.36.14-1.51.14-1.51Zm9.37,1.2V42.62h8.62l0,1.2H64.67c-.12,0-.08.07-.08.07s.13,1.48.13,2.41-.25,3.32-.25,3.47a.76.76,0,0,1,0,.22H63.41v-.21a33.31,33.31,0,0,1-.27-3.48,16.42,16.42,0,0,1,.13-2.39c0-.08,0-.09-.06-.09ZM84,48.8V50h-7.8v-.2A35,35,0,0,1,76,46.13a23.29,23.29,0,0,1,.26-3.42.21.21,0,0,0,0-.09h7.61v1.2H77.47s-.08-.08-.08,0,.1.74.13,1.71c0,0,0,.08.05.08h4.57v1.2H77.57s-.07,0-.07.09,0,.66,0,1.22-.08.6-.06.63,0,.08.25.08l6.36,0Zm8.71-6.18h1v.2c0,.33.31,1.92.31,3.39a17.51,17.51,0,0,1-.14,2.38c0,.13,0,.21.39.21H100V50H92.7v-.27a29.41,29.41,0,0,1-.25-3.38,31.41,31.41,0,0,1,.23-3.49c0-.16,0-.23,0-.23ZM13.33,54.38H14v2.7h2.39v.58h-3V54.38Zm5.32,0h.65v1.89c0,.31.2.9,1.18.9a1.55,1.55,0,0,0,.92-.24.83.83,0,0,0,.35-.67V54.37h.65v1.87c0,.3-.17,1.46-1.87,1.46s-1.87-1.06-1.87-1.4,0-1.93,0-1.93Zm6.14,0h.89l1.23,1.23,1.25-1.23H29L27.38,56l1.74,1.68h-.85l-1.36-1.31-1.35,1.32h-.84L26.39,56,24.77,54.4l0,0Zm6.67,0h.64v1.9c0,.3.26.89,1.25.89s1.21-.65,1.21-.78v-2h.64s0,1.67,0,2-.26,1.37-1.87,1.37-1.83-1.08-1.83-1.48,0-1.88,0-1.88Zm6.63,0h1.64c.33,0,1.51.06,1.51,1a.81.81,0,0,1-.37.73.87.87,0,0,1-.38.16s-.06,0,0,.09,1.19,1.23,1.19,1.23v0h-.78l-1.12-1.21h-1v1.21h-.65V54.37Zm.65,1.52V55h1.37a.45.45,0,0,1,.48.43c0,.27-.16.49-.71.49Zm4.67-1.51h.83L45.59,56,47,54.38h.78L45.93,56.5v1.13h-.66V56.51l-1.85-2.09v0Zm10.63,0h.66v1.31H57v-1.3h.65v3.25H57V56.28H54.69v1.36H54V54.38Zm8.23,0c1.21,0,2,.46,2,1.78s-1,1.62-2.05,1.62-2-.34-2-1.71a1.58,1.58,0,0,1,.5-1.26,2.28,2.28,0,0,1,1.57-.43Zm0,.59a1.48,1.48,0,0,1,1.08.34,1.13,1.13,0,0,1,.24.76c0,.46-.06,1.14-1.37,1.14s-1.33-.75-1.33-1.13,0-1.11,1.38-1.11Zm3.94-.56h3.6V55H68.32v2.69h-.67V55H66.19v-.62Zm5.9,0h3.09V55H72.72v.72h2.12v.54H72.73v.84h2.55v.59H72.07V54.39Zm5.82,0h.65v2.7h2.38v.57h-3V54.39Zm8,.24-.11.54a3.42,3.42,0,0,0-1.19-.26c-.6,0-.94.18-1,.39s.2.29,1.16.43,1.3.51,1.22,1-.54,1-1.61,1a2.92,2.92,0,0,1-1.47-.36l.13-.59a2.45,2.45,0,0,0,1.33.4c1,0,1.21-.51.88-.69a4.1,4.1,0,0,0-1.39-.32c-.67-.1-.92-.51-.87-.9s.47-.93,1.43-.93a3.34,3.34,0,0,1,1.47.27Z"/></svg>
