<svg id="Layer_1" data-name="Layer 1" xmlns="http://www.w3.org/2000/svg" viewBox="0 0 100 100"><defs><style>.cls-1{fill:#FFFFFF;}</style></defs><title>stRegis</title><path class="cls-1" d="M6.83,84.11H6.45V79.34h.65c.48,2.27,1.78,4.36,4.19,4.36a3.34,3.34,0,0,0,3.39-3.34c0-2.22-1.89-2.65-3.6-3.27-.46-.17-.91-.33-1.37-.48A4.42,4.42,0,0,1,6.56,72a4.16,4.16,0,0,1,4.15-4.37A5,5,0,0,1,14,68.8l.86-1h.4v4.57h-.71c-.25-2.28-1.66-4.17-3.95-4.17A2.78,2.78,0,0,0,7.81,71c0,1.84,1.21,2,2.62,2.43.57.17,1,.33,1.41.45a10.45,10.45,0,0,1,1.5.55c1.91,1,2.6,2.53,2.6,4.67,0,3-1.87,5.23-4.81,5.23A5.06,5.06,0,0,1,7.9,83.08l-1.07,1ZM20.45,84V83.5H22.3V72.09c-2.49-.13-3.25,1.12-3.57,3.49h-.55l.19-4H28.43l.19,4h-.53C27.77,73.22,27,72,24.55,72.09V83.5h1.84V84Zm10.89-.92a1.2,1.2,0,0,1-1.11,1.19,1.22,1.22,0,0,1-1.14-1.19,1.2,1.2,0,0,1,1.14-1.19,1.19,1.19,0,0,1,1.11,1.19ZM43.5,68.59h2c2,0,2.78.69,2.78,3.36,0,2.15-.84,3.17-2.9,3.17H43.5V68.59Zm0,7.14h1.25a3.12,3.12,0,0,1,2.08.86c.58.52.9,2,.9,4,0,2.43,1.21,3.66,3.51,3.66a7.42,7.42,0,0,0,1.93-.29v-.58c-2.18.43-2.25-.53-2.25-1.36,0-3.89-.8-5.89-4.35-6.47v0c2.13-.25,4.83-1.18,4.83-3.88C51.4,68.3,48.45,68,46,68H38.33v.61h2.25V83.36H38.33V84h7.43v-.61H43.5V75.73Zm14.83-3.64v5.28c1.7,0,2.6-.28,2.69-2.24h.48v5.15H61c-.16-2.05-.78-2.5-2.69-2.44V83.5h2.51c2.27,0,2.77-1.42,3.14-3.51h.51l-.16,4h-10V83.5h1.76V72.09H54.33v-.47h9.73l.11,3.32h-.49c-.37-1.77-1-2.45-1.95-2.7a5.45,5.45,0,0,0-1.52-.15H58.34Zm17.06,3C75,73.46,74,71.82,72.08,71.82,68.82,71.82,69,75,69,77.69c0,2.44-.33,6.08,2.88,6.08C74.29,83.77,74,81.84,74,80H72.24v-.47h5.49V80H76.49A4.17,4.17,0,0,1,72,84.24,5.07,5.07,0,0,1,67.64,82a6.6,6.6,0,0,1-1.25-4.13A7.12,7.12,0,0,1,68,73.32a4.71,4.71,0,0,1,3.84-2,4.79,4.79,0,0,1,3,.95l.7-.78h.37v3.59h-.52Zm7.3,8.39h1.74V84H78.71V83.5h1.74V72.09H78.71v-.47h5.73v.47H82.69Zm3.84.57h-.3V80.39h.48c.36,1.75,1.37,3.37,3.24,3.37a2.59,2.59,0,0,0,2.64-2.58c0-1.71-1.47-2-2.79-2.53l-1.06-.37a3.41,3.41,0,0,1-2.44-3.56,3.21,3.21,0,0,1,3.2-3.38,3.77,3.77,0,0,1,2.57.91l.67-.74h.32V75h-.57c-.19-1.76-1.28-3.22-3-3.22a2.15,2.15,0,0,0-2.19,2.1c0,1.42.94,1.57,2,1.88.44.13.8.26,1.1.35a8.22,8.22,0,0,1,1.17.42,3.59,3.59,0,0,1,2,3.61c0,2.32-1.43,4-3.71,4a3.94,3.94,0,0,1-2.51-1l-.79.78Zm-49.36-43c-.36-.24-.44-.43-1-.52a2.85,2.85,0,0,1-1,1.49A2.23,2.23,0,0,0,37.17,41.06ZM48.07,22.2a7,7,0,0,0-1.53-2.54,13.4,13.4,0,0,1,.72,5.11h3.45l0-1H48.85L48,23.33l4.37-4.59,1.51.76v2h1.78l-1.05,1.94H53.52v1.37c3.24-.32,5.92-2.69,5.92-4.56,0-2.58-3.08-4.67-6.89-4.67a10.12,10.12,0,0,0-4.4.85,8.09,8.09,0,0,1,1.05.7,3.78,3.78,0,0,1,2.43-.38,2.08,2.08,0,0,1,1.29.43l-4.85,5Zm-4.65,4.91q0-1,0-2a5.91,5.91,0,0,1-2.1-.54c-2.69-1.35-3.9-3.48-2.86-5.56s4.28-2.71,6.69-1.5a5.82,5.82,0,0,1,3.08,3.11l2.86-3.07a2.76,2.76,0,0,0-1.89.22,4.33,4.33,0,0,0-.77.44,9.12,9.12,0,0,0-2.36-1.43c-3.81-1.59-7.93-.41-9.21,2.64s1.25,6.52,6.56,7.67Zm0-2.87a22.65,22.65,0,0,0-1-5.67,3.26,3.26,0,0,0-2.88,2.15c-.32,1.65.85,2.88,3.84,3.52Zm2.09,12a3.53,3.53,0,0,0,2-2.29,3.2,3.2,0,0,0-.83-3A41.14,41.14,0,0,1,45.54,36.27Zm6.95-5.92L51.25,30v9.49l4.15-3.34-.16-.92-2.75,1.89v-6.8Zm-13.19-20a2,2,0,0,0-1.21,1c-.66,1.32.37,3.12,2.32,4.25a12.44,12.44,0,0,1,2.78-.28l-.55-1.1c2.94.76,5.3.14,9.81-.61,4.11-.68,8.2,2.27,7.71,6.23s-4.91,5.68-7.66,5.63V22.9h1.83l.2-.43h-2V19.72l-3,3.2h1.81v2.56H46.88c-2.42,0-.7-2.36-2-5.65l-1.35-.54a30.2,30.2,0,0,1,.61,7.46c-.19,4.37-1.19,7.77-2.23,9.11a3.75,3.75,0,0,0,2,.75c3.13-10.06.45-9.82,3.63-9.82,7.28,0,6.74,1.83,10.9,11.44a9.53,9.53,0,0,0,3.34,4.39,4.78,4.78,0,0,0,3.7.61c1.57-.47,2.43-2.45,1.64-4.61-.7,2-1.65,2.55-3.7,1.55-1.68-.82-2.66-3.92-3.75-7.74-.77-2.7-4-4.91-5.85-5.41,3.16-.11,8.45-2.62,8.76-6.58.43-5.69-5.17-9.63-11.1-8.65-6.48,1.07-12.13,3.15-12.13-1.41ZM53.57,29.92v5.83l2.34-1.59c-.78-2.15-1.23-4.46-2.34-4.24ZM49.7,28.35c.52.56.74.57.92,1.11v-1c-.24-.13-.46-.38-.92-.08ZM39.14,32.1l-.77-.41a16.54,16.54,0,0,1,0,1.66,10.39,10.39,0,0,1-.92,4.15l1.27.58.8-1.77a5.87,5.87,0,1,0,8.8-7.73,1.41,1.41,0,0,0-1.22.84,4.65,4.65,0,0,1-3.29,7.94,4.8,4.8,0,0,1-4.67-5.27Zm1.48,10.31,1.24-1.71c-.93-.5-1.83-1-2.75-1.51C37.2,38.14,36.77,38.14,36,38.1a3.84,3.84,0,0,0-4.15,3.6c0,2.11,1.35,3.48,2.94,2.7A2.7,2.7,0,0,1,33,42a2.87,2.87,0,0,1,3.16-2.67c1.83,0,3.51,2.27,4.47,3.09Zm-6.56,0A3.77,3.77,0,0,0,35.88,40c-1.51.07-2.27.79-2.27,2s1.83,2.35,3.32,1.92a2.2,2.2,0,0,1-2.21,2.16c-2.3.08-3.72-1.92-3.72-4.23s1.93-4.26,4.75-4.26a8,8,0,0,1,1,.16,10.85,10.85,0,0,0,1.1-4.52,15.63,15.63,0,0,0,0-2.26L40,32.15a3.84,3.84,0,0,0,.9,2.76,4.61,4.61,0,0,0,.34.42,12,12,0,0,0,2-6A9,9,0,0,1,42.12,29c-4.66-1.79-7.3-6.18-5.91-9.8a5.77,5.77,0,0,1,3.39-3.22c-.81-1.24-2.14-2-2.14-3.34,0-1.7.9-3.24,3.44-3.4-1.73,5.34,5.17,2.95,11.6,1.89,5.88-1,11.57,3.49,11.5,9.17,0,3.43-2.8,6.06-7.1,7.68,2.32,1.33,3,2.34,4.47,6.92.86,2.77,1.68,5,3.55,4.94,1,0,2.09-1,1.23-3.36,2.48,0,3.61,3.6,2,6.2s-5.59,2.43-8.33-.34c-1.81-1.83-2.23-3.93-3-5.64l-5,4.37-1.25-1.47V36a7.74,7.74,0,0,1-6.81,4.46,20.81,20.81,0,0,1-2.39,3.81c-.78-.72-2.16-2.39-3.34-3.33-1.63,1.49-2.54,2.11-4.06,1.51Z"/><path class="cls-1" d="M48.18,2a1.34,1.34,0,0,0-1.11.73.7.7,0,0,0,.3,1.08,1.3,1.3,0,0,0,1.58-.73A1.65,1.65,0,0,0,47.88,1c-1.36-.47-3.75.7-4.37,1.08s-3.26,2.21-5.21,1.86C37.26,3.75,36.63,2.37,37,1.78s1-.76,1.34-.13c-1.36,1.5.82,1.75,1,.59A1.39,1.39,0,0,0,37.77.6,1.6,1.6,0,0,0,36.2,2.24a2.4,2.4,0,0,0,2.56,2.29c1.88,0,4.24-1.48,4.74-1.78s3-1.6,4.33-1.14c.27.09.38.19.35.38ZM46.51,52.43l-.29.28a5.39,5.39,0,0,0-1.12-.8A4.24,4.24,0,0,0,43,51.3l-.14.22a4.23,4.23,0,0,1,2.12.6,3.84,3.84,0,0,1,1.73,1.64l.18.47.18-.11-.18-.58.5-.09a5.63,5.63,0,0,1,.6,1.43c1.05,3.91-2,3.36-1.8,2.28,1.17.3,1.36-1,.59-1s-1.33.35-1.33,1a1.52,1.52,0,0,0,1.44,1.4A2.24,2.24,0,0,0,48.64,56c-.52-3.28-2.43-5.51-5.8-5.86-3.13-.32-5.86,3.56-3.16,4.64a1.28,1.28,0,0,0,1.76-1.19c0-.69-.65-1.37-1.33.11a2,2,0,0,1,1.34-2.62,4.84,4.84,0,0,1,5.06,1.36Zm-9.06-1.26c1.65-.65,1.42-1.25,1.62-1.69s-.26-1.24-.93-1.55a1.38,1.38,0,0,0-1.72.38,1.26,1.26,0,0,0,1.36,1.45c-.39.8-.89.88-1.65,1-2.77.55-8.18-3.17-9.09-9.55-.81-5.66.95-13.43,3.51-11.38a.53.53,0,0,1,.18.4c0,.24-.09.44-.19.44-.2-.65-1.28-.58-1.28.07s.26.81.92.81a1.18,1.18,0,0,0,1.18-1.18,1.14,1.14,0,0,0-.9-1.2c-2-.79-3.71,2.41-4.27,6.3L26,33.72l-.39,1.91a13.3,13.3,0,0,0-.09,4.4,18.35,18.35,0,0,0,1.56,5.53l1.29,2.32-1-2.59c3.29,5.83,6.12,6,7.44,6.2a7.38,7.38,0,0,0,2.59-.32ZM27.09,28.1a1.57,1.57,0,0,1-.68-1.32c1,.22,1.72.13,1.72-.75s-.4-1.19-1.19-1.19-1.29.77-1.29,1.65a1.52,1.52,0,0,0,1.43,1.6Zm.54-13.43c2-1.51,3.78,1.37,3.27,2.95-.29.91-1.39,1.14-1.68,1.63.3.17.23.43,0,.6s-.5.29-.61.48a.75.75,0,0,1,.28.63c0,.35-.29.49-.26.63a2.46,2.46,0,0,0,1.19-.15c.83-.29,1.06-.8,1.31-1.72,0-.18.12-.3.19-.3s.27.45.27,1-1.46,2-1.56,2.07-.41.43-.37.51.33.22.82,0a2.56,2.56,0,0,0,.88-1.13c.11-.09.47.71-.14,2A19.81,19.81,0,0,1,30,26c.36.36,1-.57,1.76-2.19.61-1.27,1.06-1.24.93-1.3l.07-.5-.36.22-.43-.11.18-.43c.25,0,.94-.58.94-1.69s0-1.94-.29-1.94,0,.36-.18.93c-1.26-5.07-3.09-5.72-4-5.72A1.42,1.42,0,0,0,27.05,15c.12.79.79,1.33,1.55.93s.25-1.15-1-1.22Zm7.69-6.34c0-.19.08-.45,0-.46s-.16.21-.21.4a3.45,3.45,0,0,1-.67,1.25,4.24,4.24,0,0,1-1.26,1.16c-.16.08-.37.23-.35.26a1.38,1.38,0,0,0,.54-.15c.49-.25.77-.45.35.26a4.43,4.43,0,0,1-4.36.43c-1.73-.93.68-2.63.61-1.51-.27.11-.37.84.34.62a.7.7,0,0,0,.27-1.16c-.9-1.26-3.27.81-1.49,2.24s4.59.87,6.29-1.24S37,5.44,35.27,4c-2.31-1.86-3.53,2-1,2.13,1.14.06-.14-1.44-.14-1.44,1.12-.8,2.27,2.27,1.32,4.45-.3,0-.16-.38-.11-.83Zm11.37,46.8a3.16,3.16,0,0,0-1.61-2.43,3.31,3.31,0,0,0-3.13-.45,2.33,2.33,0,0,1,.2.94,2.29,2.29,0,1,1-4.41-.86C33,54.26,27,49,25.31,41.95c-1.16-4.91-.12-10,2.29-12.89A2.8,2.8,0,0,1,25,26.54a2.29,2.29,0,0,1,2.25-2.33,1.74,1.74,0,0,1,1.73,1.25,1.33,1.33,0,0,0,.86-1,1.8,1.8,0,0,0,0-.7c-1.1-.28-.69-.62-.92-1.26s-1-.61-1.39-.64c0-.17.32-.35.32-.78a.93.93,0,0,0-.35-.78c.14-.24.47-.39.76-.6s.37-.53,0-.75c.36-.61,1.94-.3,2-1.48a1,1,0,0,0-.46-.85,1.38,1.38,0,0,1-1.09.5,2.4,2.4,0,0,1-.32-4.79,2.38,2.38,0,0,1-.49-2.4,2,2,0,0,1,2.41-1.52,1.88,1.88,0,0,1,1.12,2,2.17,2.17,0,0,0,2.24-.7,3.13,3.13,0,0,0,1.12-2.88,4.3,4.3,0,0,1-1-.1,2.48,2.48,0,0,1-1.45-3.1c.54-1.26,1.88-1.5,3.27-.86,0-.07-.07-.57-.07-.64a2.15,2.15,0,1,1,4.31,0,2.19,2.19,0,0,1-.09.62c1.08.62,4.27-2.62,7.65-2.62a2.28,2.28,0,0,1,2.21,2.24,2.16,2.16,0,0,1-4,1.13c-1-.05-3.46,2-5.21,2.26a4.84,4.84,0,0,1-3-.33,7.9,7.9,0,0,1-1.67,5.11,8.1,8.1,0,0,1-4.29,2.93,12.65,12.65,0,0,1,1.89,6.88c0,3.45-1.13,6.47-2.82,8.12,1.45.42,1.81,2.47,1.1,3.56a2.24,2.24,0,0,1-3.26.63A16.51,16.51,0,0,0,27.82,41c1.27,6.49,5.24,9.24,8.17,8.65-.84-1.76.33-2.47,1.53-2.47a2.2,2.2,0,0,1,2.16,2.51,7.38,7.38,0,0,1,6.17.78c3.34,2,4.59,6.56,2.75,8.17-2.76,2.44-5.79-2.77-1.91-3.52ZM51.8,2c0-.19.08-.28.35-.38,1.36-.47,3.7.76,4.33,1.14s2.86,1.77,4.74,1.78a2.4,2.4,0,0,0,2.56-2.29A1.6,1.6,0,0,0,62.21.59a1.39,1.39,0,0,0-1.56,1.64c.19,1.16,2.37.92,1-.59.31-.63,1-.45,1.34.13s-.27,2-1.32,2.16C59.73,4.28,57,2.4,56.47,2.07S53.46.53,52.1,1A1.65,1.65,0,0,0,51,3.07a1.3,1.3,0,0,0,1.58.73.7.7,0,0,0,.3-1.08A1.34,1.34,0,0,0,51.8,2Zm1.67,50.43a4.84,4.84,0,0,1,5.06-1.36,2,2,0,0,1,1.34,2.62c-.68-1.47-1.33-.8-1.33-.11a1.28,1.28,0,0,0,1.76,1.19c2.7-1.08,0-5-3.16-4.64-3.37.35-5.28,2.58-5.8,5.86a2.24,2.24,0,0,0,1.77,2.63,1.52,1.52,0,0,0,1.44-1.4c0-.66-.56-1-1.33-1s-.58,1.26.59,1C54,58.23,51,58.78,52,54.87a5.68,5.68,0,0,1,.6-1.43l.5.09-.18.58.18.11.18-.47A3.85,3.85,0,0,1,55,52.11a4.21,4.21,0,0,1,2.12-.6L57,51.29a4.24,4.24,0,0,0-2.12.6,5.46,5.46,0,0,0-1.12.8l-.29-.28Zm9.06-1.26a7.38,7.38,0,0,0,2.59.32c1.33-.22,4.15-.38,7.44-6.2l-1,2.59,1.29-2.32A18.31,18.31,0,0,0,74.46,40a13.3,13.3,0,0,0-.09-4.4L74,33.71l-.16,1.78c-.56-3.89-2.26-7.09-4.27-6.3a1.14,1.14,0,0,0-.9,1.2,1.18,1.18,0,0,0,1.18,1.18c.65,0,.92-.16.92-.81s-1.08-.72-1.28-.07c-.11,0-.19-.2-.19-.44a.53.53,0,0,1,.18-.4c2.56-2,4.31,5.72,3.51,11.38-.91,6.38-6.32,10.1-9.09,9.55-.75-.15-1.25-.23-1.64-1a1.26,1.26,0,0,0,1.36-1.45,1.38,1.38,0,0,0-1.72-.38c-.68.3-1.13,1.11-.93,1.55s0,1,1.62,1.69ZM72.9,28.09a1.52,1.52,0,0,0,1.43-1.6c0-.89-.5-1.65-1.29-1.65s-1.19.3-1.19,1.19.72,1,1.72.75a1.57,1.57,0,0,1-.68,1.32Zm-.54-13.43c-1.22.07-1.69.85-1,1.22s1.43-.14,1.55-.93a1.42,1.42,0,0,0-1.51-1.65c-.94,0-2.77.65-4,5.72-.22-.57.07-.94-.18-.94s-.29.83-.29,1.94.68,1.69.93,1.69l.18.43-.43.11L67.25,22l.07.5c-.13.06.32,0,.93,1.3C69,25.45,69.66,26.38,70,26a19.92,19.92,0,0,1-1.26-2.23c-.61-1.27-.25-2.06-.14-2A2.57,2.57,0,0,0,69.5,23c.5.27.74.2.82,0s-.22-.37-.37-.51S68.39,21,68.39,20.42s.12-1,.27-1,.14.11.19.3c.25.92.48,1.44,1.3,1.72a2.48,2.48,0,0,0,1.19.15c0-.14-.26-.28-.26-.63a.75.75,0,0,1,.28-.63c-.11-.19-.37-.32-.61-.48s-.3-.42,0-.6c-.29-.49-1.39-.72-1.68-1.63-.5-1.58,1.29-4.46,3.27-2.95ZM64.67,8.32c.05.44.19.8-.11.83-1-2.18.2-5.25,1.32-4.45,0,0-1.28,1.5-.14,1.44,2.51-.14,1.28-4-1-2.13-1.77,1.43-1.83,4.29-.13,6.41s4.51,2.67,6.29,1.24-.6-3.5-1.5-2.24a.7.7,0,0,0,.27,1.16c.7.22.61-.51.34-.62-.07-1.11,2.34.58.61,1.51A4.43,4.43,0,0,1,66.24,11c-.42-.72-.14-.52.35-.26a1.39,1.39,0,0,0,.54.15s-.19-.17-.35-.26A4.23,4.23,0,0,1,65.51,9.5a3.45,3.45,0,0,1-.67-1.25c0-.19-.16-.41-.21-.4s0,.27,0,.46ZM53.3,55.12c3.88.75.86,6-1.91,3.52-1.83-1.62-.59-6.13,2.75-8.17a7.38,7.38,0,0,1,6.17-.78,2.2,2.2,0,0,1,2.16-2.51c1.19,0,2.37.71,1.53,2.47,2.93.59,6.91-2.16,8.17-8.65a16.51,16.51,0,0,0-.62-8.29,2.24,2.24,0,0,1-3.26-.63c-.71-1.1-.35-3.14,1.1-3.56-1.69-1.65-2.82-4.67-2.82-8.12a12.65,12.65,0,0,1,1.89-6.88,8.11,8.11,0,0,1-4.29-2.93,7.9,7.9,0,0,1-1.67-5.11,4.84,4.84,0,0,1-3,.33c-1.74-.25-4.21-2.32-5.21-2.27a2.16,2.16,0,0,1-4-1.13A2.28,2.28,0,0,1,52.51.16c3.37,0,6.57,3.24,7.65,2.62a2.16,2.16,0,1,1,4.22-.62c0,.07-.06.57-.07.64,1.39-.64,2.73-.4,3.27.86a2.48,2.48,0,0,1-1.45,3.1,4.34,4.34,0,0,1-1,.1,3.13,3.13,0,0,0,1.12,2.88,2.17,2.17,0,0,0,2.24.7,1.88,1.88,0,0,1,1.12-2,2,2,0,0,1,2.41,1.52,2.38,2.38,0,0,1-.49,2.4,2.4,2.4,0,0,1-.32,4.79,1.38,1.38,0,0,1-1.09-.5,1,1,0,0,0-.46.85c.09,1.19,1.67.87,2,1.48-.38.22-.29.54,0,.74s.62.36.76.6a.93.93,0,0,0-.35.78c0,.43.36.61.32.78-.35,0-1.13-.11-1.39.64s.18,1-.92,1.26a1.78,1.78,0,0,0,0,.7,1.33,1.33,0,0,0,.86,1,1.74,1.74,0,0,1,1.73-1.25A2.29,2.29,0,0,1,75,26.54,2.8,2.8,0,0,1,72.38,29c2.41,2.89,3.45,8,2.29,12.89C73,49,67,54.25,62.25,52.31A2.29,2.29,0,1,1,58,52.24a3.31,3.31,0,0,0-3.13.45,3.15,3.15,0,0,0-1.61,2.43Z"/><path class="cls-1" d="M62.5,28.49l-1.24-1.23L60,28.49l1.24,1.24Zm.22,1.94H61.26l-1.95-1.95,1.95-2H62.7l1.95,1.95ZM9.56,92.13l0-.3H13l0,.3H12l-.68,3.41h3L15,92.13H14l.06-.3H17.1l-.06.3h-.64L15,99.52h1l0,.3H12.49l0-.3h1l.74-3.68h-3l-.72,3.68h1l-.06.3H8.39l0-.3h.7l1.46-7.39h-1Zm10.7,3.18c.54,0,.86.23.86.85a9.55,9.55,0,0,1-.22,1.56c-.11.44-.34,1.66-.82,1.85a1.69,1.69,0,0,1-.59.12c-.67,0-.79-.35-.79-1a12.11,12.11,0,0,1,.43-2.37c.18-.58.49-1,1.12-1Zm0-.3a2.26,2.26,0,0,0-1.64.67,3.29,3.29,0,0,0-1.13,2.22,1.91,1.91,0,0,0,1.35,2,2.63,2.63,0,0,0,.68.1,3.07,3.07,0,0,0,2.84-3,2,2,0,0,0-.67-1.5A2.1,2.1,0,0,0,20.25,95Zm5.18.17h1l-.08.37h-1l-.67,3a6.15,6.15,0,0,0-.15.83.24.24,0,0,0,.26.25c.44,0,.92-1,1.08-1.35l.25.06c-.47,1.33-1.16,1.7-1.81,1.7a.79.79,0,0,1-.89-.74,7,7,0,0,1,.16-.91l.59-2.79h-.82l.08-.37h.83L24.56,94a4.92,4.92,0,0,0,1.18-.19Zm2.92,2.33c.25-.73.38-2.2,1.37-2.2.43,0,.61.35.61.78,0,1.06-.64,1.42-1.56,1.42Zm2.57,1a2.14,2.14,0,0,1-1.84,1.2.85.85,0,0,1-.95-.84,2.79,2.79,0,0,1,.16-1h.84a2.45,2.45,0,0,0,1.34-.25,1.41,1.41,0,0,0,.85-1.23A1.39,1.39,0,0,0,29.77,95a3.1,3.1,0,0,0-2.83,3.05A2,2,0,0,0,28.83,100a2.43,2.43,0,0,0,2.33-1.38l-.24-.12ZM33.68,92h-.91l.08-.3L35,91.64l-1.49,7c-.15.69-.14.86.14.86.48,0,1-1,1.11-1.41l.27.06c-.3.85-.91,1.86-1.88,1.86-.66,0-1-.32-.81-1.44L33.68,92Zm3.09,8c-.66,0-1.52-.25-1.52-1.12a.56.56,0,0,1,.55-.56.51.51,0,0,1,.5.56c0,.2-.22.4-.22.5s.52.35.69.31c.46,0,1-.17,1-.74,0-.93-1.92-1.3-1.92-2.44A1.54,1.54,0,0,1,37.52,95c.72,0,1.31.39,1.31.8s-.17.59-.52.59a.46.46,0,0,1-.43-.43c0-.18.11-.28.15-.44s-.36-.22-.51-.22c-.32,0-.8.14-.8.56,0,.81,1.92,1,1.92,2.53A1.72,1.72,0,0,1,36.77,100Zm9.36-4.93a4.06,4.06,0,0,1-.34-1.39.93.93,0,0,1,.94-1c.51,0,.74.33.74.82a1.59,1.59,0,0,1-1.34,1.58Zm.08.25c.74-.2,2.18-.67,2.18-1.68s-.88-1.24-1.62-1.24a1.82,1.82,0,0,0-2,1.71A5.34,5.34,0,0,0,45,95.49c-1.14.4-2.56,1.06-2.56,2.54a1.84,1.84,0,0,0,2,1.94,2.88,2.88,0,0,0,2.15-1,1.94,1.94,0,0,0,1.73,1,2.17,2.17,0,0,0,1.81-1.42l-.18-.12c-.27.4-.61.91-1.14.91-.69,0-1.1-.79-1.42-1.32l.72-1.34c.3-.55.64-1,.91-1a.14.14,0,0,1,.16.15s0,.07-.06.12a.42.42,0,0,0-.06.25.49.49,0,0,0,.5.42.53.53,0,0,0,.54-.6.69.69,0,0,0-.77-.7,1.17,1.17,0,0,0-1,.62,12.41,12.41,0,0,0-.75,1.26l-.29.52-1-2.39Zm-1.12.42a21.89,21.89,0,0,0,1.31,3.05,1.93,1.93,0,0,1-1.23.67c-.88,0-1.44-1-1.44-1.85C43.73,96.51,44.17,96.14,45.09,95.73Zm12.16-3.6h.69c1.16,0,1.35.5,1.35,1.1,0,1.6-.83,2.12-2.24,2.12h-.44l.64-3.22Zm-.69,3.52h.35a1.6,1.6,0,0,1,.84.3c.34.24.39.78.44,1.35,0,.42.08.83.11,1.25A1.47,1.47,0,0,0,60,100a4.12,4.12,0,0,0,.53,0,2,2,0,0,0,.51-.14l0-.3a2.08,2.08,0,0,1-.55.11c-.7,0-.68-.59-.68-1.13,0-1.85-.38-2.33-2.09-2.88v0c1.26-.08,3.09-.36,3.09-2.08,0-1-.77-1.68-2.5-1.68H54.84l-.06.3h1l-1.44,7.39h-.68l-.06.3h3.11l.06-.3h-1l.79-3.86Zm6.68,1.86c.25-.73.38-2.2,1.37-2.2.43,0,.62.35.62.78,0,1.06-.64,1.42-1.56,1.42Zm2.57,1A2.14,2.14,0,0,1,64,99.69a.85.85,0,0,1-.94-.84,2.8,2.8,0,0,1,.16-1H64a2.45,2.45,0,0,0,1.34-.25,1.41,1.41,0,0,0,.85-1.23A1.39,1.39,0,0,0,64.66,95a3.1,3.1,0,0,0-2.83,3.05A2,2,0,0,0,63.72,100,2.43,2.43,0,0,0,66,98.61Zm2.62,1.5c-.66,0-1.52-.25-1.52-1.12a.56.56,0,0,1,.55-.56.51.51,0,0,1,.5.56c0,.2-.22.4-.22.5s.52.35.69.31c.46,0,1-.17,1-.74,0-.93-1.92-1.3-1.92-2.44A1.54,1.54,0,0,1,69.19,95c.72,0,1.31.39,1.31.8s-.17.59-.52.59a.46.46,0,0,1-.43-.43c0-.18.12-.28.15-.44s-.36-.22-.51-.22c-.32,0-.8.14-.8.56,0,.81,1.92,1,1.92,2.53A1.72,1.72,0,0,1,68.43,100Zm5.89-4.68c.54,0,.86.23.86.85A9.55,9.55,0,0,1,75,97.72c-.11.44-.34,1.66-.82,1.85a1.69,1.69,0,0,1-.59.12c-.67,0-.79-.35-.79-1a12.11,12.11,0,0,1,.43-2.37c.18-.58.49-1,1.12-1Zm0-.3a2.27,2.27,0,0,0-1.64.67,3.3,3.3,0,0,0-1.13,2.22,1.91,1.91,0,0,0,1.35,2,2.63,2.63,0,0,0,.68.1,3.07,3.07,0,0,0,2.84-3,2,2,0,0,0-.67-1.5A2.1,2.1,0,0,0,74.32,95Zm5.08,1.13,0,0A2.43,2.43,0,0,1,81.1,95a.67.67,0,0,1,.74.7.56.56,0,0,1-.58.59.52.52,0,0,1-.49-.31c-.09-.15-.15-.31-.32-.31-.36,0-.81.72-1,1a4,4,0,0,0-.35,1.08l-.45,2.07H77.49l.9-4.44h-.9l.08-.3h1c.35,0,.69,0,1,0l-.26,1.11Zm5.2-1h1l-.08.37h-1l-.67,3a6.28,6.28,0,0,0-.15.83.24.24,0,0,0,.26.25c.44,0,.92-1,1.08-1.35l.25.06c-.47,1.33-1.16,1.7-1.81,1.7a.79.79,0,0,1-.89-.74,7,7,0,0,1,.16-.91l.59-2.79h-.82l.08-.37h.83L83.73,94a4.93,4.93,0,0,0,1.18-.19Zm3,4.81c-.66,0-1.52-.25-1.52-1.12a.56.56,0,0,1,.55-.56.51.51,0,0,1,.5.56c0,.2-.22.4-.22.5s.52.35.69.31c.46,0,1-.17,1-.74,0-.93-1.92-1.3-1.92-2.44A1.54,1.54,0,0,1,88.37,95c.72,0,1.3.39,1.3.8s-.17.59-.52.59a.46.46,0,0,1-.43-.43c0-.18.12-.28.15-.44s-.36-.22-.51-.22c-.32,0-.8.14-.8.56,0,.81,1.92,1,1.92,2.53A1.72,1.72,0,0,1,87.62,100Z"/></svg>
