<svg id="Layer_1" data-name="Layer 1" xmlns="http://www.w3.org/2000/svg" viewBox="0 0 100 100"><defs><style>.cls-1{fill:#FFFFFF;}</style></defs><title>tropicana</title><path class="cls-1" d="M21.24,40.55l2.65-.32s2.06-.05,3.24-3.05.27-3.82.1-3.82a1,1,0,0,0-.62.34l-.53.15s-9.39,2-12.68,3S6.49,38.75,2.1,42.18c0,0-2.38,2-2.07,4s1.49,3.69,3.49,3.69c0,0-2.39-.94-2.39-3.1,0,0,0-1.36,4-2.85a84.07,84.07,0,0,1,11.65-2.75s-2.39,4.11-3.44,6.23a16.58,16.58,0,0,0-1.82,6.49,13.84,13.84,0,0,0,1.29,6.21,36.51,36.51,0,0,0,1.92,4.27c.92,1.59,1.5,2.46,2.14,2.28s.25-1,.25-1-.61-.6-.92-4a47.58,47.58,0,0,1-.24-9,42.81,42.81,0,0,1,1.39-5.48c.71-1.87,1.68-5.71.94-6.18Z"/><path class="cls-1" d="M38.25,46.44a2.42,2.42,0,0,0-.81,0l.36-.61c.2-.37.19-.7-1-1.73s-1.41-.88-1.41-.88c-.39,0-1.22,1.49-1.22,1.49a24.05,24.05,0,0,0-1.87,3.48,5.68,5.68,0,0,0-.37.92l-1,1.48-2,3.21S28.2,55.53,28,55.53s0-1.19,0-1.19a17.67,17.67,0,0,0,.59-4.46,2.1,2.1,0,0,0-.68-1.93c-.34-.34-1.66-2.39-1.66-2.39s-.46-1.05-1.59-.25a5.3,5.3,0,0,0-2,2.05,15.17,15.17,0,0,0-1,1.9c-.36,1.44-.93,3.53-.93,3.53l-.53,1.48c-.25.87,0,.81,0,.81.58,0,1.17-1.87,1.17-1.87C21.94,52,22.79,50,22.79,50c.58-.85,2.32-2.41,2.83-2.24s.58.58.31,1.63-.71,2.12-1.27,4-.46,3.66.22,4.51a3.29,3.29,0,0,0,2,1.36c.49,0,1.19-.76,1.76-2.26s2.49-5.31,2.49-5.31A7.25,7.25,0,0,0,31,53.27c0,2.41.54,3,2,3.71s3.27-1,4.83-3.6,1.54-4.07,1.36-5.45S38.25,46.44,38.25,46.44Zm-.79,4.42c-1.15,2.35-3.23,4.92-3.72,4.92s-.13-2.56.62-4.07a25,25,0,0,1,1.39-2.65c.74-1.18.9-1.4.9-1.4s1-.61,1.46-.39S38.6,48.51,37.46,50.86Z"/><path class="cls-1" d="M50.23,43.34s-1.08-.62-2.84.71a9.44,9.44,0,0,0-2.23,2.11s-.39.42-.53.42-.18.08.15-.62a2.52,2.52,0,0,0-.65-2.71c-.79-.56-1.73-.74-1.84-.41a.67.67,0,0,0,.18.62s.15,0-.2.84-.81,2.26-.93,2.58a4.33,4.33,0,0,0-.14.43,55.34,55.34,0,0,0-1.49,6.5,16.81,16.81,0,0,0-.06,4.86A14.22,14.22,0,0,0,41.59,63c.6.78.81.24,1-.09,0,0,.17-.48.06-.59s-.51.29-.51.29-.29.43-.39-.39a23.84,23.84,0,0,1,.18-4.33c.18-1.29.43-3,.94-5.23a14.27,14.27,0,0,1,2.1-5c.94-1.49,3.27-3.77,4.95-3.56,0,0,.67.05-1.49,2.44a30.1,30.1,0,0,0-3.89,4.9c-.6,1.08-.36,2.39.08,2.29,0,0,.23,0,.34-.34a21.37,21.37,0,0,1,1.72-1.32,21.48,21.48,0,0,0,3.52-2.93c1.59-1.59,2-2.82,1.69-4A3.65,3.65,0,0,0,50.23,43.34Z"/><path class="cls-1" d="M56.62,41.34l.1-.1s.18-.09,0-.27-.13-.7.17-1.28a14.84,14.84,0,0,1,1.18-1.89,16.76,16.76,0,0,1,1.58-1.86c.63-.63,1.58-1.43,1.58-1.43s.31-.24.2-.43l-.06-.12s0-.08-.46.05A11.64,11.64,0,0,0,57,35.86a4,4,0,0,0-1.78,3.26,4.4,4.4,0,0,0,1.14,2.28S56.46,41.5,56.62,41.34Z"/><path class="cls-1" d="M100,40.89s-.09-.07-.22.06a4.71,4.71,0,0,0-.37.49l-1.31,1.7s-1.15,1.55-1.6,2-1.34,1.52-1.34,1.52-.19.13-.28,0c0,0-.18-.16.12-1s.67-1.57.87-2.05.49-1,.23-1.53-.55-.86-1.11-.86A2.17,2.17,0,0,0,93.5,42c-.41.4-2.89,3-3.12,3.24s-.34.34-.5.34-.43-.16-.17-.8a5.56,5.56,0,0,1,.84-1.45A16.52,16.52,0,0,1,92.5,41.3a8.3,8.3,0,0,1,2.26-1.38,1,1,0,0,1,.72.09c.24.2.23.24.4.2s.07-.28,0-.42-.9-1.57-1.72-1.52a3.62,3.62,0,0,0-1.93.89,22.51,22.51,0,0,0-2.32,2.1A12,12,0,0,0,87.46,45s-1,1.29-1.42,1.68S84.84,48,84.52,47.9s-.18-.71,0-1.37.44-1.16.8-2a4.65,4.65,0,0,0,.44-2A2.11,2.11,0,0,0,85.06,41a1.14,1.14,0,0,0-1.25-.21,5.21,5.21,0,0,0-1.23.87,20.13,20.13,0,0,0-1.71,1.9s-.67.86-1,1.14a.37.37,0,0,1-.25.14s-.18,0,.15-.51a9.06,9.06,0,0,0,.79-1.54A4,4,0,0,0,81,41a1.83,1.83,0,0,0-1.23-1.7s-.33-.14-.39,0-.08.29.05.31.29.11.22.39-.81,1.82-1.07,2.34-1,2.15-1.26,2.67c0,0-.78,1.14-1.52,2a21.23,21.23,0,0,1-1.44,1.66s-.2.21-.33.08-.19-.39.17-1.37.43-1,.77-2,.61-1.55-.11-2.32a1.15,1.15,0,0,0-.91-.34,1.69,1.69,0,0,0-1.16.68c-.51.51-1.09,1.11-1.74,1.86s-1.55,1.81-1.84,2.09-.34.3-.49.27-.33-.23-.15-.86A10,10,0,0,1,70,44.42a23.55,23.55,0,0,1,2.18-2.18,3.89,3.89,0,0,1,2-1,.66.66,0,0,1,.54.25s.18.2.31.12.09-.22-.05-.52-.94-1.8-1.74-1.76a3.38,3.38,0,0,0-2,1,16.53,16.53,0,0,0-2.12,2,17.67,17.67,0,0,0-1.9,2.61,8.93,8.93,0,0,0-.66,1.28s-1,1-1.52,1.47a21.78,21.78,0,0,1-2.86,2.18,6.28,6.28,0,0,1-2.16.92c-.36,0-.5-.14-.43-.63a6.72,6.72,0,0,1,.58-1.8,16.4,16.4,0,0,1,1.53-2.52,16.66,16.66,0,0,1,1.58-1.7s.15-.17.25-.07a.64.64,0,0,1,.13.52c0,.23-.06.77.05.8s.25,0,.68-.61a2.28,2.28,0,0,0,.48-2,4.22,4.22,0,0,0-.78-1.4,5.72,5.72,0,0,0-.44-.61.8.8,0,0,0-.58-.31c-.28,0-.64.31-.95.62a18,18,0,0,0-1.35,1.6A22.51,22.51,0,0,0,59.38,45a15.7,15.7,0,0,0-.82,1.89,6.72,6.72,0,0,0-.24.94,14.77,14.77,0,0,1-1.22,1.68,15.6,15.6,0,0,1-2,1.91s-.38.28-.56.22-.11-.5-.11-.73a7.41,7.41,0,0,1,.33-1.29c.1-.28.63-1.69.88-2.23s.53-1,.87-1.94a2.54,2.54,0,0,0,.07-2.24A2.92,2.92,0,0,0,55,42c-.38-.08-.49,0-.52,0s-.08.25.1.29.25.11.17.39-.2.56-.2.56l-.9,2.46a13.37,13.37,0,0,0-.84,3.68,2.79,2.79,0,0,0,.67,2.28,2,2,0,0,0,1.25.58c.23,0,1,0,2.25-1.68a14,14,0,0,0,1.11-1.68l0,0h.06V49a3,3,0,0,0,.41,1.54,2.27,2.27,0,0,0,1.75,1.11,3.84,3.84,0,0,0,2.67-.95,13.27,13.27,0,0,0,2.25-2.07c.67-.77.62-.72.62-.72s.06,0,.06,0a2.16,2.16,0,0,0,.29,1.62c.51.67.8,1,1.54,1s1.2-.76,1.51-1.21,1.54-2.43,1.54-2.43A12.81,12.81,0,0,1,72.17,45c.62-.67.75-.67.84-.67s.14.17,0,.53a7,7,0,0,0-.57,2.29c0,.9.27,2.09,1.34,2.16,0,0,.44.12,1-.47s1.9-2.29,1.9-2.29.07-.11.11-.11,0,.15,0,.24-.34,1.52.15,2,.73.53.84.53.18,0,.32-.45a8.25,8.25,0,0,1,.78-1.4c.29-.48,1-1.48,1.29-1.92s1.26-1.66,1.7-2.15S82.9,42,83.37,42c0,0,.23,0,.14.45a8.51,8.51,0,0,1-.4,1.38,13.06,13.06,0,0,0-.67,1.8,2.86,2.86,0,0,0,.38,2.44c.66.66,1,.62,1.28.64s1.16-.11,2.28-1.54l.62-.81.07-.11s.06-.08.09,0a2.07,2.07,0,0,0,.2.86,2.13,2.13,0,0,0,1.57,1.2s.55.17,1.58-1.31,1-1.47,1.33-1.95a21.2,21.2,0,0,1,1.31-1.73c.39-.46.66-.61.78-.61s.15.12.08.31a7.61,7.61,0,0,0-.64,2.27c0,.76,0,2,1.28,2,0,0,.52.12,1.14-.68L97.89,44l1.61-2.16.45-.71S100.05,41,100,40.89Z"/><polygon class="cls-1" points="50.43 56.53 49.97 56.53 49.97 60.26 51.65 60.26 51.65 60.21 51.65 59.8 50.43 59.8 50.43 56.53"/><path class="cls-1" d="M54.57,56.33l-1.51,3.93h.49l.2-.52h1.63l.2.52h.5l0-.07Zm0,1.26.66,1.75H53.9Z"/><path class="cls-1" d="M58.41,58a.83.83,0,0,1-.19-.48.59.59,0,0,1,.18-.45.67.67,0,0,1,.47-.17h.05v-.45h-.05a1.12,1.12,0,0,0-.8.3,1,1,0,0,0-.31.78,1.17,1.17,0,0,0,.2.66l.36.47a.82.82,0,0,1,.19.49.64.64,0,0,1-.19.48.65.65,0,0,1-.48.19l-.12,0-.07,0v.49h0l.15,0h0A1.08,1.08,0,0,0,59,59.18a1.22,1.22,0,0,0-.2-.66Z"/><polygon class="cls-1" points="65.91 56.53 64.9 59.2 63.88 56.53 63.39 56.53 64.9 60.46 66.41 56.53 66.33 56.53 65.91 56.53"/><polygon class="cls-1" points="68.25 60.26 69.92 60.26 69.92 60.21 69.92 59.8 68.7 59.8 68.7 58.63 69.92 58.63 69.92 58.16 68.7 58.16 68.7 57 69.92 57 69.92 56.53 68.25 56.53 68.25 60.26"/><path class="cls-1" d="M73.68,58.71v.46H75a1.45,1.45,0,0,1-.5.49,1.43,1.43,0,0,1-.75.21,1.47,1.47,0,1,1,1-2.5l0,0,.33-.33,0,0a1.94,1.94,0,1,0-1.37,3.3h0a1.94,1.94,0,0,0,1.9-1.57v-.06h-2Z"/><path class="cls-1" d="M78.48,56.33,77,60.26h.49l.2-.52H79.3l.2.52H80l0-.07Zm.66,3H77.82l.67-1.75Z"/><path class="cls-1" d="M82.32,58a.83.83,0,0,1-.19-.48.59.59,0,0,1,.18-.45.67.67,0,0,1,.47-.17h.05v-.45h-.05a1.12,1.12,0,0,0-.8.3,1,1,0,0,0-.31.78,1.17,1.17,0,0,0,.2.66l.36.47a.82.82,0,0,1,.19.49.64.64,0,0,1-.19.48.65.65,0,0,1-.48.19l-.12,0-.07,0v.49h0l.15,0h0a1.08,1.08,0,0,0,1.12-1.13,1.22,1.22,0,0,0-.2-.66Z"/></svg>
