<svg id="Layer_1" data-name="Layer 1" xmlns="http://www.w3.org/2000/svg" viewBox="0 0 100 100"><defs><style>.cls-1{fill:#FFFFFF;fill-rule:evenodd;}</style></defs><title>waldorfAstoria</title><path class="cls-1" d="M71.82,71.47h2q0,.23,0,.46h-1.5c0,.38,0,.75,0,1.13h1.47q0,.23,0,.47H72.32c0,.35,0,.69,0,1,.53,0,1.06,0,1.6,0,0,.16,0,.31,0,.47H71.82c0-1.19,0-2.38,0-3.57Zm-7.76,0h.42l1.89,2.61c0-.87,0-1.74,0-2.6h.5q0,1.78,0,3.57h-.4l-1.92-2.65c0,.89,0,1.77,0,2.66h-.49c0-1.19,0-2.38,0-3.56Zm-3.09,0h2q0,.23,0,.46h-1.5c0,.38,0,.76,0,1.13h1.47c0,.15,0,.31,0,.46H61.47q0,.52,0,1h1.6c0,.15,0,.31,0,.46H61q0-1.78,0-3.57Zm-3.29.44v2.68a2.27,2.27,0,0,0,1.11-.17,1.27,1.27,0,0,0,.69-1,1.32,1.32,0,0,0-.65-1.33,2.13,2.13,0,0,0-1.14-.18Zm-.5-.44a3.74,3.74,0,0,1,2,.29,1.8,1.8,0,0,1,.46,2.53,1.87,1.87,0,0,1-1.4.74c-.37,0-.73,0-1.1,0q0-1.78,0-3.57Zm-7.75,0h2v.46h-1.5c0,.38,0,.75,0,1.13H51.4q0,.23,0,.46H49.93q0,.52,0,1h1.59c0,.15,0,.31,0,.46H49.44q0-1.78,0-3.57Zm-2.88.46c0,.41,0,.81,0,1.22a2.58,2.58,0,0,0,.91-.07.6.6,0,0,0,.16-1c-.29-.27-.71-.16-1.07-.18Zm-.49-.46h1.2a1.08,1.08,0,0,1,.86.43,1,1,0,0,1,0,1.26,1.09,1.09,0,0,1-.77.39L48.63,75H48l-1.44-1.66q0,.83,0,1.66h-.49q0-1.78,0-3.57Zm29.06.1a1.57,1.57,0,0,1,1.6.13l-.26.41a1.12,1.12,0,0,0-.93-.19.39.39,0,0,0-.29.41.61.61,0,0,0,.36.48,4.5,4.5,0,0,1,1,.59,1,1,0,0,1,0,1.43,1.52,1.52,0,0,1-.6.27h-.37a2.07,2.07,0,0,1-.85-.37l.28-.38a1.15,1.15,0,0,0,1.12.18.47.47,0,0,0,.09-.76c-.37-.33-.9-.43-1.24-.8a1,1,0,0,1,.17-1.41Zm-6.84.37a1.81,1.81,0,0,1,2.6,0l-.37.32a1.3,1.3,0,0,0-1.91,0,1.5,1.5,0,0,0-.18,1.52,1.26,1.26,0,0,0,1.32.74,1.48,1.48,0,0,0,.85-.48l.36.31a1.94,1.94,0,0,1-1.22.68h-.37a2,2,0,0,1-1.05-.53,2,2,0,0,1,0-2.63ZM55.5,71.48H56c0,1.19,0,2.38,0,3.57h-.5c0-1.19,0-2.38,0-3.56Zm-3,.51a.89.89,0,0,1,.65-.54,1.64,1.64,0,0,1,1.29.27l-.26.4a1.05,1.05,0,0,0-1-.14.44.44,0,0,0,0,.71c.38.32.92.41,1.24.8a1,1,0,0,1-.11,1.35,1.5,1.5,0,0,1-.61.28h-.35a2,2,0,0,1-.87-.37l.28-.38a1.14,1.14,0,0,0,1.1.18.47.47,0,0,0,.12-.74c-.37-.36-.94-.44-1.27-.84a1,1,0,0,1-.15-1Z"/><path class="cls-1" d="M37.59,71.47h.49q0,1.55,0,3.1h1.35q0,.23,0,.47H37.6q0-1.78,0-3.57ZM34.48,75c0-1.19,0-2.38,0-3.57h2c0,.15,0,.31,0,.46H35c0,.38,0,.76,0,1.13h1.47c0,.15,0,.31,0,.47H35c0,.35,0,.7,0,1h1.59q0,.23,0,.47ZM23.68,71.47h.5c0,.52,0,1,0,1.57h1.7c0-.52,0-1,0-1.57h.48q0,1.78,0,3.57h-.49c0-.51,0-1,0-1.53-.57,0-1.14,0-1.7,0,0,.51,0,1,0,1.53h-.5q0-1.78,0-3.57Zm7.86,0h2q0,.23,0,.46h-.76V75h-.5q0-1.55,0-3.11c-.23,0-.47,0-.7,0a1.56,1.56,0,0,1,0-.46Zm-2.73.46a1.27,1.27,0,0,0-1,1.12,1.38,1.38,0,0,0,.7,1.4A1.31,1.31,0,0,0,30,74.32a1.44,1.44,0,0,0,.1-2.06,1.38,1.38,0,0,0-1.28-.33Zm-1.13.2a1.85,1.85,0,1,1,2.87,2.32,2,2,0,0,1-1.2.65H29a1.88,1.88,0,0,1-1.27-3Z"/><path class="cls-1" d="M41.68,74.09a.54.54,0,0,0,.48.58,1.23,1.23,0,0,0,.83-.25l-.83-1a1,1,0,0,0-.48.65Zm.22-1.8a1,1,0,0,0,.36.57,1.07,1.07,0,0,0,.38-.51.41.41,0,0,0-.27-.51.41.41,0,0,0-.48.45Zm-.18-.68a.91.91,0,0,1,1.15,0,.84.84,0,0,1,.16,1,1.91,1.91,0,0,1-.51.55l.81.93c.11-.12.21-.24.32-.36L44,74a4.86,4.86,0,0,1-.37.4l.52.59h-.63l-.25-.3a2.42,2.42,0,0,1-.87.37h-.33a1.25,1.25,0,0,1-.69-.41.91.91,0,0,1-.08-.95,1.67,1.67,0,0,1,.59-.65,1.64,1.64,0,0,1-.44-.7.81.81,0,0,1,.29-.8Z"/><path class="cls-1" d="M95,62.58h2.7c-.45-1.09-.9-2.18-1.35-3.28-.46,1.09-.9,2.18-1.35,3.27Zm1.35-5.79c1.23,2.71,2.45,5.43,3.68,8.14H98.76c-.21-.44-.41-.88-.61-1.32H94.5c-.2.44-.41.87-.6,1.32-.42,0-.84,0-1.26,0l3.68-8.14ZM58.62,59.3l-1.35,3.27H60q-.66-1.64-1.35-3.28Zm0-2.5c.23.42.4.87.61,1.3l3.08,6.82H61.06l-.61-1.32H56.81c-.22.44-.41.88-.61,1.33H54.95l3.67-8.12Zm31.8,8.12q0-4.1,0-8.19h1.13q0,4.09,0,8.19H90.42ZM84.48,57.8q0,1.41,0,2.81h1.41a1.5,1.5,0,0,0,1.27-.69,1.4,1.4,0,0,0,0-1.39,1.53,1.53,0,0,0-1.25-.72c-.49,0-1,0-1.47,0Zm-1.13-1.06h2.71a2.57,2.57,0,0,1,1.78.71,2.37,2.37,0,0,1-1.63,4l3,3.43H87.78l-3.29-3.81c0,1.27,0,2.54,0,3.81H83.36c0-2.73,0-5.46,0-8.19Zm-14.91,0H73V57.8H71.25q0,3.57,0,7.13H70.12q0-3.57,0-7.13H68.45V56.74Zm-4,0a2.89,2.89,0,0,1,2.51.6l-.52.91a1.92,1.92,0,0,0-1.28-.5,1,1,0,0,0-.89.39,1,1,0,0,0,0,1.3,6.18,6.18,0,0,0,1.09.83,8.11,8.11,0,0,1,1.42,1.17,2.11,2.11,0,0,1,.54,1.18,2.21,2.21,0,0,1-.6,1.74,2.26,2.26,0,0,1-1.49.6,2.89,2.89,0,0,1-2.24-.81l.54-.85a2.14,2.14,0,0,0,1.39.59,1.29,1.29,0,0,0,.92-.28,1.13,1.13,0,0,0,.31-1,1.5,1.5,0,0,0-.52-.83A9.68,9.68,0,0,0,64.53,61a3.73,3.73,0,0,1-1.18-1.12,2.29,2.29,0,0,1-.12-2.12,1.9,1.9,0,0,1,1.25-1Zm12.47,1a2.82,2.82,0,0,0-2.09,1.63,3.36,3.36,0,0,0,.37,3.38,3,3,0,0,0,2.83,1.15,2.94,2.94,0,0,0,2.25-1.68,3.36,3.36,0,0,0-.51-3.62A3.14,3.14,0,0,0,77,57.77Zm-.24-1.08a4.5,4.5,0,0,1,3.28.62,4,4,0,0,1,1.57,2.05,4.49,4.49,0,0,1-.21,3.39,4.17,4.17,0,0,1-2,2,4.32,4.32,0,0,1-3.75-.14A4,4,0,0,1,74,63a4.52,4.52,0,0,1-.29-3.78,4,4,0,0,1,3-2.55Z"/><path class="cls-1" d="M11.9,62.58H14.6L13.25,59.3c-.45,1.09-.91,2.18-1.34,3.27Zm.86-4.72c.17-.35.3-.71.49-1q1.83,4.06,3.67,8.12H15.67c-.2-.44-.4-.89-.61-1.33H11.42l-.61,1.32H9.56l3.19-7.07Zm35.52-1.12h4.95l-.54,1.06H49.4q0,1.34,0,2.68H52l-.54,1.05h-2c0,1.13,0,2.27,0,3.4H48.28c0-2.73,0-5.46,0-8.19ZM42.34,57.8q0,1.41,0,2.81h1.27a1.8,1.8,0,0,0,1-.26,1.4,1.4,0,0,0,.4-1.91,1.57,1.57,0,0,0-1.27-.63Zm-1.12,7.13c0-2.73,0-5.46,0-8.19h2.69a2.57,2.57,0,0,1,1.79.7,2.37,2.37,0,0,1-1.62,4.06l3,3.43c-.48,0-1,0-1.46,0-1.1-1.26-2.19-2.53-3.29-3.79,0,1.27,0,2.54,0,3.81ZM24.87,57.76q0,3.08,0,6.16A6.21,6.21,0,0,0,27,63.7a2.9,2.9,0,0,0,1.77-1.61,3.19,3.19,0,0,0-.2-2.89,3,3,0,0,0-1.88-1.34,7.86,7.86,0,0,0-1.84-.1Zm-1.12-1H26A4.42,4.42,0,0,1,29.11,58a4.19,4.19,0,0,1,.16,5.5,4.53,4.53,0,0,1-3.47,1.46h-2c0-2.73,0-5.46,0-8.19Zm-5.6,0h1.13q0,3.57,0,7.13h3.11c0,.35,0,.71,0,1.06H18.16q0-4.09,0-8.19ZM0,56.75H1.25c.74,1.87,1.47,3.74,2.21,5.6l1.32-2.87L3.64,56.75H4.89l.53,1.35.63-1.36H7.3L6,59.55c.37.94.73,1.87,1.11,2.8.87-1.87,1.73-3.74,2.61-5.6h1.23C9.67,59.49,8.4,62.23,7.12,65a1,1,0,0,1-.18-.35c-.52-1.24-1-2.48-1.57-3.72C4.74,62.26,4.11,63.63,3.47,65L0,56.76Zm34.8,1a2.82,2.82,0,0,0-1.74,1.07,3.33,3.33,0,0,0,.17,4.1,3,3,0,0,0,2.44,1,3,3,0,0,0,2.16-1.12,3.41,3.41,0,0,0,.61-2.64,2.94,2.94,0,0,0-1.12-1.88,3.23,3.23,0,0,0-2.51-.54Zm-.24-1.08a4.53,4.53,0,0,1,3.18.54,4,4,0,0,1,1.57,1.85,4.57,4.57,0,0,1,.22,2.8,4.18,4.18,0,0,1-1.84,2.55,4.27,4.27,0,0,1-5.17-.54A4.42,4.42,0,0,1,32,58.38a4,4,0,0,1,2.57-1.69Z"/><path class="cls-1" d="M48.84,36.22l2.56,5.62,2.5-5.29-.15-.33ZM48.29,35l.3.66H53.5L53.2,35c-1.64,0-3.28,0-4.92,0Zm2.1-6.15L47.93,34l.1.39h4.91l-2.29-5a4.05,4.05,0,0,0-.27-.55ZM32.87,24.89h3.06l7.61,16.82L46,36.5,40.63,24.89H43.7l3.82,8.41,4-8.41h0L52,26l3.39,7.31,4-8.44h.76l-4.35,9.25,5.35,11.47H58l-3.75-8.26-4,8.37L46.4,37.29l-3.73,7.89-.21.4q-4.8-10.34-9.58-20.69Z"/></svg>
