<svg id="Layer_1" data-name="Layer 1" xmlns="http://www.w3.org/2000/svg" viewBox="0 0 100 100"><defs><style>.cls-1{fill:#FFFFFF;}</style></defs><title>westin</title><path class="cls-1" d="M31.84,54.53H26a2.09,2.09,0,0,1,1,1.9,9,9,0,0,1-.67,3l-2.95,8.14-5.29-13H13.31c1.33,1,2,3.07,1,5.35l-3.48,8L5.55,54.53H0c.89.6,1.55,2,2.34,3.93L7.76,72.05a5.83,5.83,0,0,0,3.3,3.61L16.7,63l3.87,9.09a6.15,6.15,0,0,0,3.33,3.61l8-21.13ZM44.41,71.74a7.43,7.43,0,0,1-4.78,1.46,12.82,12.82,0,0,1-2.72-.25v-5.2h1.46c1.77,0,2.38.13,2.85.67v-3H36.9V61.09a16,16,0,0,1,2-.1c1.58,0,2.69.25,3.33,1V58.81H31.93c.82.44,1,1.11,1,3.87v8.84c0,2.76-.13,3.42-1,3.87H43.24l1.17-3.64Zm13.37-1.49c0-5.07-7.7-4.72-7.7-7.83,0-.92.82-1.71,2.25-1.71a5.84,5.84,0,0,1,4.25,1.9V59a15.2,15.2,0,0,0-4.09-.6c-3.17,0-6.4,1.9-6.4,5,0,5.7,7.7,4.88,7.7,8.08,0,1.14-1,2-2.76,2A8.78,8.78,0,0,1,45.2,71l1,4a12.45,12.45,0,0,0,4.37.86c4.06,0,7.16-2.22,7.16-5.55ZM72.5,58.81H59L58,61.94a5.62,5.62,0,0,1,3.61-1h1.62V71.51c0,2.76-.13,3.42-1,3.87h5.93c-.82-.44-1-1.11-1-3.87V61H68.7c1.49,0,2.5.22,3,1l.79-3.14Zm7.77,16.57c-.82-.44-1-1.11-1-3.87V62.67c0-2.76.13-3.42,1-3.87H74.34c.82.44,1,1.11,1,3.87v8.84c0,2.76-.13,3.42-1,3.87ZM99.94,58.81H94.52c1.08.57,1.2,1.78,1.2,3.61v6.72L88.78,60.9q-.84-1-1.62-2.09H82.38c1,.57,1.46,1.65,1.46,3.9v9.06c0,1.84-.13,3-1.2,3.61h5.42c-1.08-.57-1.2-1.78-1.2-3.61V64.92L94,73.41c1,1.2,2.31,1.71,4.72,2.09V62.42c0-1.84.16-3,1.2-3.61Zm-90.85,26v1.46c0,.36.06,1-.35,1.1v0h1.54v0c-.41-.15-.36-.74-.36-1.1v-3c0-.36,0-1,.36-1.1v0H8.73v0c.41.15.35.74.35,1.11v1H6.18v-1c0-.37,0-1,.35-1.11v0H5v0c.41.15.35.74.35,1.1v3c0,.36,0,1-.35,1.1v0H6.53v0c-.4-.15-.35-.74-.35-1.1V84.77Zm6.46-2.86a2.87,2.87,0,0,0-3,2.78,2.82,2.82,0,0,0,2.94,2.8,2.88,2.88,0,0,0,3-2.84A2.78,2.78,0,0,0,15.55,81.92Zm-.06.58a2.14,2.14,0,0,1,2,2.31,2,2,0,0,1-2,2.1,2.19,2.19,0,0,1-2.06-2.29,2,2,0,0,1,2-2.12Zm6.92.14h.73c.27,0,.59,0,.69.32h0l.26-1h0a.89.89,0,0,1-.37.06H20.51A1.17,1.17,0,0,1,20.2,82h0l-.28,1h0a1.4,1.4,0,0,1,1-.32h.71v3.6c0,.36,0,1-.35,1.1v0h1.6v0c-.43-.25-.42-.56-.42-1Zm5,2.14h.6c.25,0,.59,0,.72.23h0v-.85h0a.83.83,0,0,1-.35,0h-1v-1.5a4.49,4.49,0,0,1,.82-.06,1.13,1.13,0,0,1,1,.32h0V82h0a.82.82,0,0,1-.38,0H26.27v0c.41.15.36.74.36,1.11v3c0,.36,0,1-.36,1.1v0h3.36L30,86.3h0a2,2,0,0,1-1.49.48l-1-.1V84.77h0Zm5.91,1.94V83.19c0-.36-.06-1,.35-1.11v0H32.18v0c.41.15.36.74.36,1.11v3c0,.36,0,1-.36,1.1v0h3.32l.42-1.07h0a2,2,0,0,1-1.43.49l-1.1-.07Zm7.82-4.6a4.06,4.06,0,0,0-1.2-.18c-1,0-2,.39-2,1.4,0,1.71,2.77,1.48,2.77,2.74,0,.56-.69.84-1.15.84a2.79,2.79,0,0,1-1.77-.67l.23,1a4.19,4.19,0,0,0,1.44.24,2,2,0,0,0,2.16-1.67c0-1.49-2.77-1.48-2.77-2.58,0-.56.58-.73,1-.73a1.84,1.84,0,0,1,1.27.51V82.1h0Zm12,5.26v0a15.09,15.09,0,0,1-3.91-3.1A1.59,1.59,0,0,0,50,83a1.1,1.1,0,0,0-1.16-1.11A1.2,1.2,0,0,0,47.56,83a1.78,1.78,0,0,0,.65,1.14,2.24,2.24,0,0,0-1.11,1.74,1.66,1.66,0,0,0,1.82,1.54,1.78,1.78,0,0,0,1.68-.94,5,5,0,0,0,1,.71,1.63,1.63,0,0,0,.76.13h.88Zm-4.37-3.6c-.22-.19-.56-.52-.56-.84a.47.47,0,0,1,.53-.46.51.51,0,0,1,.56.49A1.1,1.1,0,0,1,48.82,83.76Zm1.45,2.48a1.55,1.55,0,0,1-1.19.69A1,1,0,0,1,48,85.88a1.53,1.53,0,0,1,.73-1.19Zm7.55-4.19v0c.41.15.35.74.35,1.11v3c0,.36.06,1-.35,1.1v0h1.54v0c-.41-.14-.36-.73-.36-1.1V82.62a4,4,0,0,1,.55-.06.93.93,0,0,1,1,.89c0,.76-.75,1.06-1.4,1.15l.74,1.14,1,1.22a1.06,1.06,0,0,0,.94.4h.74a5.66,5.66,0,0,1-1.31-1.13l-1.16-1.46a1.58,1.58,0,0,0,1.28-1.42c0-.73-.59-1.3-1.67-1.3H57.81Zm7.92,2.72h.6c.25,0,.59,0,.72.23h0v-.85h0a.83.83,0,0,1-.35,0h-1v-1.5a4.49,4.49,0,0,1,.82-.06,1.13,1.13,0,0,1,1,.32h0V82h0a.82.82,0,0,1-.38,0H64.55v0c.41.15.36.74.36,1.11v3c0,.36,0,1-.36,1.1v0h3.36l.36-1.06h0a2,2,0,0,1-1.49.48l-1-.1V84.77h0Zm8-2.67a4.06,4.06,0,0,0-1.2-.18c-1,0-2,.39-2,1.4,0,1.71,2.77,1.48,2.77,2.74,0,.56-.69.84-1.15.84a2.8,2.8,0,0,1-1.77-.67l.23,1a4.19,4.19,0,0,0,1.44.24,2,2,0,0,0,2.16-1.67c0-1.49-2.77-1.48-2.77-2.58,0-.56.58-.73,1-.73a1.84,1.84,0,0,1,1.27.51V82.1Zm5.66-.19a2.87,2.87,0,0,0-3,2.78,2.82,2.82,0,0,0,2.94,2.8,2.88,2.88,0,0,0,3-2.84,2.78,2.78,0,0,0-2.89-2.73Zm-.06.58a2.14,2.14,0,0,1,2,2.31,2,2,0,0,1-2,2.1,2.19,2.19,0,0,1-2.06-2.29,2,2,0,0,1,2-2.12Zm5.17-.44v0c.41.15.36.74.36,1.11v3c0,.36.06,1-.36,1.1v0H86v0c-.41-.14-.36-.73-.36-1.1V82.62a4,4,0,0,1,.55-.06.93.93,0,0,1,1,.89c0,.76-.75,1.06-1.4,1.15l.74,1.14,1,1.22a1.06,1.06,0,0,0,.94.4h.74A5.64,5.64,0,0,1,88,86.23l-1.16-1.46a1.57,1.57,0,0,0,1.28-1.42c0-.73-.59-1.3-1.67-1.3H84.5Zm8.39.58h.73c.27,0,.59,0,.69.32h0l.26-1h0a.89.89,0,0,1-.37.06H91a1.18,1.18,0,0,1-.31-.06h0l-.28,1h0a1.4,1.4,0,0,1,1-.32h.71v3.6c0,.36,0,1-.35,1.1v0h1.6v0c-.43-.25-.42-.56-.42-1V82.63Zm6.65-.53a4.06,4.06,0,0,0-1.2-.18c-1,0-2,.39-2,1.4,0,1.71,2.78,1.48,2.78,2.74,0,.56-.69.84-1.15.84a2.79,2.79,0,0,1-1.77-.67l.23,1a4.18,4.18,0,0,0,1.44.24A2,2,0,0,0,100,85.82c0-1.49-2.78-1.48-2.78-2.58,0-.56.58-.73,1-.73a1.84,1.84,0,0,1,1.27.51V82.1Z"/><path class="cls-1" d="M39.45,35.57a5.78,5.78,0,0,0-1.32,5A2.63,2.63,0,0,0,40,42.46c.16,0,.43.08.51-.12a6.76,6.76,0,0,1-.51-.91c-.79-1.81-.43-3.55,1-5.48a14.47,14.47,0,0,0,23-.38H62.78a13.47,13.47,0,0,1-20.88,0H39.45Zm11.34,0a5.19,5.19,0,0,1,1.34,4.05s.08,0,.12,0a5.4,5.4,0,0,0,.45-4Zm3.43,0a6.18,6.18,0,0,1,0,1.64h0A4.49,4.49,0,0,0,55,35.57Z"/><path class="cls-1" d="M41.9,35.57l-.31-.41a12.3,12.3,0,0,1,3.87-3.24c.32,0,.55.32.83.43a15.07,15.07,0,0,1,4.5,3.21H52.7a5.59,5.59,0,0,0-1.08-2.18,16.44,16.44,0,0,0-3.35-3.08c-.12-.08,0-.12.08-.16l1.34-.79.2.08a11.91,11.91,0,0,1,3.51,3.51,7.32,7.32,0,0,1,.82,2.62H55c0-.14.09-.28.13-.41a6.7,6.7,0,0,0-1.81-6.31l-1.11-1.11,0-.08,1.18-.91h.12a7.58,7.58,0,0,1,2.88,7.65v0l.32-.35a69.76,69.76,0,0,0,4.62-8A4.6,4.6,0,0,1,64,23.79l.12,0c-1.07-.51-1.89-1.66-3.27-1.42a5,5,0,0,0-2.52,1.58l-1.78,1.66h-.16a4.89,4.89,0,0,0-.91-.91l0-.08C56.94,23,58,20.64,57.1,18.43a5.18,5.18,0,0,0-5.05-3.08,5.1,5.1,0,0,0-4.42,3,4.28,4.28,0,0,0,.24,4,12.67,12.67,0,0,0,2.6,2.21c.79.59,1.66,1,2.41,1.62l0,.12a12,12,0,0,1-1.18.91l-.2,0c-1.85-1.5-4.14-2.29-5.52-4.38a5.1,5.1,0,0,1,0-4.54c-.12-.08-.16.08-.24.08a5.69,5.69,0,0,0-1.74,4.1,5.23,5.23,0,0,0,2.17,4.42c1,.67,2,1.38,3,2a.12.12,0,0,1,0,.08,10.75,10.75,0,0,1-1.42.91l-.2-.08c-2.05-1.42-4.66-2.56-5.13-5.29a10.73,10.73,0,0,1,0-2.25s-.08,0-.12,0a6.13,6.13,0,0,0-.35,6.19,9.12,9.12,0,0,0,2.84,2.92l0,.08a16.21,16.21,0,0,1-1.62,1h0a11.69,11.69,0,0,0-2.25,1.66,12.89,12.89,0,0,1-2.05-7.22,13.5,13.5,0,1,1,24,8.65H64A14.48,14.48,0,1,0,37.89,27a14.25,14.25,0,0,0,2.29,7.81,7.12,7.12,0,0,0-.73.77H41.9ZM55.8,18.19a6,6,0,0,1-.91,6l-.16,0c-1.42-1.11-3.08-1.86-4.54-3a2.82,2.82,0,0,1-1.07-2.88,2.92,2.92,0,0,1,1.78-2,4,4,0,0,1,4.18.95,3.3,3.3,0,0,1,.71,1Z"/></svg>
