<svg id="Layer_1" data-name="Layer 1" xmlns="http://www.w3.org/2000/svg" viewBox="0 0 100 100"><defs><style>.cls-1{fill:#FFFFFF;}</style></defs><title>wynn</title><polygon class="cls-1" points="69.17 39.82 69.56 39.82 69.56 42.52 70.85 42.52 70.85 42.84 69.17 42.84 69.17 39.82"/><path class="cls-1" d="M72.59,41.89l-.31.95h-.4l1-3h.47l1,3H74l-.32-.95Zm1-.31-.3-.87c-.06-.2-.11-.38-.15-.55h0c0,.18-.09.36-.15.55l-.3.87Z"/><path class="cls-1" d="M75.6,42.37a1.31,1.31,0,0,0,.69.2c.4,0,.63-.21.63-.52s-.16-.44-.57-.6-.8-.44-.8-.86a.87.87,0,0,1,1-.82,1.36,1.36,0,0,1,.66.15l-.11.32a1.14,1.14,0,0,0-.57-.14c-.41,0-.57.25-.57.45s.18.42.6.58.77.44.77.89-.34.87-1.05.87a1.55,1.55,0,0,1-.77-.2Z"/><path class="cls-1" d="M81.08,42.84l-1-3h.43L81,41.31c.13.41.24.78.32,1.13h0c.09-.35.21-.73.35-1.13l.51-1.49h.42l-1.08,3h-.43Z"/><polygon class="cls-1" points="85.28 41.42 84.12 41.42 84.12 42.52 85.42 42.52 85.42 42.84 83.72 42.84 83.72 39.82 85.36 39.82 85.36 40.15 84.12 40.15 84.12 41.1 85.28 41.1 85.28 41.42"/><path class="cls-1" d="M89,42.71a2.77,2.77,0,0,1-.93.17,1.42,1.42,0,0,1-1.55-1.52,1.51,1.51,0,0,1,1.64-1.56,1.89,1.89,0,0,1,.76.14l-.1.32a1.53,1.53,0,0,0-.67-.13A1.13,1.13,0,0,0,87,41.33a1.11,1.11,0,0,0,1.17,1.22,1.28,1.28,0,0,0,.52-.08v-.9H88v-.32h1v1.45Z"/><path class="cls-1" d="M90.93,41.89l-.31.95h-.4l1-3h.47l1,3h-.42L92,41.89Zm1-.31-.3-.87c-.06-.2-.11-.38-.15-.55h0c0,.18-.09.36-.15.55l-.29.87Z"/><path class="cls-1" d="M93.94,42.37a1.31,1.31,0,0,0,.69.2c.4,0,.63-.21.63-.52s-.16-.44-.57-.6-.8-.44-.8-.86a.87.87,0,0,1,1-.82,1.35,1.35,0,0,1,.66.15l-.11.32a1.13,1.13,0,0,0-.57-.14c-.41,0-.57.25-.57.45s.18.42.6.58.77.44.77.89-.34.87-1.05.87a1.57,1.57,0,0,1-.77-.2Z"/><path class="cls-1" d="M10.14,48.79c-.16,0,0,.36,0,.55s-.16,1-.17,1.19c-.18,1.8,1.25,1.53,2.42,1.89.69.09,3.67-.36,7.34-3.83a39.85,39.85,0,0,0,5.05-5.32c2.48-3.18,1.63-2.85,3.91-6l1.67-2.59a13.77,13.77,0,0,0,2.24-3.73c.33-1.21-.5-3.31-1.78-3.4,0-.1-.89.18-.82.65a5.8,5.8,0,0,1-.06,2.88c-.72,1.68-1.93,3.15-2.81,4.81A36.75,36.75,0,0,1,14.26,50.11c-.33.21-2,.8-2.29.19-.92-1.85,3.24-6,3.84-7.68,0-.24,0-.48.06-.72l-.25-.53a1.23,1.23,0,0,0-.92-.2l-.17,0-.18.06c-1.19.47-1.82,1.79-2.77,2.63A33.34,33.34,0,0,1,7.7,46.79c-.76.49-1.91,1.34-2.31,1.65s-1.75,1.26-2.66,1c-.45-.13-.5-.71-.4-1.11.35-1.45,1.92-2.75,3-3.75a19,19,0,0,0,2.9-3.81A3.82,3.82,0,0,0,9,38.9c-.06-2.76-3.54.8-3.94,1.68h.09l-.83.89C2.68,44.14-2.56,49.39,1.52,52c.61.37,1.5.51,3-.36,1.11-.65,4.6-3.11,5.65-2.87"/><path class="cls-1" d="M29.16,56.45c-.95,6.31-3,10.39-9.29,12.64a17,17,0,0,1-2.09.57c-3.22.25-5.59.32-8-1.31a2.79,2.79,0,0,1-.91-2.2C9.2,64,11,62.59,12.48,61.07a67.25,67.25,0,0,1,6.68-5.87L23.4,52c.48,0,1,.14,1.52.06a12.58,12.58,0,0,0,4.2-1.74c0-.11.66-.32.74-.06s.13.64.19,1a35,35,0,0,1-.88,5.19m39.25-4.13c.49-.08,7.46-2,10.67-1.65,1.46,0,5.77,1.34,7.15,1.42,1.15.13,5.3.22,5.39.22,1.37,0,2.82.1,3.71-1.16.19-.28,0-.49-.28-.58a11.68,11.68,0,0,0-4-.16c-5.57.43-7.08-.91-12.33-1.29-1.41-.1-10.15,1.58-10.42,1.63,0,0-1.12.22-2.28.54s-1.25-.8-1.3-1.16A23.46,23.46,0,0,1,65.28,47c.27-1.07-.27-1.83-.76-1.88a3.88,3.88,0,0,0-2,1c-.4.36-3.35,2.37-4.2,3.08s-1.11-.22-.89-.58a20.16,20.16,0,0,0,1-2.41,1.18,1.18,0,0,0-.71-1.47c-.45-.23-1.38.36-1.65.62s-1.7,1.25-2.63,1.92a44.86,44.86,0,0,1-4.56,2.59c-1.12.53-1.12-.8-1-1.43s.35-1.63.49-2.73c.18-1.43-1.21-1.11-1.74-.85s-4.87,3.3-5.45,3.75-.58-.32-.54-.58a6.87,6.87,0,0,1,.63-1.87,2,2,0,0,0,0-1.88c-.09-.49-1.16-.27-2,.09-.47.2-5.63,2.06-5.82,2.11l-.49,0s-.09-.05-.09-.16c0-.57-.26-1-.9-.9-1.34.18-2.07,1.4-3,2.19a24.07,24.07,0,0,1-4.36,3.06c-.48.26-.39-.86,0-1.27,2.16-2.58,1.34-1.7,2.36-2.8a12.64,12.64,0,0,0,2.21-3.28c.36-1.08-.18-2.84-1.33-3A.7.7,0,0,0,27,41a5,5,0,0,1-.36,2.33,18.53,18.53,0,0,1-2.78,4.24,6.5,6.5,0,0,0-1.69,3.47s-2.47,1.63-3.43,2.47L14.07,57.4C11.38,59.83,4.76,64.31,7,68.68a5.27,5.27,0,0,0,2.18,2.26,10,10,0,0,0,5.15,1.47,1.68,1.68,0,0,0,.41.06,13.75,13.75,0,0,0,4.24-.57c8.52-2.73,13.88-12,13.17-21.12a1.93,1.93,0,0,1,.63-1.46c.87-.78,4.28-2.93,5.34-3.12,1.3-.22.71,1.74.54,2.37a15,15,0,0,0-.81,2.28c-.09.76.69,1.1,1.25,1.29.76.27,1.88-.71,2.23-1s3.61-3.13,4.2-3.53.67.49.58.89a17.33,17.33,0,0,0-.4,2.14,1.8,1.8,0,0,0,.67,1.74c.58.36,1.16.09,1.83-.31S53,48.88,53.4,48.7a12.1,12.1,0,0,1,2.05-1.16c.67-.18.63.58.31,1.25-.11.25-.4,1.52-.53,2.15a1.72,1.72,0,0,0,.58,1.92c.59.48,2-.85,2.32-1.16s3.44-3.08,4-3.44.85.52.62,1.34a4,4,0,0,0-.15,2.24c.4.76,1.19,1.16,3.05,1,.32,0,2.73-.49,2.73-.49"/><path class="cls-1" d="M97.28,51.5a1.65,1.65,0,0,0,1.45,1.18,1,1,0,0,0,1-.45c.1-.37.3-.56.21-1s-.53-1-1.46-1.18c-.42-.08-1,.18-1,.45s-.37.57-.21,1"/></svg>
